<?xml version="1.0" standalone="no"?>
 <!DOCTYPE svg PUBLIC "-//W3C//DTD SVG 1.1//EN" 
 "http://www.w3.org/Graphics/SVG/1.1/DTD/svg11.dtd"> 
<svg
  xmlns:svg="http://www.w3.org/2000/svg"
  xmlns="http://www.w3.org/2000/svg"
  xmlns:xlink="http://www.w3.org/1999/xlink"
  version="1.1"
  width="279.4000mm" height="215.9000mm" viewBox="0.0000 0.0000 279.4000 215.9000">
<title>SVG Image created as L1IFStream-Edge_Cuts.svg date 2023/08/10 09:30:19 </title>
  <desc>Image generated by PCBNEW </desc>
<g style="fill:#000000; fill-opacity:1.0000;stroke:#000000; stroke-opacity:1.0000;
stroke-linecap:round; stroke-linejoin:round;"
 transform="translate(0 0) scale(1 1)">
</g>
<g style="fill:#000000; fill-opacity:0.0; 
stroke:#000000; stroke-width:0.0000; stroke-opacity:1; 
stroke-linecap:round; stroke-linejoin:round;">
</g>
<g style="fill:#000000; fill-opacity:0.0; 
stroke:#000000; stroke-width:0.0500; stroke-opacity:1; 
stroke-linecap:round; stroke-linejoin:round;">
<path d="M92.3628 72.7620 A2.5400 2.5400 0.0 0 0 89.8228 75.3020" />
<path d="M89.8228 121.0220 A2.5400 2.5400 0.0 0 0 92.3628 123.5620" />
<path d="M176.1828 72.7620
L92.3628 72.7620
" />
<path d="M178.7228 75.3020 A2.5400 2.5400 0.0 0 0 176.1828 72.7620" />
<path d="M178.7228 121.0220
L178.7228 75.3020
" />
<path d="M89.8228 75.3020
L89.8228 121.0220
" />
<path d="M92.3628 123.5620
L176.1828 123.5620
" />
<path d="M176.1828 123.5620 A2.5400 2.5400 0.0 0 0 178.7228 121.0220" />
</g>
<g style="fill:#000000; fill-opacity:0.0; 
stroke:#000000; stroke-width:0.1500; stroke-opacity:1; 
stroke-linecap:round; stroke-linejoin:round;">
<circle cx="179.0700" cy="69.8500" r="1.6667" /> 
<path d="M176.5700 69.8500
L181.5700 69.8500
" />
<path d="M179.0700 67.3500
L179.0700 72.3500
" />
<circle cx="88.9000" cy="69.8500" r="1.6667" /> 
<path d="M86.4000 69.8500
L91.4000 69.8500
" />
<path d="M88.9000 67.3500
L88.9000 72.3500
" />
<circle cx="88.9000" cy="125.7300" r="1.6667" /> 
<path d="M86.4000 125.7300
L91.4000 125.7300
" />
<path d="M88.9000 123.2300
L88.9000 128.2300
" />
<circle cx="179.0700" cy="125.7300" r="1.6667" /> 
<path d="M176.5700 125.7300
L181.5700 125.7300
" />
<path d="M179.0700 123.2300
L179.0700 128.2300
" />
<g >
</g>
<g >
</g>
<g >
</g>
<g >
</g>
<g >
</g>
<g >
</g>
<g >
</g>
<g >
</g>
<g >
</g>
<g >
</g>
<g >
</g>
<g >
</g>
<g >
</g>
<g >
</g>
<g >
</g>
<g >
</g>
<g >
</g>
<g >
</g>
<g >
</g>
<g >
</g>
<g >
</g>
<g >
</g>
<g >
</g>
<g >
</g>
<g >
</g>
<g >
</g>
<g >
</g>
<g >
</g>
<g >
</g>
<g >
</g>
<g >
</g>
<g >
</g>
<g >
</g>
<g >
</g>
<g >
</g>
<g >
</g>
<g >
</g>
<g >
</g>
<g >
</g>
<g >
</g>
<g >
</g>
<g >
</g>
<g >
</g>
<g >
</g>
<g >
</g>
<g >
</g>
<g >
</g>
<g >
</g>
<g >
</g>
<g >
</g>
<g >
</g>
<g >
</g>
<g >
</g>
<g >
</g>
<g >
</g>
<g >
</g>
<g >
</g>
<g >
</g>
<g >
</g>
<g >
</g>
<g >
</g>
<g >
</g>
<g >
</g>
<g >
</g>
<g >
</g>
<g >
</g>
<g >
</g>
<g >
</g>
<g >
</g>
<g >
</g>
<g >
</g>
<g >
</g>
<g >
</g>
<g >
</g>
<g >
</g>
<g >
</g>
<g >
</g>
<g >
</g>
<g >
</g>
<g >
</g>
<g >
</g>
<g >
</g>
<g >
</g>
<g >
</g>
<g >
</g>
<g >
</g>
<g >
</g>
<g >
</g>
<g >
</g>
<g >
</g>
<g >
</g>
<g >
</g>
<g >
</g>
<g >
</g>
<g >
</g>
<g >
</g>
<g >
</g>
<g >
</g>
<g >
</g>
<g >
</g>
<g >
</g>
<g >
</g>
<g >
</g>
<g >
</g>
<g >
</g>
<g >
</g>
<g >
</g>
<g >
</g>
<g >
</g>
<g >
</g>
<g >
</g>
</g> 
</svg>
