%TF.GenerationSoftware,KiCad,Pcbnew,7.0.6*%
%TF.CreationDate,2023-07-12T10:41:09-06:00*%
%TF.ProjectId,L1IFStream,4c314946-5374-4726-9561-6d2e6b696361,A*%
%TF.SameCoordinates,Original*%
%TF.FileFunction,Drillmap*%
%TF.FilePolarity,Positive*%
%FSLAX45Y45*%
G04 Gerber Fmt 4.5, Leading zero omitted, Abs format (unit mm)*
G04 Created by KiCad (PCBNEW 7.0.6) date 2023-07-12 10:41:09*
%MOMM*%
%LPD*%
G01*
G04 APERTURE LIST*
%ADD10C,0.050000*%
%ADD11C,0.200000*%
%ADD12C,0.030000*%
%ADD13C,0.030480*%
%ADD14C,0.040000*%
%ADD15C,0.084000*%
%ADD16C,0.090000*%
%ADD17C,0.150000*%
%ADD18C,0.170000*%
%ADD19C,0.220000*%
G04 APERTURE END LIST*
D10*
X9236280Y-7276200D02*
G75*
G03*
X8982280Y-7530200I0J-254000D01*
G01*
X8982280Y-12102200D02*
G75*
G03*
X9236280Y-12356200I254000J0D01*
G01*
X17618280Y-7276200D02*
X9236280Y-7276200D01*
X17872280Y-7530200D02*
G75*
G03*
X17618280Y-7276200I-254000J0D01*
G01*
X17872280Y-12102200D02*
X17872280Y-7530200D01*
X8982280Y-7530200D02*
X8982280Y-12102200D01*
X9236280Y-12356200D02*
X17618280Y-12356200D01*
X17618280Y-12356200D02*
G75*
G03*
X17872280Y-12102200I0J254000D01*
G01*
D11*
D12*
X12588480Y-8425420D02*
X12618480Y-8455420D01*
X12618480Y-8425420D02*
X12588480Y-8455420D01*
X16779480Y-9052800D02*
X16809480Y-9082800D01*
X16809480Y-9052800D02*
X16779480Y-9082800D01*
D13*
X9895840Y-11188700D02*
G75*
G03*
X9895840Y-11188700I-15240J0D01*
G01*
X10652760Y-10911840D02*
G75*
G03*
X10652760Y-10911840I-15240J0D01*
G01*
X10739120Y-10899140D02*
G75*
G03*
X10739120Y-10899140I-15240J0D01*
G01*
X10754360Y-11313160D02*
G75*
G03*
X10754360Y-11313160I-15240J0D01*
G01*
X10754360Y-11379200D02*
G75*
G03*
X10754360Y-11379200I-15240J0D01*
G01*
X10754360Y-11572240D02*
G75*
G03*
X10754360Y-11572240I-15240J0D01*
G01*
X10754360Y-11638280D02*
G75*
G03*
X10754360Y-11638280I-15240J0D01*
G01*
X10756900Y-10960100D02*
G75*
G03*
X10756900Y-10960100I-15240J0D01*
G01*
X10756900Y-11767820D02*
G75*
G03*
X10756900Y-11767820I-15240J0D01*
G01*
X10820400Y-10995660D02*
G75*
G03*
X10820400Y-10995660I-15240J0D01*
G01*
X10937240Y-10208260D02*
G75*
G03*
X10937240Y-10208260I-15240J0D01*
G01*
X11203782Y-10448560D02*
G75*
G03*
X11203782Y-10448560I-15240J0D01*
G01*
X11263311Y-10444497D02*
G75*
G03*
X11263311Y-10444497I-15240J0D01*
G01*
X11313160Y-10474960D02*
G75*
G03*
X11313160Y-10474960I-15240J0D01*
G01*
X11330940Y-11181080D02*
G75*
G03*
X11330940Y-11181080I-15240J0D01*
G01*
X11336020Y-11074400D02*
G75*
G03*
X11336020Y-11074400I-15240J0D01*
G01*
X11417300Y-10472420D02*
G75*
G03*
X11417300Y-10472420I-15240J0D01*
G01*
X11480504Y-10470966D02*
G75*
G03*
X11480504Y-10470966I-15240J0D01*
G01*
X11545458Y-10471262D02*
G75*
G03*
X11545458Y-10471262I-15240J0D01*
G01*
X11607608Y-10468755D02*
G75*
G03*
X11607608Y-10468755I-15240J0D01*
G01*
X11709400Y-11026139D02*
G75*
G03*
X11709400Y-11026139I-15240J0D01*
G01*
X11714480Y-10454640D02*
G75*
G03*
X11714480Y-10454640I-15240J0D01*
G01*
X11770858Y-11026139D02*
G75*
G03*
X11770858Y-11026139I-15240J0D01*
G01*
X11813540Y-10452100D02*
G75*
G03*
X11813540Y-10452100I-15240J0D01*
G01*
X11829279Y-11026139D02*
G75*
G03*
X11829279Y-11026139I-15240J0D01*
G01*
X11887200Y-11018520D02*
G75*
G03*
X11887200Y-11018520I-15240J0D01*
G01*
X11915140Y-11313160D02*
G75*
G03*
X11915140Y-11313160I-15240J0D01*
G01*
X11917680Y-11379200D02*
G75*
G03*
X11917680Y-11379200I-15240J0D01*
G01*
X11920220Y-11572240D02*
G75*
G03*
X11920220Y-11572240I-15240J0D01*
G01*
X11920220Y-11638280D02*
G75*
G03*
X11920220Y-11638280I-15240J0D01*
G01*
X12134165Y-10707783D02*
G75*
G03*
X12134165Y-10707783I-15240J0D01*
G01*
X12204740Y-10713700D02*
G75*
G03*
X12204740Y-10713700I-15240J0D01*
G01*
X12209780Y-10906760D02*
G75*
G03*
X12209780Y-10906760I-15240J0D01*
G01*
X12260580Y-11765280D02*
G75*
G03*
X12260580Y-11765280I-15240J0D01*
G01*
X12319040Y-9931400D02*
G75*
G03*
X12319040Y-9931400I-15240J0D01*
G01*
X12387140Y-9513670D02*
G75*
G03*
X12387140Y-9513670I-15240J0D01*
G01*
X12418060Y-10370820D02*
G75*
G03*
X12418060Y-10370820I-15240J0D01*
G01*
X12883440Y-9941320D02*
G75*
G03*
X12883440Y-9941320I-15240J0D01*
G01*
X13075920Y-10276840D02*
G75*
G03*
X13075920Y-10276840I-15240J0D01*
G01*
X13207740Y-10131100D02*
G75*
G03*
X13207740Y-10131100I-15240J0D01*
G01*
X13360400Y-8440420D02*
G75*
G03*
X13360400Y-8440420I-15240J0D01*
G01*
X13360400Y-8719820D02*
G75*
G03*
X13360400Y-8719820I-15240J0D01*
G01*
X13362940Y-8895080D02*
G75*
G03*
X13362940Y-8895080I-15240J0D01*
G01*
X13362940Y-9489440D02*
G75*
G03*
X13362940Y-9489440I-15240J0D01*
G01*
X13552640Y-10173200D02*
G75*
G03*
X13552640Y-10173200I-15240J0D01*
G01*
X13556740Y-10019300D02*
G75*
G03*
X13556740Y-10019300I-15240J0D01*
G01*
X13557240Y-9872220D02*
G75*
G03*
X13557240Y-9872220I-15240J0D01*
G01*
X13833340Y-8873890D02*
G75*
G03*
X13833340Y-8873890I-15240J0D01*
G01*
X14048740Y-9270240D02*
G75*
G03*
X14048740Y-9270240I-15240J0D01*
G01*
X14282240Y-9523460D02*
G75*
G03*
X14282240Y-9523460I-15240J0D01*
G01*
X14554640Y-10206200D02*
G75*
G03*
X14554640Y-10206200I-15240J0D01*
G01*
X14585040Y-9372710D02*
G75*
G03*
X14585040Y-9372710I-15240J0D01*
G01*
X14753640Y-10581600D02*
G75*
G03*
X14753640Y-10581600I-15240J0D01*
G01*
X14892140Y-9562810D02*
G75*
G03*
X14892140Y-9562810I-15240J0D01*
G01*
X14934540Y-8974190D02*
G75*
G03*
X14934540Y-8974190I-15240J0D01*
G01*
X15023040Y-9247040D02*
G75*
G03*
X15023040Y-9247040I-15240J0D01*
G01*
X15528240Y-8877780D02*
G75*
G03*
X15528240Y-8877780I-15240J0D01*
G01*
X15751640Y-9291740D02*
G75*
G03*
X15751640Y-9291740I-15240J0D01*
G01*
X15811500Y-11282680D02*
G75*
G03*
X15811500Y-11282680I-15240J0D01*
G01*
X15874540Y-9595240D02*
G75*
G03*
X15874540Y-9595240I-15240J0D01*
G01*
X15913100Y-11282680D02*
G75*
G03*
X15913100Y-11282680I-15240J0D01*
G01*
D14*
X9558020Y-10454960D02*
X9558020Y-10494960D01*
X9538020Y-10474960D02*
X9578020Y-10474960D01*
X9685020Y-10835960D02*
X9685020Y-10875960D01*
X9665020Y-10855960D02*
X9705020Y-10855960D01*
X9759530Y-9250150D02*
X9759530Y-9290150D01*
X9739530Y-9270150D02*
X9779530Y-9270150D01*
X9759530Y-9443190D02*
X9759530Y-9483190D01*
X9739530Y-9463190D02*
X9779530Y-9463190D01*
X9911080Y-10216200D02*
X9911080Y-10256200D01*
X9891080Y-10236200D02*
X9931080Y-10236200D01*
X10050800Y-9809800D02*
X10050800Y-9849800D01*
X10030800Y-9829800D02*
X10070800Y-9829800D01*
X10165080Y-11864660D02*
X10165080Y-11904660D01*
X10145080Y-11884660D02*
X10185080Y-11884660D01*
X10355600Y-9532940D02*
X10355600Y-9572940D01*
X10335600Y-9552940D02*
X10375600Y-9552940D01*
X10408700Y-8885000D02*
X10408700Y-8925000D01*
X10388700Y-8905000D02*
X10428700Y-8905000D01*
X10482600Y-9555800D02*
X10482600Y-9595800D01*
X10462600Y-9575800D02*
X10502600Y-9575800D01*
X10558800Y-9898700D02*
X10558800Y-9938700D01*
X10538800Y-9918700D02*
X10578800Y-9918700D01*
X10746740Y-11163620D02*
X10746740Y-11203620D01*
X10726740Y-11183620D02*
X10766740Y-11183620D01*
X10838200Y-9898700D02*
X10838200Y-9938700D01*
X10818200Y-9918700D02*
X10858200Y-9918700D01*
X11003300Y-7650800D02*
X11003300Y-7690800D01*
X10983300Y-7670800D02*
X11023300Y-7670800D01*
X11142980Y-9406959D02*
X11142980Y-9446959D01*
X11122980Y-9426959D02*
X11162980Y-9426959D01*
X11142980Y-9548180D02*
X11142980Y-9588180D01*
X11122980Y-9568180D02*
X11162980Y-9568180D01*
X11156200Y-9849420D02*
X11156200Y-9889420D01*
X11136200Y-9869420D02*
X11176200Y-9869420D01*
X11165800Y-9946960D02*
X11165800Y-9986960D01*
X11145800Y-9966960D02*
X11185800Y-9966960D01*
X11193800Y-8692200D02*
X11193800Y-8732200D01*
X11173800Y-8712200D02*
X11213800Y-8712200D01*
X11193800Y-8984300D02*
X11193800Y-9024300D01*
X11173800Y-9004300D02*
X11213800Y-9004300D01*
X11282700Y-8565200D02*
X11282700Y-8605200D01*
X11262700Y-8585200D02*
X11302700Y-8585200D01*
X11344500Y-10723300D02*
X11344500Y-10763300D01*
X11324500Y-10743300D02*
X11364500Y-10743300D01*
X11447800Y-8019100D02*
X11447800Y-8059100D01*
X11427800Y-8039100D02*
X11467800Y-8039100D01*
X11590020Y-11869740D02*
X11590020Y-11909740D01*
X11570020Y-11889740D02*
X11610020Y-11889740D01*
X11598500Y-8729400D02*
X11598500Y-8769400D01*
X11578500Y-8749400D02*
X11618500Y-8749400D01*
X11600200Y-10132400D02*
X11600200Y-10172400D01*
X11580200Y-10152400D02*
X11620200Y-10152400D01*
X11847700Y-9315340D02*
X11847700Y-9355340D01*
X11827700Y-9335340D02*
X11867700Y-9335340D01*
X11903300Y-10723300D02*
X11903300Y-10763300D01*
X11883300Y-10743300D02*
X11923300Y-10743300D01*
X11943100Y-8997000D02*
X11943100Y-9037000D01*
X11923100Y-9017000D02*
X11963100Y-9017000D01*
X11983700Y-9997800D02*
X11983700Y-10037800D01*
X11963700Y-10017800D02*
X12003700Y-10017800D01*
X11986300Y-9395780D02*
X11986300Y-9435780D01*
X11966300Y-9415780D02*
X12006300Y-9415780D01*
X12174220Y-11163620D02*
X12174220Y-11203620D01*
X12154220Y-11183620D02*
X12194220Y-11183620D01*
X12303800Y-10180600D02*
X12303800Y-10220600D01*
X12283800Y-10200600D02*
X12323800Y-10200600D01*
X12374900Y-8946200D02*
X12374900Y-8986200D01*
X12354900Y-8966200D02*
X12394900Y-8966200D01*
X12385040Y-10604820D02*
X12385040Y-10644820D01*
X12365040Y-10624820D02*
X12405040Y-10624820D01*
X12542520Y-10734360D02*
X12542520Y-10774360D01*
X12522520Y-10754360D02*
X12562520Y-10754360D01*
X12563700Y-9647200D02*
X12563700Y-9687200D01*
X12543700Y-9667200D02*
X12583700Y-9667200D01*
X13078460Y-10726740D02*
X13078460Y-10766740D01*
X13058460Y-10746740D02*
X13098460Y-10746740D01*
X13195300Y-10185720D02*
X13195300Y-10225720D01*
X13175300Y-10205720D02*
X13215300Y-10205720D01*
X13439140Y-10665780D02*
X13439140Y-10705780D01*
X13419140Y-10685780D02*
X13459140Y-10685780D01*
X14312900Y-8501700D02*
X14312900Y-8541700D01*
X14292900Y-8521700D02*
X14332900Y-8521700D01*
X14312900Y-8679500D02*
X14312900Y-8719500D01*
X14292900Y-8699500D02*
X14332900Y-8699500D01*
X14312900Y-9212900D02*
X14312900Y-9252900D01*
X14292900Y-9232900D02*
X14332900Y-9232900D01*
X14312900Y-9797100D02*
X14312900Y-9837100D01*
X14292900Y-9817100D02*
X14332900Y-9817100D01*
X14312900Y-10940100D02*
X14312900Y-10980100D01*
X14292900Y-10960100D02*
X14332900Y-10960100D01*
X14312900Y-11092500D02*
X14312900Y-11132500D01*
X14292900Y-11112500D02*
X14332900Y-11112500D01*
X14325600Y-10381300D02*
X14325600Y-10421300D01*
X14305600Y-10401300D02*
X14345600Y-10401300D01*
X14452600Y-9720900D02*
X14452600Y-9760900D01*
X14432600Y-9740900D02*
X14472600Y-9740900D01*
X14490700Y-8501700D02*
X14490700Y-8541700D01*
X14470700Y-8521700D02*
X14510700Y-8521700D01*
X14490700Y-11092500D02*
X14490700Y-11132500D01*
X14470700Y-11112500D02*
X14510700Y-11112500D01*
X14573200Y-9908860D02*
X14573200Y-9948860D01*
X14553200Y-9928860D02*
X14593200Y-9928860D01*
X14770100Y-9746300D02*
X14770100Y-9786300D01*
X14750100Y-9766300D02*
X14790100Y-9766300D01*
X14808200Y-9644700D02*
X14808200Y-9684700D01*
X14788200Y-9664700D02*
X14828200Y-9664700D01*
X14810700Y-8806500D02*
X14810700Y-8846500D01*
X14790700Y-8826500D02*
X14830700Y-8826500D01*
X14967200Y-9481890D02*
X14967200Y-9521890D01*
X14947200Y-9501890D02*
X14987200Y-9501890D01*
X15036800Y-8501700D02*
X15036800Y-8541700D01*
X15016800Y-8521700D02*
X15056800Y-8521700D01*
X15036800Y-11105200D02*
X15036800Y-11145200D01*
X15016800Y-11125200D02*
X15056800Y-11125200D01*
X15270480Y-10808020D02*
X15270480Y-10848020D01*
X15250480Y-10828020D02*
X15290480Y-10828020D01*
X15303500Y-10475300D02*
X15303500Y-10515300D01*
X15283500Y-10495300D02*
X15323500Y-10495300D01*
X15369500Y-9492300D02*
X15369500Y-9532300D01*
X15349500Y-9512300D02*
X15389500Y-9512300D01*
X15405100Y-9388160D02*
X15405100Y-9428160D01*
X15385100Y-9408160D02*
X15425100Y-9408160D01*
X15410200Y-9063040D02*
X15410200Y-9103040D01*
X15390200Y-9083040D02*
X15430200Y-9083040D01*
X15422900Y-9858060D02*
X15422900Y-9898060D01*
X15402900Y-9878060D02*
X15442900Y-9878060D01*
X15521900Y-10068900D02*
X15521900Y-10108900D01*
X15501900Y-10088900D02*
X15541900Y-10088900D01*
X15547300Y-9751380D02*
X15547300Y-9791380D01*
X15527300Y-9771380D02*
X15567300Y-9771380D01*
X15555000Y-9474520D02*
X15555000Y-9514520D01*
X15535000Y-9494520D02*
X15575000Y-9494520D01*
X15570200Y-10208600D02*
X15570200Y-10248600D01*
X15550200Y-10228600D02*
X15590200Y-10228600D01*
X15572700Y-10282200D02*
X15572700Y-10322200D01*
X15552700Y-10302200D02*
X15592700Y-10302200D01*
X15608300Y-8501700D02*
X15608300Y-8541700D01*
X15588300Y-8521700D02*
X15628300Y-8521700D01*
X15621000Y-10071400D02*
X15621000Y-10111400D01*
X15601000Y-10091400D02*
X15641000Y-10091400D01*
X15621000Y-11092500D02*
X15621000Y-11132500D01*
X15601000Y-11112500D02*
X15641000Y-11112500D01*
X15648900Y-9474520D02*
X15648900Y-9514520D01*
X15628900Y-9494520D02*
X15668900Y-9494520D01*
X15758200Y-10051100D02*
X15758200Y-10091100D01*
X15738200Y-10071100D02*
X15778200Y-10071100D01*
X15763240Y-10866440D02*
X15763240Y-10906440D01*
X15743240Y-10886440D02*
X15783240Y-10886440D01*
X15816600Y-9037640D02*
X15816600Y-9077640D01*
X15796600Y-9057640D02*
X15836600Y-9057640D01*
X15918200Y-9040180D02*
X15918200Y-9080180D01*
X15898200Y-9060180D02*
X15938200Y-9060180D01*
X15918200Y-9350060D02*
X15918200Y-9390060D01*
X15898200Y-9370060D02*
X15938200Y-9370060D01*
X15979800Y-9677200D02*
X15979800Y-9717200D01*
X15959800Y-9697200D02*
X15999800Y-9697200D01*
X15979800Y-9787200D02*
X15979800Y-9827200D01*
X15959800Y-9807200D02*
X15999800Y-9807200D01*
X15979800Y-9897200D02*
X15979800Y-9937200D01*
X15959800Y-9917200D02*
X15999800Y-9917200D01*
X16050300Y-9357680D02*
X16050300Y-9397680D01*
X16030300Y-9377680D02*
X16070300Y-9377680D01*
X16099800Y-9677200D02*
X16099800Y-9717200D01*
X16079800Y-9697200D02*
X16119800Y-9697200D01*
X16099800Y-9787200D02*
X16099800Y-9827200D01*
X16079800Y-9807200D02*
X16119800Y-9807200D01*
X16099800Y-9897200D02*
X16099800Y-9937200D01*
X16079800Y-9917200D02*
X16119800Y-9917200D01*
X16121380Y-9037640D02*
X16121380Y-9077640D01*
X16101380Y-9057640D02*
X16141380Y-9057640D01*
X16146800Y-10261900D02*
X16146800Y-10301900D01*
X16126800Y-10281900D02*
X16166800Y-10281900D01*
X16172180Y-9291640D02*
X16172180Y-9331640D01*
X16152180Y-9311640D02*
X16192180Y-9311640D01*
X16187400Y-9365300D02*
X16187400Y-9405300D01*
X16167400Y-9385300D02*
X16207400Y-9385300D01*
X16200120Y-9040180D02*
X16200120Y-9080180D01*
X16180120Y-9060180D02*
X16220120Y-9060180D01*
X16205200Y-8501700D02*
X16205200Y-8541700D01*
X16185200Y-8521700D02*
X16225200Y-8521700D01*
X16205200Y-11105200D02*
X16205200Y-11145200D01*
X16185200Y-11125200D02*
X16225200Y-11125200D01*
X16219800Y-9677200D02*
X16219800Y-9717200D01*
X16199800Y-9697200D02*
X16239800Y-9697200D01*
X16219800Y-9787200D02*
X16219800Y-9827200D01*
X16199800Y-9807200D02*
X16239800Y-9807200D01*
X16219800Y-9897200D02*
X16219800Y-9937200D01*
X16199800Y-9917200D02*
X16239800Y-9917200D01*
X16337280Y-10261900D02*
X16337280Y-10301900D01*
X16317280Y-10281900D02*
X16357280Y-10281900D01*
X16367800Y-10122200D02*
X16367800Y-10162200D01*
X16347800Y-10142200D02*
X16387800Y-10142200D01*
X16464300Y-9857400D02*
X16464300Y-9897400D01*
X16444300Y-9877400D02*
X16484300Y-9877400D01*
X16586200Y-9737000D02*
X16586200Y-9777000D01*
X16566200Y-9757000D02*
X16606200Y-9757000D01*
X16588740Y-9405940D02*
X16588740Y-9445940D01*
X16568740Y-9425940D02*
X16608740Y-9425940D01*
X16591300Y-10363500D02*
X16591300Y-10403500D01*
X16571300Y-10383500D02*
X16611300Y-10383500D01*
X16593800Y-10259400D02*
X16593800Y-10299400D01*
X16573800Y-10279400D02*
X16613800Y-10279400D01*
X16647200Y-10035900D02*
X16647200Y-10075900D01*
X16627200Y-10055900D02*
X16667200Y-10055900D01*
X16647200Y-10134900D02*
X16647200Y-10174900D01*
X16627200Y-10154900D02*
X16667200Y-10154900D01*
X16682700Y-9212900D02*
X16682700Y-9252900D01*
X16662700Y-9232900D02*
X16702700Y-9232900D01*
X16738600Y-8501700D02*
X16738600Y-8541700D01*
X16718600Y-8521700D02*
X16758600Y-8521700D01*
X16738600Y-11092500D02*
X16738600Y-11132500D01*
X16718600Y-11112500D02*
X16758600Y-11112500D01*
X16781800Y-9210360D02*
X16781800Y-9250360D01*
X16761800Y-9230360D02*
X16801800Y-9230360D01*
X16916400Y-8501700D02*
X16916400Y-8541700D01*
X16896400Y-8521700D02*
X16936400Y-8521700D01*
X16916400Y-8666800D02*
X16916400Y-8706800D01*
X16896400Y-8686800D02*
X16936400Y-8686800D01*
X16916400Y-9212900D02*
X16916400Y-9252900D01*
X16896400Y-9232900D02*
X16936400Y-9232900D01*
X16916400Y-9809800D02*
X16916400Y-9849800D01*
X16896400Y-9829800D02*
X16936400Y-9829800D01*
X16916400Y-10381300D02*
X16916400Y-10421300D01*
X16896400Y-10401300D02*
X16936400Y-10401300D01*
X16916400Y-10914700D02*
X16916400Y-10954700D01*
X16896400Y-10934700D02*
X16936400Y-10934700D01*
X16916400Y-11092500D02*
X16916400Y-11132500D01*
X16896400Y-11112500D02*
X16936400Y-11112500D01*
X9120142Y-7570642D02*
X9120142Y-7542358D01*
X9091858Y-7542358D01*
X9091858Y-7570642D01*
X9120142Y-7570642D01*
X9120142Y-12079142D02*
X9120142Y-12050858D01*
X9091858Y-12050858D01*
X9091858Y-12079142D01*
X9120142Y-12079142D01*
X9168470Y-7453970D02*
X9168470Y-7425685D01*
X9140185Y-7425685D01*
X9140185Y-7453970D01*
X9168470Y-7453970D01*
X9168470Y-7687315D02*
X9168470Y-7659030D01*
X9140185Y-7659030D01*
X9140185Y-7687315D01*
X9168470Y-7687315D01*
X9168470Y-11962470D02*
X9168470Y-11934185D01*
X9140185Y-11934185D01*
X9140185Y-11962470D01*
X9168470Y-11962470D01*
X9168470Y-12195815D02*
X9168470Y-12167530D01*
X9140185Y-12167530D01*
X9140185Y-12195815D01*
X9168470Y-12195815D01*
X9285142Y-7405642D02*
X9285142Y-7377358D01*
X9256858Y-7377358D01*
X9256858Y-7405642D01*
X9285142Y-7405642D01*
X9285142Y-7735642D02*
X9285142Y-7707358D01*
X9256858Y-7707358D01*
X9256858Y-7735642D01*
X9285142Y-7735642D01*
X9285142Y-11914142D02*
X9285142Y-11885858D01*
X9256858Y-11885858D01*
X9256858Y-11914142D01*
X9285142Y-11914142D01*
X9285142Y-12244142D02*
X9285142Y-12215858D01*
X9256858Y-12215858D01*
X9256858Y-12244142D01*
X9285142Y-12244142D01*
X9401815Y-7453970D02*
X9401815Y-7425685D01*
X9373530Y-7425685D01*
X9373530Y-7453970D01*
X9401815Y-7453970D01*
X9401815Y-7687315D02*
X9401815Y-7659030D01*
X9373530Y-7659030D01*
X9373530Y-7687315D01*
X9401815Y-7687315D01*
X9401815Y-11962470D02*
X9401815Y-11934185D01*
X9373530Y-11934185D01*
X9373530Y-11962470D01*
X9401815Y-11962470D01*
X9401815Y-12195815D02*
X9401815Y-12167530D01*
X9373530Y-12167530D01*
X9373530Y-12195815D01*
X9401815Y-12195815D01*
X9450142Y-7570642D02*
X9450142Y-7542358D01*
X9421858Y-7542358D01*
X9421858Y-7570642D01*
X9450142Y-7570642D01*
X9450142Y-12079142D02*
X9450142Y-12050858D01*
X9421858Y-12050858D01*
X9421858Y-12079142D01*
X9450142Y-12079142D01*
X17438642Y-7583342D02*
X17438642Y-7555058D01*
X17410358Y-7555058D01*
X17410358Y-7583342D01*
X17438642Y-7583342D01*
X17451342Y-12079142D02*
X17451342Y-12050858D01*
X17423058Y-12050858D01*
X17423058Y-12079142D01*
X17451342Y-12079142D01*
X17486970Y-7466670D02*
X17486970Y-7438385D01*
X17458685Y-7438385D01*
X17458685Y-7466670D01*
X17486970Y-7466670D01*
X17486970Y-7700015D02*
X17486970Y-7671730D01*
X17458685Y-7671730D01*
X17458685Y-7700015D01*
X17486970Y-7700015D01*
X17499670Y-11962470D02*
X17499670Y-11934185D01*
X17471385Y-11934185D01*
X17471385Y-11962470D01*
X17499670Y-11962470D01*
X17499670Y-12195815D02*
X17499670Y-12167530D01*
X17471385Y-12167530D01*
X17471385Y-12195815D01*
X17499670Y-12195815D01*
X17603642Y-7418342D02*
X17603642Y-7390058D01*
X17575358Y-7390058D01*
X17575358Y-7418342D01*
X17603642Y-7418342D01*
X17603642Y-7748342D02*
X17603642Y-7720058D01*
X17575358Y-7720058D01*
X17575358Y-7748342D01*
X17603642Y-7748342D01*
X17616342Y-11914142D02*
X17616342Y-11885858D01*
X17588058Y-11885858D01*
X17588058Y-11914142D01*
X17616342Y-11914142D01*
X17616342Y-12244142D02*
X17616342Y-12215858D01*
X17588058Y-12215858D01*
X17588058Y-12244142D01*
X17616342Y-12244142D01*
X17720315Y-7466670D02*
X17720315Y-7438385D01*
X17692030Y-7438385D01*
X17692030Y-7466670D01*
X17720315Y-7466670D01*
X17720315Y-7700015D02*
X17720315Y-7671730D01*
X17692030Y-7671730D01*
X17692030Y-7700015D01*
X17720315Y-7700015D01*
X17733015Y-11962470D02*
X17733015Y-11934185D01*
X17704730Y-11934185D01*
X17704730Y-11962470D01*
X17733015Y-11962470D01*
X17733015Y-12195815D02*
X17733015Y-12167530D01*
X17704730Y-12167530D01*
X17704730Y-12195815D01*
X17733015Y-12195815D01*
X17768642Y-7583342D02*
X17768642Y-7555058D01*
X17740358Y-7555058D01*
X17740358Y-7583342D01*
X17768642Y-7583342D01*
X17781342Y-12079142D02*
X17781342Y-12050858D01*
X17753058Y-12050858D01*
X17753058Y-12079142D01*
X17781342Y-12079142D01*
D15*
X17344400Y-8844370D02*
X17386400Y-8802370D01*
X17344400Y-8760370D01*
X17302400Y-8802370D01*
X17344400Y-8844370D01*
X17344400Y-9098370D02*
X17386400Y-9056370D01*
X17344400Y-9014370D01*
X17302400Y-9056370D01*
X17344400Y-9098370D01*
X17471400Y-8971370D02*
X17513400Y-8929370D01*
X17471400Y-8887370D01*
X17429400Y-8929370D01*
X17471400Y-8971370D01*
X17598400Y-8844370D02*
X17640400Y-8802370D01*
X17598400Y-8760370D01*
X17556400Y-8802370D01*
X17598400Y-8844370D01*
X17598400Y-9098370D02*
X17640400Y-9056370D01*
X17598400Y-9014370D01*
X17556400Y-9056370D01*
X17598400Y-9098370D01*
D16*
X9242900Y-9201200D02*
X9332900Y-9291200D01*
X9332900Y-9201200D02*
X9242900Y-9291200D01*
X9332900Y-9246200D02*
G75*
G03*
X9332900Y-9246200I-45000J0D01*
G01*
D11*
X9367900Y-9201200D02*
X9207900Y-9201200D01*
X9207900Y-9201200D02*
G75*
G03*
X9207900Y-9291200I0J-45000D01*
G01*
X9207900Y-9291200D02*
X9367900Y-9291200D01*
X9367900Y-9291200D02*
G75*
G03*
X9367900Y-9201200I0J45000D01*
G01*
D16*
X9242900Y-10341200D02*
X9332900Y-10431200D01*
X9332900Y-10341200D02*
X9242900Y-10431200D01*
X9332900Y-10386200D02*
G75*
G03*
X9332900Y-10386200I-45000J0D01*
G01*
D11*
X9367900Y-10341200D02*
X9207900Y-10341200D01*
X9207900Y-10341200D02*
G75*
G03*
X9207900Y-10431200I0J-45000D01*
G01*
X9207900Y-10431200D02*
X9367900Y-10431200D01*
X9367900Y-10431200D02*
G75*
G03*
X9367900Y-10341200I0J45000D01*
G01*
D17*
X17367200Y-9741200D02*
X17517200Y-9891200D01*
X17517200Y-9741200D02*
X17367200Y-9891200D01*
X17442200Y-9741200D02*
X17442200Y-9891200D01*
X17367200Y-9816200D02*
X17517200Y-9816200D01*
D18*
X17103200Y-9477200D02*
X17273200Y-9647200D01*
X17273200Y-9477200D02*
X17103200Y-9647200D01*
X17248305Y-9622305D02*
X17248305Y-9502095D01*
X17128095Y-9502095D01*
X17128095Y-9622305D01*
X17248305Y-9622305D01*
X17103200Y-9985200D02*
X17273200Y-10155200D01*
X17273200Y-9985200D02*
X17103200Y-10155200D01*
X17248305Y-10130305D02*
X17248305Y-10010095D01*
X17128095Y-10010095D01*
X17128095Y-10130305D01*
X17248305Y-10130305D01*
X17611200Y-9477200D02*
X17781200Y-9647200D01*
X17781200Y-9477200D02*
X17611200Y-9647200D01*
X17756305Y-9622305D02*
X17756305Y-9502095D01*
X17636095Y-9502095D01*
X17636095Y-9622305D01*
X17756305Y-9622305D01*
X17611200Y-9985200D02*
X17781200Y-10155200D01*
X17781200Y-9985200D02*
X17611200Y-10155200D01*
X17756305Y-10130305D02*
X17756305Y-10010095D01*
X17636095Y-10010095D01*
X17636095Y-10130305D01*
X17756305Y-10130305D01*
D19*
X9161000Y-7446500D02*
X9381000Y-7666500D01*
X9381000Y-7446500D02*
X9161000Y-7666500D01*
X9271000Y-7666500D02*
X9381000Y-7556500D01*
X9271000Y-7446500D01*
X9161000Y-7556500D01*
X9271000Y-7666500D01*
X9161000Y-11955000D02*
X9381000Y-12175000D01*
X9381000Y-11955000D02*
X9161000Y-12175000D01*
X9271000Y-12175000D02*
X9381000Y-12065000D01*
X9271000Y-11955000D01*
X9161000Y-12065000D01*
X9271000Y-12175000D01*
X17479500Y-7459200D02*
X17699500Y-7679200D01*
X17699500Y-7459200D02*
X17479500Y-7679200D01*
X17589500Y-7679200D02*
X17699500Y-7569200D01*
X17589500Y-7459200D01*
X17479500Y-7569200D01*
X17589500Y-7679200D01*
X17492200Y-11955000D02*
X17712200Y-12175000D01*
X17712200Y-11955000D02*
X17492200Y-12175000D01*
X17602200Y-12175000D02*
X17712200Y-12065000D01*
X17602200Y-11955000D01*
X17492200Y-12065000D01*
X17602200Y-12175000D01*
D11*
X9240557Y-12670184D02*
X9240557Y-12470184D01*
X9240557Y-12470184D02*
X9288176Y-12470184D01*
X9288176Y-12470184D02*
X9316747Y-12479708D01*
X9316747Y-12479708D02*
X9335795Y-12498755D01*
X9335795Y-12498755D02*
X9345319Y-12517803D01*
X9345319Y-12517803D02*
X9354843Y-12555898D01*
X9354843Y-12555898D02*
X9354843Y-12584469D01*
X9354843Y-12584469D02*
X9345319Y-12622565D01*
X9345319Y-12622565D02*
X9335795Y-12641612D01*
X9335795Y-12641612D02*
X9316747Y-12660660D01*
X9316747Y-12660660D02*
X9288176Y-12670184D01*
X9288176Y-12670184D02*
X9240557Y-12670184D01*
X9440557Y-12670184D02*
X9440557Y-12536850D01*
X9440557Y-12574946D02*
X9450081Y-12555898D01*
X9450081Y-12555898D02*
X9459604Y-12546374D01*
X9459604Y-12546374D02*
X9478652Y-12536850D01*
X9478652Y-12536850D02*
X9497700Y-12536850D01*
X9564366Y-12670184D02*
X9564366Y-12536850D01*
X9564366Y-12470184D02*
X9554843Y-12479708D01*
X9554843Y-12479708D02*
X9564366Y-12489231D01*
X9564366Y-12489231D02*
X9573890Y-12479708D01*
X9573890Y-12479708D02*
X9564366Y-12470184D01*
X9564366Y-12470184D02*
X9564366Y-12489231D01*
X9688176Y-12670184D02*
X9669128Y-12660660D01*
X9669128Y-12660660D02*
X9659604Y-12641612D01*
X9659604Y-12641612D02*
X9659604Y-12470184D01*
X9792938Y-12670184D02*
X9773890Y-12660660D01*
X9773890Y-12660660D02*
X9764366Y-12641612D01*
X9764366Y-12641612D02*
X9764366Y-12470184D01*
X10021509Y-12670184D02*
X10021509Y-12470184D01*
X10021509Y-12470184D02*
X10088176Y-12613041D01*
X10088176Y-12613041D02*
X10154843Y-12470184D01*
X10154843Y-12470184D02*
X10154843Y-12670184D01*
X10335795Y-12670184D02*
X10335795Y-12565422D01*
X10335795Y-12565422D02*
X10326271Y-12546374D01*
X10326271Y-12546374D02*
X10307224Y-12536850D01*
X10307224Y-12536850D02*
X10269128Y-12536850D01*
X10269128Y-12536850D02*
X10250081Y-12546374D01*
X10335795Y-12660660D02*
X10316747Y-12670184D01*
X10316747Y-12670184D02*
X10269128Y-12670184D01*
X10269128Y-12670184D02*
X10250081Y-12660660D01*
X10250081Y-12660660D02*
X10240557Y-12641612D01*
X10240557Y-12641612D02*
X10240557Y-12622565D01*
X10240557Y-12622565D02*
X10250081Y-12603517D01*
X10250081Y-12603517D02*
X10269128Y-12593993D01*
X10269128Y-12593993D02*
X10316747Y-12593993D01*
X10316747Y-12593993D02*
X10335795Y-12584469D01*
X10431033Y-12536850D02*
X10431033Y-12736850D01*
X10431033Y-12546374D02*
X10450081Y-12536850D01*
X10450081Y-12536850D02*
X10488176Y-12536850D01*
X10488176Y-12536850D02*
X10507224Y-12546374D01*
X10507224Y-12546374D02*
X10516747Y-12555898D01*
X10516747Y-12555898D02*
X10526271Y-12574946D01*
X10526271Y-12574946D02*
X10526271Y-12632088D01*
X10526271Y-12632088D02*
X10516747Y-12651136D01*
X10516747Y-12651136D02*
X10507224Y-12660660D01*
X10507224Y-12660660D02*
X10488176Y-12670184D01*
X10488176Y-12670184D02*
X10450081Y-12670184D01*
X10450081Y-12670184D02*
X10431033Y-12660660D01*
X10611985Y-12651136D02*
X10621509Y-12660660D01*
X10621509Y-12660660D02*
X10611985Y-12670184D01*
X10611985Y-12670184D02*
X10602462Y-12660660D01*
X10602462Y-12660660D02*
X10611985Y-12651136D01*
X10611985Y-12651136D02*
X10611985Y-12670184D01*
X10611985Y-12546374D02*
X10621509Y-12555898D01*
X10621509Y-12555898D02*
X10611985Y-12565422D01*
X10611985Y-12565422D02*
X10602462Y-12555898D01*
X10602462Y-12555898D02*
X10611985Y-12546374D01*
X10611985Y-12546374D02*
X10611985Y-12565422D01*
D12*
X8949780Y-12983700D02*
X8979780Y-13013700D01*
X8979780Y-12983700D02*
X8949780Y-13013700D01*
D11*
X9278652Y-12890184D02*
X9297700Y-12890184D01*
X9297700Y-12890184D02*
X9316747Y-12899708D01*
X9316747Y-12899708D02*
X9326271Y-12909231D01*
X9326271Y-12909231D02*
X9335795Y-12928279D01*
X9335795Y-12928279D02*
X9345319Y-12966374D01*
X9345319Y-12966374D02*
X9345319Y-13013993D01*
X9345319Y-13013993D02*
X9335795Y-13052088D01*
X9335795Y-13052088D02*
X9326271Y-13071136D01*
X9326271Y-13071136D02*
X9316747Y-13080660D01*
X9316747Y-13080660D02*
X9297700Y-13090184D01*
X9297700Y-13090184D02*
X9278652Y-13090184D01*
X9278652Y-13090184D02*
X9259604Y-13080660D01*
X9259604Y-13080660D02*
X9250081Y-13071136D01*
X9250081Y-13071136D02*
X9240557Y-13052088D01*
X9240557Y-13052088D02*
X9231033Y-13013993D01*
X9231033Y-13013993D02*
X9231033Y-12966374D01*
X9231033Y-12966374D02*
X9240557Y-12928279D01*
X9240557Y-12928279D02*
X9250081Y-12909231D01*
X9250081Y-12909231D02*
X9259604Y-12899708D01*
X9259604Y-12899708D02*
X9278652Y-12890184D01*
X9431033Y-13071136D02*
X9440557Y-13080660D01*
X9440557Y-13080660D02*
X9431033Y-13090184D01*
X9431033Y-13090184D02*
X9421509Y-13080660D01*
X9421509Y-13080660D02*
X9431033Y-13071136D01*
X9431033Y-13071136D02*
X9431033Y-13090184D01*
X9507224Y-12890184D02*
X9631033Y-12890184D01*
X9631033Y-12890184D02*
X9564366Y-12966374D01*
X9564366Y-12966374D02*
X9592938Y-12966374D01*
X9592938Y-12966374D02*
X9611985Y-12975898D01*
X9611985Y-12975898D02*
X9621509Y-12985422D01*
X9621509Y-12985422D02*
X9631033Y-13004469D01*
X9631033Y-13004469D02*
X9631033Y-13052088D01*
X9631033Y-13052088D02*
X9621509Y-13071136D01*
X9621509Y-13071136D02*
X9611985Y-13080660D01*
X9611985Y-13080660D02*
X9592938Y-13090184D01*
X9592938Y-13090184D02*
X9535795Y-13090184D01*
X9535795Y-13090184D02*
X9516747Y-13080660D01*
X9516747Y-13080660D02*
X9507224Y-13071136D01*
X9754843Y-12890184D02*
X9773890Y-12890184D01*
X9773890Y-12890184D02*
X9792938Y-12899708D01*
X9792938Y-12899708D02*
X9802462Y-12909231D01*
X9802462Y-12909231D02*
X9811985Y-12928279D01*
X9811985Y-12928279D02*
X9821509Y-12966374D01*
X9821509Y-12966374D02*
X9821509Y-13013993D01*
X9821509Y-13013993D02*
X9811985Y-13052088D01*
X9811985Y-13052088D02*
X9802462Y-13071136D01*
X9802462Y-13071136D02*
X9792938Y-13080660D01*
X9792938Y-13080660D02*
X9773890Y-13090184D01*
X9773890Y-13090184D02*
X9754843Y-13090184D01*
X9754843Y-13090184D02*
X9735795Y-13080660D01*
X9735795Y-13080660D02*
X9726271Y-13071136D01*
X9726271Y-13071136D02*
X9716747Y-13052088D01*
X9716747Y-13052088D02*
X9707224Y-13013993D01*
X9707224Y-13013993D02*
X9707224Y-12966374D01*
X9707224Y-12966374D02*
X9716747Y-12928279D01*
X9716747Y-12928279D02*
X9726271Y-12909231D01*
X9726271Y-12909231D02*
X9735795Y-12899708D01*
X9735795Y-12899708D02*
X9754843Y-12890184D01*
X9945319Y-12890184D02*
X9964366Y-12890184D01*
X9964366Y-12890184D02*
X9983414Y-12899708D01*
X9983414Y-12899708D02*
X9992938Y-12909231D01*
X9992938Y-12909231D02*
X10002462Y-12928279D01*
X10002462Y-12928279D02*
X10011985Y-12966374D01*
X10011985Y-12966374D02*
X10011985Y-13013993D01*
X10011985Y-13013993D02*
X10002462Y-13052088D01*
X10002462Y-13052088D02*
X9992938Y-13071136D01*
X9992938Y-13071136D02*
X9983414Y-13080660D01*
X9983414Y-13080660D02*
X9964366Y-13090184D01*
X9964366Y-13090184D02*
X9945319Y-13090184D01*
X9945319Y-13090184D02*
X9926271Y-13080660D01*
X9926271Y-13080660D02*
X9916747Y-13071136D01*
X9916747Y-13071136D02*
X9907224Y-13052088D01*
X9907224Y-13052088D02*
X9897700Y-13013993D01*
X9897700Y-13013993D02*
X9897700Y-12966374D01*
X9897700Y-12966374D02*
X9907224Y-12928279D01*
X9907224Y-12928279D02*
X9916747Y-12909231D01*
X9916747Y-12909231D02*
X9926271Y-12899708D01*
X9926271Y-12899708D02*
X9945319Y-12890184D01*
X10097700Y-13090184D02*
X10097700Y-12956850D01*
X10097700Y-12975898D02*
X10107224Y-12966374D01*
X10107224Y-12966374D02*
X10126271Y-12956850D01*
X10126271Y-12956850D02*
X10154843Y-12956850D01*
X10154843Y-12956850D02*
X10173890Y-12966374D01*
X10173890Y-12966374D02*
X10183414Y-12985422D01*
X10183414Y-12985422D02*
X10183414Y-13090184D01*
X10183414Y-12985422D02*
X10192938Y-12966374D01*
X10192938Y-12966374D02*
X10211985Y-12956850D01*
X10211985Y-12956850D02*
X10240557Y-12956850D01*
X10240557Y-12956850D02*
X10259605Y-12966374D01*
X10259605Y-12966374D02*
X10269128Y-12985422D01*
X10269128Y-12985422D02*
X10269128Y-13090184D01*
X10364366Y-13090184D02*
X10364366Y-12956850D01*
X10364366Y-12975898D02*
X10373890Y-12966374D01*
X10373890Y-12966374D02*
X10392938Y-12956850D01*
X10392938Y-12956850D02*
X10421509Y-12956850D01*
X10421509Y-12956850D02*
X10440557Y-12966374D01*
X10440557Y-12966374D02*
X10450081Y-12985422D01*
X10450081Y-12985422D02*
X10450081Y-13090184D01*
X10450081Y-12985422D02*
X10459605Y-12966374D01*
X10459605Y-12966374D02*
X10478652Y-12956850D01*
X10478652Y-12956850D02*
X10507224Y-12956850D01*
X10507224Y-12956850D02*
X10526271Y-12966374D01*
X10526271Y-12966374D02*
X10535795Y-12985422D01*
X10535795Y-12985422D02*
X10535795Y-13090184D01*
X10926271Y-12880660D02*
X10754843Y-13137803D01*
X11183414Y-12890184D02*
X11202462Y-12890184D01*
X11202462Y-12890184D02*
X11221509Y-12899708D01*
X11221509Y-12899708D02*
X11231033Y-12909231D01*
X11231033Y-12909231D02*
X11240557Y-12928279D01*
X11240557Y-12928279D02*
X11250081Y-12966374D01*
X11250081Y-12966374D02*
X11250081Y-13013993D01*
X11250081Y-13013993D02*
X11240557Y-13052088D01*
X11240557Y-13052088D02*
X11231033Y-13071136D01*
X11231033Y-13071136D02*
X11221509Y-13080660D01*
X11221509Y-13080660D02*
X11202462Y-13090184D01*
X11202462Y-13090184D02*
X11183414Y-13090184D01*
X11183414Y-13090184D02*
X11164367Y-13080660D01*
X11164367Y-13080660D02*
X11154843Y-13071136D01*
X11154843Y-13071136D02*
X11145319Y-13052088D01*
X11145319Y-13052088D02*
X11135795Y-13013993D01*
X11135795Y-13013993D02*
X11135795Y-12966374D01*
X11135795Y-12966374D02*
X11145319Y-12928279D01*
X11145319Y-12928279D02*
X11154843Y-12909231D01*
X11154843Y-12909231D02*
X11164367Y-12899708D01*
X11164367Y-12899708D02*
X11183414Y-12890184D01*
X11335795Y-13071136D02*
X11345319Y-13080660D01*
X11345319Y-13080660D02*
X11335795Y-13090184D01*
X11335795Y-13090184D02*
X11326271Y-13080660D01*
X11326271Y-13080660D02*
X11335795Y-13071136D01*
X11335795Y-13071136D02*
X11335795Y-13090184D01*
X11469128Y-12890184D02*
X11488176Y-12890184D01*
X11488176Y-12890184D02*
X11507224Y-12899708D01*
X11507224Y-12899708D02*
X11516747Y-12909231D01*
X11516747Y-12909231D02*
X11526271Y-12928279D01*
X11526271Y-12928279D02*
X11535795Y-12966374D01*
X11535795Y-12966374D02*
X11535795Y-13013993D01*
X11535795Y-13013993D02*
X11526271Y-13052088D01*
X11526271Y-13052088D02*
X11516747Y-13071136D01*
X11516747Y-13071136D02*
X11507224Y-13080660D01*
X11507224Y-13080660D02*
X11488176Y-13090184D01*
X11488176Y-13090184D02*
X11469128Y-13090184D01*
X11469128Y-13090184D02*
X11450081Y-13080660D01*
X11450081Y-13080660D02*
X11440557Y-13071136D01*
X11440557Y-13071136D02*
X11431033Y-13052088D01*
X11431033Y-13052088D02*
X11421509Y-13013993D01*
X11421509Y-13013993D02*
X11421509Y-12966374D01*
X11421509Y-12966374D02*
X11431033Y-12928279D01*
X11431033Y-12928279D02*
X11440557Y-12909231D01*
X11440557Y-12909231D02*
X11450081Y-12899708D01*
X11450081Y-12899708D02*
X11469128Y-12890184D01*
X11726271Y-13090184D02*
X11611986Y-13090184D01*
X11669128Y-13090184D02*
X11669128Y-12890184D01*
X11669128Y-12890184D02*
X11650081Y-12918755D01*
X11650081Y-12918755D02*
X11631033Y-12937803D01*
X11631033Y-12937803D02*
X11611986Y-12947327D01*
X11916747Y-13090184D02*
X11802462Y-13090184D01*
X11859605Y-13090184D02*
X11859605Y-12890184D01*
X11859605Y-12890184D02*
X11840557Y-12918755D01*
X11840557Y-12918755D02*
X11821509Y-12937803D01*
X11821509Y-12937803D02*
X11802462Y-12947327D01*
X12031033Y-12975898D02*
X12011986Y-12966374D01*
X12011986Y-12966374D02*
X12002462Y-12956850D01*
X12002462Y-12956850D02*
X11992938Y-12937803D01*
X11992938Y-12937803D02*
X11992938Y-12928279D01*
X11992938Y-12928279D02*
X12002462Y-12909231D01*
X12002462Y-12909231D02*
X12011986Y-12899708D01*
X12011986Y-12899708D02*
X12031033Y-12890184D01*
X12031033Y-12890184D02*
X12069128Y-12890184D01*
X12069128Y-12890184D02*
X12088176Y-12899708D01*
X12088176Y-12899708D02*
X12097700Y-12909231D01*
X12097700Y-12909231D02*
X12107224Y-12928279D01*
X12107224Y-12928279D02*
X12107224Y-12937803D01*
X12107224Y-12937803D02*
X12097700Y-12956850D01*
X12097700Y-12956850D02*
X12088176Y-12966374D01*
X12088176Y-12966374D02*
X12069128Y-12975898D01*
X12069128Y-12975898D02*
X12031033Y-12975898D01*
X12031033Y-12975898D02*
X12011986Y-12985422D01*
X12011986Y-12985422D02*
X12002462Y-12994946D01*
X12002462Y-12994946D02*
X11992938Y-13013993D01*
X11992938Y-13013993D02*
X11992938Y-13052088D01*
X11992938Y-13052088D02*
X12002462Y-13071136D01*
X12002462Y-13071136D02*
X12011986Y-13080660D01*
X12011986Y-13080660D02*
X12031033Y-13090184D01*
X12031033Y-13090184D02*
X12069128Y-13090184D01*
X12069128Y-13090184D02*
X12088176Y-13080660D01*
X12088176Y-13080660D02*
X12097700Y-13071136D01*
X12097700Y-13071136D02*
X12107224Y-13052088D01*
X12107224Y-13052088D02*
X12107224Y-13013993D01*
X12107224Y-13013993D02*
X12097700Y-12994946D01*
X12097700Y-12994946D02*
X12088176Y-12985422D01*
X12088176Y-12985422D02*
X12069128Y-12975898D01*
X12183414Y-12890184D02*
X12183414Y-12928279D01*
X12259605Y-12890184D02*
X12259605Y-12928279D01*
X12554843Y-13166374D02*
X12545319Y-13156850D01*
X12545319Y-13156850D02*
X12526271Y-13128279D01*
X12526271Y-13128279D02*
X12516748Y-13109231D01*
X12516748Y-13109231D02*
X12507224Y-13080660D01*
X12507224Y-13080660D02*
X12497700Y-13033041D01*
X12497700Y-13033041D02*
X12497700Y-12994946D01*
X12497700Y-12994946D02*
X12507224Y-12947327D01*
X12507224Y-12947327D02*
X12516748Y-12918755D01*
X12516748Y-12918755D02*
X12526271Y-12899708D01*
X12526271Y-12899708D02*
X12545319Y-12871136D01*
X12545319Y-12871136D02*
X12554843Y-12861612D01*
X12621509Y-12909231D02*
X12631033Y-12899708D01*
X12631033Y-12899708D02*
X12650081Y-12890184D01*
X12650081Y-12890184D02*
X12697700Y-12890184D01*
X12697700Y-12890184D02*
X12716748Y-12899708D01*
X12716748Y-12899708D02*
X12726271Y-12909231D01*
X12726271Y-12909231D02*
X12735795Y-12928279D01*
X12735795Y-12928279D02*
X12735795Y-12947327D01*
X12735795Y-12947327D02*
X12726271Y-12975898D01*
X12726271Y-12975898D02*
X12611986Y-13090184D01*
X12611986Y-13090184D02*
X12735795Y-13090184D01*
X12973890Y-13090184D02*
X12973890Y-12890184D01*
X13059605Y-13090184D02*
X13059605Y-12985422D01*
X13059605Y-12985422D02*
X13050081Y-12966374D01*
X13050081Y-12966374D02*
X13031033Y-12956850D01*
X13031033Y-12956850D02*
X13002462Y-12956850D01*
X13002462Y-12956850D02*
X12983414Y-12966374D01*
X12983414Y-12966374D02*
X12973890Y-12975898D01*
X13183414Y-13090184D02*
X13164367Y-13080660D01*
X13164367Y-13080660D02*
X13154843Y-13071136D01*
X13154843Y-13071136D02*
X13145319Y-13052088D01*
X13145319Y-13052088D02*
X13145319Y-12994946D01*
X13145319Y-12994946D02*
X13154843Y-12975898D01*
X13154843Y-12975898D02*
X13164367Y-12966374D01*
X13164367Y-12966374D02*
X13183414Y-12956850D01*
X13183414Y-12956850D02*
X13211986Y-12956850D01*
X13211986Y-12956850D02*
X13231033Y-12966374D01*
X13231033Y-12966374D02*
X13240557Y-12975898D01*
X13240557Y-12975898D02*
X13250081Y-12994946D01*
X13250081Y-12994946D02*
X13250081Y-13052088D01*
X13250081Y-13052088D02*
X13240557Y-13071136D01*
X13240557Y-13071136D02*
X13231033Y-13080660D01*
X13231033Y-13080660D02*
X13211986Y-13090184D01*
X13211986Y-13090184D02*
X13183414Y-13090184D01*
X13364367Y-13090184D02*
X13345319Y-13080660D01*
X13345319Y-13080660D02*
X13335795Y-13061612D01*
X13335795Y-13061612D02*
X13335795Y-12890184D01*
X13516748Y-13080660D02*
X13497700Y-13090184D01*
X13497700Y-13090184D02*
X13459605Y-13090184D01*
X13459605Y-13090184D02*
X13440557Y-13080660D01*
X13440557Y-13080660D02*
X13431033Y-13061612D01*
X13431033Y-13061612D02*
X13431033Y-12985422D01*
X13431033Y-12985422D02*
X13440557Y-12966374D01*
X13440557Y-12966374D02*
X13459605Y-12956850D01*
X13459605Y-12956850D02*
X13497700Y-12956850D01*
X13497700Y-12956850D02*
X13516748Y-12966374D01*
X13516748Y-12966374D02*
X13526271Y-12985422D01*
X13526271Y-12985422D02*
X13526271Y-13004469D01*
X13526271Y-13004469D02*
X13431033Y-13023517D01*
X13602462Y-13080660D02*
X13621510Y-13090184D01*
X13621510Y-13090184D02*
X13659605Y-13090184D01*
X13659605Y-13090184D02*
X13678652Y-13080660D01*
X13678652Y-13080660D02*
X13688176Y-13061612D01*
X13688176Y-13061612D02*
X13688176Y-13052088D01*
X13688176Y-13052088D02*
X13678652Y-13033041D01*
X13678652Y-13033041D02*
X13659605Y-13023517D01*
X13659605Y-13023517D02*
X13631033Y-13023517D01*
X13631033Y-13023517D02*
X13611986Y-13013993D01*
X13611986Y-13013993D02*
X13602462Y-12994946D01*
X13602462Y-12994946D02*
X13602462Y-12985422D01*
X13602462Y-12985422D02*
X13611986Y-12966374D01*
X13611986Y-12966374D02*
X13631033Y-12956850D01*
X13631033Y-12956850D02*
X13659605Y-12956850D01*
X13659605Y-12956850D02*
X13678652Y-12966374D01*
X13754843Y-13166374D02*
X13764367Y-13156850D01*
X13764367Y-13156850D02*
X13783414Y-13128279D01*
X13783414Y-13128279D02*
X13792938Y-13109231D01*
X13792938Y-13109231D02*
X13802462Y-13080660D01*
X13802462Y-13080660D02*
X13811986Y-13033041D01*
X13811986Y-13033041D02*
X13811986Y-12994946D01*
X13811986Y-12994946D02*
X13802462Y-12947327D01*
X13802462Y-12947327D02*
X13792938Y-12918755D01*
X13792938Y-12918755D02*
X13783414Y-12899708D01*
X13783414Y-12899708D02*
X13764367Y-12871136D01*
X13764367Y-12871136D02*
X13754843Y-12861612D01*
D13*
X8979780Y-13262700D02*
G75*
G03*
X8979780Y-13262700I-15240J0D01*
G01*
D11*
X9278652Y-13154184D02*
X9297700Y-13154184D01*
X9297700Y-13154184D02*
X9316747Y-13163708D01*
X9316747Y-13163708D02*
X9326271Y-13173231D01*
X9326271Y-13173231D02*
X9335795Y-13192279D01*
X9335795Y-13192279D02*
X9345319Y-13230374D01*
X9345319Y-13230374D02*
X9345319Y-13277993D01*
X9345319Y-13277993D02*
X9335795Y-13316088D01*
X9335795Y-13316088D02*
X9326271Y-13335136D01*
X9326271Y-13335136D02*
X9316747Y-13344660D01*
X9316747Y-13344660D02*
X9297700Y-13354184D01*
X9297700Y-13354184D02*
X9278652Y-13354184D01*
X9278652Y-13354184D02*
X9259604Y-13344660D01*
X9259604Y-13344660D02*
X9250081Y-13335136D01*
X9250081Y-13335136D02*
X9240557Y-13316088D01*
X9240557Y-13316088D02*
X9231033Y-13277993D01*
X9231033Y-13277993D02*
X9231033Y-13230374D01*
X9231033Y-13230374D02*
X9240557Y-13192279D01*
X9240557Y-13192279D02*
X9250081Y-13173231D01*
X9250081Y-13173231D02*
X9259604Y-13163708D01*
X9259604Y-13163708D02*
X9278652Y-13154184D01*
X9431033Y-13335136D02*
X9440557Y-13344660D01*
X9440557Y-13344660D02*
X9431033Y-13354184D01*
X9431033Y-13354184D02*
X9421509Y-13344660D01*
X9421509Y-13344660D02*
X9431033Y-13335136D01*
X9431033Y-13335136D02*
X9431033Y-13354184D01*
X9507224Y-13154184D02*
X9631033Y-13154184D01*
X9631033Y-13154184D02*
X9564366Y-13230374D01*
X9564366Y-13230374D02*
X9592938Y-13230374D01*
X9592938Y-13230374D02*
X9611985Y-13239898D01*
X9611985Y-13239898D02*
X9621509Y-13249422D01*
X9621509Y-13249422D02*
X9631033Y-13268469D01*
X9631033Y-13268469D02*
X9631033Y-13316088D01*
X9631033Y-13316088D02*
X9621509Y-13335136D01*
X9621509Y-13335136D02*
X9611985Y-13344660D01*
X9611985Y-13344660D02*
X9592938Y-13354184D01*
X9592938Y-13354184D02*
X9535795Y-13354184D01*
X9535795Y-13354184D02*
X9516747Y-13344660D01*
X9516747Y-13344660D02*
X9507224Y-13335136D01*
X9754843Y-13154184D02*
X9773890Y-13154184D01*
X9773890Y-13154184D02*
X9792938Y-13163708D01*
X9792938Y-13163708D02*
X9802462Y-13173231D01*
X9802462Y-13173231D02*
X9811985Y-13192279D01*
X9811985Y-13192279D02*
X9821509Y-13230374D01*
X9821509Y-13230374D02*
X9821509Y-13277993D01*
X9821509Y-13277993D02*
X9811985Y-13316088D01*
X9811985Y-13316088D02*
X9802462Y-13335136D01*
X9802462Y-13335136D02*
X9792938Y-13344660D01*
X9792938Y-13344660D02*
X9773890Y-13354184D01*
X9773890Y-13354184D02*
X9754843Y-13354184D01*
X9754843Y-13354184D02*
X9735795Y-13344660D01*
X9735795Y-13344660D02*
X9726271Y-13335136D01*
X9726271Y-13335136D02*
X9716747Y-13316088D01*
X9716747Y-13316088D02*
X9707224Y-13277993D01*
X9707224Y-13277993D02*
X9707224Y-13230374D01*
X9707224Y-13230374D02*
X9716747Y-13192279D01*
X9716747Y-13192279D02*
X9726271Y-13173231D01*
X9726271Y-13173231D02*
X9735795Y-13163708D01*
X9735795Y-13163708D02*
X9754843Y-13154184D01*
X10002462Y-13154184D02*
X9907224Y-13154184D01*
X9907224Y-13154184D02*
X9897700Y-13249422D01*
X9897700Y-13249422D02*
X9907224Y-13239898D01*
X9907224Y-13239898D02*
X9926271Y-13230374D01*
X9926271Y-13230374D02*
X9973890Y-13230374D01*
X9973890Y-13230374D02*
X9992938Y-13239898D01*
X9992938Y-13239898D02*
X10002462Y-13249422D01*
X10002462Y-13249422D02*
X10011985Y-13268469D01*
X10011985Y-13268469D02*
X10011985Y-13316088D01*
X10011985Y-13316088D02*
X10002462Y-13335136D01*
X10002462Y-13335136D02*
X9992938Y-13344660D01*
X9992938Y-13344660D02*
X9973890Y-13354184D01*
X9973890Y-13354184D02*
X9926271Y-13354184D01*
X9926271Y-13354184D02*
X9907224Y-13344660D01*
X9907224Y-13344660D02*
X9897700Y-13335136D01*
X10097700Y-13354184D02*
X10097700Y-13220850D01*
X10097700Y-13239898D02*
X10107224Y-13230374D01*
X10107224Y-13230374D02*
X10126271Y-13220850D01*
X10126271Y-13220850D02*
X10154843Y-13220850D01*
X10154843Y-13220850D02*
X10173890Y-13230374D01*
X10173890Y-13230374D02*
X10183414Y-13249422D01*
X10183414Y-13249422D02*
X10183414Y-13354184D01*
X10183414Y-13249422D02*
X10192938Y-13230374D01*
X10192938Y-13230374D02*
X10211985Y-13220850D01*
X10211985Y-13220850D02*
X10240557Y-13220850D01*
X10240557Y-13220850D02*
X10259605Y-13230374D01*
X10259605Y-13230374D02*
X10269128Y-13249422D01*
X10269128Y-13249422D02*
X10269128Y-13354184D01*
X10364366Y-13354184D02*
X10364366Y-13220850D01*
X10364366Y-13239898D02*
X10373890Y-13230374D01*
X10373890Y-13230374D02*
X10392938Y-13220850D01*
X10392938Y-13220850D02*
X10421509Y-13220850D01*
X10421509Y-13220850D02*
X10440557Y-13230374D01*
X10440557Y-13230374D02*
X10450081Y-13249422D01*
X10450081Y-13249422D02*
X10450081Y-13354184D01*
X10450081Y-13249422D02*
X10459605Y-13230374D01*
X10459605Y-13230374D02*
X10478652Y-13220850D01*
X10478652Y-13220850D02*
X10507224Y-13220850D01*
X10507224Y-13220850D02*
X10526271Y-13230374D01*
X10526271Y-13230374D02*
X10535795Y-13249422D01*
X10535795Y-13249422D02*
X10535795Y-13354184D01*
X10926271Y-13144660D02*
X10754843Y-13401803D01*
X11183414Y-13154184D02*
X11202462Y-13154184D01*
X11202462Y-13154184D02*
X11221509Y-13163708D01*
X11221509Y-13163708D02*
X11231033Y-13173231D01*
X11231033Y-13173231D02*
X11240557Y-13192279D01*
X11240557Y-13192279D02*
X11250081Y-13230374D01*
X11250081Y-13230374D02*
X11250081Y-13277993D01*
X11250081Y-13277993D02*
X11240557Y-13316088D01*
X11240557Y-13316088D02*
X11231033Y-13335136D01*
X11231033Y-13335136D02*
X11221509Y-13344660D01*
X11221509Y-13344660D02*
X11202462Y-13354184D01*
X11202462Y-13354184D02*
X11183414Y-13354184D01*
X11183414Y-13354184D02*
X11164367Y-13344660D01*
X11164367Y-13344660D02*
X11154843Y-13335136D01*
X11154843Y-13335136D02*
X11145319Y-13316088D01*
X11145319Y-13316088D02*
X11135795Y-13277993D01*
X11135795Y-13277993D02*
X11135795Y-13230374D01*
X11135795Y-13230374D02*
X11145319Y-13192279D01*
X11145319Y-13192279D02*
X11154843Y-13173231D01*
X11154843Y-13173231D02*
X11164367Y-13163708D01*
X11164367Y-13163708D02*
X11183414Y-13154184D01*
X11335795Y-13335136D02*
X11345319Y-13344660D01*
X11345319Y-13344660D02*
X11335795Y-13354184D01*
X11335795Y-13354184D02*
X11326271Y-13344660D01*
X11326271Y-13344660D02*
X11335795Y-13335136D01*
X11335795Y-13335136D02*
X11335795Y-13354184D01*
X11469128Y-13154184D02*
X11488176Y-13154184D01*
X11488176Y-13154184D02*
X11507224Y-13163708D01*
X11507224Y-13163708D02*
X11516747Y-13173231D01*
X11516747Y-13173231D02*
X11526271Y-13192279D01*
X11526271Y-13192279D02*
X11535795Y-13230374D01*
X11535795Y-13230374D02*
X11535795Y-13277993D01*
X11535795Y-13277993D02*
X11526271Y-13316088D01*
X11526271Y-13316088D02*
X11516747Y-13335136D01*
X11516747Y-13335136D02*
X11507224Y-13344660D01*
X11507224Y-13344660D02*
X11488176Y-13354184D01*
X11488176Y-13354184D02*
X11469128Y-13354184D01*
X11469128Y-13354184D02*
X11450081Y-13344660D01*
X11450081Y-13344660D02*
X11440557Y-13335136D01*
X11440557Y-13335136D02*
X11431033Y-13316088D01*
X11431033Y-13316088D02*
X11421509Y-13277993D01*
X11421509Y-13277993D02*
X11421509Y-13230374D01*
X11421509Y-13230374D02*
X11431033Y-13192279D01*
X11431033Y-13192279D02*
X11440557Y-13173231D01*
X11440557Y-13173231D02*
X11450081Y-13163708D01*
X11450081Y-13163708D02*
X11469128Y-13154184D01*
X11726271Y-13354184D02*
X11611986Y-13354184D01*
X11669128Y-13354184D02*
X11669128Y-13154184D01*
X11669128Y-13154184D02*
X11650081Y-13182755D01*
X11650081Y-13182755D02*
X11631033Y-13201803D01*
X11631033Y-13201803D02*
X11611986Y-13211327D01*
X11802462Y-13173231D02*
X11811986Y-13163708D01*
X11811986Y-13163708D02*
X11831033Y-13154184D01*
X11831033Y-13154184D02*
X11878652Y-13154184D01*
X11878652Y-13154184D02*
X11897700Y-13163708D01*
X11897700Y-13163708D02*
X11907224Y-13173231D01*
X11907224Y-13173231D02*
X11916747Y-13192279D01*
X11916747Y-13192279D02*
X11916747Y-13211327D01*
X11916747Y-13211327D02*
X11907224Y-13239898D01*
X11907224Y-13239898D02*
X11792938Y-13354184D01*
X11792938Y-13354184D02*
X11916747Y-13354184D01*
X12040557Y-13154184D02*
X12059605Y-13154184D01*
X12059605Y-13154184D02*
X12078652Y-13163708D01*
X12078652Y-13163708D02*
X12088176Y-13173231D01*
X12088176Y-13173231D02*
X12097700Y-13192279D01*
X12097700Y-13192279D02*
X12107224Y-13230374D01*
X12107224Y-13230374D02*
X12107224Y-13277993D01*
X12107224Y-13277993D02*
X12097700Y-13316088D01*
X12097700Y-13316088D02*
X12088176Y-13335136D01*
X12088176Y-13335136D02*
X12078652Y-13344660D01*
X12078652Y-13344660D02*
X12059605Y-13354184D01*
X12059605Y-13354184D02*
X12040557Y-13354184D01*
X12040557Y-13354184D02*
X12021509Y-13344660D01*
X12021509Y-13344660D02*
X12011986Y-13335136D01*
X12011986Y-13335136D02*
X12002462Y-13316088D01*
X12002462Y-13316088D02*
X11992938Y-13277993D01*
X11992938Y-13277993D02*
X11992938Y-13230374D01*
X11992938Y-13230374D02*
X12002462Y-13192279D01*
X12002462Y-13192279D02*
X12011986Y-13173231D01*
X12011986Y-13173231D02*
X12021509Y-13163708D01*
X12021509Y-13163708D02*
X12040557Y-13154184D01*
X12183414Y-13154184D02*
X12183414Y-13192279D01*
X12259605Y-13154184D02*
X12259605Y-13192279D01*
X12554843Y-13430374D02*
X12545319Y-13420850D01*
X12545319Y-13420850D02*
X12526271Y-13392279D01*
X12526271Y-13392279D02*
X12516748Y-13373231D01*
X12516748Y-13373231D02*
X12507224Y-13344660D01*
X12507224Y-13344660D02*
X12497700Y-13297041D01*
X12497700Y-13297041D02*
X12497700Y-13258946D01*
X12497700Y-13258946D02*
X12507224Y-13211327D01*
X12507224Y-13211327D02*
X12516748Y-13182755D01*
X12516748Y-13182755D02*
X12526271Y-13163708D01*
X12526271Y-13163708D02*
X12545319Y-13135136D01*
X12545319Y-13135136D02*
X12554843Y-13125612D01*
X12716748Y-13154184D02*
X12678652Y-13154184D01*
X12678652Y-13154184D02*
X12659605Y-13163708D01*
X12659605Y-13163708D02*
X12650081Y-13173231D01*
X12650081Y-13173231D02*
X12631033Y-13201803D01*
X12631033Y-13201803D02*
X12621509Y-13239898D01*
X12621509Y-13239898D02*
X12621509Y-13316088D01*
X12621509Y-13316088D02*
X12631033Y-13335136D01*
X12631033Y-13335136D02*
X12640557Y-13344660D01*
X12640557Y-13344660D02*
X12659605Y-13354184D01*
X12659605Y-13354184D02*
X12697700Y-13354184D01*
X12697700Y-13354184D02*
X12716748Y-13344660D01*
X12716748Y-13344660D02*
X12726271Y-13335136D01*
X12726271Y-13335136D02*
X12735795Y-13316088D01*
X12735795Y-13316088D02*
X12735795Y-13268469D01*
X12735795Y-13268469D02*
X12726271Y-13249422D01*
X12726271Y-13249422D02*
X12716748Y-13239898D01*
X12716748Y-13239898D02*
X12697700Y-13230374D01*
X12697700Y-13230374D02*
X12659605Y-13230374D01*
X12659605Y-13230374D02*
X12640557Y-13239898D01*
X12640557Y-13239898D02*
X12631033Y-13249422D01*
X12631033Y-13249422D02*
X12621509Y-13268469D01*
X12926271Y-13354184D02*
X12811986Y-13354184D01*
X12869128Y-13354184D02*
X12869128Y-13154184D01*
X12869128Y-13154184D02*
X12850081Y-13182755D01*
X12850081Y-13182755D02*
X12831033Y-13201803D01*
X12831033Y-13201803D02*
X12811986Y-13211327D01*
X13164367Y-13354184D02*
X13164367Y-13154184D01*
X13250081Y-13354184D02*
X13250081Y-13249422D01*
X13250081Y-13249422D02*
X13240557Y-13230374D01*
X13240557Y-13230374D02*
X13221510Y-13220850D01*
X13221510Y-13220850D02*
X13192938Y-13220850D01*
X13192938Y-13220850D02*
X13173890Y-13230374D01*
X13173890Y-13230374D02*
X13164367Y-13239898D01*
X13373890Y-13354184D02*
X13354843Y-13344660D01*
X13354843Y-13344660D02*
X13345319Y-13335136D01*
X13345319Y-13335136D02*
X13335795Y-13316088D01*
X13335795Y-13316088D02*
X13335795Y-13258946D01*
X13335795Y-13258946D02*
X13345319Y-13239898D01*
X13345319Y-13239898D02*
X13354843Y-13230374D01*
X13354843Y-13230374D02*
X13373890Y-13220850D01*
X13373890Y-13220850D02*
X13402462Y-13220850D01*
X13402462Y-13220850D02*
X13421510Y-13230374D01*
X13421510Y-13230374D02*
X13431033Y-13239898D01*
X13431033Y-13239898D02*
X13440557Y-13258946D01*
X13440557Y-13258946D02*
X13440557Y-13316088D01*
X13440557Y-13316088D02*
X13431033Y-13335136D01*
X13431033Y-13335136D02*
X13421510Y-13344660D01*
X13421510Y-13344660D02*
X13402462Y-13354184D01*
X13402462Y-13354184D02*
X13373890Y-13354184D01*
X13554843Y-13354184D02*
X13535795Y-13344660D01*
X13535795Y-13344660D02*
X13526271Y-13325612D01*
X13526271Y-13325612D02*
X13526271Y-13154184D01*
X13707224Y-13344660D02*
X13688176Y-13354184D01*
X13688176Y-13354184D02*
X13650081Y-13354184D01*
X13650081Y-13354184D02*
X13631033Y-13344660D01*
X13631033Y-13344660D02*
X13621510Y-13325612D01*
X13621510Y-13325612D02*
X13621510Y-13249422D01*
X13621510Y-13249422D02*
X13631033Y-13230374D01*
X13631033Y-13230374D02*
X13650081Y-13220850D01*
X13650081Y-13220850D02*
X13688176Y-13220850D01*
X13688176Y-13220850D02*
X13707224Y-13230374D01*
X13707224Y-13230374D02*
X13716748Y-13249422D01*
X13716748Y-13249422D02*
X13716748Y-13268469D01*
X13716748Y-13268469D02*
X13621510Y-13287517D01*
X13792938Y-13344660D02*
X13811986Y-13354184D01*
X13811986Y-13354184D02*
X13850081Y-13354184D01*
X13850081Y-13354184D02*
X13869129Y-13344660D01*
X13869129Y-13344660D02*
X13878652Y-13325612D01*
X13878652Y-13325612D02*
X13878652Y-13316088D01*
X13878652Y-13316088D02*
X13869129Y-13297041D01*
X13869129Y-13297041D02*
X13850081Y-13287517D01*
X13850081Y-13287517D02*
X13821510Y-13287517D01*
X13821510Y-13287517D02*
X13802462Y-13277993D01*
X13802462Y-13277993D02*
X13792938Y-13258946D01*
X13792938Y-13258946D02*
X13792938Y-13249422D01*
X13792938Y-13249422D02*
X13802462Y-13230374D01*
X13802462Y-13230374D02*
X13821510Y-13220850D01*
X13821510Y-13220850D02*
X13850081Y-13220850D01*
X13850081Y-13220850D02*
X13869129Y-13230374D01*
X13945319Y-13430374D02*
X13954843Y-13420850D01*
X13954843Y-13420850D02*
X13973891Y-13392279D01*
X13973891Y-13392279D02*
X13983414Y-13373231D01*
X13983414Y-13373231D02*
X13992938Y-13344660D01*
X13992938Y-13344660D02*
X14002462Y-13297041D01*
X14002462Y-13297041D02*
X14002462Y-13258946D01*
X14002462Y-13258946D02*
X13992938Y-13211327D01*
X13992938Y-13211327D02*
X13983414Y-13182755D01*
X13983414Y-13182755D02*
X13973891Y-13163708D01*
X13973891Y-13163708D02*
X13954843Y-13135136D01*
X13954843Y-13135136D02*
X13945319Y-13125612D01*
D14*
X8959780Y-13506700D02*
X8959780Y-13546700D01*
X8939780Y-13526700D02*
X8979780Y-13526700D01*
D11*
X9278652Y-13418184D02*
X9297700Y-13418184D01*
X9297700Y-13418184D02*
X9316747Y-13427708D01*
X9316747Y-13427708D02*
X9326271Y-13437231D01*
X9326271Y-13437231D02*
X9335795Y-13456279D01*
X9335795Y-13456279D02*
X9345319Y-13494374D01*
X9345319Y-13494374D02*
X9345319Y-13541993D01*
X9345319Y-13541993D02*
X9335795Y-13580088D01*
X9335795Y-13580088D02*
X9326271Y-13599136D01*
X9326271Y-13599136D02*
X9316747Y-13608660D01*
X9316747Y-13608660D02*
X9297700Y-13618184D01*
X9297700Y-13618184D02*
X9278652Y-13618184D01*
X9278652Y-13618184D02*
X9259604Y-13608660D01*
X9259604Y-13608660D02*
X9250081Y-13599136D01*
X9250081Y-13599136D02*
X9240557Y-13580088D01*
X9240557Y-13580088D02*
X9231033Y-13541993D01*
X9231033Y-13541993D02*
X9231033Y-13494374D01*
X9231033Y-13494374D02*
X9240557Y-13456279D01*
X9240557Y-13456279D02*
X9250081Y-13437231D01*
X9250081Y-13437231D02*
X9259604Y-13427708D01*
X9259604Y-13427708D02*
X9278652Y-13418184D01*
X9431033Y-13599136D02*
X9440557Y-13608660D01*
X9440557Y-13608660D02*
X9431033Y-13618184D01*
X9431033Y-13618184D02*
X9421509Y-13608660D01*
X9421509Y-13608660D02*
X9431033Y-13599136D01*
X9431033Y-13599136D02*
X9431033Y-13618184D01*
X9611985Y-13484850D02*
X9611985Y-13618184D01*
X9564366Y-13408660D02*
X9516747Y-13551517D01*
X9516747Y-13551517D02*
X9640557Y-13551517D01*
X9754843Y-13418184D02*
X9773890Y-13418184D01*
X9773890Y-13418184D02*
X9792938Y-13427708D01*
X9792938Y-13427708D02*
X9802462Y-13437231D01*
X9802462Y-13437231D02*
X9811985Y-13456279D01*
X9811985Y-13456279D02*
X9821509Y-13494374D01*
X9821509Y-13494374D02*
X9821509Y-13541993D01*
X9821509Y-13541993D02*
X9811985Y-13580088D01*
X9811985Y-13580088D02*
X9802462Y-13599136D01*
X9802462Y-13599136D02*
X9792938Y-13608660D01*
X9792938Y-13608660D02*
X9773890Y-13618184D01*
X9773890Y-13618184D02*
X9754843Y-13618184D01*
X9754843Y-13618184D02*
X9735795Y-13608660D01*
X9735795Y-13608660D02*
X9726271Y-13599136D01*
X9726271Y-13599136D02*
X9716747Y-13580088D01*
X9716747Y-13580088D02*
X9707224Y-13541993D01*
X9707224Y-13541993D02*
X9707224Y-13494374D01*
X9707224Y-13494374D02*
X9716747Y-13456279D01*
X9716747Y-13456279D02*
X9726271Y-13437231D01*
X9726271Y-13437231D02*
X9735795Y-13427708D01*
X9735795Y-13427708D02*
X9754843Y-13418184D01*
X9945319Y-13418184D02*
X9964366Y-13418184D01*
X9964366Y-13418184D02*
X9983414Y-13427708D01*
X9983414Y-13427708D02*
X9992938Y-13437231D01*
X9992938Y-13437231D02*
X10002462Y-13456279D01*
X10002462Y-13456279D02*
X10011985Y-13494374D01*
X10011985Y-13494374D02*
X10011985Y-13541993D01*
X10011985Y-13541993D02*
X10002462Y-13580088D01*
X10002462Y-13580088D02*
X9992938Y-13599136D01*
X9992938Y-13599136D02*
X9983414Y-13608660D01*
X9983414Y-13608660D02*
X9964366Y-13618184D01*
X9964366Y-13618184D02*
X9945319Y-13618184D01*
X9945319Y-13618184D02*
X9926271Y-13608660D01*
X9926271Y-13608660D02*
X9916747Y-13599136D01*
X9916747Y-13599136D02*
X9907224Y-13580088D01*
X9907224Y-13580088D02*
X9897700Y-13541993D01*
X9897700Y-13541993D02*
X9897700Y-13494374D01*
X9897700Y-13494374D02*
X9907224Y-13456279D01*
X9907224Y-13456279D02*
X9916747Y-13437231D01*
X9916747Y-13437231D02*
X9926271Y-13427708D01*
X9926271Y-13427708D02*
X9945319Y-13418184D01*
X10097700Y-13618184D02*
X10097700Y-13484850D01*
X10097700Y-13503898D02*
X10107224Y-13494374D01*
X10107224Y-13494374D02*
X10126271Y-13484850D01*
X10126271Y-13484850D02*
X10154843Y-13484850D01*
X10154843Y-13484850D02*
X10173890Y-13494374D01*
X10173890Y-13494374D02*
X10183414Y-13513422D01*
X10183414Y-13513422D02*
X10183414Y-13618184D01*
X10183414Y-13513422D02*
X10192938Y-13494374D01*
X10192938Y-13494374D02*
X10211985Y-13484850D01*
X10211985Y-13484850D02*
X10240557Y-13484850D01*
X10240557Y-13484850D02*
X10259605Y-13494374D01*
X10259605Y-13494374D02*
X10269128Y-13513422D01*
X10269128Y-13513422D02*
X10269128Y-13618184D01*
X10364366Y-13618184D02*
X10364366Y-13484850D01*
X10364366Y-13503898D02*
X10373890Y-13494374D01*
X10373890Y-13494374D02*
X10392938Y-13484850D01*
X10392938Y-13484850D02*
X10421509Y-13484850D01*
X10421509Y-13484850D02*
X10440557Y-13494374D01*
X10440557Y-13494374D02*
X10450081Y-13513422D01*
X10450081Y-13513422D02*
X10450081Y-13618184D01*
X10450081Y-13513422D02*
X10459605Y-13494374D01*
X10459605Y-13494374D02*
X10478652Y-13484850D01*
X10478652Y-13484850D02*
X10507224Y-13484850D01*
X10507224Y-13484850D02*
X10526271Y-13494374D01*
X10526271Y-13494374D02*
X10535795Y-13513422D01*
X10535795Y-13513422D02*
X10535795Y-13618184D01*
X10926271Y-13408660D02*
X10754843Y-13665803D01*
X11183414Y-13418184D02*
X11202462Y-13418184D01*
X11202462Y-13418184D02*
X11221509Y-13427708D01*
X11221509Y-13427708D02*
X11231033Y-13437231D01*
X11231033Y-13437231D02*
X11240557Y-13456279D01*
X11240557Y-13456279D02*
X11250081Y-13494374D01*
X11250081Y-13494374D02*
X11250081Y-13541993D01*
X11250081Y-13541993D02*
X11240557Y-13580088D01*
X11240557Y-13580088D02*
X11231033Y-13599136D01*
X11231033Y-13599136D02*
X11221509Y-13608660D01*
X11221509Y-13608660D02*
X11202462Y-13618184D01*
X11202462Y-13618184D02*
X11183414Y-13618184D01*
X11183414Y-13618184D02*
X11164367Y-13608660D01*
X11164367Y-13608660D02*
X11154843Y-13599136D01*
X11154843Y-13599136D02*
X11145319Y-13580088D01*
X11145319Y-13580088D02*
X11135795Y-13541993D01*
X11135795Y-13541993D02*
X11135795Y-13494374D01*
X11135795Y-13494374D02*
X11145319Y-13456279D01*
X11145319Y-13456279D02*
X11154843Y-13437231D01*
X11154843Y-13437231D02*
X11164367Y-13427708D01*
X11164367Y-13427708D02*
X11183414Y-13418184D01*
X11335795Y-13599136D02*
X11345319Y-13608660D01*
X11345319Y-13608660D02*
X11335795Y-13618184D01*
X11335795Y-13618184D02*
X11326271Y-13608660D01*
X11326271Y-13608660D02*
X11335795Y-13599136D01*
X11335795Y-13599136D02*
X11335795Y-13618184D01*
X11469128Y-13418184D02*
X11488176Y-13418184D01*
X11488176Y-13418184D02*
X11507224Y-13427708D01*
X11507224Y-13427708D02*
X11516747Y-13437231D01*
X11516747Y-13437231D02*
X11526271Y-13456279D01*
X11526271Y-13456279D02*
X11535795Y-13494374D01*
X11535795Y-13494374D02*
X11535795Y-13541993D01*
X11535795Y-13541993D02*
X11526271Y-13580088D01*
X11526271Y-13580088D02*
X11516747Y-13599136D01*
X11516747Y-13599136D02*
X11507224Y-13608660D01*
X11507224Y-13608660D02*
X11488176Y-13618184D01*
X11488176Y-13618184D02*
X11469128Y-13618184D01*
X11469128Y-13618184D02*
X11450081Y-13608660D01*
X11450081Y-13608660D02*
X11440557Y-13599136D01*
X11440557Y-13599136D02*
X11431033Y-13580088D01*
X11431033Y-13580088D02*
X11421509Y-13541993D01*
X11421509Y-13541993D02*
X11421509Y-13494374D01*
X11421509Y-13494374D02*
X11431033Y-13456279D01*
X11431033Y-13456279D02*
X11440557Y-13437231D01*
X11440557Y-13437231D02*
X11450081Y-13427708D01*
X11450081Y-13427708D02*
X11469128Y-13418184D01*
X11726271Y-13618184D02*
X11611986Y-13618184D01*
X11669128Y-13618184D02*
X11669128Y-13418184D01*
X11669128Y-13418184D02*
X11650081Y-13446755D01*
X11650081Y-13446755D02*
X11631033Y-13465803D01*
X11631033Y-13465803D02*
X11611986Y-13475327D01*
X11907224Y-13418184D02*
X11811986Y-13418184D01*
X11811986Y-13418184D02*
X11802462Y-13513422D01*
X11802462Y-13513422D02*
X11811986Y-13503898D01*
X11811986Y-13503898D02*
X11831033Y-13494374D01*
X11831033Y-13494374D02*
X11878652Y-13494374D01*
X11878652Y-13494374D02*
X11897700Y-13503898D01*
X11897700Y-13503898D02*
X11907224Y-13513422D01*
X11907224Y-13513422D02*
X11916747Y-13532469D01*
X11916747Y-13532469D02*
X11916747Y-13580088D01*
X11916747Y-13580088D02*
X11907224Y-13599136D01*
X11907224Y-13599136D02*
X11897700Y-13608660D01*
X11897700Y-13608660D02*
X11878652Y-13618184D01*
X11878652Y-13618184D02*
X11831033Y-13618184D01*
X11831033Y-13618184D02*
X11811986Y-13608660D01*
X11811986Y-13608660D02*
X11802462Y-13599136D01*
X11983414Y-13418184D02*
X12116747Y-13418184D01*
X12116747Y-13418184D02*
X12031033Y-13618184D01*
X12183414Y-13418184D02*
X12183414Y-13456279D01*
X12259605Y-13418184D02*
X12259605Y-13456279D01*
X12554843Y-13694374D02*
X12545319Y-13684850D01*
X12545319Y-13684850D02*
X12526271Y-13656279D01*
X12526271Y-13656279D02*
X12516748Y-13637231D01*
X12516748Y-13637231D02*
X12507224Y-13608660D01*
X12507224Y-13608660D02*
X12497700Y-13561041D01*
X12497700Y-13561041D02*
X12497700Y-13522946D01*
X12497700Y-13522946D02*
X12507224Y-13475327D01*
X12507224Y-13475327D02*
X12516748Y-13446755D01*
X12516748Y-13446755D02*
X12526271Y-13427708D01*
X12526271Y-13427708D02*
X12545319Y-13399136D01*
X12545319Y-13399136D02*
X12554843Y-13389612D01*
X12735795Y-13618184D02*
X12621509Y-13618184D01*
X12678652Y-13618184D02*
X12678652Y-13418184D01*
X12678652Y-13418184D02*
X12659605Y-13446755D01*
X12659605Y-13446755D02*
X12640557Y-13465803D01*
X12640557Y-13465803D02*
X12621509Y-13475327D01*
X12926271Y-13618184D02*
X12811986Y-13618184D01*
X12869128Y-13618184D02*
X12869128Y-13418184D01*
X12869128Y-13418184D02*
X12850081Y-13446755D01*
X12850081Y-13446755D02*
X12831033Y-13465803D01*
X12831033Y-13465803D02*
X12811986Y-13475327D01*
X13097700Y-13484850D02*
X13097700Y-13618184D01*
X13050081Y-13408660D02*
X13002462Y-13551517D01*
X13002462Y-13551517D02*
X13126271Y-13551517D01*
X13354843Y-13618184D02*
X13354843Y-13418184D01*
X13440557Y-13618184D02*
X13440557Y-13513422D01*
X13440557Y-13513422D02*
X13431033Y-13494374D01*
X13431033Y-13494374D02*
X13411986Y-13484850D01*
X13411986Y-13484850D02*
X13383414Y-13484850D01*
X13383414Y-13484850D02*
X13364367Y-13494374D01*
X13364367Y-13494374D02*
X13354843Y-13503898D01*
X13564367Y-13618184D02*
X13545319Y-13608660D01*
X13545319Y-13608660D02*
X13535795Y-13599136D01*
X13535795Y-13599136D02*
X13526271Y-13580088D01*
X13526271Y-13580088D02*
X13526271Y-13522946D01*
X13526271Y-13522946D02*
X13535795Y-13503898D01*
X13535795Y-13503898D02*
X13545319Y-13494374D01*
X13545319Y-13494374D02*
X13564367Y-13484850D01*
X13564367Y-13484850D02*
X13592938Y-13484850D01*
X13592938Y-13484850D02*
X13611986Y-13494374D01*
X13611986Y-13494374D02*
X13621510Y-13503898D01*
X13621510Y-13503898D02*
X13631033Y-13522946D01*
X13631033Y-13522946D02*
X13631033Y-13580088D01*
X13631033Y-13580088D02*
X13621510Y-13599136D01*
X13621510Y-13599136D02*
X13611986Y-13608660D01*
X13611986Y-13608660D02*
X13592938Y-13618184D01*
X13592938Y-13618184D02*
X13564367Y-13618184D01*
X13745319Y-13618184D02*
X13726271Y-13608660D01*
X13726271Y-13608660D02*
X13716748Y-13589612D01*
X13716748Y-13589612D02*
X13716748Y-13418184D01*
X13897700Y-13608660D02*
X13878652Y-13618184D01*
X13878652Y-13618184D02*
X13840557Y-13618184D01*
X13840557Y-13618184D02*
X13821510Y-13608660D01*
X13821510Y-13608660D02*
X13811986Y-13589612D01*
X13811986Y-13589612D02*
X13811986Y-13513422D01*
X13811986Y-13513422D02*
X13821510Y-13494374D01*
X13821510Y-13494374D02*
X13840557Y-13484850D01*
X13840557Y-13484850D02*
X13878652Y-13484850D01*
X13878652Y-13484850D02*
X13897700Y-13494374D01*
X13897700Y-13494374D02*
X13907224Y-13513422D01*
X13907224Y-13513422D02*
X13907224Y-13532469D01*
X13907224Y-13532469D02*
X13811986Y-13551517D01*
X13983414Y-13608660D02*
X14002462Y-13618184D01*
X14002462Y-13618184D02*
X14040557Y-13618184D01*
X14040557Y-13618184D02*
X14059605Y-13608660D01*
X14059605Y-13608660D02*
X14069129Y-13589612D01*
X14069129Y-13589612D02*
X14069129Y-13580088D01*
X14069129Y-13580088D02*
X14059605Y-13561041D01*
X14059605Y-13561041D02*
X14040557Y-13551517D01*
X14040557Y-13551517D02*
X14011986Y-13551517D01*
X14011986Y-13551517D02*
X13992938Y-13541993D01*
X13992938Y-13541993D02*
X13983414Y-13522946D01*
X13983414Y-13522946D02*
X13983414Y-13513422D01*
X13983414Y-13513422D02*
X13992938Y-13494374D01*
X13992938Y-13494374D02*
X14011986Y-13484850D01*
X14011986Y-13484850D02*
X14040557Y-13484850D01*
X14040557Y-13484850D02*
X14059605Y-13494374D01*
X14135795Y-13694374D02*
X14145319Y-13684850D01*
X14145319Y-13684850D02*
X14164367Y-13656279D01*
X14164367Y-13656279D02*
X14173891Y-13637231D01*
X14173891Y-13637231D02*
X14183414Y-13608660D01*
X14183414Y-13608660D02*
X14192938Y-13561041D01*
X14192938Y-13561041D02*
X14192938Y-13522946D01*
X14192938Y-13522946D02*
X14183414Y-13475327D01*
X14183414Y-13475327D02*
X14173891Y-13446755D01*
X14173891Y-13446755D02*
X14164367Y-13427708D01*
X14164367Y-13427708D02*
X14145319Y-13399136D01*
X14145319Y-13399136D02*
X14135795Y-13389612D01*
D14*
X8973922Y-13804842D02*
X8973922Y-13776558D01*
X8945638Y-13776558D01*
X8945638Y-13804842D01*
X8973922Y-13804842D01*
D11*
X9278652Y-13682184D02*
X9297700Y-13682184D01*
X9297700Y-13682184D02*
X9316747Y-13691708D01*
X9316747Y-13691708D02*
X9326271Y-13701231D01*
X9326271Y-13701231D02*
X9335795Y-13720279D01*
X9335795Y-13720279D02*
X9345319Y-13758374D01*
X9345319Y-13758374D02*
X9345319Y-13805993D01*
X9345319Y-13805993D02*
X9335795Y-13844088D01*
X9335795Y-13844088D02*
X9326271Y-13863136D01*
X9326271Y-13863136D02*
X9316747Y-13872660D01*
X9316747Y-13872660D02*
X9297700Y-13882184D01*
X9297700Y-13882184D02*
X9278652Y-13882184D01*
X9278652Y-13882184D02*
X9259604Y-13872660D01*
X9259604Y-13872660D02*
X9250081Y-13863136D01*
X9250081Y-13863136D02*
X9240557Y-13844088D01*
X9240557Y-13844088D02*
X9231033Y-13805993D01*
X9231033Y-13805993D02*
X9231033Y-13758374D01*
X9231033Y-13758374D02*
X9240557Y-13720279D01*
X9240557Y-13720279D02*
X9250081Y-13701231D01*
X9250081Y-13701231D02*
X9259604Y-13691708D01*
X9259604Y-13691708D02*
X9278652Y-13682184D01*
X9431033Y-13863136D02*
X9440557Y-13872660D01*
X9440557Y-13872660D02*
X9431033Y-13882184D01*
X9431033Y-13882184D02*
X9421509Y-13872660D01*
X9421509Y-13872660D02*
X9431033Y-13863136D01*
X9431033Y-13863136D02*
X9431033Y-13882184D01*
X9611985Y-13748850D02*
X9611985Y-13882184D01*
X9564366Y-13672660D02*
X9516747Y-13815517D01*
X9516747Y-13815517D02*
X9640557Y-13815517D01*
X9754843Y-13682184D02*
X9773890Y-13682184D01*
X9773890Y-13682184D02*
X9792938Y-13691708D01*
X9792938Y-13691708D02*
X9802462Y-13701231D01*
X9802462Y-13701231D02*
X9811985Y-13720279D01*
X9811985Y-13720279D02*
X9821509Y-13758374D01*
X9821509Y-13758374D02*
X9821509Y-13805993D01*
X9821509Y-13805993D02*
X9811985Y-13844088D01*
X9811985Y-13844088D02*
X9802462Y-13863136D01*
X9802462Y-13863136D02*
X9792938Y-13872660D01*
X9792938Y-13872660D02*
X9773890Y-13882184D01*
X9773890Y-13882184D02*
X9754843Y-13882184D01*
X9754843Y-13882184D02*
X9735795Y-13872660D01*
X9735795Y-13872660D02*
X9726271Y-13863136D01*
X9726271Y-13863136D02*
X9716747Y-13844088D01*
X9716747Y-13844088D02*
X9707224Y-13805993D01*
X9707224Y-13805993D02*
X9707224Y-13758374D01*
X9707224Y-13758374D02*
X9716747Y-13720279D01*
X9716747Y-13720279D02*
X9726271Y-13701231D01*
X9726271Y-13701231D02*
X9735795Y-13691708D01*
X9735795Y-13691708D02*
X9754843Y-13682184D01*
X9945319Y-13682184D02*
X9964366Y-13682184D01*
X9964366Y-13682184D02*
X9983414Y-13691708D01*
X9983414Y-13691708D02*
X9992938Y-13701231D01*
X9992938Y-13701231D02*
X10002462Y-13720279D01*
X10002462Y-13720279D02*
X10011985Y-13758374D01*
X10011985Y-13758374D02*
X10011985Y-13805993D01*
X10011985Y-13805993D02*
X10002462Y-13844088D01*
X10002462Y-13844088D02*
X9992938Y-13863136D01*
X9992938Y-13863136D02*
X9983414Y-13872660D01*
X9983414Y-13872660D02*
X9964366Y-13882184D01*
X9964366Y-13882184D02*
X9945319Y-13882184D01*
X9945319Y-13882184D02*
X9926271Y-13872660D01*
X9926271Y-13872660D02*
X9916747Y-13863136D01*
X9916747Y-13863136D02*
X9907224Y-13844088D01*
X9907224Y-13844088D02*
X9897700Y-13805993D01*
X9897700Y-13805993D02*
X9897700Y-13758374D01*
X9897700Y-13758374D02*
X9907224Y-13720279D01*
X9907224Y-13720279D02*
X9916747Y-13701231D01*
X9916747Y-13701231D02*
X9926271Y-13691708D01*
X9926271Y-13691708D02*
X9945319Y-13682184D01*
X10097700Y-13882184D02*
X10097700Y-13748850D01*
X10097700Y-13767898D02*
X10107224Y-13758374D01*
X10107224Y-13758374D02*
X10126271Y-13748850D01*
X10126271Y-13748850D02*
X10154843Y-13748850D01*
X10154843Y-13748850D02*
X10173890Y-13758374D01*
X10173890Y-13758374D02*
X10183414Y-13777422D01*
X10183414Y-13777422D02*
X10183414Y-13882184D01*
X10183414Y-13777422D02*
X10192938Y-13758374D01*
X10192938Y-13758374D02*
X10211985Y-13748850D01*
X10211985Y-13748850D02*
X10240557Y-13748850D01*
X10240557Y-13748850D02*
X10259605Y-13758374D01*
X10259605Y-13758374D02*
X10269128Y-13777422D01*
X10269128Y-13777422D02*
X10269128Y-13882184D01*
X10364366Y-13882184D02*
X10364366Y-13748850D01*
X10364366Y-13767898D02*
X10373890Y-13758374D01*
X10373890Y-13758374D02*
X10392938Y-13748850D01*
X10392938Y-13748850D02*
X10421509Y-13748850D01*
X10421509Y-13748850D02*
X10440557Y-13758374D01*
X10440557Y-13758374D02*
X10450081Y-13777422D01*
X10450081Y-13777422D02*
X10450081Y-13882184D01*
X10450081Y-13777422D02*
X10459605Y-13758374D01*
X10459605Y-13758374D02*
X10478652Y-13748850D01*
X10478652Y-13748850D02*
X10507224Y-13748850D01*
X10507224Y-13748850D02*
X10526271Y-13758374D01*
X10526271Y-13758374D02*
X10535795Y-13777422D01*
X10535795Y-13777422D02*
X10535795Y-13882184D01*
X10926271Y-13672660D02*
X10754843Y-13929803D01*
X11183414Y-13682184D02*
X11202462Y-13682184D01*
X11202462Y-13682184D02*
X11221509Y-13691708D01*
X11221509Y-13691708D02*
X11231033Y-13701231D01*
X11231033Y-13701231D02*
X11240557Y-13720279D01*
X11240557Y-13720279D02*
X11250081Y-13758374D01*
X11250081Y-13758374D02*
X11250081Y-13805993D01*
X11250081Y-13805993D02*
X11240557Y-13844088D01*
X11240557Y-13844088D02*
X11231033Y-13863136D01*
X11231033Y-13863136D02*
X11221509Y-13872660D01*
X11221509Y-13872660D02*
X11202462Y-13882184D01*
X11202462Y-13882184D02*
X11183414Y-13882184D01*
X11183414Y-13882184D02*
X11164367Y-13872660D01*
X11164367Y-13872660D02*
X11154843Y-13863136D01*
X11154843Y-13863136D02*
X11145319Y-13844088D01*
X11145319Y-13844088D02*
X11135795Y-13805993D01*
X11135795Y-13805993D02*
X11135795Y-13758374D01*
X11135795Y-13758374D02*
X11145319Y-13720279D01*
X11145319Y-13720279D02*
X11154843Y-13701231D01*
X11154843Y-13701231D02*
X11164367Y-13691708D01*
X11164367Y-13691708D02*
X11183414Y-13682184D01*
X11335795Y-13863136D02*
X11345319Y-13872660D01*
X11345319Y-13872660D02*
X11335795Y-13882184D01*
X11335795Y-13882184D02*
X11326271Y-13872660D01*
X11326271Y-13872660D02*
X11335795Y-13863136D01*
X11335795Y-13863136D02*
X11335795Y-13882184D01*
X11469128Y-13682184D02*
X11488176Y-13682184D01*
X11488176Y-13682184D02*
X11507224Y-13691708D01*
X11507224Y-13691708D02*
X11516747Y-13701231D01*
X11516747Y-13701231D02*
X11526271Y-13720279D01*
X11526271Y-13720279D02*
X11535795Y-13758374D01*
X11535795Y-13758374D02*
X11535795Y-13805993D01*
X11535795Y-13805993D02*
X11526271Y-13844088D01*
X11526271Y-13844088D02*
X11516747Y-13863136D01*
X11516747Y-13863136D02*
X11507224Y-13872660D01*
X11507224Y-13872660D02*
X11488176Y-13882184D01*
X11488176Y-13882184D02*
X11469128Y-13882184D01*
X11469128Y-13882184D02*
X11450081Y-13872660D01*
X11450081Y-13872660D02*
X11440557Y-13863136D01*
X11440557Y-13863136D02*
X11431033Y-13844088D01*
X11431033Y-13844088D02*
X11421509Y-13805993D01*
X11421509Y-13805993D02*
X11421509Y-13758374D01*
X11421509Y-13758374D02*
X11431033Y-13720279D01*
X11431033Y-13720279D02*
X11440557Y-13701231D01*
X11440557Y-13701231D02*
X11450081Y-13691708D01*
X11450081Y-13691708D02*
X11469128Y-13682184D01*
X11726271Y-13882184D02*
X11611986Y-13882184D01*
X11669128Y-13882184D02*
X11669128Y-13682184D01*
X11669128Y-13682184D02*
X11650081Y-13710755D01*
X11650081Y-13710755D02*
X11631033Y-13729803D01*
X11631033Y-13729803D02*
X11611986Y-13739327D01*
X11907224Y-13682184D02*
X11811986Y-13682184D01*
X11811986Y-13682184D02*
X11802462Y-13777422D01*
X11802462Y-13777422D02*
X11811986Y-13767898D01*
X11811986Y-13767898D02*
X11831033Y-13758374D01*
X11831033Y-13758374D02*
X11878652Y-13758374D01*
X11878652Y-13758374D02*
X11897700Y-13767898D01*
X11897700Y-13767898D02*
X11907224Y-13777422D01*
X11907224Y-13777422D02*
X11916747Y-13796469D01*
X11916747Y-13796469D02*
X11916747Y-13844088D01*
X11916747Y-13844088D02*
X11907224Y-13863136D01*
X11907224Y-13863136D02*
X11897700Y-13872660D01*
X11897700Y-13872660D02*
X11878652Y-13882184D01*
X11878652Y-13882184D02*
X11831033Y-13882184D01*
X11831033Y-13882184D02*
X11811986Y-13872660D01*
X11811986Y-13872660D02*
X11802462Y-13863136D01*
X11983414Y-13682184D02*
X12116747Y-13682184D01*
X12116747Y-13682184D02*
X12031033Y-13882184D01*
X12183414Y-13682184D02*
X12183414Y-13720279D01*
X12259605Y-13682184D02*
X12259605Y-13720279D01*
X12554843Y-13958374D02*
X12545319Y-13948850D01*
X12545319Y-13948850D02*
X12526271Y-13920279D01*
X12526271Y-13920279D02*
X12516748Y-13901231D01*
X12516748Y-13901231D02*
X12507224Y-13872660D01*
X12507224Y-13872660D02*
X12497700Y-13825041D01*
X12497700Y-13825041D02*
X12497700Y-13786946D01*
X12497700Y-13786946D02*
X12507224Y-13739327D01*
X12507224Y-13739327D02*
X12516748Y-13710755D01*
X12516748Y-13710755D02*
X12526271Y-13691708D01*
X12526271Y-13691708D02*
X12545319Y-13663136D01*
X12545319Y-13663136D02*
X12554843Y-13653612D01*
X12611986Y-13682184D02*
X12735795Y-13682184D01*
X12735795Y-13682184D02*
X12669128Y-13758374D01*
X12669128Y-13758374D02*
X12697700Y-13758374D01*
X12697700Y-13758374D02*
X12716748Y-13767898D01*
X12716748Y-13767898D02*
X12726271Y-13777422D01*
X12726271Y-13777422D02*
X12735795Y-13796469D01*
X12735795Y-13796469D02*
X12735795Y-13844088D01*
X12735795Y-13844088D02*
X12726271Y-13863136D01*
X12726271Y-13863136D02*
X12716748Y-13872660D01*
X12716748Y-13872660D02*
X12697700Y-13882184D01*
X12697700Y-13882184D02*
X12640557Y-13882184D01*
X12640557Y-13882184D02*
X12621509Y-13872660D01*
X12621509Y-13872660D02*
X12611986Y-13863136D01*
X12811986Y-13701231D02*
X12821509Y-13691708D01*
X12821509Y-13691708D02*
X12840557Y-13682184D01*
X12840557Y-13682184D02*
X12888176Y-13682184D01*
X12888176Y-13682184D02*
X12907224Y-13691708D01*
X12907224Y-13691708D02*
X12916748Y-13701231D01*
X12916748Y-13701231D02*
X12926271Y-13720279D01*
X12926271Y-13720279D02*
X12926271Y-13739327D01*
X12926271Y-13739327D02*
X12916748Y-13767898D01*
X12916748Y-13767898D02*
X12802462Y-13882184D01*
X12802462Y-13882184D02*
X12926271Y-13882184D01*
X13164367Y-13882184D02*
X13164367Y-13682184D01*
X13250081Y-13882184D02*
X13250081Y-13777422D01*
X13250081Y-13777422D02*
X13240557Y-13758374D01*
X13240557Y-13758374D02*
X13221510Y-13748850D01*
X13221510Y-13748850D02*
X13192938Y-13748850D01*
X13192938Y-13748850D02*
X13173890Y-13758374D01*
X13173890Y-13758374D02*
X13164367Y-13767898D01*
X13373890Y-13882184D02*
X13354843Y-13872660D01*
X13354843Y-13872660D02*
X13345319Y-13863136D01*
X13345319Y-13863136D02*
X13335795Y-13844088D01*
X13335795Y-13844088D02*
X13335795Y-13786946D01*
X13335795Y-13786946D02*
X13345319Y-13767898D01*
X13345319Y-13767898D02*
X13354843Y-13758374D01*
X13354843Y-13758374D02*
X13373890Y-13748850D01*
X13373890Y-13748850D02*
X13402462Y-13748850D01*
X13402462Y-13748850D02*
X13421510Y-13758374D01*
X13421510Y-13758374D02*
X13431033Y-13767898D01*
X13431033Y-13767898D02*
X13440557Y-13786946D01*
X13440557Y-13786946D02*
X13440557Y-13844088D01*
X13440557Y-13844088D02*
X13431033Y-13863136D01*
X13431033Y-13863136D02*
X13421510Y-13872660D01*
X13421510Y-13872660D02*
X13402462Y-13882184D01*
X13402462Y-13882184D02*
X13373890Y-13882184D01*
X13554843Y-13882184D02*
X13535795Y-13872660D01*
X13535795Y-13872660D02*
X13526271Y-13853612D01*
X13526271Y-13853612D02*
X13526271Y-13682184D01*
X13707224Y-13872660D02*
X13688176Y-13882184D01*
X13688176Y-13882184D02*
X13650081Y-13882184D01*
X13650081Y-13882184D02*
X13631033Y-13872660D01*
X13631033Y-13872660D02*
X13621510Y-13853612D01*
X13621510Y-13853612D02*
X13621510Y-13777422D01*
X13621510Y-13777422D02*
X13631033Y-13758374D01*
X13631033Y-13758374D02*
X13650081Y-13748850D01*
X13650081Y-13748850D02*
X13688176Y-13748850D01*
X13688176Y-13748850D02*
X13707224Y-13758374D01*
X13707224Y-13758374D02*
X13716748Y-13777422D01*
X13716748Y-13777422D02*
X13716748Y-13796469D01*
X13716748Y-13796469D02*
X13621510Y-13815517D01*
X13792938Y-13872660D02*
X13811986Y-13882184D01*
X13811986Y-13882184D02*
X13850081Y-13882184D01*
X13850081Y-13882184D02*
X13869129Y-13872660D01*
X13869129Y-13872660D02*
X13878652Y-13853612D01*
X13878652Y-13853612D02*
X13878652Y-13844088D01*
X13878652Y-13844088D02*
X13869129Y-13825041D01*
X13869129Y-13825041D02*
X13850081Y-13815517D01*
X13850081Y-13815517D02*
X13821510Y-13815517D01*
X13821510Y-13815517D02*
X13802462Y-13805993D01*
X13802462Y-13805993D02*
X13792938Y-13786946D01*
X13792938Y-13786946D02*
X13792938Y-13777422D01*
X13792938Y-13777422D02*
X13802462Y-13758374D01*
X13802462Y-13758374D02*
X13821510Y-13748850D01*
X13821510Y-13748850D02*
X13850081Y-13748850D01*
X13850081Y-13748850D02*
X13869129Y-13758374D01*
X13945319Y-13958374D02*
X13954843Y-13948850D01*
X13954843Y-13948850D02*
X13973891Y-13920279D01*
X13973891Y-13920279D02*
X13983414Y-13901231D01*
X13983414Y-13901231D02*
X13992938Y-13872660D01*
X13992938Y-13872660D02*
X14002462Y-13825041D01*
X14002462Y-13825041D02*
X14002462Y-13786946D01*
X14002462Y-13786946D02*
X13992938Y-13739327D01*
X13992938Y-13739327D02*
X13983414Y-13710755D01*
X13983414Y-13710755D02*
X13973891Y-13691708D01*
X13973891Y-13691708D02*
X13954843Y-13663136D01*
X13954843Y-13663136D02*
X13945319Y-13653612D01*
D15*
X8937780Y-14096700D02*
X8979780Y-14054700D01*
X8937780Y-14012700D01*
X8895780Y-14054700D01*
X8937780Y-14096700D01*
D11*
X9278652Y-13946184D02*
X9297700Y-13946184D01*
X9297700Y-13946184D02*
X9316747Y-13955708D01*
X9316747Y-13955708D02*
X9326271Y-13965231D01*
X9326271Y-13965231D02*
X9335795Y-13984279D01*
X9335795Y-13984279D02*
X9345319Y-14022374D01*
X9345319Y-14022374D02*
X9345319Y-14069993D01*
X9345319Y-14069993D02*
X9335795Y-14108088D01*
X9335795Y-14108088D02*
X9326271Y-14127136D01*
X9326271Y-14127136D02*
X9316747Y-14136660D01*
X9316747Y-14136660D02*
X9297700Y-14146184D01*
X9297700Y-14146184D02*
X9278652Y-14146184D01*
X9278652Y-14146184D02*
X9259604Y-14136660D01*
X9259604Y-14136660D02*
X9250081Y-14127136D01*
X9250081Y-14127136D02*
X9240557Y-14108088D01*
X9240557Y-14108088D02*
X9231033Y-14069993D01*
X9231033Y-14069993D02*
X9231033Y-14022374D01*
X9231033Y-14022374D02*
X9240557Y-13984279D01*
X9240557Y-13984279D02*
X9250081Y-13965231D01*
X9250081Y-13965231D02*
X9259604Y-13955708D01*
X9259604Y-13955708D02*
X9278652Y-13946184D01*
X9431033Y-14127136D02*
X9440557Y-14136660D01*
X9440557Y-14136660D02*
X9431033Y-14146184D01*
X9431033Y-14146184D02*
X9421509Y-14136660D01*
X9421509Y-14136660D02*
X9431033Y-14127136D01*
X9431033Y-14127136D02*
X9431033Y-14146184D01*
X9554843Y-14031898D02*
X9535795Y-14022374D01*
X9535795Y-14022374D02*
X9526271Y-14012850D01*
X9526271Y-14012850D02*
X9516747Y-13993803D01*
X9516747Y-13993803D02*
X9516747Y-13984279D01*
X9516747Y-13984279D02*
X9526271Y-13965231D01*
X9526271Y-13965231D02*
X9535795Y-13955708D01*
X9535795Y-13955708D02*
X9554843Y-13946184D01*
X9554843Y-13946184D02*
X9592938Y-13946184D01*
X9592938Y-13946184D02*
X9611985Y-13955708D01*
X9611985Y-13955708D02*
X9621509Y-13965231D01*
X9621509Y-13965231D02*
X9631033Y-13984279D01*
X9631033Y-13984279D02*
X9631033Y-13993803D01*
X9631033Y-13993803D02*
X9621509Y-14012850D01*
X9621509Y-14012850D02*
X9611985Y-14022374D01*
X9611985Y-14022374D02*
X9592938Y-14031898D01*
X9592938Y-14031898D02*
X9554843Y-14031898D01*
X9554843Y-14031898D02*
X9535795Y-14041422D01*
X9535795Y-14041422D02*
X9526271Y-14050946D01*
X9526271Y-14050946D02*
X9516747Y-14069993D01*
X9516747Y-14069993D02*
X9516747Y-14108088D01*
X9516747Y-14108088D02*
X9526271Y-14127136D01*
X9526271Y-14127136D02*
X9535795Y-14136660D01*
X9535795Y-14136660D02*
X9554843Y-14146184D01*
X9554843Y-14146184D02*
X9592938Y-14146184D01*
X9592938Y-14146184D02*
X9611985Y-14136660D01*
X9611985Y-14136660D02*
X9621509Y-14127136D01*
X9621509Y-14127136D02*
X9631033Y-14108088D01*
X9631033Y-14108088D02*
X9631033Y-14069993D01*
X9631033Y-14069993D02*
X9621509Y-14050946D01*
X9621509Y-14050946D02*
X9611985Y-14041422D01*
X9611985Y-14041422D02*
X9592938Y-14031898D01*
X9802462Y-14012850D02*
X9802462Y-14146184D01*
X9754843Y-13936660D02*
X9707224Y-14079517D01*
X9707224Y-14079517D02*
X9831033Y-14079517D01*
X9945319Y-13946184D02*
X9964366Y-13946184D01*
X9964366Y-13946184D02*
X9983414Y-13955708D01*
X9983414Y-13955708D02*
X9992938Y-13965231D01*
X9992938Y-13965231D02*
X10002462Y-13984279D01*
X10002462Y-13984279D02*
X10011985Y-14022374D01*
X10011985Y-14022374D02*
X10011985Y-14069993D01*
X10011985Y-14069993D02*
X10002462Y-14108088D01*
X10002462Y-14108088D02*
X9992938Y-14127136D01*
X9992938Y-14127136D02*
X9983414Y-14136660D01*
X9983414Y-14136660D02*
X9964366Y-14146184D01*
X9964366Y-14146184D02*
X9945319Y-14146184D01*
X9945319Y-14146184D02*
X9926271Y-14136660D01*
X9926271Y-14136660D02*
X9916747Y-14127136D01*
X9916747Y-14127136D02*
X9907224Y-14108088D01*
X9907224Y-14108088D02*
X9897700Y-14069993D01*
X9897700Y-14069993D02*
X9897700Y-14022374D01*
X9897700Y-14022374D02*
X9907224Y-13984279D01*
X9907224Y-13984279D02*
X9916747Y-13965231D01*
X9916747Y-13965231D02*
X9926271Y-13955708D01*
X9926271Y-13955708D02*
X9945319Y-13946184D01*
X10097700Y-14146184D02*
X10097700Y-14012850D01*
X10097700Y-14031898D02*
X10107224Y-14022374D01*
X10107224Y-14022374D02*
X10126271Y-14012850D01*
X10126271Y-14012850D02*
X10154843Y-14012850D01*
X10154843Y-14012850D02*
X10173890Y-14022374D01*
X10173890Y-14022374D02*
X10183414Y-14041422D01*
X10183414Y-14041422D02*
X10183414Y-14146184D01*
X10183414Y-14041422D02*
X10192938Y-14022374D01*
X10192938Y-14022374D02*
X10211985Y-14012850D01*
X10211985Y-14012850D02*
X10240557Y-14012850D01*
X10240557Y-14012850D02*
X10259605Y-14022374D01*
X10259605Y-14022374D02*
X10269128Y-14041422D01*
X10269128Y-14041422D02*
X10269128Y-14146184D01*
X10364366Y-14146184D02*
X10364366Y-14012850D01*
X10364366Y-14031898D02*
X10373890Y-14022374D01*
X10373890Y-14022374D02*
X10392938Y-14012850D01*
X10392938Y-14012850D02*
X10421509Y-14012850D01*
X10421509Y-14012850D02*
X10440557Y-14022374D01*
X10440557Y-14022374D02*
X10450081Y-14041422D01*
X10450081Y-14041422D02*
X10450081Y-14146184D01*
X10450081Y-14041422D02*
X10459605Y-14022374D01*
X10459605Y-14022374D02*
X10478652Y-14012850D01*
X10478652Y-14012850D02*
X10507224Y-14012850D01*
X10507224Y-14012850D02*
X10526271Y-14022374D01*
X10526271Y-14022374D02*
X10535795Y-14041422D01*
X10535795Y-14041422D02*
X10535795Y-14146184D01*
X10926271Y-13936660D02*
X10754843Y-14193803D01*
X11183414Y-13946184D02*
X11202462Y-13946184D01*
X11202462Y-13946184D02*
X11221509Y-13955708D01*
X11221509Y-13955708D02*
X11231033Y-13965231D01*
X11231033Y-13965231D02*
X11240557Y-13984279D01*
X11240557Y-13984279D02*
X11250081Y-14022374D01*
X11250081Y-14022374D02*
X11250081Y-14069993D01*
X11250081Y-14069993D02*
X11240557Y-14108088D01*
X11240557Y-14108088D02*
X11231033Y-14127136D01*
X11231033Y-14127136D02*
X11221509Y-14136660D01*
X11221509Y-14136660D02*
X11202462Y-14146184D01*
X11202462Y-14146184D02*
X11183414Y-14146184D01*
X11183414Y-14146184D02*
X11164367Y-14136660D01*
X11164367Y-14136660D02*
X11154843Y-14127136D01*
X11154843Y-14127136D02*
X11145319Y-14108088D01*
X11145319Y-14108088D02*
X11135795Y-14069993D01*
X11135795Y-14069993D02*
X11135795Y-14022374D01*
X11135795Y-14022374D02*
X11145319Y-13984279D01*
X11145319Y-13984279D02*
X11154843Y-13965231D01*
X11154843Y-13965231D02*
X11164367Y-13955708D01*
X11164367Y-13955708D02*
X11183414Y-13946184D01*
X11335795Y-14127136D02*
X11345319Y-14136660D01*
X11345319Y-14136660D02*
X11335795Y-14146184D01*
X11335795Y-14146184D02*
X11326271Y-14136660D01*
X11326271Y-14136660D02*
X11335795Y-14127136D01*
X11335795Y-14127136D02*
X11335795Y-14146184D01*
X11469128Y-13946184D02*
X11488176Y-13946184D01*
X11488176Y-13946184D02*
X11507224Y-13955708D01*
X11507224Y-13955708D02*
X11516747Y-13965231D01*
X11516747Y-13965231D02*
X11526271Y-13984279D01*
X11526271Y-13984279D02*
X11535795Y-14022374D01*
X11535795Y-14022374D02*
X11535795Y-14069993D01*
X11535795Y-14069993D02*
X11526271Y-14108088D01*
X11526271Y-14108088D02*
X11516747Y-14127136D01*
X11516747Y-14127136D02*
X11507224Y-14136660D01*
X11507224Y-14136660D02*
X11488176Y-14146184D01*
X11488176Y-14146184D02*
X11469128Y-14146184D01*
X11469128Y-14146184D02*
X11450081Y-14136660D01*
X11450081Y-14136660D02*
X11440557Y-14127136D01*
X11440557Y-14127136D02*
X11431033Y-14108088D01*
X11431033Y-14108088D02*
X11421509Y-14069993D01*
X11421509Y-14069993D02*
X11421509Y-14022374D01*
X11421509Y-14022374D02*
X11431033Y-13984279D01*
X11431033Y-13984279D02*
X11440557Y-13965231D01*
X11440557Y-13965231D02*
X11450081Y-13955708D01*
X11450081Y-13955708D02*
X11469128Y-13946184D01*
X11602462Y-13946184D02*
X11726271Y-13946184D01*
X11726271Y-13946184D02*
X11659605Y-14022374D01*
X11659605Y-14022374D02*
X11688176Y-14022374D01*
X11688176Y-14022374D02*
X11707224Y-14031898D01*
X11707224Y-14031898D02*
X11716747Y-14041422D01*
X11716747Y-14041422D02*
X11726271Y-14060469D01*
X11726271Y-14060469D02*
X11726271Y-14108088D01*
X11726271Y-14108088D02*
X11716747Y-14127136D01*
X11716747Y-14127136D02*
X11707224Y-14136660D01*
X11707224Y-14136660D02*
X11688176Y-14146184D01*
X11688176Y-14146184D02*
X11631033Y-14146184D01*
X11631033Y-14146184D02*
X11611986Y-14136660D01*
X11611986Y-14136660D02*
X11602462Y-14127136D01*
X11792938Y-13946184D02*
X11916747Y-13946184D01*
X11916747Y-13946184D02*
X11850081Y-14022374D01*
X11850081Y-14022374D02*
X11878652Y-14022374D01*
X11878652Y-14022374D02*
X11897700Y-14031898D01*
X11897700Y-14031898D02*
X11907224Y-14041422D01*
X11907224Y-14041422D02*
X11916747Y-14060469D01*
X11916747Y-14060469D02*
X11916747Y-14108088D01*
X11916747Y-14108088D02*
X11907224Y-14127136D01*
X11907224Y-14127136D02*
X11897700Y-14136660D01*
X11897700Y-14136660D02*
X11878652Y-14146184D01*
X11878652Y-14146184D02*
X11821509Y-14146184D01*
X11821509Y-14146184D02*
X11802462Y-14136660D01*
X11802462Y-14136660D02*
X11792938Y-14127136D01*
X12107224Y-14146184D02*
X11992938Y-14146184D01*
X12050081Y-14146184D02*
X12050081Y-13946184D01*
X12050081Y-13946184D02*
X12031033Y-13974755D01*
X12031033Y-13974755D02*
X12011986Y-13993803D01*
X12011986Y-13993803D02*
X11992938Y-14003327D01*
X12183414Y-13946184D02*
X12183414Y-13984279D01*
X12259605Y-13946184D02*
X12259605Y-13984279D01*
X12554843Y-14222374D02*
X12545319Y-14212850D01*
X12545319Y-14212850D02*
X12526271Y-14184279D01*
X12526271Y-14184279D02*
X12516748Y-14165231D01*
X12516748Y-14165231D02*
X12507224Y-14136660D01*
X12507224Y-14136660D02*
X12497700Y-14089041D01*
X12497700Y-14089041D02*
X12497700Y-14050946D01*
X12497700Y-14050946D02*
X12507224Y-14003327D01*
X12507224Y-14003327D02*
X12516748Y-13974755D01*
X12516748Y-13974755D02*
X12526271Y-13955708D01*
X12526271Y-13955708D02*
X12545319Y-13927136D01*
X12545319Y-13927136D02*
X12554843Y-13917612D01*
X12726271Y-13946184D02*
X12631033Y-13946184D01*
X12631033Y-13946184D02*
X12621509Y-14041422D01*
X12621509Y-14041422D02*
X12631033Y-14031898D01*
X12631033Y-14031898D02*
X12650081Y-14022374D01*
X12650081Y-14022374D02*
X12697700Y-14022374D01*
X12697700Y-14022374D02*
X12716748Y-14031898D01*
X12716748Y-14031898D02*
X12726271Y-14041422D01*
X12726271Y-14041422D02*
X12735795Y-14060469D01*
X12735795Y-14060469D02*
X12735795Y-14108088D01*
X12735795Y-14108088D02*
X12726271Y-14127136D01*
X12726271Y-14127136D02*
X12716748Y-14136660D01*
X12716748Y-14136660D02*
X12697700Y-14146184D01*
X12697700Y-14146184D02*
X12650081Y-14146184D01*
X12650081Y-14146184D02*
X12631033Y-14136660D01*
X12631033Y-14136660D02*
X12621509Y-14127136D01*
X12973890Y-14146184D02*
X12973890Y-13946184D01*
X13059605Y-14146184D02*
X13059605Y-14041422D01*
X13059605Y-14041422D02*
X13050081Y-14022374D01*
X13050081Y-14022374D02*
X13031033Y-14012850D01*
X13031033Y-14012850D02*
X13002462Y-14012850D01*
X13002462Y-14012850D02*
X12983414Y-14022374D01*
X12983414Y-14022374D02*
X12973890Y-14031898D01*
X13183414Y-14146184D02*
X13164367Y-14136660D01*
X13164367Y-14136660D02*
X13154843Y-14127136D01*
X13154843Y-14127136D02*
X13145319Y-14108088D01*
X13145319Y-14108088D02*
X13145319Y-14050946D01*
X13145319Y-14050946D02*
X13154843Y-14031898D01*
X13154843Y-14031898D02*
X13164367Y-14022374D01*
X13164367Y-14022374D02*
X13183414Y-14012850D01*
X13183414Y-14012850D02*
X13211986Y-14012850D01*
X13211986Y-14012850D02*
X13231033Y-14022374D01*
X13231033Y-14022374D02*
X13240557Y-14031898D01*
X13240557Y-14031898D02*
X13250081Y-14050946D01*
X13250081Y-14050946D02*
X13250081Y-14108088D01*
X13250081Y-14108088D02*
X13240557Y-14127136D01*
X13240557Y-14127136D02*
X13231033Y-14136660D01*
X13231033Y-14136660D02*
X13211986Y-14146184D01*
X13211986Y-14146184D02*
X13183414Y-14146184D01*
X13364367Y-14146184D02*
X13345319Y-14136660D01*
X13345319Y-14136660D02*
X13335795Y-14117612D01*
X13335795Y-14117612D02*
X13335795Y-13946184D01*
X13516748Y-14136660D02*
X13497700Y-14146184D01*
X13497700Y-14146184D02*
X13459605Y-14146184D01*
X13459605Y-14146184D02*
X13440557Y-14136660D01*
X13440557Y-14136660D02*
X13431033Y-14117612D01*
X13431033Y-14117612D02*
X13431033Y-14041422D01*
X13431033Y-14041422D02*
X13440557Y-14022374D01*
X13440557Y-14022374D02*
X13459605Y-14012850D01*
X13459605Y-14012850D02*
X13497700Y-14012850D01*
X13497700Y-14012850D02*
X13516748Y-14022374D01*
X13516748Y-14022374D02*
X13526271Y-14041422D01*
X13526271Y-14041422D02*
X13526271Y-14060469D01*
X13526271Y-14060469D02*
X13431033Y-14079517D01*
X13602462Y-14136660D02*
X13621510Y-14146184D01*
X13621510Y-14146184D02*
X13659605Y-14146184D01*
X13659605Y-14146184D02*
X13678652Y-14136660D01*
X13678652Y-14136660D02*
X13688176Y-14117612D01*
X13688176Y-14117612D02*
X13688176Y-14108088D01*
X13688176Y-14108088D02*
X13678652Y-14089041D01*
X13678652Y-14089041D02*
X13659605Y-14079517D01*
X13659605Y-14079517D02*
X13631033Y-14079517D01*
X13631033Y-14079517D02*
X13611986Y-14069993D01*
X13611986Y-14069993D02*
X13602462Y-14050946D01*
X13602462Y-14050946D02*
X13602462Y-14041422D01*
X13602462Y-14041422D02*
X13611986Y-14022374D01*
X13611986Y-14022374D02*
X13631033Y-14012850D01*
X13631033Y-14012850D02*
X13659605Y-14012850D01*
X13659605Y-14012850D02*
X13678652Y-14022374D01*
X13754843Y-14222374D02*
X13764367Y-14212850D01*
X13764367Y-14212850D02*
X13783414Y-14184279D01*
X13783414Y-14184279D02*
X13792938Y-14165231D01*
X13792938Y-14165231D02*
X13802462Y-14136660D01*
X13802462Y-14136660D02*
X13811986Y-14089041D01*
X13811986Y-14089041D02*
X13811986Y-14050946D01*
X13811986Y-14050946D02*
X13802462Y-14003327D01*
X13802462Y-14003327D02*
X13792938Y-13974755D01*
X13792938Y-13974755D02*
X13783414Y-13955708D01*
X13783414Y-13955708D02*
X13764367Y-13927136D01*
X13764367Y-13927136D02*
X13754843Y-13917612D01*
D16*
X8889780Y-14273700D02*
X8979780Y-14363700D01*
X8979780Y-14273700D02*
X8889780Y-14363700D01*
X8979780Y-14318700D02*
G75*
G03*
X8979780Y-14318700I-45000J0D01*
G01*
D11*
X9278652Y-14210184D02*
X9297700Y-14210184D01*
X9297700Y-14210184D02*
X9316747Y-14219708D01*
X9316747Y-14219708D02*
X9326271Y-14229231D01*
X9326271Y-14229231D02*
X9335795Y-14248279D01*
X9335795Y-14248279D02*
X9345319Y-14286374D01*
X9345319Y-14286374D02*
X9345319Y-14333993D01*
X9345319Y-14333993D02*
X9335795Y-14372088D01*
X9335795Y-14372088D02*
X9326271Y-14391136D01*
X9326271Y-14391136D02*
X9316747Y-14400660D01*
X9316747Y-14400660D02*
X9297700Y-14410184D01*
X9297700Y-14410184D02*
X9278652Y-14410184D01*
X9278652Y-14410184D02*
X9259604Y-14400660D01*
X9259604Y-14400660D02*
X9250081Y-14391136D01*
X9250081Y-14391136D02*
X9240557Y-14372088D01*
X9240557Y-14372088D02*
X9231033Y-14333993D01*
X9231033Y-14333993D02*
X9231033Y-14286374D01*
X9231033Y-14286374D02*
X9240557Y-14248279D01*
X9240557Y-14248279D02*
X9250081Y-14229231D01*
X9250081Y-14229231D02*
X9259604Y-14219708D01*
X9259604Y-14219708D02*
X9278652Y-14210184D01*
X9431033Y-14391136D02*
X9440557Y-14400660D01*
X9440557Y-14400660D02*
X9431033Y-14410184D01*
X9431033Y-14410184D02*
X9421509Y-14400660D01*
X9421509Y-14400660D02*
X9431033Y-14391136D01*
X9431033Y-14391136D02*
X9431033Y-14410184D01*
X9535795Y-14410184D02*
X9573890Y-14410184D01*
X9573890Y-14410184D02*
X9592938Y-14400660D01*
X9592938Y-14400660D02*
X9602462Y-14391136D01*
X9602462Y-14391136D02*
X9621509Y-14362565D01*
X9621509Y-14362565D02*
X9631033Y-14324469D01*
X9631033Y-14324469D02*
X9631033Y-14248279D01*
X9631033Y-14248279D02*
X9621509Y-14229231D01*
X9621509Y-14229231D02*
X9611985Y-14219708D01*
X9611985Y-14219708D02*
X9592938Y-14210184D01*
X9592938Y-14210184D02*
X9554843Y-14210184D01*
X9554843Y-14210184D02*
X9535795Y-14219708D01*
X9535795Y-14219708D02*
X9526271Y-14229231D01*
X9526271Y-14229231D02*
X9516747Y-14248279D01*
X9516747Y-14248279D02*
X9516747Y-14295898D01*
X9516747Y-14295898D02*
X9526271Y-14314946D01*
X9526271Y-14314946D02*
X9535795Y-14324469D01*
X9535795Y-14324469D02*
X9554843Y-14333993D01*
X9554843Y-14333993D02*
X9592938Y-14333993D01*
X9592938Y-14333993D02*
X9611985Y-14324469D01*
X9611985Y-14324469D02*
X9621509Y-14314946D01*
X9621509Y-14314946D02*
X9631033Y-14295898D01*
X9754843Y-14210184D02*
X9773890Y-14210184D01*
X9773890Y-14210184D02*
X9792938Y-14219708D01*
X9792938Y-14219708D02*
X9802462Y-14229231D01*
X9802462Y-14229231D02*
X9811985Y-14248279D01*
X9811985Y-14248279D02*
X9821509Y-14286374D01*
X9821509Y-14286374D02*
X9821509Y-14333993D01*
X9821509Y-14333993D02*
X9811985Y-14372088D01*
X9811985Y-14372088D02*
X9802462Y-14391136D01*
X9802462Y-14391136D02*
X9792938Y-14400660D01*
X9792938Y-14400660D02*
X9773890Y-14410184D01*
X9773890Y-14410184D02*
X9754843Y-14410184D01*
X9754843Y-14410184D02*
X9735795Y-14400660D01*
X9735795Y-14400660D02*
X9726271Y-14391136D01*
X9726271Y-14391136D02*
X9716747Y-14372088D01*
X9716747Y-14372088D02*
X9707224Y-14333993D01*
X9707224Y-14333993D02*
X9707224Y-14286374D01*
X9707224Y-14286374D02*
X9716747Y-14248279D01*
X9716747Y-14248279D02*
X9726271Y-14229231D01*
X9726271Y-14229231D02*
X9735795Y-14219708D01*
X9735795Y-14219708D02*
X9754843Y-14210184D01*
X9945319Y-14210184D02*
X9964366Y-14210184D01*
X9964366Y-14210184D02*
X9983414Y-14219708D01*
X9983414Y-14219708D02*
X9992938Y-14229231D01*
X9992938Y-14229231D02*
X10002462Y-14248279D01*
X10002462Y-14248279D02*
X10011985Y-14286374D01*
X10011985Y-14286374D02*
X10011985Y-14333993D01*
X10011985Y-14333993D02*
X10002462Y-14372088D01*
X10002462Y-14372088D02*
X9992938Y-14391136D01*
X9992938Y-14391136D02*
X9983414Y-14400660D01*
X9983414Y-14400660D02*
X9964366Y-14410184D01*
X9964366Y-14410184D02*
X9945319Y-14410184D01*
X9945319Y-14410184D02*
X9926271Y-14400660D01*
X9926271Y-14400660D02*
X9916747Y-14391136D01*
X9916747Y-14391136D02*
X9907224Y-14372088D01*
X9907224Y-14372088D02*
X9897700Y-14333993D01*
X9897700Y-14333993D02*
X9897700Y-14286374D01*
X9897700Y-14286374D02*
X9907224Y-14248279D01*
X9907224Y-14248279D02*
X9916747Y-14229231D01*
X9916747Y-14229231D02*
X9926271Y-14219708D01*
X9926271Y-14219708D02*
X9945319Y-14210184D01*
X10097700Y-14410184D02*
X10097700Y-14276850D01*
X10097700Y-14295898D02*
X10107224Y-14286374D01*
X10107224Y-14286374D02*
X10126271Y-14276850D01*
X10126271Y-14276850D02*
X10154843Y-14276850D01*
X10154843Y-14276850D02*
X10173890Y-14286374D01*
X10173890Y-14286374D02*
X10183414Y-14305422D01*
X10183414Y-14305422D02*
X10183414Y-14410184D01*
X10183414Y-14305422D02*
X10192938Y-14286374D01*
X10192938Y-14286374D02*
X10211985Y-14276850D01*
X10211985Y-14276850D02*
X10240557Y-14276850D01*
X10240557Y-14276850D02*
X10259605Y-14286374D01*
X10259605Y-14286374D02*
X10269128Y-14305422D01*
X10269128Y-14305422D02*
X10269128Y-14410184D01*
X10364366Y-14410184D02*
X10364366Y-14276850D01*
X10364366Y-14295898D02*
X10373890Y-14286374D01*
X10373890Y-14286374D02*
X10392938Y-14276850D01*
X10392938Y-14276850D02*
X10421509Y-14276850D01*
X10421509Y-14276850D02*
X10440557Y-14286374D01*
X10440557Y-14286374D02*
X10450081Y-14305422D01*
X10450081Y-14305422D02*
X10450081Y-14410184D01*
X10450081Y-14305422D02*
X10459605Y-14286374D01*
X10459605Y-14286374D02*
X10478652Y-14276850D01*
X10478652Y-14276850D02*
X10507224Y-14276850D01*
X10507224Y-14276850D02*
X10526271Y-14286374D01*
X10526271Y-14286374D02*
X10535795Y-14305422D01*
X10535795Y-14305422D02*
X10535795Y-14410184D01*
X10926271Y-14200660D02*
X10754843Y-14457803D01*
X11183414Y-14210184D02*
X11202462Y-14210184D01*
X11202462Y-14210184D02*
X11221509Y-14219708D01*
X11221509Y-14219708D02*
X11231033Y-14229231D01*
X11231033Y-14229231D02*
X11240557Y-14248279D01*
X11240557Y-14248279D02*
X11250081Y-14286374D01*
X11250081Y-14286374D02*
X11250081Y-14333993D01*
X11250081Y-14333993D02*
X11240557Y-14372088D01*
X11240557Y-14372088D02*
X11231033Y-14391136D01*
X11231033Y-14391136D02*
X11221509Y-14400660D01*
X11221509Y-14400660D02*
X11202462Y-14410184D01*
X11202462Y-14410184D02*
X11183414Y-14410184D01*
X11183414Y-14410184D02*
X11164367Y-14400660D01*
X11164367Y-14400660D02*
X11154843Y-14391136D01*
X11154843Y-14391136D02*
X11145319Y-14372088D01*
X11145319Y-14372088D02*
X11135795Y-14333993D01*
X11135795Y-14333993D02*
X11135795Y-14286374D01*
X11135795Y-14286374D02*
X11145319Y-14248279D01*
X11145319Y-14248279D02*
X11154843Y-14229231D01*
X11154843Y-14229231D02*
X11164367Y-14219708D01*
X11164367Y-14219708D02*
X11183414Y-14210184D01*
X11335795Y-14391136D02*
X11345319Y-14400660D01*
X11345319Y-14400660D02*
X11335795Y-14410184D01*
X11335795Y-14410184D02*
X11326271Y-14400660D01*
X11326271Y-14400660D02*
X11335795Y-14391136D01*
X11335795Y-14391136D02*
X11335795Y-14410184D01*
X11469128Y-14210184D02*
X11488176Y-14210184D01*
X11488176Y-14210184D02*
X11507224Y-14219708D01*
X11507224Y-14219708D02*
X11516747Y-14229231D01*
X11516747Y-14229231D02*
X11526271Y-14248279D01*
X11526271Y-14248279D02*
X11535795Y-14286374D01*
X11535795Y-14286374D02*
X11535795Y-14333993D01*
X11535795Y-14333993D02*
X11526271Y-14372088D01*
X11526271Y-14372088D02*
X11516747Y-14391136D01*
X11516747Y-14391136D02*
X11507224Y-14400660D01*
X11507224Y-14400660D02*
X11488176Y-14410184D01*
X11488176Y-14410184D02*
X11469128Y-14410184D01*
X11469128Y-14410184D02*
X11450081Y-14400660D01*
X11450081Y-14400660D02*
X11440557Y-14391136D01*
X11440557Y-14391136D02*
X11431033Y-14372088D01*
X11431033Y-14372088D02*
X11421509Y-14333993D01*
X11421509Y-14333993D02*
X11421509Y-14286374D01*
X11421509Y-14286374D02*
X11431033Y-14248279D01*
X11431033Y-14248279D02*
X11440557Y-14229231D01*
X11440557Y-14229231D02*
X11450081Y-14219708D01*
X11450081Y-14219708D02*
X11469128Y-14210184D01*
X11602462Y-14210184D02*
X11726271Y-14210184D01*
X11726271Y-14210184D02*
X11659605Y-14286374D01*
X11659605Y-14286374D02*
X11688176Y-14286374D01*
X11688176Y-14286374D02*
X11707224Y-14295898D01*
X11707224Y-14295898D02*
X11716747Y-14305422D01*
X11716747Y-14305422D02*
X11726271Y-14324469D01*
X11726271Y-14324469D02*
X11726271Y-14372088D01*
X11726271Y-14372088D02*
X11716747Y-14391136D01*
X11716747Y-14391136D02*
X11707224Y-14400660D01*
X11707224Y-14400660D02*
X11688176Y-14410184D01*
X11688176Y-14410184D02*
X11631033Y-14410184D01*
X11631033Y-14410184D02*
X11611986Y-14400660D01*
X11611986Y-14400660D02*
X11602462Y-14391136D01*
X11907224Y-14210184D02*
X11811986Y-14210184D01*
X11811986Y-14210184D02*
X11802462Y-14305422D01*
X11802462Y-14305422D02*
X11811986Y-14295898D01*
X11811986Y-14295898D02*
X11831033Y-14286374D01*
X11831033Y-14286374D02*
X11878652Y-14286374D01*
X11878652Y-14286374D02*
X11897700Y-14295898D01*
X11897700Y-14295898D02*
X11907224Y-14305422D01*
X11907224Y-14305422D02*
X11916747Y-14324469D01*
X11916747Y-14324469D02*
X11916747Y-14372088D01*
X11916747Y-14372088D02*
X11907224Y-14391136D01*
X11907224Y-14391136D02*
X11897700Y-14400660D01*
X11897700Y-14400660D02*
X11878652Y-14410184D01*
X11878652Y-14410184D02*
X11831033Y-14410184D01*
X11831033Y-14410184D02*
X11811986Y-14400660D01*
X11811986Y-14400660D02*
X11802462Y-14391136D01*
X12088176Y-14276850D02*
X12088176Y-14410184D01*
X12040557Y-14200660D02*
X11992938Y-14343517D01*
X11992938Y-14343517D02*
X12116747Y-14343517D01*
X12183414Y-14210184D02*
X12183414Y-14248279D01*
X12259605Y-14210184D02*
X12259605Y-14248279D01*
X12554843Y-14486374D02*
X12545319Y-14476850D01*
X12545319Y-14476850D02*
X12526271Y-14448279D01*
X12526271Y-14448279D02*
X12516748Y-14429231D01*
X12516748Y-14429231D02*
X12507224Y-14400660D01*
X12507224Y-14400660D02*
X12497700Y-14353041D01*
X12497700Y-14353041D02*
X12497700Y-14314946D01*
X12497700Y-14314946D02*
X12507224Y-14267327D01*
X12507224Y-14267327D02*
X12516748Y-14238755D01*
X12516748Y-14238755D02*
X12526271Y-14219708D01*
X12526271Y-14219708D02*
X12545319Y-14191136D01*
X12545319Y-14191136D02*
X12554843Y-14181612D01*
X12669128Y-14210184D02*
X12688176Y-14210184D01*
X12688176Y-14210184D02*
X12707224Y-14219708D01*
X12707224Y-14219708D02*
X12716748Y-14229231D01*
X12716748Y-14229231D02*
X12726271Y-14248279D01*
X12726271Y-14248279D02*
X12735795Y-14286374D01*
X12735795Y-14286374D02*
X12735795Y-14333993D01*
X12735795Y-14333993D02*
X12726271Y-14372088D01*
X12726271Y-14372088D02*
X12716748Y-14391136D01*
X12716748Y-14391136D02*
X12707224Y-14400660D01*
X12707224Y-14400660D02*
X12688176Y-14410184D01*
X12688176Y-14410184D02*
X12669128Y-14410184D01*
X12669128Y-14410184D02*
X12650081Y-14400660D01*
X12650081Y-14400660D02*
X12640557Y-14391136D01*
X12640557Y-14391136D02*
X12631033Y-14372088D01*
X12631033Y-14372088D02*
X12621509Y-14333993D01*
X12621509Y-14333993D02*
X12621509Y-14286374D01*
X12621509Y-14286374D02*
X12631033Y-14248279D01*
X12631033Y-14248279D02*
X12640557Y-14229231D01*
X12640557Y-14229231D02*
X12650081Y-14219708D01*
X12650081Y-14219708D02*
X12669128Y-14210184D01*
X12973890Y-14410184D02*
X12973890Y-14210184D01*
X13059605Y-14410184D02*
X13059605Y-14305422D01*
X13059605Y-14305422D02*
X13050081Y-14286374D01*
X13050081Y-14286374D02*
X13031033Y-14276850D01*
X13031033Y-14276850D02*
X13002462Y-14276850D01*
X13002462Y-14276850D02*
X12983414Y-14286374D01*
X12983414Y-14286374D02*
X12973890Y-14295898D01*
X13183414Y-14410184D02*
X13164367Y-14400660D01*
X13164367Y-14400660D02*
X13154843Y-14391136D01*
X13154843Y-14391136D02*
X13145319Y-14372088D01*
X13145319Y-14372088D02*
X13145319Y-14314946D01*
X13145319Y-14314946D02*
X13154843Y-14295898D01*
X13154843Y-14295898D02*
X13164367Y-14286374D01*
X13164367Y-14286374D02*
X13183414Y-14276850D01*
X13183414Y-14276850D02*
X13211986Y-14276850D01*
X13211986Y-14276850D02*
X13231033Y-14286374D01*
X13231033Y-14286374D02*
X13240557Y-14295898D01*
X13240557Y-14295898D02*
X13250081Y-14314946D01*
X13250081Y-14314946D02*
X13250081Y-14372088D01*
X13250081Y-14372088D02*
X13240557Y-14391136D01*
X13240557Y-14391136D02*
X13231033Y-14400660D01*
X13231033Y-14400660D02*
X13211986Y-14410184D01*
X13211986Y-14410184D02*
X13183414Y-14410184D01*
X13364367Y-14410184D02*
X13345319Y-14400660D01*
X13345319Y-14400660D02*
X13335795Y-14381612D01*
X13335795Y-14381612D02*
X13335795Y-14210184D01*
X13516748Y-14400660D02*
X13497700Y-14410184D01*
X13497700Y-14410184D02*
X13459605Y-14410184D01*
X13459605Y-14410184D02*
X13440557Y-14400660D01*
X13440557Y-14400660D02*
X13431033Y-14381612D01*
X13431033Y-14381612D02*
X13431033Y-14305422D01*
X13431033Y-14305422D02*
X13440557Y-14286374D01*
X13440557Y-14286374D02*
X13459605Y-14276850D01*
X13459605Y-14276850D02*
X13497700Y-14276850D01*
X13497700Y-14276850D02*
X13516748Y-14286374D01*
X13516748Y-14286374D02*
X13526271Y-14305422D01*
X13526271Y-14305422D02*
X13526271Y-14324469D01*
X13526271Y-14324469D02*
X13431033Y-14343517D01*
X13602462Y-14400660D02*
X13621510Y-14410184D01*
X13621510Y-14410184D02*
X13659605Y-14410184D01*
X13659605Y-14410184D02*
X13678652Y-14400660D01*
X13678652Y-14400660D02*
X13688176Y-14381612D01*
X13688176Y-14381612D02*
X13688176Y-14372088D01*
X13688176Y-14372088D02*
X13678652Y-14353041D01*
X13678652Y-14353041D02*
X13659605Y-14343517D01*
X13659605Y-14343517D02*
X13631033Y-14343517D01*
X13631033Y-14343517D02*
X13611986Y-14333993D01*
X13611986Y-14333993D02*
X13602462Y-14314946D01*
X13602462Y-14314946D02*
X13602462Y-14305422D01*
X13602462Y-14305422D02*
X13611986Y-14286374D01*
X13611986Y-14286374D02*
X13631033Y-14276850D01*
X13631033Y-14276850D02*
X13659605Y-14276850D01*
X13659605Y-14276850D02*
X13678652Y-14286374D01*
X13926272Y-14333993D02*
X14078653Y-14333993D01*
X14002462Y-14410184D02*
X14002462Y-14257803D01*
X14316748Y-14229231D02*
X14326272Y-14219708D01*
X14326272Y-14219708D02*
X14345319Y-14210184D01*
X14345319Y-14210184D02*
X14392938Y-14210184D01*
X14392938Y-14210184D02*
X14411986Y-14219708D01*
X14411986Y-14219708D02*
X14421510Y-14229231D01*
X14421510Y-14229231D02*
X14431033Y-14248279D01*
X14431033Y-14248279D02*
X14431033Y-14267327D01*
X14431033Y-14267327D02*
X14421510Y-14295898D01*
X14421510Y-14295898D02*
X14307224Y-14410184D01*
X14307224Y-14410184D02*
X14431033Y-14410184D01*
X14659605Y-14400660D02*
X14678653Y-14410184D01*
X14678653Y-14410184D02*
X14716748Y-14410184D01*
X14716748Y-14410184D02*
X14735795Y-14400660D01*
X14735795Y-14400660D02*
X14745319Y-14381612D01*
X14745319Y-14381612D02*
X14745319Y-14372088D01*
X14745319Y-14372088D02*
X14735795Y-14353041D01*
X14735795Y-14353041D02*
X14716748Y-14343517D01*
X14716748Y-14343517D02*
X14688176Y-14343517D01*
X14688176Y-14343517D02*
X14669129Y-14333993D01*
X14669129Y-14333993D02*
X14659605Y-14314946D01*
X14659605Y-14314946D02*
X14659605Y-14305422D01*
X14659605Y-14305422D02*
X14669129Y-14286374D01*
X14669129Y-14286374D02*
X14688176Y-14276850D01*
X14688176Y-14276850D02*
X14716748Y-14276850D01*
X14716748Y-14276850D02*
X14735795Y-14286374D01*
X14859605Y-14410184D02*
X14840557Y-14400660D01*
X14840557Y-14400660D02*
X14831034Y-14381612D01*
X14831034Y-14381612D02*
X14831034Y-14210184D01*
X14964367Y-14410184D02*
X14945319Y-14400660D01*
X14945319Y-14400660D02*
X14935795Y-14391136D01*
X14935795Y-14391136D02*
X14926272Y-14372088D01*
X14926272Y-14372088D02*
X14926272Y-14314946D01*
X14926272Y-14314946D02*
X14935795Y-14295898D01*
X14935795Y-14295898D02*
X14945319Y-14286374D01*
X14945319Y-14286374D02*
X14964367Y-14276850D01*
X14964367Y-14276850D02*
X14992938Y-14276850D01*
X14992938Y-14276850D02*
X15011986Y-14286374D01*
X15011986Y-14286374D02*
X15021510Y-14295898D01*
X15021510Y-14295898D02*
X15031034Y-14314946D01*
X15031034Y-14314946D02*
X15031034Y-14372088D01*
X15031034Y-14372088D02*
X15021510Y-14391136D01*
X15021510Y-14391136D02*
X15011986Y-14400660D01*
X15011986Y-14400660D02*
X14992938Y-14410184D01*
X14992938Y-14410184D02*
X14964367Y-14410184D01*
X15088176Y-14276850D02*
X15164367Y-14276850D01*
X15116748Y-14210184D02*
X15116748Y-14381612D01*
X15116748Y-14381612D02*
X15126272Y-14400660D01*
X15126272Y-14400660D02*
X15145319Y-14410184D01*
X15145319Y-14410184D02*
X15164367Y-14410184D01*
X15221510Y-14400660D02*
X15240557Y-14410184D01*
X15240557Y-14410184D02*
X15278653Y-14410184D01*
X15278653Y-14410184D02*
X15297700Y-14400660D01*
X15297700Y-14400660D02*
X15307224Y-14381612D01*
X15307224Y-14381612D02*
X15307224Y-14372088D01*
X15307224Y-14372088D02*
X15297700Y-14353041D01*
X15297700Y-14353041D02*
X15278653Y-14343517D01*
X15278653Y-14343517D02*
X15250081Y-14343517D01*
X15250081Y-14343517D02*
X15231034Y-14333993D01*
X15231034Y-14333993D02*
X15221510Y-14314946D01*
X15221510Y-14314946D02*
X15221510Y-14305422D01*
X15221510Y-14305422D02*
X15231034Y-14286374D01*
X15231034Y-14286374D02*
X15250081Y-14276850D01*
X15250081Y-14276850D02*
X15278653Y-14276850D01*
X15278653Y-14276850D02*
X15297700Y-14286374D01*
X15373891Y-14486374D02*
X15383415Y-14476850D01*
X15383415Y-14476850D02*
X15402462Y-14448279D01*
X15402462Y-14448279D02*
X15411986Y-14429231D01*
X15411986Y-14429231D02*
X15421510Y-14400660D01*
X15421510Y-14400660D02*
X15431034Y-14353041D01*
X15431034Y-14353041D02*
X15431034Y-14314946D01*
X15431034Y-14314946D02*
X15421510Y-14267327D01*
X15421510Y-14267327D02*
X15411986Y-14238755D01*
X15411986Y-14238755D02*
X15402462Y-14219708D01*
X15402462Y-14219708D02*
X15383415Y-14191136D01*
X15383415Y-14191136D02*
X15373891Y-14181612D01*
D17*
X8829780Y-14507700D02*
X8979780Y-14657700D01*
X8979780Y-14507700D02*
X8829780Y-14657700D01*
X8904780Y-14507700D02*
X8904780Y-14657700D01*
X8829780Y-14582700D02*
X8979780Y-14582700D01*
D11*
X9345319Y-14674184D02*
X9231033Y-14674184D01*
X9288176Y-14674184D02*
X9288176Y-14474184D01*
X9288176Y-14474184D02*
X9269128Y-14502755D01*
X9269128Y-14502755D02*
X9250081Y-14521803D01*
X9250081Y-14521803D02*
X9231033Y-14531327D01*
X9431033Y-14655136D02*
X9440557Y-14664660D01*
X9440557Y-14664660D02*
X9431033Y-14674184D01*
X9431033Y-14674184D02*
X9421509Y-14664660D01*
X9421509Y-14664660D02*
X9431033Y-14655136D01*
X9431033Y-14655136D02*
X9431033Y-14674184D01*
X9621509Y-14474184D02*
X9526271Y-14474184D01*
X9526271Y-14474184D02*
X9516747Y-14569422D01*
X9516747Y-14569422D02*
X9526271Y-14559898D01*
X9526271Y-14559898D02*
X9545319Y-14550374D01*
X9545319Y-14550374D02*
X9592938Y-14550374D01*
X9592938Y-14550374D02*
X9611985Y-14559898D01*
X9611985Y-14559898D02*
X9621509Y-14569422D01*
X9621509Y-14569422D02*
X9631033Y-14588469D01*
X9631033Y-14588469D02*
X9631033Y-14636088D01*
X9631033Y-14636088D02*
X9621509Y-14655136D01*
X9621509Y-14655136D02*
X9611985Y-14664660D01*
X9611985Y-14664660D02*
X9592938Y-14674184D01*
X9592938Y-14674184D02*
X9545319Y-14674184D01*
X9545319Y-14674184D02*
X9526271Y-14664660D01*
X9526271Y-14664660D02*
X9516747Y-14655136D01*
X9754843Y-14474184D02*
X9773890Y-14474184D01*
X9773890Y-14474184D02*
X9792938Y-14483708D01*
X9792938Y-14483708D02*
X9802462Y-14493231D01*
X9802462Y-14493231D02*
X9811985Y-14512279D01*
X9811985Y-14512279D02*
X9821509Y-14550374D01*
X9821509Y-14550374D02*
X9821509Y-14597993D01*
X9821509Y-14597993D02*
X9811985Y-14636088D01*
X9811985Y-14636088D02*
X9802462Y-14655136D01*
X9802462Y-14655136D02*
X9792938Y-14664660D01*
X9792938Y-14664660D02*
X9773890Y-14674184D01*
X9773890Y-14674184D02*
X9754843Y-14674184D01*
X9754843Y-14674184D02*
X9735795Y-14664660D01*
X9735795Y-14664660D02*
X9726271Y-14655136D01*
X9726271Y-14655136D02*
X9716747Y-14636088D01*
X9716747Y-14636088D02*
X9707224Y-14597993D01*
X9707224Y-14597993D02*
X9707224Y-14550374D01*
X9707224Y-14550374D02*
X9716747Y-14512279D01*
X9716747Y-14512279D02*
X9726271Y-14493231D01*
X9726271Y-14493231D02*
X9735795Y-14483708D01*
X9735795Y-14483708D02*
X9754843Y-14474184D01*
X9945319Y-14474184D02*
X9964366Y-14474184D01*
X9964366Y-14474184D02*
X9983414Y-14483708D01*
X9983414Y-14483708D02*
X9992938Y-14493231D01*
X9992938Y-14493231D02*
X10002462Y-14512279D01*
X10002462Y-14512279D02*
X10011985Y-14550374D01*
X10011985Y-14550374D02*
X10011985Y-14597993D01*
X10011985Y-14597993D02*
X10002462Y-14636088D01*
X10002462Y-14636088D02*
X9992938Y-14655136D01*
X9992938Y-14655136D02*
X9983414Y-14664660D01*
X9983414Y-14664660D02*
X9964366Y-14674184D01*
X9964366Y-14674184D02*
X9945319Y-14674184D01*
X9945319Y-14674184D02*
X9926271Y-14664660D01*
X9926271Y-14664660D02*
X9916747Y-14655136D01*
X9916747Y-14655136D02*
X9907224Y-14636088D01*
X9907224Y-14636088D02*
X9897700Y-14597993D01*
X9897700Y-14597993D02*
X9897700Y-14550374D01*
X9897700Y-14550374D02*
X9907224Y-14512279D01*
X9907224Y-14512279D02*
X9916747Y-14493231D01*
X9916747Y-14493231D02*
X9926271Y-14483708D01*
X9926271Y-14483708D02*
X9945319Y-14474184D01*
X10097700Y-14674184D02*
X10097700Y-14540850D01*
X10097700Y-14559898D02*
X10107224Y-14550374D01*
X10107224Y-14550374D02*
X10126271Y-14540850D01*
X10126271Y-14540850D02*
X10154843Y-14540850D01*
X10154843Y-14540850D02*
X10173890Y-14550374D01*
X10173890Y-14550374D02*
X10183414Y-14569422D01*
X10183414Y-14569422D02*
X10183414Y-14674184D01*
X10183414Y-14569422D02*
X10192938Y-14550374D01*
X10192938Y-14550374D02*
X10211985Y-14540850D01*
X10211985Y-14540850D02*
X10240557Y-14540850D01*
X10240557Y-14540850D02*
X10259605Y-14550374D01*
X10259605Y-14550374D02*
X10269128Y-14569422D01*
X10269128Y-14569422D02*
X10269128Y-14674184D01*
X10364366Y-14674184D02*
X10364366Y-14540850D01*
X10364366Y-14559898D02*
X10373890Y-14550374D01*
X10373890Y-14550374D02*
X10392938Y-14540850D01*
X10392938Y-14540850D02*
X10421509Y-14540850D01*
X10421509Y-14540850D02*
X10440557Y-14550374D01*
X10440557Y-14550374D02*
X10450081Y-14569422D01*
X10450081Y-14569422D02*
X10450081Y-14674184D01*
X10450081Y-14569422D02*
X10459605Y-14550374D01*
X10459605Y-14550374D02*
X10478652Y-14540850D01*
X10478652Y-14540850D02*
X10507224Y-14540850D01*
X10507224Y-14540850D02*
X10526271Y-14550374D01*
X10526271Y-14550374D02*
X10535795Y-14569422D01*
X10535795Y-14569422D02*
X10535795Y-14674184D01*
X10926271Y-14464660D02*
X10754843Y-14721803D01*
X11183414Y-14474184D02*
X11202462Y-14474184D01*
X11202462Y-14474184D02*
X11221509Y-14483708D01*
X11221509Y-14483708D02*
X11231033Y-14493231D01*
X11231033Y-14493231D02*
X11240557Y-14512279D01*
X11240557Y-14512279D02*
X11250081Y-14550374D01*
X11250081Y-14550374D02*
X11250081Y-14597993D01*
X11250081Y-14597993D02*
X11240557Y-14636088D01*
X11240557Y-14636088D02*
X11231033Y-14655136D01*
X11231033Y-14655136D02*
X11221509Y-14664660D01*
X11221509Y-14664660D02*
X11202462Y-14674184D01*
X11202462Y-14674184D02*
X11183414Y-14674184D01*
X11183414Y-14674184D02*
X11164367Y-14664660D01*
X11164367Y-14664660D02*
X11154843Y-14655136D01*
X11154843Y-14655136D02*
X11145319Y-14636088D01*
X11145319Y-14636088D02*
X11135795Y-14597993D01*
X11135795Y-14597993D02*
X11135795Y-14550374D01*
X11135795Y-14550374D02*
X11145319Y-14512279D01*
X11145319Y-14512279D02*
X11154843Y-14493231D01*
X11154843Y-14493231D02*
X11164367Y-14483708D01*
X11164367Y-14483708D02*
X11183414Y-14474184D01*
X11335795Y-14655136D02*
X11345319Y-14664660D01*
X11345319Y-14664660D02*
X11335795Y-14674184D01*
X11335795Y-14674184D02*
X11326271Y-14664660D01*
X11326271Y-14664660D02*
X11335795Y-14655136D01*
X11335795Y-14655136D02*
X11335795Y-14674184D01*
X11469128Y-14474184D02*
X11488176Y-14474184D01*
X11488176Y-14474184D02*
X11507224Y-14483708D01*
X11507224Y-14483708D02*
X11516747Y-14493231D01*
X11516747Y-14493231D02*
X11526271Y-14512279D01*
X11526271Y-14512279D02*
X11535795Y-14550374D01*
X11535795Y-14550374D02*
X11535795Y-14597993D01*
X11535795Y-14597993D02*
X11526271Y-14636088D01*
X11526271Y-14636088D02*
X11516747Y-14655136D01*
X11516747Y-14655136D02*
X11507224Y-14664660D01*
X11507224Y-14664660D02*
X11488176Y-14674184D01*
X11488176Y-14674184D02*
X11469128Y-14674184D01*
X11469128Y-14674184D02*
X11450081Y-14664660D01*
X11450081Y-14664660D02*
X11440557Y-14655136D01*
X11440557Y-14655136D02*
X11431033Y-14636088D01*
X11431033Y-14636088D02*
X11421509Y-14597993D01*
X11421509Y-14597993D02*
X11421509Y-14550374D01*
X11421509Y-14550374D02*
X11431033Y-14512279D01*
X11431033Y-14512279D02*
X11440557Y-14493231D01*
X11440557Y-14493231D02*
X11450081Y-14483708D01*
X11450081Y-14483708D02*
X11469128Y-14474184D01*
X11716747Y-14474184D02*
X11621509Y-14474184D01*
X11621509Y-14474184D02*
X11611986Y-14569422D01*
X11611986Y-14569422D02*
X11621509Y-14559898D01*
X11621509Y-14559898D02*
X11640557Y-14550374D01*
X11640557Y-14550374D02*
X11688176Y-14550374D01*
X11688176Y-14550374D02*
X11707224Y-14559898D01*
X11707224Y-14559898D02*
X11716747Y-14569422D01*
X11716747Y-14569422D02*
X11726271Y-14588469D01*
X11726271Y-14588469D02*
X11726271Y-14636088D01*
X11726271Y-14636088D02*
X11716747Y-14655136D01*
X11716747Y-14655136D02*
X11707224Y-14664660D01*
X11707224Y-14664660D02*
X11688176Y-14674184D01*
X11688176Y-14674184D02*
X11640557Y-14674184D01*
X11640557Y-14674184D02*
X11621509Y-14664660D01*
X11621509Y-14664660D02*
X11611986Y-14655136D01*
X11821509Y-14674184D02*
X11859605Y-14674184D01*
X11859605Y-14674184D02*
X11878652Y-14664660D01*
X11878652Y-14664660D02*
X11888176Y-14655136D01*
X11888176Y-14655136D02*
X11907224Y-14626565D01*
X11907224Y-14626565D02*
X11916747Y-14588469D01*
X11916747Y-14588469D02*
X11916747Y-14512279D01*
X11916747Y-14512279D02*
X11907224Y-14493231D01*
X11907224Y-14493231D02*
X11897700Y-14483708D01*
X11897700Y-14483708D02*
X11878652Y-14474184D01*
X11878652Y-14474184D02*
X11840557Y-14474184D01*
X11840557Y-14474184D02*
X11821509Y-14483708D01*
X11821509Y-14483708D02*
X11811986Y-14493231D01*
X11811986Y-14493231D02*
X11802462Y-14512279D01*
X11802462Y-14512279D02*
X11802462Y-14559898D01*
X11802462Y-14559898D02*
X11811986Y-14578946D01*
X11811986Y-14578946D02*
X11821509Y-14588469D01*
X11821509Y-14588469D02*
X11840557Y-14597993D01*
X11840557Y-14597993D02*
X11878652Y-14597993D01*
X11878652Y-14597993D02*
X11897700Y-14588469D01*
X11897700Y-14588469D02*
X11907224Y-14578946D01*
X11907224Y-14578946D02*
X11916747Y-14559898D01*
X12107224Y-14674184D02*
X11992938Y-14674184D01*
X12050081Y-14674184D02*
X12050081Y-14474184D01*
X12050081Y-14474184D02*
X12031033Y-14502755D01*
X12031033Y-14502755D02*
X12011986Y-14521803D01*
X12011986Y-14521803D02*
X11992938Y-14531327D01*
X12183414Y-14474184D02*
X12183414Y-14512279D01*
X12259605Y-14474184D02*
X12259605Y-14512279D01*
X12554843Y-14750374D02*
X12545319Y-14740850D01*
X12545319Y-14740850D02*
X12526271Y-14712279D01*
X12526271Y-14712279D02*
X12516748Y-14693231D01*
X12516748Y-14693231D02*
X12507224Y-14664660D01*
X12507224Y-14664660D02*
X12497700Y-14617041D01*
X12497700Y-14617041D02*
X12497700Y-14578946D01*
X12497700Y-14578946D02*
X12507224Y-14531327D01*
X12507224Y-14531327D02*
X12516748Y-14502755D01*
X12516748Y-14502755D02*
X12526271Y-14483708D01*
X12526271Y-14483708D02*
X12545319Y-14455136D01*
X12545319Y-14455136D02*
X12554843Y-14445612D01*
X12735795Y-14674184D02*
X12621509Y-14674184D01*
X12678652Y-14674184D02*
X12678652Y-14474184D01*
X12678652Y-14474184D02*
X12659605Y-14502755D01*
X12659605Y-14502755D02*
X12640557Y-14521803D01*
X12640557Y-14521803D02*
X12621509Y-14531327D01*
X12973890Y-14674184D02*
X12973890Y-14474184D01*
X13059605Y-14674184D02*
X13059605Y-14569422D01*
X13059605Y-14569422D02*
X13050081Y-14550374D01*
X13050081Y-14550374D02*
X13031033Y-14540850D01*
X13031033Y-14540850D02*
X13002462Y-14540850D01*
X13002462Y-14540850D02*
X12983414Y-14550374D01*
X12983414Y-14550374D02*
X12973890Y-14559898D01*
X13183414Y-14674184D02*
X13164367Y-14664660D01*
X13164367Y-14664660D02*
X13154843Y-14655136D01*
X13154843Y-14655136D02*
X13145319Y-14636088D01*
X13145319Y-14636088D02*
X13145319Y-14578946D01*
X13145319Y-14578946D02*
X13154843Y-14559898D01*
X13154843Y-14559898D02*
X13164367Y-14550374D01*
X13164367Y-14550374D02*
X13183414Y-14540850D01*
X13183414Y-14540850D02*
X13211986Y-14540850D01*
X13211986Y-14540850D02*
X13231033Y-14550374D01*
X13231033Y-14550374D02*
X13240557Y-14559898D01*
X13240557Y-14559898D02*
X13250081Y-14578946D01*
X13250081Y-14578946D02*
X13250081Y-14636088D01*
X13250081Y-14636088D02*
X13240557Y-14655136D01*
X13240557Y-14655136D02*
X13231033Y-14664660D01*
X13231033Y-14664660D02*
X13211986Y-14674184D01*
X13211986Y-14674184D02*
X13183414Y-14674184D01*
X13364367Y-14674184D02*
X13345319Y-14664660D01*
X13345319Y-14664660D02*
X13335795Y-14645612D01*
X13335795Y-14645612D02*
X13335795Y-14474184D01*
X13516748Y-14664660D02*
X13497700Y-14674184D01*
X13497700Y-14674184D02*
X13459605Y-14674184D01*
X13459605Y-14674184D02*
X13440557Y-14664660D01*
X13440557Y-14664660D02*
X13431033Y-14645612D01*
X13431033Y-14645612D02*
X13431033Y-14569422D01*
X13431033Y-14569422D02*
X13440557Y-14550374D01*
X13440557Y-14550374D02*
X13459605Y-14540850D01*
X13459605Y-14540850D02*
X13497700Y-14540850D01*
X13497700Y-14540850D02*
X13516748Y-14550374D01*
X13516748Y-14550374D02*
X13526271Y-14569422D01*
X13526271Y-14569422D02*
X13526271Y-14588469D01*
X13526271Y-14588469D02*
X13431033Y-14607517D01*
X13592938Y-14750374D02*
X13602462Y-14740850D01*
X13602462Y-14740850D02*
X13621510Y-14712279D01*
X13621510Y-14712279D02*
X13631033Y-14693231D01*
X13631033Y-14693231D02*
X13640557Y-14664660D01*
X13640557Y-14664660D02*
X13650081Y-14617041D01*
X13650081Y-14617041D02*
X13650081Y-14578946D01*
X13650081Y-14578946D02*
X13640557Y-14531327D01*
X13640557Y-14531327D02*
X13631033Y-14502755D01*
X13631033Y-14502755D02*
X13621510Y-14483708D01*
X13621510Y-14483708D02*
X13602462Y-14455136D01*
X13602462Y-14455136D02*
X13592938Y-14445612D01*
D18*
X8809780Y-14767700D02*
X8979780Y-14937700D01*
X8979780Y-14767700D02*
X8809780Y-14937700D01*
X8954885Y-14912805D02*
X8954885Y-14792595D01*
X8834675Y-14792595D01*
X8834675Y-14912805D01*
X8954885Y-14912805D01*
D11*
X9345319Y-14944184D02*
X9231033Y-14944184D01*
X9288176Y-14944184D02*
X9288176Y-14744184D01*
X9288176Y-14744184D02*
X9269128Y-14772755D01*
X9269128Y-14772755D02*
X9250081Y-14791803D01*
X9250081Y-14791803D02*
X9231033Y-14801327D01*
X9431033Y-14925136D02*
X9440557Y-14934660D01*
X9440557Y-14934660D02*
X9431033Y-14944184D01*
X9431033Y-14944184D02*
X9421509Y-14934660D01*
X9421509Y-14934660D02*
X9431033Y-14925136D01*
X9431033Y-14925136D02*
X9431033Y-14944184D01*
X9507224Y-14744184D02*
X9640557Y-14744184D01*
X9640557Y-14744184D02*
X9554843Y-14944184D01*
X9754843Y-14744184D02*
X9773890Y-14744184D01*
X9773890Y-14744184D02*
X9792938Y-14753708D01*
X9792938Y-14753708D02*
X9802462Y-14763231D01*
X9802462Y-14763231D02*
X9811985Y-14782279D01*
X9811985Y-14782279D02*
X9821509Y-14820374D01*
X9821509Y-14820374D02*
X9821509Y-14867993D01*
X9821509Y-14867993D02*
X9811985Y-14906088D01*
X9811985Y-14906088D02*
X9802462Y-14925136D01*
X9802462Y-14925136D02*
X9792938Y-14934660D01*
X9792938Y-14934660D02*
X9773890Y-14944184D01*
X9773890Y-14944184D02*
X9754843Y-14944184D01*
X9754843Y-14944184D02*
X9735795Y-14934660D01*
X9735795Y-14934660D02*
X9726271Y-14925136D01*
X9726271Y-14925136D02*
X9716747Y-14906088D01*
X9716747Y-14906088D02*
X9707224Y-14867993D01*
X9707224Y-14867993D02*
X9707224Y-14820374D01*
X9707224Y-14820374D02*
X9716747Y-14782279D01*
X9716747Y-14782279D02*
X9726271Y-14763231D01*
X9726271Y-14763231D02*
X9735795Y-14753708D01*
X9735795Y-14753708D02*
X9754843Y-14744184D01*
X9945319Y-14744184D02*
X9964366Y-14744184D01*
X9964366Y-14744184D02*
X9983414Y-14753708D01*
X9983414Y-14753708D02*
X9992938Y-14763231D01*
X9992938Y-14763231D02*
X10002462Y-14782279D01*
X10002462Y-14782279D02*
X10011985Y-14820374D01*
X10011985Y-14820374D02*
X10011985Y-14867993D01*
X10011985Y-14867993D02*
X10002462Y-14906088D01*
X10002462Y-14906088D02*
X9992938Y-14925136D01*
X9992938Y-14925136D02*
X9983414Y-14934660D01*
X9983414Y-14934660D02*
X9964366Y-14944184D01*
X9964366Y-14944184D02*
X9945319Y-14944184D01*
X9945319Y-14944184D02*
X9926271Y-14934660D01*
X9926271Y-14934660D02*
X9916747Y-14925136D01*
X9916747Y-14925136D02*
X9907224Y-14906088D01*
X9907224Y-14906088D02*
X9897700Y-14867993D01*
X9897700Y-14867993D02*
X9897700Y-14820374D01*
X9897700Y-14820374D02*
X9907224Y-14782279D01*
X9907224Y-14782279D02*
X9916747Y-14763231D01*
X9916747Y-14763231D02*
X9926271Y-14753708D01*
X9926271Y-14753708D02*
X9945319Y-14744184D01*
X10097700Y-14944184D02*
X10097700Y-14810850D01*
X10097700Y-14829898D02*
X10107224Y-14820374D01*
X10107224Y-14820374D02*
X10126271Y-14810850D01*
X10126271Y-14810850D02*
X10154843Y-14810850D01*
X10154843Y-14810850D02*
X10173890Y-14820374D01*
X10173890Y-14820374D02*
X10183414Y-14839422D01*
X10183414Y-14839422D02*
X10183414Y-14944184D01*
X10183414Y-14839422D02*
X10192938Y-14820374D01*
X10192938Y-14820374D02*
X10211985Y-14810850D01*
X10211985Y-14810850D02*
X10240557Y-14810850D01*
X10240557Y-14810850D02*
X10259605Y-14820374D01*
X10259605Y-14820374D02*
X10269128Y-14839422D01*
X10269128Y-14839422D02*
X10269128Y-14944184D01*
X10364366Y-14944184D02*
X10364366Y-14810850D01*
X10364366Y-14829898D02*
X10373890Y-14820374D01*
X10373890Y-14820374D02*
X10392938Y-14810850D01*
X10392938Y-14810850D02*
X10421509Y-14810850D01*
X10421509Y-14810850D02*
X10440557Y-14820374D01*
X10440557Y-14820374D02*
X10450081Y-14839422D01*
X10450081Y-14839422D02*
X10450081Y-14944184D01*
X10450081Y-14839422D02*
X10459605Y-14820374D01*
X10459605Y-14820374D02*
X10478652Y-14810850D01*
X10478652Y-14810850D02*
X10507224Y-14810850D01*
X10507224Y-14810850D02*
X10526271Y-14820374D01*
X10526271Y-14820374D02*
X10535795Y-14839422D01*
X10535795Y-14839422D02*
X10535795Y-14944184D01*
X10926271Y-14734660D02*
X10754843Y-14991803D01*
X11183414Y-14744184D02*
X11202462Y-14744184D01*
X11202462Y-14744184D02*
X11221509Y-14753708D01*
X11221509Y-14753708D02*
X11231033Y-14763231D01*
X11231033Y-14763231D02*
X11240557Y-14782279D01*
X11240557Y-14782279D02*
X11250081Y-14820374D01*
X11250081Y-14820374D02*
X11250081Y-14867993D01*
X11250081Y-14867993D02*
X11240557Y-14906088D01*
X11240557Y-14906088D02*
X11231033Y-14925136D01*
X11231033Y-14925136D02*
X11221509Y-14934660D01*
X11221509Y-14934660D02*
X11202462Y-14944184D01*
X11202462Y-14944184D02*
X11183414Y-14944184D01*
X11183414Y-14944184D02*
X11164367Y-14934660D01*
X11164367Y-14934660D02*
X11154843Y-14925136D01*
X11154843Y-14925136D02*
X11145319Y-14906088D01*
X11145319Y-14906088D02*
X11135795Y-14867993D01*
X11135795Y-14867993D02*
X11135795Y-14820374D01*
X11135795Y-14820374D02*
X11145319Y-14782279D01*
X11145319Y-14782279D02*
X11154843Y-14763231D01*
X11154843Y-14763231D02*
X11164367Y-14753708D01*
X11164367Y-14753708D02*
X11183414Y-14744184D01*
X11335795Y-14925136D02*
X11345319Y-14934660D01*
X11345319Y-14934660D02*
X11335795Y-14944184D01*
X11335795Y-14944184D02*
X11326271Y-14934660D01*
X11326271Y-14934660D02*
X11335795Y-14925136D01*
X11335795Y-14925136D02*
X11335795Y-14944184D01*
X11469128Y-14744184D02*
X11488176Y-14744184D01*
X11488176Y-14744184D02*
X11507224Y-14753708D01*
X11507224Y-14753708D02*
X11516747Y-14763231D01*
X11516747Y-14763231D02*
X11526271Y-14782279D01*
X11526271Y-14782279D02*
X11535795Y-14820374D01*
X11535795Y-14820374D02*
X11535795Y-14867993D01*
X11535795Y-14867993D02*
X11526271Y-14906088D01*
X11526271Y-14906088D02*
X11516747Y-14925136D01*
X11516747Y-14925136D02*
X11507224Y-14934660D01*
X11507224Y-14934660D02*
X11488176Y-14944184D01*
X11488176Y-14944184D02*
X11469128Y-14944184D01*
X11469128Y-14944184D02*
X11450081Y-14934660D01*
X11450081Y-14934660D02*
X11440557Y-14925136D01*
X11440557Y-14925136D02*
X11431033Y-14906088D01*
X11431033Y-14906088D02*
X11421509Y-14867993D01*
X11421509Y-14867993D02*
X11421509Y-14820374D01*
X11421509Y-14820374D02*
X11431033Y-14782279D01*
X11431033Y-14782279D02*
X11440557Y-14763231D01*
X11440557Y-14763231D02*
X11450081Y-14753708D01*
X11450081Y-14753708D02*
X11469128Y-14744184D01*
X11707224Y-14744184D02*
X11669128Y-14744184D01*
X11669128Y-14744184D02*
X11650081Y-14753708D01*
X11650081Y-14753708D02*
X11640557Y-14763231D01*
X11640557Y-14763231D02*
X11621509Y-14791803D01*
X11621509Y-14791803D02*
X11611986Y-14829898D01*
X11611986Y-14829898D02*
X11611986Y-14906088D01*
X11611986Y-14906088D02*
X11621509Y-14925136D01*
X11621509Y-14925136D02*
X11631033Y-14934660D01*
X11631033Y-14934660D02*
X11650081Y-14944184D01*
X11650081Y-14944184D02*
X11688176Y-14944184D01*
X11688176Y-14944184D02*
X11707224Y-14934660D01*
X11707224Y-14934660D02*
X11716747Y-14925136D01*
X11716747Y-14925136D02*
X11726271Y-14906088D01*
X11726271Y-14906088D02*
X11726271Y-14858469D01*
X11726271Y-14858469D02*
X11716747Y-14839422D01*
X11716747Y-14839422D02*
X11707224Y-14829898D01*
X11707224Y-14829898D02*
X11688176Y-14820374D01*
X11688176Y-14820374D02*
X11650081Y-14820374D01*
X11650081Y-14820374D02*
X11631033Y-14829898D01*
X11631033Y-14829898D02*
X11621509Y-14839422D01*
X11621509Y-14839422D02*
X11611986Y-14858469D01*
X11897700Y-14744184D02*
X11859605Y-14744184D01*
X11859605Y-14744184D02*
X11840557Y-14753708D01*
X11840557Y-14753708D02*
X11831033Y-14763231D01*
X11831033Y-14763231D02*
X11811986Y-14791803D01*
X11811986Y-14791803D02*
X11802462Y-14829898D01*
X11802462Y-14829898D02*
X11802462Y-14906088D01*
X11802462Y-14906088D02*
X11811986Y-14925136D01*
X11811986Y-14925136D02*
X11821509Y-14934660D01*
X11821509Y-14934660D02*
X11840557Y-14944184D01*
X11840557Y-14944184D02*
X11878652Y-14944184D01*
X11878652Y-14944184D02*
X11897700Y-14934660D01*
X11897700Y-14934660D02*
X11907224Y-14925136D01*
X11907224Y-14925136D02*
X11916747Y-14906088D01*
X11916747Y-14906088D02*
X11916747Y-14858469D01*
X11916747Y-14858469D02*
X11907224Y-14839422D01*
X11907224Y-14839422D02*
X11897700Y-14829898D01*
X11897700Y-14829898D02*
X11878652Y-14820374D01*
X11878652Y-14820374D02*
X11840557Y-14820374D01*
X11840557Y-14820374D02*
X11821509Y-14829898D01*
X11821509Y-14829898D02*
X11811986Y-14839422D01*
X11811986Y-14839422D02*
X11802462Y-14858469D01*
X12011986Y-14944184D02*
X12050081Y-14944184D01*
X12050081Y-14944184D02*
X12069128Y-14934660D01*
X12069128Y-14934660D02*
X12078652Y-14925136D01*
X12078652Y-14925136D02*
X12097700Y-14896565D01*
X12097700Y-14896565D02*
X12107224Y-14858469D01*
X12107224Y-14858469D02*
X12107224Y-14782279D01*
X12107224Y-14782279D02*
X12097700Y-14763231D01*
X12097700Y-14763231D02*
X12088176Y-14753708D01*
X12088176Y-14753708D02*
X12069128Y-14744184D01*
X12069128Y-14744184D02*
X12031033Y-14744184D01*
X12031033Y-14744184D02*
X12011986Y-14753708D01*
X12011986Y-14753708D02*
X12002462Y-14763231D01*
X12002462Y-14763231D02*
X11992938Y-14782279D01*
X11992938Y-14782279D02*
X11992938Y-14829898D01*
X11992938Y-14829898D02*
X12002462Y-14848946D01*
X12002462Y-14848946D02*
X12011986Y-14858469D01*
X12011986Y-14858469D02*
X12031033Y-14867993D01*
X12031033Y-14867993D02*
X12069128Y-14867993D01*
X12069128Y-14867993D02*
X12088176Y-14858469D01*
X12088176Y-14858469D02*
X12097700Y-14848946D01*
X12097700Y-14848946D02*
X12107224Y-14829898D01*
X12183414Y-14744184D02*
X12183414Y-14782279D01*
X12259605Y-14744184D02*
X12259605Y-14782279D01*
X12554843Y-15020374D02*
X12545319Y-15010850D01*
X12545319Y-15010850D02*
X12526271Y-14982279D01*
X12526271Y-14982279D02*
X12516748Y-14963231D01*
X12516748Y-14963231D02*
X12507224Y-14934660D01*
X12507224Y-14934660D02*
X12497700Y-14887041D01*
X12497700Y-14887041D02*
X12497700Y-14848946D01*
X12497700Y-14848946D02*
X12507224Y-14801327D01*
X12507224Y-14801327D02*
X12516748Y-14772755D01*
X12516748Y-14772755D02*
X12526271Y-14753708D01*
X12526271Y-14753708D02*
X12545319Y-14725136D01*
X12545319Y-14725136D02*
X12554843Y-14715612D01*
X12716748Y-14810850D02*
X12716748Y-14944184D01*
X12669128Y-14734660D02*
X12621509Y-14877517D01*
X12621509Y-14877517D02*
X12745319Y-14877517D01*
X12973890Y-14944184D02*
X12973890Y-14744184D01*
X13059605Y-14944184D02*
X13059605Y-14839422D01*
X13059605Y-14839422D02*
X13050081Y-14820374D01*
X13050081Y-14820374D02*
X13031033Y-14810850D01*
X13031033Y-14810850D02*
X13002462Y-14810850D01*
X13002462Y-14810850D02*
X12983414Y-14820374D01*
X12983414Y-14820374D02*
X12973890Y-14829898D01*
X13183414Y-14944184D02*
X13164367Y-14934660D01*
X13164367Y-14934660D02*
X13154843Y-14925136D01*
X13154843Y-14925136D02*
X13145319Y-14906088D01*
X13145319Y-14906088D02*
X13145319Y-14848946D01*
X13145319Y-14848946D02*
X13154843Y-14829898D01*
X13154843Y-14829898D02*
X13164367Y-14820374D01*
X13164367Y-14820374D02*
X13183414Y-14810850D01*
X13183414Y-14810850D02*
X13211986Y-14810850D01*
X13211986Y-14810850D02*
X13231033Y-14820374D01*
X13231033Y-14820374D02*
X13240557Y-14829898D01*
X13240557Y-14829898D02*
X13250081Y-14848946D01*
X13250081Y-14848946D02*
X13250081Y-14906088D01*
X13250081Y-14906088D02*
X13240557Y-14925136D01*
X13240557Y-14925136D02*
X13231033Y-14934660D01*
X13231033Y-14934660D02*
X13211986Y-14944184D01*
X13211986Y-14944184D02*
X13183414Y-14944184D01*
X13364367Y-14944184D02*
X13345319Y-14934660D01*
X13345319Y-14934660D02*
X13335795Y-14915612D01*
X13335795Y-14915612D02*
X13335795Y-14744184D01*
X13516748Y-14934660D02*
X13497700Y-14944184D01*
X13497700Y-14944184D02*
X13459605Y-14944184D01*
X13459605Y-14944184D02*
X13440557Y-14934660D01*
X13440557Y-14934660D02*
X13431033Y-14915612D01*
X13431033Y-14915612D02*
X13431033Y-14839422D01*
X13431033Y-14839422D02*
X13440557Y-14820374D01*
X13440557Y-14820374D02*
X13459605Y-14810850D01*
X13459605Y-14810850D02*
X13497700Y-14810850D01*
X13497700Y-14810850D02*
X13516748Y-14820374D01*
X13516748Y-14820374D02*
X13526271Y-14839422D01*
X13526271Y-14839422D02*
X13526271Y-14858469D01*
X13526271Y-14858469D02*
X13431033Y-14877517D01*
X13602462Y-14934660D02*
X13621510Y-14944184D01*
X13621510Y-14944184D02*
X13659605Y-14944184D01*
X13659605Y-14944184D02*
X13678652Y-14934660D01*
X13678652Y-14934660D02*
X13688176Y-14915612D01*
X13688176Y-14915612D02*
X13688176Y-14906088D01*
X13688176Y-14906088D02*
X13678652Y-14887041D01*
X13678652Y-14887041D02*
X13659605Y-14877517D01*
X13659605Y-14877517D02*
X13631033Y-14877517D01*
X13631033Y-14877517D02*
X13611986Y-14867993D01*
X13611986Y-14867993D02*
X13602462Y-14848946D01*
X13602462Y-14848946D02*
X13602462Y-14839422D01*
X13602462Y-14839422D02*
X13611986Y-14820374D01*
X13611986Y-14820374D02*
X13631033Y-14810850D01*
X13631033Y-14810850D02*
X13659605Y-14810850D01*
X13659605Y-14810850D02*
X13678652Y-14820374D01*
X13754843Y-15020374D02*
X13764367Y-15010850D01*
X13764367Y-15010850D02*
X13783414Y-14982279D01*
X13783414Y-14982279D02*
X13792938Y-14963231D01*
X13792938Y-14963231D02*
X13802462Y-14934660D01*
X13802462Y-14934660D02*
X13811986Y-14887041D01*
X13811986Y-14887041D02*
X13811986Y-14848946D01*
X13811986Y-14848946D02*
X13802462Y-14801327D01*
X13802462Y-14801327D02*
X13792938Y-14772755D01*
X13792938Y-14772755D02*
X13783414Y-14753708D01*
X13783414Y-14753708D02*
X13764367Y-14725136D01*
X13764367Y-14725136D02*
X13754843Y-14715612D01*
X8779780Y-15042700D02*
X8979780Y-15242700D01*
X8979780Y-15042700D02*
X8779780Y-15242700D01*
X8879780Y-15242700D02*
X8979780Y-15142700D01*
X8879780Y-15042700D01*
X8779780Y-15142700D01*
X8879780Y-15242700D01*
X9231033Y-15053231D02*
X9240557Y-15043708D01*
X9240557Y-15043708D02*
X9259604Y-15034184D01*
X9259604Y-15034184D02*
X9307224Y-15034184D01*
X9307224Y-15034184D02*
X9326271Y-15043708D01*
X9326271Y-15043708D02*
X9335795Y-15053231D01*
X9335795Y-15053231D02*
X9345319Y-15072279D01*
X9345319Y-15072279D02*
X9345319Y-15091327D01*
X9345319Y-15091327D02*
X9335795Y-15119898D01*
X9335795Y-15119898D02*
X9221509Y-15234184D01*
X9221509Y-15234184D02*
X9345319Y-15234184D01*
X9431033Y-15215136D02*
X9440557Y-15224660D01*
X9440557Y-15224660D02*
X9431033Y-15234184D01*
X9431033Y-15234184D02*
X9421509Y-15224660D01*
X9421509Y-15224660D02*
X9431033Y-15215136D01*
X9431033Y-15215136D02*
X9431033Y-15234184D01*
X9516747Y-15053231D02*
X9526271Y-15043708D01*
X9526271Y-15043708D02*
X9545319Y-15034184D01*
X9545319Y-15034184D02*
X9592938Y-15034184D01*
X9592938Y-15034184D02*
X9611985Y-15043708D01*
X9611985Y-15043708D02*
X9621509Y-15053231D01*
X9621509Y-15053231D02*
X9631033Y-15072279D01*
X9631033Y-15072279D02*
X9631033Y-15091327D01*
X9631033Y-15091327D02*
X9621509Y-15119898D01*
X9621509Y-15119898D02*
X9507224Y-15234184D01*
X9507224Y-15234184D02*
X9631033Y-15234184D01*
X9754843Y-15034184D02*
X9773890Y-15034184D01*
X9773890Y-15034184D02*
X9792938Y-15043708D01*
X9792938Y-15043708D02*
X9802462Y-15053231D01*
X9802462Y-15053231D02*
X9811985Y-15072279D01*
X9811985Y-15072279D02*
X9821509Y-15110374D01*
X9821509Y-15110374D02*
X9821509Y-15157993D01*
X9821509Y-15157993D02*
X9811985Y-15196088D01*
X9811985Y-15196088D02*
X9802462Y-15215136D01*
X9802462Y-15215136D02*
X9792938Y-15224660D01*
X9792938Y-15224660D02*
X9773890Y-15234184D01*
X9773890Y-15234184D02*
X9754843Y-15234184D01*
X9754843Y-15234184D02*
X9735795Y-15224660D01*
X9735795Y-15224660D02*
X9726271Y-15215136D01*
X9726271Y-15215136D02*
X9716747Y-15196088D01*
X9716747Y-15196088D02*
X9707224Y-15157993D01*
X9707224Y-15157993D02*
X9707224Y-15110374D01*
X9707224Y-15110374D02*
X9716747Y-15072279D01*
X9716747Y-15072279D02*
X9726271Y-15053231D01*
X9726271Y-15053231D02*
X9735795Y-15043708D01*
X9735795Y-15043708D02*
X9754843Y-15034184D01*
X9945319Y-15034184D02*
X9964366Y-15034184D01*
X9964366Y-15034184D02*
X9983414Y-15043708D01*
X9983414Y-15043708D02*
X9992938Y-15053231D01*
X9992938Y-15053231D02*
X10002462Y-15072279D01*
X10002462Y-15072279D02*
X10011985Y-15110374D01*
X10011985Y-15110374D02*
X10011985Y-15157993D01*
X10011985Y-15157993D02*
X10002462Y-15196088D01*
X10002462Y-15196088D02*
X9992938Y-15215136D01*
X9992938Y-15215136D02*
X9983414Y-15224660D01*
X9983414Y-15224660D02*
X9964366Y-15234184D01*
X9964366Y-15234184D02*
X9945319Y-15234184D01*
X9945319Y-15234184D02*
X9926271Y-15224660D01*
X9926271Y-15224660D02*
X9916747Y-15215136D01*
X9916747Y-15215136D02*
X9907224Y-15196088D01*
X9907224Y-15196088D02*
X9897700Y-15157993D01*
X9897700Y-15157993D02*
X9897700Y-15110374D01*
X9897700Y-15110374D02*
X9907224Y-15072279D01*
X9907224Y-15072279D02*
X9916747Y-15053231D01*
X9916747Y-15053231D02*
X9926271Y-15043708D01*
X9926271Y-15043708D02*
X9945319Y-15034184D01*
X10097700Y-15234184D02*
X10097700Y-15100850D01*
X10097700Y-15119898D02*
X10107224Y-15110374D01*
X10107224Y-15110374D02*
X10126271Y-15100850D01*
X10126271Y-15100850D02*
X10154843Y-15100850D01*
X10154843Y-15100850D02*
X10173890Y-15110374D01*
X10173890Y-15110374D02*
X10183414Y-15129422D01*
X10183414Y-15129422D02*
X10183414Y-15234184D01*
X10183414Y-15129422D02*
X10192938Y-15110374D01*
X10192938Y-15110374D02*
X10211985Y-15100850D01*
X10211985Y-15100850D02*
X10240557Y-15100850D01*
X10240557Y-15100850D02*
X10259605Y-15110374D01*
X10259605Y-15110374D02*
X10269128Y-15129422D01*
X10269128Y-15129422D02*
X10269128Y-15234184D01*
X10364366Y-15234184D02*
X10364366Y-15100850D01*
X10364366Y-15119898D02*
X10373890Y-15110374D01*
X10373890Y-15110374D02*
X10392938Y-15100850D01*
X10392938Y-15100850D02*
X10421509Y-15100850D01*
X10421509Y-15100850D02*
X10440557Y-15110374D01*
X10440557Y-15110374D02*
X10450081Y-15129422D01*
X10450081Y-15129422D02*
X10450081Y-15234184D01*
X10450081Y-15129422D02*
X10459605Y-15110374D01*
X10459605Y-15110374D02*
X10478652Y-15100850D01*
X10478652Y-15100850D02*
X10507224Y-15100850D01*
X10507224Y-15100850D02*
X10526271Y-15110374D01*
X10526271Y-15110374D02*
X10535795Y-15129422D01*
X10535795Y-15129422D02*
X10535795Y-15234184D01*
X10926271Y-15024660D02*
X10754843Y-15281803D01*
X11183414Y-15034184D02*
X11202462Y-15034184D01*
X11202462Y-15034184D02*
X11221509Y-15043708D01*
X11221509Y-15043708D02*
X11231033Y-15053231D01*
X11231033Y-15053231D02*
X11240557Y-15072279D01*
X11240557Y-15072279D02*
X11250081Y-15110374D01*
X11250081Y-15110374D02*
X11250081Y-15157993D01*
X11250081Y-15157993D02*
X11240557Y-15196088D01*
X11240557Y-15196088D02*
X11231033Y-15215136D01*
X11231033Y-15215136D02*
X11221509Y-15224660D01*
X11221509Y-15224660D02*
X11202462Y-15234184D01*
X11202462Y-15234184D02*
X11183414Y-15234184D01*
X11183414Y-15234184D02*
X11164367Y-15224660D01*
X11164367Y-15224660D02*
X11154843Y-15215136D01*
X11154843Y-15215136D02*
X11145319Y-15196088D01*
X11145319Y-15196088D02*
X11135795Y-15157993D01*
X11135795Y-15157993D02*
X11135795Y-15110374D01*
X11135795Y-15110374D02*
X11145319Y-15072279D01*
X11145319Y-15072279D02*
X11154843Y-15053231D01*
X11154843Y-15053231D02*
X11164367Y-15043708D01*
X11164367Y-15043708D02*
X11183414Y-15034184D01*
X11335795Y-15215136D02*
X11345319Y-15224660D01*
X11345319Y-15224660D02*
X11335795Y-15234184D01*
X11335795Y-15234184D02*
X11326271Y-15224660D01*
X11326271Y-15224660D02*
X11335795Y-15215136D01*
X11335795Y-15215136D02*
X11335795Y-15234184D01*
X11469128Y-15034184D02*
X11488176Y-15034184D01*
X11488176Y-15034184D02*
X11507224Y-15043708D01*
X11507224Y-15043708D02*
X11516747Y-15053231D01*
X11516747Y-15053231D02*
X11526271Y-15072279D01*
X11526271Y-15072279D02*
X11535795Y-15110374D01*
X11535795Y-15110374D02*
X11535795Y-15157993D01*
X11535795Y-15157993D02*
X11526271Y-15196088D01*
X11526271Y-15196088D02*
X11516747Y-15215136D01*
X11516747Y-15215136D02*
X11507224Y-15224660D01*
X11507224Y-15224660D02*
X11488176Y-15234184D01*
X11488176Y-15234184D02*
X11469128Y-15234184D01*
X11469128Y-15234184D02*
X11450081Y-15224660D01*
X11450081Y-15224660D02*
X11440557Y-15215136D01*
X11440557Y-15215136D02*
X11431033Y-15196088D01*
X11431033Y-15196088D02*
X11421509Y-15157993D01*
X11421509Y-15157993D02*
X11421509Y-15110374D01*
X11421509Y-15110374D02*
X11431033Y-15072279D01*
X11431033Y-15072279D02*
X11440557Y-15053231D01*
X11440557Y-15053231D02*
X11450081Y-15043708D01*
X11450081Y-15043708D02*
X11469128Y-15034184D01*
X11650081Y-15119898D02*
X11631033Y-15110374D01*
X11631033Y-15110374D02*
X11621509Y-15100850D01*
X11621509Y-15100850D02*
X11611986Y-15081803D01*
X11611986Y-15081803D02*
X11611986Y-15072279D01*
X11611986Y-15072279D02*
X11621509Y-15053231D01*
X11621509Y-15053231D02*
X11631033Y-15043708D01*
X11631033Y-15043708D02*
X11650081Y-15034184D01*
X11650081Y-15034184D02*
X11688176Y-15034184D01*
X11688176Y-15034184D02*
X11707224Y-15043708D01*
X11707224Y-15043708D02*
X11716747Y-15053231D01*
X11716747Y-15053231D02*
X11726271Y-15072279D01*
X11726271Y-15072279D02*
X11726271Y-15081803D01*
X11726271Y-15081803D02*
X11716747Y-15100850D01*
X11716747Y-15100850D02*
X11707224Y-15110374D01*
X11707224Y-15110374D02*
X11688176Y-15119898D01*
X11688176Y-15119898D02*
X11650081Y-15119898D01*
X11650081Y-15119898D02*
X11631033Y-15129422D01*
X11631033Y-15129422D02*
X11621509Y-15138946D01*
X11621509Y-15138946D02*
X11611986Y-15157993D01*
X11611986Y-15157993D02*
X11611986Y-15196088D01*
X11611986Y-15196088D02*
X11621509Y-15215136D01*
X11621509Y-15215136D02*
X11631033Y-15224660D01*
X11631033Y-15224660D02*
X11650081Y-15234184D01*
X11650081Y-15234184D02*
X11688176Y-15234184D01*
X11688176Y-15234184D02*
X11707224Y-15224660D01*
X11707224Y-15224660D02*
X11716747Y-15215136D01*
X11716747Y-15215136D02*
X11726271Y-15196088D01*
X11726271Y-15196088D02*
X11726271Y-15157993D01*
X11726271Y-15157993D02*
X11716747Y-15138946D01*
X11716747Y-15138946D02*
X11707224Y-15129422D01*
X11707224Y-15129422D02*
X11688176Y-15119898D01*
X11897700Y-15034184D02*
X11859605Y-15034184D01*
X11859605Y-15034184D02*
X11840557Y-15043708D01*
X11840557Y-15043708D02*
X11831033Y-15053231D01*
X11831033Y-15053231D02*
X11811986Y-15081803D01*
X11811986Y-15081803D02*
X11802462Y-15119898D01*
X11802462Y-15119898D02*
X11802462Y-15196088D01*
X11802462Y-15196088D02*
X11811986Y-15215136D01*
X11811986Y-15215136D02*
X11821509Y-15224660D01*
X11821509Y-15224660D02*
X11840557Y-15234184D01*
X11840557Y-15234184D02*
X11878652Y-15234184D01*
X11878652Y-15234184D02*
X11897700Y-15224660D01*
X11897700Y-15224660D02*
X11907224Y-15215136D01*
X11907224Y-15215136D02*
X11916747Y-15196088D01*
X11916747Y-15196088D02*
X11916747Y-15148469D01*
X11916747Y-15148469D02*
X11907224Y-15129422D01*
X11907224Y-15129422D02*
X11897700Y-15119898D01*
X11897700Y-15119898D02*
X11878652Y-15110374D01*
X11878652Y-15110374D02*
X11840557Y-15110374D01*
X11840557Y-15110374D02*
X11821509Y-15119898D01*
X11821509Y-15119898D02*
X11811986Y-15129422D01*
X11811986Y-15129422D02*
X11802462Y-15148469D01*
X12088176Y-15034184D02*
X12050081Y-15034184D01*
X12050081Y-15034184D02*
X12031033Y-15043708D01*
X12031033Y-15043708D02*
X12021509Y-15053231D01*
X12021509Y-15053231D02*
X12002462Y-15081803D01*
X12002462Y-15081803D02*
X11992938Y-15119898D01*
X11992938Y-15119898D02*
X11992938Y-15196088D01*
X11992938Y-15196088D02*
X12002462Y-15215136D01*
X12002462Y-15215136D02*
X12011986Y-15224660D01*
X12011986Y-15224660D02*
X12031033Y-15234184D01*
X12031033Y-15234184D02*
X12069128Y-15234184D01*
X12069128Y-15234184D02*
X12088176Y-15224660D01*
X12088176Y-15224660D02*
X12097700Y-15215136D01*
X12097700Y-15215136D02*
X12107224Y-15196088D01*
X12107224Y-15196088D02*
X12107224Y-15148469D01*
X12107224Y-15148469D02*
X12097700Y-15129422D01*
X12097700Y-15129422D02*
X12088176Y-15119898D01*
X12088176Y-15119898D02*
X12069128Y-15110374D01*
X12069128Y-15110374D02*
X12031033Y-15110374D01*
X12031033Y-15110374D02*
X12011986Y-15119898D01*
X12011986Y-15119898D02*
X12002462Y-15129422D01*
X12002462Y-15129422D02*
X11992938Y-15148469D01*
X12183414Y-15034184D02*
X12183414Y-15072279D01*
X12259605Y-15034184D02*
X12259605Y-15072279D01*
X12554843Y-15310374D02*
X12545319Y-15300850D01*
X12545319Y-15300850D02*
X12526271Y-15272279D01*
X12526271Y-15272279D02*
X12516748Y-15253231D01*
X12516748Y-15253231D02*
X12507224Y-15224660D01*
X12507224Y-15224660D02*
X12497700Y-15177041D01*
X12497700Y-15177041D02*
X12497700Y-15138946D01*
X12497700Y-15138946D02*
X12507224Y-15091327D01*
X12507224Y-15091327D02*
X12516748Y-15062755D01*
X12516748Y-15062755D02*
X12526271Y-15043708D01*
X12526271Y-15043708D02*
X12545319Y-15015136D01*
X12545319Y-15015136D02*
X12554843Y-15005612D01*
X12716748Y-15100850D02*
X12716748Y-15234184D01*
X12669128Y-15024660D02*
X12621509Y-15167517D01*
X12621509Y-15167517D02*
X12745319Y-15167517D01*
X12973890Y-15234184D02*
X12973890Y-15034184D01*
X13059605Y-15234184D02*
X13059605Y-15129422D01*
X13059605Y-15129422D02*
X13050081Y-15110374D01*
X13050081Y-15110374D02*
X13031033Y-15100850D01*
X13031033Y-15100850D02*
X13002462Y-15100850D01*
X13002462Y-15100850D02*
X12983414Y-15110374D01*
X12983414Y-15110374D02*
X12973890Y-15119898D01*
X13183414Y-15234184D02*
X13164367Y-15224660D01*
X13164367Y-15224660D02*
X13154843Y-15215136D01*
X13154843Y-15215136D02*
X13145319Y-15196088D01*
X13145319Y-15196088D02*
X13145319Y-15138946D01*
X13145319Y-15138946D02*
X13154843Y-15119898D01*
X13154843Y-15119898D02*
X13164367Y-15110374D01*
X13164367Y-15110374D02*
X13183414Y-15100850D01*
X13183414Y-15100850D02*
X13211986Y-15100850D01*
X13211986Y-15100850D02*
X13231033Y-15110374D01*
X13231033Y-15110374D02*
X13240557Y-15119898D01*
X13240557Y-15119898D02*
X13250081Y-15138946D01*
X13250081Y-15138946D02*
X13250081Y-15196088D01*
X13250081Y-15196088D02*
X13240557Y-15215136D01*
X13240557Y-15215136D02*
X13231033Y-15224660D01*
X13231033Y-15224660D02*
X13211986Y-15234184D01*
X13211986Y-15234184D02*
X13183414Y-15234184D01*
X13364367Y-15234184D02*
X13345319Y-15224660D01*
X13345319Y-15224660D02*
X13335795Y-15205612D01*
X13335795Y-15205612D02*
X13335795Y-15034184D01*
X13516748Y-15224660D02*
X13497700Y-15234184D01*
X13497700Y-15234184D02*
X13459605Y-15234184D01*
X13459605Y-15234184D02*
X13440557Y-15224660D01*
X13440557Y-15224660D02*
X13431033Y-15205612D01*
X13431033Y-15205612D02*
X13431033Y-15129422D01*
X13431033Y-15129422D02*
X13440557Y-15110374D01*
X13440557Y-15110374D02*
X13459605Y-15100850D01*
X13459605Y-15100850D02*
X13497700Y-15100850D01*
X13497700Y-15100850D02*
X13516748Y-15110374D01*
X13516748Y-15110374D02*
X13526271Y-15129422D01*
X13526271Y-15129422D02*
X13526271Y-15148469D01*
X13526271Y-15148469D02*
X13431033Y-15167517D01*
X13602462Y-15224660D02*
X13621510Y-15234184D01*
X13621510Y-15234184D02*
X13659605Y-15234184D01*
X13659605Y-15234184D02*
X13678652Y-15224660D01*
X13678652Y-15224660D02*
X13688176Y-15205612D01*
X13688176Y-15205612D02*
X13688176Y-15196088D01*
X13688176Y-15196088D02*
X13678652Y-15177041D01*
X13678652Y-15177041D02*
X13659605Y-15167517D01*
X13659605Y-15167517D02*
X13631033Y-15167517D01*
X13631033Y-15167517D02*
X13611986Y-15157993D01*
X13611986Y-15157993D02*
X13602462Y-15138946D01*
X13602462Y-15138946D02*
X13602462Y-15129422D01*
X13602462Y-15129422D02*
X13611986Y-15110374D01*
X13611986Y-15110374D02*
X13631033Y-15100850D01*
X13631033Y-15100850D02*
X13659605Y-15100850D01*
X13659605Y-15100850D02*
X13678652Y-15110374D01*
X13754843Y-15310374D02*
X13764367Y-15300850D01*
X13764367Y-15300850D02*
X13783414Y-15272279D01*
X13783414Y-15272279D02*
X13792938Y-15253231D01*
X13792938Y-15253231D02*
X13802462Y-15224660D01*
X13802462Y-15224660D02*
X13811986Y-15177041D01*
X13811986Y-15177041D02*
X13811986Y-15138946D01*
X13811986Y-15138946D02*
X13802462Y-15091327D01*
X13802462Y-15091327D02*
X13792938Y-15062755D01*
X13792938Y-15062755D02*
X13783414Y-15043708D01*
X13783414Y-15043708D02*
X13764367Y-15015136D01*
X13764367Y-15015136D02*
X13754843Y-15005612D01*
M02*
