M48
; DRILL file {KiCad 7.0.6} date Wed Jul 12 10:41:06 2023
; FORMAT={-:-/ absolute / inch / decimal}
; #@! TF.CreationDate,2023-07-12T10:41:06-06:00
; #@! TF.GenerationSoftware,Kicad,Pcbnew,7.0.6
; #@! TF.FileFunction,Plated,1,4,PTH
FMAT,2
INCH
; #@! TA.AperFunction,Plated,PTH,ViaDrill
T1C0.0118
; #@! TA.AperFunction,Plated,PTH,ViaDrill
T2C0.0120
; #@! TA.AperFunction,Plated,PTH,ViaDrill
T3C0.0157
; #@! TA.AperFunction,Plated,PTH,ComponentDrill
T4C0.0157
; #@! TA.AperFunction,Plated,PTH,ComponentDrill
T5C0.0331
; #@! TA.AperFunction,Plated,PTH,ComponentDrill
T6C0.0354
; #@! TA.AperFunction,Plated,PTH,ComponentDrill
T7C0.0591
; #@! TA.AperFunction,Plated,PTH,ComponentDrill
T8C0.0669
; #@! TA.AperFunction,Plated,PTH,ComponentDrill
T9C0.0866
%
G90
G05
T1
X4.962Y-3.323
X6.612Y-3.57
T2
X3.89Y-4.405
X4.188Y-4.296
X4.222Y-4.291
X4.228Y-4.454
X4.228Y-4.48
X4.228Y-4.556
X4.228Y-4.582
X4.229Y-4.315
X4.229Y-4.633
X4.254Y-4.329
X4.3Y-4.019
X4.4049Y-4.1136
X4.4284Y-4.112
X4.448Y-4.124
X4.455Y-4.402
X4.457Y-4.36
X4.489Y-4.123
X4.5139Y-4.1224
X4.5395Y-4.1225
X4.5639Y-4.1216
X4.604Y-4.341
X4.606Y-4.116
X4.6282Y-4.341
X4.645Y-4.115
X4.6512Y-4.341
X4.674Y-4.338
X4.685Y-4.454
X4.686Y-4.48
X4.687Y-4.556
X4.687Y-4.582
X4.7712Y-4.2157
X4.799Y-4.218
X4.801Y-4.294
X4.821Y-4.632
X4.844Y-3.91
X4.8708Y-3.7455
X4.883Y-4.083
X5.0662Y-3.9139
X5.142Y-4.046
X5.1939Y-3.9886
X5.254Y-3.323
X5.254Y-3.433
X5.255Y-3.502
X5.255Y-3.736
X5.3297Y-4.0052
X5.3313Y-3.9446
X5.3315Y-3.8867
X5.4402Y-3.4937
X5.525Y-3.6497
X5.6169Y-3.7494
X5.7242Y-4.0182
X5.7361Y-3.69
X5.8025Y-4.166
X5.857Y-3.7649
X5.8737Y-3.5331
X5.9086Y-3.6406
X6.1075Y-3.4952
X6.1954Y-3.6582
X6.219Y-4.442
X6.2438Y-3.7777
X6.259Y-4.442
T3
X3.763Y-4.124
X3.813Y-4.274
X3.8423Y-3.6497
X3.8423Y-3.7257
X3.902Y-4.03
X3.957Y-3.87
X4.002Y-4.679
X4.077Y-3.761
X4.0979Y-3.5059
X4.127Y-3.77
X4.157Y-3.905
X4.231Y-4.403
X4.267Y-3.905
X4.332Y-3.02
X4.387Y-3.7114
X4.387Y-3.767
X4.3922Y-3.8856
X4.396Y-3.924
X4.407Y-3.43
X4.407Y-3.545
X4.442Y-3.38
X4.4663Y-4.2296
X4.507Y-3.165
X4.563Y-4.681
X4.5663Y-3.4446
X4.567Y-3.997
X4.6644Y-3.6753
X4.6863Y-4.2296
X4.702Y-3.55
X4.718Y-3.944
X4.719Y-3.707
X4.793Y-4.403
X4.844Y-4.016
X4.872Y-3.53
X4.876Y-4.183
X4.938Y-4.234
X4.9463Y-3.806
X5.149Y-4.231
X5.195Y-4.018
X5.291Y-4.207
X5.635Y-3.355
X5.635Y-3.425
X5.635Y-3.635
X5.635Y-3.865
X5.635Y-4.315
X5.635Y-4.375
X5.64Y-4.095
X5.69Y-3.835
X5.705Y-3.355
X5.705Y-4.375
X5.7375Y-3.909
X5.815Y-3.845
X5.83Y-3.805
X5.831Y-3.475
X5.8926Y-3.7409
X5.92Y-3.355
X5.92Y-4.38
X6.012Y-4.263
X6.025Y-4.132
X6.051Y-3.745
X6.065Y-3.704
X6.067Y-3.576
X6.072Y-3.889
X6.111Y-3.972
X6.121Y-3.847
X6.124Y-3.738
X6.13Y-4.027
X6.131Y-4.056
X6.145Y-3.355
X6.15Y-3.973
X6.15Y-4.375
X6.161Y-3.738
X6.204Y-3.965
X6.206Y-4.286
X6.227Y-3.566
X6.267Y-3.567
X6.267Y-3.689
X6.2913Y-3.8178
X6.2913Y-3.8611
X6.2913Y-3.9044
X6.319Y-3.692
X6.3385Y-3.8178
X6.3385Y-3.8611
X6.3385Y-3.9044
X6.347Y-3.566
X6.357Y-4.048
X6.367Y-3.666
X6.373Y-3.695
X6.378Y-3.567
X6.38Y-3.355
X6.38Y-4.38
X6.3857Y-3.8178
X6.3857Y-3.8611
X6.3857Y-3.9044
X6.432Y-4.048
X6.444Y-3.993
X6.482Y-3.8887
X6.53Y-3.8413
X6.531Y-3.711
X6.532Y-4.088
X6.533Y-4.047
X6.554Y-3.959
X6.554Y-3.998
X6.568Y-3.635
X6.59Y-3.355
X6.59Y-4.375
X6.607Y-3.634
X6.66Y-3.355
X6.66Y-3.42
X6.66Y-3.635
X6.66Y-3.87
X6.66Y-4.095
X6.66Y-4.305
X6.66Y-4.375
T4
X3.585Y-2.975
X3.585Y-4.75
X3.6041Y-2.9291
X3.6041Y-3.0209
X3.6041Y-4.7041
X3.6041Y-4.7959
X3.65Y-2.91
X3.65Y-3.04
X3.65Y-4.685
X3.65Y-4.815
X3.6959Y-2.9291
X3.6959Y-3.0209
X3.6959Y-4.7041
X3.6959Y-4.7959
X3.715Y-2.975
X3.715Y-4.75
X6.86Y-2.98
X6.865Y-4.75
X6.8791Y-2.9341
X6.8791Y-3.0259
X6.8841Y-4.7041
X6.8841Y-4.7959
X6.925Y-2.915
X6.925Y-3.045
X6.93Y-4.685
X6.93Y-4.815
X6.9709Y-2.9341
X6.9709Y-3.0259
X6.9759Y-4.7041
X6.9759Y-4.7959
X6.99Y-2.98
X6.995Y-4.75
T5
X6.8285Y-3.4655
X6.8285Y-3.5655
X6.8785Y-3.5155
X6.9285Y-3.4655
X6.9285Y-3.5655
T7
X6.867Y-3.8646
T8
X6.767Y-3.7646
X6.767Y-3.9646
X6.967Y-3.7646
X6.967Y-3.9646
T9
X3.65Y-2.975
X3.65Y-4.75
X6.925Y-2.98
X6.93Y-4.75
T6
G00X3.6881Y-3.6402
M15
G01X3.6252Y-3.6402
M16
G05
G00X3.6881Y-4.0891
M15
G01X3.6252Y-4.0891
M16
G05
T0
M30
