G04 #@! TF.GenerationSoftware,KiCad,Pcbnew,7.0.6*
G04 #@! TF.CreationDate,2023-07-12T10:32:07-06:00*
G04 #@! TF.ProjectId,L1IFStream,4c314946-5374-4726-9561-6d2e6b696361,A*
G04 #@! TF.SameCoordinates,Original*
G04 #@! TF.FileFunction,Soldermask,Bot*
G04 #@! TF.FilePolarity,Negative*
%FSLAX46Y46*%
G04 Gerber Fmt 4.6, Leading zero omitted, Abs format (unit mm)*
G04 Created by KiCad (PCBNEW 7.0.6) date 2023-07-12 10:32:07*
%MOMM*%
%LPD*%
G01*
G04 APERTURE LIST*
G04 APERTURE END LIST*
G36*
X93003788Y-118418456D02*
G01*
X93292550Y-118475894D01*
X93571344Y-118570532D01*
X93835400Y-118700750D01*
X94080200Y-118864320D01*
X94301556Y-119058444D01*
X94495680Y-119279800D01*
X94659250Y-119524600D01*
X94789468Y-119788656D01*
X94884106Y-120067450D01*
X94941544Y-120356212D01*
X94960800Y-120650000D01*
X94941544Y-120943788D01*
X94884106Y-121232550D01*
X94789468Y-121511344D01*
X94659250Y-121775400D01*
X94495680Y-122020200D01*
X94301556Y-122241556D01*
X94080200Y-122435680D01*
X93835400Y-122599250D01*
X93571344Y-122729468D01*
X93292550Y-122824106D01*
X93003788Y-122881544D01*
X92710000Y-122900800D01*
X92416212Y-122881544D01*
X92127450Y-122824106D01*
X91848656Y-122729468D01*
X91584600Y-122599250D01*
X91339800Y-122435680D01*
X91118444Y-122241556D01*
X90924320Y-122020200D01*
X90760750Y-121775400D01*
X90630532Y-121511344D01*
X90535894Y-121232550D01*
X90478456Y-120943788D01*
X90459200Y-120650000D01*
X90478456Y-120356212D01*
X90535894Y-120067450D01*
X90630532Y-119788656D01*
X90760750Y-119524600D01*
X90924320Y-119279800D01*
X91118444Y-119058444D01*
X91339800Y-118864320D01*
X91584600Y-118700750D01*
X91848656Y-118570532D01*
X92127450Y-118475894D01*
X92416212Y-118418456D01*
X92710000Y-118399200D01*
X93003788Y-118418456D01*
G37*
G36*
X176315788Y-118418456D02*
G01*
X176604550Y-118475894D01*
X176883344Y-118570532D01*
X177147400Y-118700750D01*
X177392200Y-118864320D01*
X177613556Y-119058444D01*
X177807680Y-119279800D01*
X177971250Y-119524600D01*
X178101468Y-119788656D01*
X178196106Y-120067450D01*
X178253544Y-120356212D01*
X178272800Y-120650000D01*
X178253544Y-120943788D01*
X178196106Y-121232550D01*
X178101468Y-121511344D01*
X177971250Y-121775400D01*
X177807680Y-122020200D01*
X177613556Y-122241556D01*
X177392200Y-122435680D01*
X177147400Y-122599250D01*
X176883344Y-122729468D01*
X176604550Y-122824106D01*
X176315788Y-122881544D01*
X176022000Y-122900800D01*
X175728212Y-122881544D01*
X175439450Y-122824106D01*
X175160656Y-122729468D01*
X174896600Y-122599250D01*
X174651800Y-122435680D01*
X174430444Y-122241556D01*
X174236320Y-122020200D01*
X174072750Y-121775400D01*
X173942532Y-121511344D01*
X173847894Y-121232550D01*
X173790456Y-120943788D01*
X173771200Y-120650000D01*
X173790456Y-120356212D01*
X173847894Y-120067450D01*
X173942532Y-119788656D01*
X174072750Y-119524600D01*
X174236320Y-119279800D01*
X174430444Y-119058444D01*
X174651800Y-118864320D01*
X174896600Y-118700750D01*
X175160656Y-118570532D01*
X175439450Y-118475894D01*
X175728212Y-118418456D01*
X176022000Y-118399200D01*
X176315788Y-118418456D01*
G37*
G36*
X93724841Y-102863524D02*
G01*
X93771134Y-102865730D01*
X93772138Y-102865923D01*
X93780249Y-102866335D01*
X93870473Y-102884876D01*
X93960798Y-102902285D01*
X93966716Y-102904654D01*
X93978603Y-102907097D01*
X94059015Y-102941604D01*
X94137332Y-102972958D01*
X94147896Y-102979747D01*
X94164690Y-102986954D01*
X94231890Y-103033726D01*
X94297302Y-103075764D01*
X94310857Y-103088689D01*
X94330894Y-103102635D01*
X94383271Y-103157736D01*
X94434925Y-103206988D01*
X94449367Y-103227268D01*
X94470408Y-103249404D01*
X94507460Y-103308848D01*
X94545226Y-103361883D01*
X94558133Y-103390146D01*
X94577523Y-103421254D01*
X94599761Y-103481298D01*
X94624220Y-103534856D01*
X94632997Y-103571040D01*
X94647852Y-103611147D01*
X94656632Y-103668466D01*
X94669050Y-103719652D01*
X94671115Y-103763005D01*
X94678515Y-103811310D01*
X94675885Y-103863152D01*
X94678098Y-103909588D01*
X94671042Y-103958659D01*
X94668259Y-104013549D01*
X94656771Y-104057914D01*
X94651035Y-104097816D01*
X94632795Y-104150515D01*
X94617502Y-104209583D01*
X94600012Y-104245238D01*
X94588843Y-104277510D01*
X94557851Y-104331188D01*
X94528323Y-104391387D01*
X94507754Y-104417959D01*
X94493765Y-104442190D01*
X94449098Y-104493737D01*
X94404373Y-104551518D01*
X94383513Y-104569425D01*
X94369237Y-104585901D01*
X94310670Y-104631958D01*
X94250725Y-104683420D01*
X94232056Y-104693781D01*
X94219764Y-104703449D01*
X94147778Y-104740560D01*
X94073671Y-104781693D01*
X94059159Y-104786245D01*
X94050751Y-104790581D01*
X93966462Y-104815330D01*
X93880460Y-104842314D01*
X93871440Y-104843231D01*
X93868294Y-104844155D01*
X93770805Y-104853464D01*
X93679000Y-104862800D01*
X93673045Y-104862800D01*
X92081967Y-104862800D01*
X92079000Y-104862800D01*
X92032999Y-104860467D01*
X91986865Y-104858269D01*
X91985866Y-104858076D01*
X91977751Y-104857665D01*
X91887462Y-104839110D01*
X91797201Y-104821714D01*
X91791287Y-104819346D01*
X91779397Y-104816903D01*
X91698964Y-104782386D01*
X91620667Y-104751041D01*
X91610105Y-104744253D01*
X91593310Y-104737046D01*
X91526102Y-104690268D01*
X91460697Y-104648235D01*
X91447142Y-104635310D01*
X91427106Y-104621365D01*
X91374728Y-104566263D01*
X91323074Y-104517011D01*
X91308631Y-104496729D01*
X91287592Y-104474596D01*
X91250541Y-104415154D01*
X91212773Y-104362116D01*
X91199864Y-104333850D01*
X91180477Y-104302746D01*
X91158241Y-104242707D01*
X91133779Y-104189143D01*
X91124999Y-104152953D01*
X91110148Y-104112853D01*
X91101368Y-104055542D01*
X91088949Y-104004347D01*
X91086883Y-103960985D01*
X91079485Y-103912690D01*
X91082113Y-103860857D01*
X91079901Y-103814411D01*
X91086958Y-103765327D01*
X91089741Y-103710451D01*
X91101225Y-103666095D01*
X91106964Y-103626183D01*
X91125208Y-103573468D01*
X91140498Y-103514417D01*
X91157983Y-103478770D01*
X91169156Y-103446489D01*
X91200157Y-103392793D01*
X91229677Y-103332613D01*
X91250239Y-103306048D01*
X91264234Y-103281809D01*
X91308917Y-103230242D01*
X91353627Y-103172482D01*
X91374479Y-103154581D01*
X91388762Y-103138098D01*
X91447354Y-103092020D01*
X91507275Y-103040580D01*
X91525935Y-103030222D01*
X91538235Y-103020550D01*
X91610260Y-102983418D01*
X91684329Y-102942307D01*
X91698832Y-102937756D01*
X91707248Y-102933418D01*
X91791601Y-102908649D01*
X91877540Y-102881686D01*
X91886553Y-102880769D01*
X91889705Y-102879844D01*
X91987283Y-102870526D01*
X92079000Y-102861200D01*
X93679000Y-102861200D01*
X93724841Y-102863524D01*
G37*
G36*
X171933882Y-99531216D02*
G01*
X171990489Y-99531216D01*
X172040290Y-99540525D01*
X172086088Y-99544532D01*
X172142297Y-99559593D01*
X172203773Y-99571085D01*
X172245470Y-99587238D01*
X172283982Y-99597558D01*
X172342287Y-99624746D01*
X172406099Y-99649467D01*
X172439034Y-99669860D01*
X172469663Y-99684142D01*
X172527437Y-99724596D01*
X172590578Y-99763691D01*
X172614780Y-99785754D01*
X172637480Y-99801649D01*
X172691781Y-99855950D01*
X172750927Y-99909869D01*
X172767048Y-99931217D01*
X172782352Y-99946521D01*
X172830091Y-100014699D01*
X172881685Y-100083021D01*
X172890928Y-100101583D01*
X172899856Y-100114334D01*
X172937866Y-100195847D01*
X172978401Y-100277252D01*
X172982432Y-100291419D01*
X172986441Y-100300017D01*
X173011706Y-100394309D01*
X173037780Y-100485947D01*
X173038582Y-100494611D01*
X173039467Y-100497911D01*
X173049243Y-100609661D01*
X173057800Y-100702000D01*
X173049241Y-100794364D01*
X173039467Y-100906088D01*
X173038583Y-100909387D01*
X173037780Y-100918053D01*
X173011702Y-101009706D01*
X172986441Y-101103982D01*
X172982432Y-101112577D01*
X172978401Y-101126748D01*
X172937859Y-101208165D01*
X172899857Y-101289663D01*
X172890930Y-101302410D01*
X172881685Y-101320979D01*
X172830074Y-101389322D01*
X172782350Y-101457480D01*
X172767051Y-101472778D01*
X172750927Y-101494131D01*
X172691770Y-101548059D01*
X172637480Y-101602350D01*
X172614785Y-101618241D01*
X172590578Y-101640309D01*
X172527425Y-101679411D01*
X172469663Y-101719857D01*
X172439041Y-101734135D01*
X172406099Y-101754533D01*
X172342274Y-101779258D01*
X172283982Y-101806441D01*
X172245478Y-101816758D01*
X172203773Y-101832915D01*
X172142285Y-101844408D01*
X172086088Y-101859467D01*
X172040300Y-101863472D01*
X171990489Y-101872784D01*
X171933870Y-101872784D01*
X171881999Y-101877322D01*
X171830128Y-101872784D01*
X171773511Y-101872784D01*
X171723700Y-101863472D01*
X171677911Y-101859467D01*
X171621711Y-101844408D01*
X171560227Y-101832915D01*
X171518523Y-101816758D01*
X171480017Y-101806441D01*
X171421719Y-101779256D01*
X171357901Y-101754533D01*
X171324961Y-101734137D01*
X171294336Y-101719857D01*
X171236566Y-101679405D01*
X171173422Y-101640309D01*
X171149217Y-101618244D01*
X171126519Y-101602350D01*
X171072218Y-101548049D01*
X171013073Y-101494131D01*
X170996951Y-101472782D01*
X170981649Y-101457480D01*
X170933911Y-101389304D01*
X170882315Y-101320979D01*
X170873071Y-101302415D01*
X170864142Y-101289663D01*
X170826124Y-101208134D01*
X170785599Y-101126748D01*
X170781568Y-101112583D01*
X170777558Y-101103982D01*
X170752280Y-101009646D01*
X170726220Y-100918053D01*
X170725417Y-100909392D01*
X170724532Y-100906088D01*
X170714739Y-100794161D01*
X170706200Y-100702000D01*
X170714739Y-100609845D01*
X170724532Y-100497911D01*
X170725417Y-100494605D01*
X170726220Y-100485947D01*
X170752275Y-100394370D01*
X170777558Y-100300017D01*
X170781569Y-100291414D01*
X170785599Y-100277252D01*
X170826117Y-100195879D01*
X170864143Y-100114334D01*
X170873074Y-100101578D01*
X170882315Y-100083021D01*
X170933895Y-100014717D01*
X170981647Y-99946521D01*
X170996954Y-99931213D01*
X171013073Y-99909869D01*
X171072206Y-99855961D01*
X171126521Y-99801647D01*
X171149225Y-99785749D01*
X171173422Y-99763691D01*
X171236547Y-99724605D01*
X171294334Y-99684143D01*
X171324967Y-99669858D01*
X171357901Y-99649467D01*
X171421707Y-99624748D01*
X171480017Y-99597558D01*
X171518531Y-99587237D01*
X171560227Y-99571085D01*
X171621699Y-99559594D01*
X171677911Y-99544532D01*
X171723710Y-99540525D01*
X171773511Y-99531216D01*
X171830118Y-99531216D01*
X171882000Y-99526677D01*
X171933882Y-99531216D01*
G37*
G36*
X177013882Y-99531216D02*
G01*
X177070489Y-99531216D01*
X177120290Y-99540525D01*
X177166088Y-99544532D01*
X177222297Y-99559593D01*
X177283773Y-99571085D01*
X177325470Y-99587238D01*
X177363982Y-99597558D01*
X177422287Y-99624746D01*
X177486099Y-99649467D01*
X177519034Y-99669860D01*
X177549663Y-99684142D01*
X177607437Y-99724596D01*
X177670578Y-99763691D01*
X177694780Y-99785754D01*
X177717480Y-99801649D01*
X177771781Y-99855950D01*
X177830927Y-99909869D01*
X177847048Y-99931217D01*
X177862352Y-99946521D01*
X177910091Y-100014699D01*
X177961685Y-100083021D01*
X177970928Y-100101583D01*
X177979856Y-100114334D01*
X178017866Y-100195847D01*
X178058401Y-100277252D01*
X178062432Y-100291419D01*
X178066441Y-100300017D01*
X178091706Y-100394309D01*
X178117780Y-100485947D01*
X178118582Y-100494611D01*
X178119467Y-100497911D01*
X178129243Y-100609661D01*
X178137800Y-100702000D01*
X178129241Y-100794364D01*
X178119467Y-100906088D01*
X178118583Y-100909387D01*
X178117780Y-100918053D01*
X178091702Y-101009706D01*
X178066441Y-101103982D01*
X178062432Y-101112577D01*
X178058401Y-101126748D01*
X178017859Y-101208165D01*
X177979857Y-101289663D01*
X177970930Y-101302410D01*
X177961685Y-101320979D01*
X177910074Y-101389322D01*
X177862350Y-101457480D01*
X177847051Y-101472778D01*
X177830927Y-101494131D01*
X177771770Y-101548059D01*
X177717480Y-101602350D01*
X177694785Y-101618241D01*
X177670578Y-101640309D01*
X177607425Y-101679411D01*
X177549663Y-101719857D01*
X177519041Y-101734135D01*
X177486099Y-101754533D01*
X177422274Y-101779258D01*
X177363982Y-101806441D01*
X177325478Y-101816758D01*
X177283773Y-101832915D01*
X177222285Y-101844408D01*
X177166088Y-101859467D01*
X177120300Y-101863472D01*
X177070489Y-101872784D01*
X177013870Y-101872784D01*
X176961999Y-101877322D01*
X176910128Y-101872784D01*
X176853511Y-101872784D01*
X176803700Y-101863472D01*
X176757911Y-101859467D01*
X176701711Y-101844408D01*
X176640227Y-101832915D01*
X176598523Y-101816758D01*
X176560017Y-101806441D01*
X176501719Y-101779256D01*
X176437901Y-101754533D01*
X176404961Y-101734137D01*
X176374336Y-101719857D01*
X176316566Y-101679405D01*
X176253422Y-101640309D01*
X176229217Y-101618244D01*
X176206519Y-101602350D01*
X176152218Y-101548049D01*
X176093073Y-101494131D01*
X176076951Y-101472782D01*
X176061649Y-101457480D01*
X176013911Y-101389304D01*
X175962315Y-101320979D01*
X175953071Y-101302415D01*
X175944142Y-101289663D01*
X175906124Y-101208134D01*
X175865599Y-101126748D01*
X175861568Y-101112583D01*
X175857558Y-101103982D01*
X175832280Y-101009646D01*
X175806220Y-100918053D01*
X175805417Y-100909392D01*
X175804532Y-100906088D01*
X175794740Y-100794171D01*
X175786200Y-100702000D01*
X175794738Y-100609855D01*
X175804532Y-100497911D01*
X175805417Y-100494605D01*
X175806220Y-100485947D01*
X175832275Y-100394370D01*
X175857558Y-100300017D01*
X175861569Y-100291414D01*
X175865599Y-100277252D01*
X175906117Y-100195879D01*
X175944143Y-100114334D01*
X175953074Y-100101578D01*
X175962315Y-100083021D01*
X176013895Y-100014717D01*
X176061647Y-99946521D01*
X176076954Y-99931213D01*
X176093073Y-99909869D01*
X176152206Y-99855961D01*
X176206521Y-99801647D01*
X176229225Y-99785749D01*
X176253422Y-99763691D01*
X176316547Y-99724605D01*
X176374334Y-99684143D01*
X176404967Y-99669858D01*
X176437901Y-99649467D01*
X176501707Y-99624748D01*
X176560017Y-99597558D01*
X176598531Y-99587237D01*
X176640227Y-99571085D01*
X176701699Y-99559594D01*
X176757911Y-99544532D01*
X176803710Y-99540525D01*
X176853511Y-99531216D01*
X176910118Y-99531216D01*
X176962000Y-99526677D01*
X177013882Y-99531216D01*
G37*
G36*
X92920633Y-99866681D02*
G01*
X93012514Y-99877034D01*
X93020502Y-99879829D01*
X93034498Y-99881672D01*
X93082009Y-99901351D01*
X93139332Y-99921410D01*
X93156543Y-99932224D01*
X93179400Y-99941692D01*
X93214610Y-99968709D01*
X93253097Y-99992892D01*
X93276087Y-100015882D01*
X93303830Y-100037170D01*
X93325117Y-100064912D01*
X93348107Y-100087902D01*
X93372288Y-100126387D01*
X93399308Y-100161600D01*
X93408775Y-100184457D01*
X93419589Y-100201667D01*
X93439644Y-100258980D01*
X93459328Y-100306502D01*
X93461170Y-100320500D01*
X93463965Y-100328485D01*
X93474312Y-100420320D01*
X93479800Y-100462000D01*
X93474312Y-100503681D01*
X93463965Y-100595514D01*
X93461171Y-100603498D01*
X93459328Y-100617498D01*
X93439641Y-100665024D01*
X93419589Y-100722332D01*
X93408777Y-100739539D01*
X93399308Y-100762400D01*
X93372284Y-100797617D01*
X93348107Y-100836097D01*
X93325120Y-100859083D01*
X93303830Y-100886830D01*
X93276083Y-100908120D01*
X93253097Y-100931107D01*
X93214617Y-100955284D01*
X93179400Y-100982308D01*
X93156539Y-100991777D01*
X93139332Y-101002589D01*
X93082024Y-101022641D01*
X93034498Y-101042328D01*
X93020498Y-101044171D01*
X93012514Y-101046965D01*
X92920681Y-101057312D01*
X92879000Y-101062800D01*
X92837320Y-101057312D01*
X92745485Y-101046965D01*
X92737500Y-101044170D01*
X92723502Y-101042328D01*
X92675980Y-101022644D01*
X92618667Y-101002589D01*
X92601457Y-100991775D01*
X92578600Y-100982308D01*
X92543387Y-100955288D01*
X92504902Y-100931107D01*
X92481912Y-100908117D01*
X92454170Y-100886830D01*
X92432882Y-100859087D01*
X92409892Y-100836097D01*
X92385709Y-100797610D01*
X92358692Y-100762400D01*
X92349224Y-100739543D01*
X92338410Y-100722332D01*
X92318351Y-100665009D01*
X92298672Y-100617498D01*
X92296829Y-100603502D01*
X92294034Y-100595514D01*
X92283680Y-100503629D01*
X92278200Y-100462000D01*
X92283680Y-100420372D01*
X92294034Y-100328485D01*
X92296829Y-100320495D01*
X92298672Y-100306502D01*
X92318349Y-100258996D01*
X92338410Y-100201667D01*
X92349225Y-100184453D01*
X92358692Y-100161600D01*
X92385706Y-100126394D01*
X92409892Y-100087902D01*
X92432885Y-100064908D01*
X92454170Y-100037170D01*
X92481908Y-100015885D01*
X92504902Y-99992892D01*
X92543394Y-99968706D01*
X92578600Y-99941692D01*
X92601453Y-99932225D01*
X92618667Y-99921410D01*
X92675996Y-99901349D01*
X92723502Y-99881672D01*
X92737495Y-99879829D01*
X92745485Y-99877034D01*
X92837376Y-99866679D01*
X92879000Y-99861200D01*
X92920633Y-99866681D01*
G37*
G36*
X174473882Y-96991216D02*
G01*
X174530489Y-96991216D01*
X174580290Y-97000525D01*
X174626088Y-97004532D01*
X174682297Y-97019593D01*
X174743773Y-97031085D01*
X174785470Y-97047238D01*
X174823982Y-97057558D01*
X174882287Y-97084746D01*
X174946099Y-97109467D01*
X174979034Y-97129860D01*
X175009663Y-97144142D01*
X175067437Y-97184596D01*
X175130578Y-97223691D01*
X175154780Y-97245754D01*
X175177480Y-97261649D01*
X175231781Y-97315950D01*
X175290927Y-97369869D01*
X175307048Y-97391217D01*
X175322352Y-97406521D01*
X175370091Y-97474699D01*
X175421685Y-97543021D01*
X175430928Y-97561583D01*
X175439856Y-97574334D01*
X175477866Y-97655847D01*
X175518401Y-97737252D01*
X175522432Y-97751419D01*
X175526441Y-97760017D01*
X175551706Y-97854309D01*
X175577780Y-97945947D01*
X175578582Y-97954611D01*
X175579467Y-97957911D01*
X175589242Y-98069652D01*
X175597800Y-98162000D01*
X175589242Y-98254355D01*
X175579467Y-98366088D01*
X175578583Y-98369387D01*
X175577780Y-98378053D01*
X175551702Y-98469706D01*
X175526441Y-98563982D01*
X175522432Y-98572577D01*
X175518401Y-98586748D01*
X175477859Y-98668165D01*
X175439857Y-98749663D01*
X175430930Y-98762410D01*
X175421685Y-98780979D01*
X175370074Y-98849322D01*
X175322350Y-98917480D01*
X175307051Y-98932778D01*
X175290927Y-98954131D01*
X175231770Y-99008059D01*
X175177480Y-99062350D01*
X175154785Y-99078241D01*
X175130578Y-99100309D01*
X175067425Y-99139411D01*
X175009663Y-99179857D01*
X174979041Y-99194135D01*
X174946099Y-99214533D01*
X174882274Y-99239258D01*
X174823982Y-99266441D01*
X174785478Y-99276758D01*
X174743773Y-99292915D01*
X174682285Y-99304408D01*
X174626088Y-99319467D01*
X174580300Y-99323472D01*
X174530489Y-99332784D01*
X174473870Y-99332784D01*
X174421999Y-99337322D01*
X174370128Y-99332784D01*
X174313511Y-99332784D01*
X174263700Y-99323472D01*
X174217911Y-99319467D01*
X174161711Y-99304408D01*
X174100227Y-99292915D01*
X174058523Y-99276758D01*
X174020017Y-99266441D01*
X173961719Y-99239256D01*
X173897901Y-99214533D01*
X173864961Y-99194137D01*
X173834336Y-99179857D01*
X173776566Y-99139405D01*
X173713422Y-99100309D01*
X173689217Y-99078244D01*
X173666519Y-99062350D01*
X173612218Y-99008049D01*
X173553073Y-98954131D01*
X173536951Y-98932782D01*
X173521649Y-98917480D01*
X173473911Y-98849304D01*
X173422315Y-98780979D01*
X173413071Y-98762415D01*
X173404142Y-98749663D01*
X173366124Y-98668134D01*
X173325599Y-98586748D01*
X173321568Y-98572583D01*
X173317558Y-98563982D01*
X173292280Y-98469646D01*
X173266220Y-98378053D01*
X173265417Y-98369392D01*
X173264532Y-98366088D01*
X173254739Y-98254161D01*
X173246200Y-98162000D01*
X173254739Y-98069845D01*
X173264532Y-97957911D01*
X173265417Y-97954605D01*
X173266220Y-97945947D01*
X173292275Y-97854370D01*
X173317558Y-97760017D01*
X173321569Y-97751414D01*
X173325599Y-97737252D01*
X173366117Y-97655879D01*
X173404143Y-97574334D01*
X173413074Y-97561578D01*
X173422315Y-97543021D01*
X173473895Y-97474717D01*
X173521647Y-97406521D01*
X173536954Y-97391213D01*
X173553073Y-97369869D01*
X173612206Y-97315961D01*
X173666521Y-97261647D01*
X173689225Y-97245749D01*
X173713422Y-97223691D01*
X173776547Y-97184605D01*
X173834334Y-97144143D01*
X173864967Y-97129858D01*
X173897901Y-97109467D01*
X173961707Y-97084748D01*
X174020017Y-97057558D01*
X174058531Y-97047237D01*
X174100227Y-97031085D01*
X174161699Y-97019594D01*
X174217911Y-97004532D01*
X174263710Y-97000525D01*
X174313511Y-96991216D01*
X174370118Y-96991216D01*
X174422000Y-96986677D01*
X174473882Y-96991216D01*
G37*
G36*
X171933882Y-94451216D02*
G01*
X171990489Y-94451216D01*
X172040290Y-94460525D01*
X172086088Y-94464532D01*
X172142297Y-94479593D01*
X172203773Y-94491085D01*
X172245470Y-94507238D01*
X172283982Y-94517558D01*
X172342287Y-94544746D01*
X172406099Y-94569467D01*
X172439034Y-94589860D01*
X172469663Y-94604142D01*
X172527437Y-94644596D01*
X172590578Y-94683691D01*
X172614780Y-94705754D01*
X172637480Y-94721649D01*
X172691781Y-94775950D01*
X172750927Y-94829869D01*
X172767048Y-94851217D01*
X172782352Y-94866521D01*
X172830091Y-94934699D01*
X172881685Y-95003021D01*
X172890928Y-95021583D01*
X172899856Y-95034334D01*
X172937866Y-95115847D01*
X172978401Y-95197252D01*
X172982432Y-95211419D01*
X172986441Y-95220017D01*
X173011706Y-95314309D01*
X173037780Y-95405947D01*
X173038582Y-95414611D01*
X173039467Y-95417911D01*
X173049243Y-95529661D01*
X173057800Y-95622000D01*
X173049241Y-95714364D01*
X173039467Y-95826088D01*
X173038583Y-95829387D01*
X173037780Y-95838053D01*
X173011702Y-95929706D01*
X172986441Y-96023982D01*
X172982432Y-96032577D01*
X172978401Y-96046748D01*
X172937859Y-96128165D01*
X172899857Y-96209663D01*
X172890930Y-96222410D01*
X172881685Y-96240979D01*
X172830074Y-96309322D01*
X172782350Y-96377480D01*
X172767051Y-96392778D01*
X172750927Y-96414131D01*
X172691770Y-96468059D01*
X172637480Y-96522350D01*
X172614785Y-96538241D01*
X172590578Y-96560309D01*
X172527425Y-96599411D01*
X172469663Y-96639857D01*
X172439041Y-96654135D01*
X172406099Y-96674533D01*
X172342274Y-96699258D01*
X172283982Y-96726441D01*
X172245478Y-96736758D01*
X172203773Y-96752915D01*
X172142285Y-96764408D01*
X172086088Y-96779467D01*
X172040300Y-96783472D01*
X171990489Y-96792784D01*
X171933870Y-96792784D01*
X171881999Y-96797322D01*
X171830128Y-96792784D01*
X171773511Y-96792784D01*
X171723700Y-96783472D01*
X171677911Y-96779467D01*
X171621711Y-96764408D01*
X171560227Y-96752915D01*
X171518523Y-96736758D01*
X171480017Y-96726441D01*
X171421719Y-96699256D01*
X171357901Y-96674533D01*
X171324961Y-96654137D01*
X171294336Y-96639857D01*
X171236566Y-96599405D01*
X171173422Y-96560309D01*
X171149217Y-96538244D01*
X171126519Y-96522350D01*
X171072218Y-96468049D01*
X171013073Y-96414131D01*
X170996951Y-96392782D01*
X170981649Y-96377480D01*
X170933911Y-96309304D01*
X170882315Y-96240979D01*
X170873071Y-96222415D01*
X170864142Y-96209663D01*
X170826124Y-96128134D01*
X170785599Y-96046748D01*
X170781568Y-96032583D01*
X170777558Y-96023982D01*
X170752280Y-95929646D01*
X170726220Y-95838053D01*
X170725417Y-95829392D01*
X170724532Y-95826088D01*
X170714739Y-95714161D01*
X170706200Y-95622000D01*
X170714739Y-95529845D01*
X170724532Y-95417911D01*
X170725417Y-95414605D01*
X170726220Y-95405947D01*
X170752275Y-95314370D01*
X170777558Y-95220017D01*
X170781569Y-95211414D01*
X170785599Y-95197252D01*
X170826117Y-95115879D01*
X170864143Y-95034334D01*
X170873074Y-95021578D01*
X170882315Y-95003021D01*
X170933895Y-94934717D01*
X170981647Y-94866521D01*
X170996954Y-94851213D01*
X171013073Y-94829869D01*
X171072206Y-94775961D01*
X171126521Y-94721647D01*
X171149225Y-94705749D01*
X171173422Y-94683691D01*
X171236547Y-94644605D01*
X171294334Y-94604143D01*
X171324967Y-94589858D01*
X171357901Y-94569467D01*
X171421707Y-94544748D01*
X171480017Y-94517558D01*
X171518531Y-94507237D01*
X171560227Y-94491085D01*
X171621699Y-94479594D01*
X171677911Y-94464532D01*
X171723710Y-94460525D01*
X171773511Y-94451216D01*
X171830118Y-94451216D01*
X171882000Y-94446677D01*
X171933882Y-94451216D01*
G37*
G36*
X177013882Y-94451216D02*
G01*
X177070489Y-94451216D01*
X177120290Y-94460525D01*
X177166088Y-94464532D01*
X177222297Y-94479593D01*
X177283773Y-94491085D01*
X177325470Y-94507238D01*
X177363982Y-94517558D01*
X177422287Y-94544746D01*
X177486099Y-94569467D01*
X177519034Y-94589860D01*
X177549663Y-94604142D01*
X177607437Y-94644596D01*
X177670578Y-94683691D01*
X177694780Y-94705754D01*
X177717480Y-94721649D01*
X177771781Y-94775950D01*
X177830927Y-94829869D01*
X177847048Y-94851217D01*
X177862352Y-94866521D01*
X177910091Y-94934699D01*
X177961685Y-95003021D01*
X177970928Y-95021583D01*
X177979856Y-95034334D01*
X178017866Y-95115847D01*
X178058401Y-95197252D01*
X178062432Y-95211419D01*
X178066441Y-95220017D01*
X178091706Y-95314309D01*
X178117780Y-95405947D01*
X178118582Y-95414611D01*
X178119467Y-95417911D01*
X178129243Y-95529661D01*
X178137800Y-95622000D01*
X178129241Y-95714364D01*
X178119467Y-95826088D01*
X178118583Y-95829387D01*
X178117780Y-95838053D01*
X178091702Y-95929706D01*
X178066441Y-96023982D01*
X178062432Y-96032577D01*
X178058401Y-96046748D01*
X178017859Y-96128165D01*
X177979857Y-96209663D01*
X177970930Y-96222410D01*
X177961685Y-96240979D01*
X177910074Y-96309322D01*
X177862350Y-96377480D01*
X177847051Y-96392778D01*
X177830927Y-96414131D01*
X177771770Y-96468059D01*
X177717480Y-96522350D01*
X177694785Y-96538241D01*
X177670578Y-96560309D01*
X177607425Y-96599411D01*
X177549663Y-96639857D01*
X177519041Y-96654135D01*
X177486099Y-96674533D01*
X177422274Y-96699258D01*
X177363982Y-96726441D01*
X177325478Y-96736758D01*
X177283773Y-96752915D01*
X177222285Y-96764408D01*
X177166088Y-96779467D01*
X177120300Y-96783472D01*
X177070489Y-96792784D01*
X177013870Y-96792784D01*
X176961999Y-96797322D01*
X176910128Y-96792784D01*
X176853511Y-96792784D01*
X176803700Y-96783472D01*
X176757911Y-96779467D01*
X176701711Y-96764408D01*
X176640227Y-96752915D01*
X176598523Y-96736758D01*
X176560017Y-96726441D01*
X176501719Y-96699256D01*
X176437901Y-96674533D01*
X176404961Y-96654137D01*
X176374336Y-96639857D01*
X176316566Y-96599405D01*
X176253422Y-96560309D01*
X176229217Y-96538244D01*
X176206519Y-96522350D01*
X176152218Y-96468049D01*
X176093073Y-96414131D01*
X176076951Y-96392782D01*
X176061649Y-96377480D01*
X176013911Y-96309304D01*
X175962315Y-96240979D01*
X175953071Y-96222415D01*
X175944142Y-96209663D01*
X175906124Y-96128134D01*
X175865599Y-96046748D01*
X175861568Y-96032583D01*
X175857558Y-96023982D01*
X175832280Y-95929646D01*
X175806220Y-95838053D01*
X175805417Y-95829392D01*
X175804532Y-95826088D01*
X175794740Y-95714171D01*
X175786200Y-95622000D01*
X175794738Y-95529855D01*
X175804532Y-95417911D01*
X175805417Y-95414605D01*
X175806220Y-95405947D01*
X175832275Y-95314370D01*
X175857558Y-95220017D01*
X175861569Y-95211414D01*
X175865599Y-95197252D01*
X175906117Y-95115879D01*
X175944143Y-95034334D01*
X175953074Y-95021578D01*
X175962315Y-95003021D01*
X176013895Y-94934717D01*
X176061647Y-94866521D01*
X176076954Y-94851213D01*
X176093073Y-94829869D01*
X176152206Y-94775961D01*
X176206521Y-94721647D01*
X176229225Y-94705749D01*
X176253422Y-94683691D01*
X176316547Y-94644605D01*
X176374334Y-94604143D01*
X176404967Y-94589858D01*
X176437901Y-94569467D01*
X176501707Y-94544748D01*
X176560017Y-94517558D01*
X176598531Y-94507237D01*
X176640227Y-94491085D01*
X176701699Y-94479594D01*
X176757911Y-94464532D01*
X176803710Y-94460525D01*
X176853511Y-94451216D01*
X176910118Y-94451216D01*
X176962000Y-94446677D01*
X177013882Y-94451216D01*
G37*
G36*
X92920629Y-95266680D02*
G01*
X93012514Y-95277034D01*
X93020502Y-95279829D01*
X93034498Y-95281672D01*
X93082009Y-95301351D01*
X93139332Y-95321410D01*
X93156543Y-95332224D01*
X93179400Y-95341692D01*
X93214610Y-95368709D01*
X93253097Y-95392892D01*
X93276087Y-95415882D01*
X93303830Y-95437170D01*
X93325117Y-95464912D01*
X93348107Y-95487902D01*
X93372288Y-95526387D01*
X93399308Y-95561600D01*
X93408775Y-95584457D01*
X93419589Y-95601667D01*
X93439644Y-95658980D01*
X93459328Y-95706502D01*
X93461170Y-95720500D01*
X93463965Y-95728485D01*
X93474313Y-95820324D01*
X93479800Y-95862000D01*
X93474311Y-95903685D01*
X93463965Y-95995514D01*
X93461171Y-96003498D01*
X93459328Y-96017498D01*
X93439641Y-96065024D01*
X93419589Y-96122332D01*
X93408777Y-96139539D01*
X93399308Y-96162400D01*
X93372284Y-96197617D01*
X93348107Y-96236097D01*
X93325120Y-96259083D01*
X93303830Y-96286830D01*
X93276083Y-96308120D01*
X93253097Y-96331107D01*
X93214617Y-96355284D01*
X93179400Y-96382308D01*
X93156539Y-96391777D01*
X93139332Y-96402589D01*
X93082024Y-96422641D01*
X93034498Y-96442328D01*
X93020498Y-96444171D01*
X93012514Y-96446965D01*
X92920685Y-96457311D01*
X92879000Y-96462800D01*
X92837324Y-96457313D01*
X92745485Y-96446965D01*
X92737500Y-96444170D01*
X92723502Y-96442328D01*
X92675980Y-96422644D01*
X92618667Y-96402589D01*
X92601457Y-96391775D01*
X92578600Y-96382308D01*
X92543387Y-96355288D01*
X92504902Y-96331107D01*
X92481912Y-96308117D01*
X92454170Y-96286830D01*
X92432882Y-96259087D01*
X92409892Y-96236097D01*
X92385709Y-96197610D01*
X92358692Y-96162400D01*
X92349224Y-96139543D01*
X92338410Y-96122332D01*
X92318351Y-96065009D01*
X92298672Y-96017498D01*
X92296829Y-96003502D01*
X92294034Y-95995514D01*
X92283681Y-95903633D01*
X92278200Y-95862000D01*
X92283679Y-95820376D01*
X92294034Y-95728485D01*
X92296829Y-95720495D01*
X92298672Y-95706502D01*
X92318349Y-95658996D01*
X92338410Y-95601667D01*
X92349225Y-95584453D01*
X92358692Y-95561600D01*
X92385706Y-95526394D01*
X92409892Y-95487902D01*
X92432885Y-95464908D01*
X92454170Y-95437170D01*
X92481908Y-95415885D01*
X92504902Y-95392892D01*
X92543394Y-95368706D01*
X92578600Y-95341692D01*
X92601453Y-95332225D01*
X92618667Y-95321410D01*
X92675996Y-95301349D01*
X92723502Y-95281672D01*
X92737495Y-95279829D01*
X92745485Y-95277034D01*
X92837372Y-95266680D01*
X92879000Y-95261200D01*
X92920629Y-95266680D01*
G37*
G36*
X93724841Y-91463524D02*
G01*
X93771134Y-91465730D01*
X93772138Y-91465923D01*
X93780249Y-91466335D01*
X93870473Y-91484876D01*
X93960798Y-91502285D01*
X93966716Y-91504654D01*
X93978603Y-91507097D01*
X94059015Y-91541604D01*
X94137332Y-91572958D01*
X94147896Y-91579747D01*
X94164690Y-91586954D01*
X94231890Y-91633726D01*
X94297302Y-91675764D01*
X94310857Y-91688689D01*
X94330894Y-91702635D01*
X94383271Y-91757736D01*
X94434925Y-91806988D01*
X94449367Y-91827268D01*
X94470408Y-91849404D01*
X94507460Y-91908848D01*
X94545226Y-91961883D01*
X94558133Y-91990146D01*
X94577523Y-92021254D01*
X94599761Y-92081298D01*
X94624220Y-92134856D01*
X94632997Y-92171040D01*
X94647852Y-92211147D01*
X94656632Y-92268466D01*
X94669050Y-92319652D01*
X94671115Y-92363005D01*
X94678515Y-92411310D01*
X94675885Y-92463152D01*
X94678098Y-92509588D01*
X94671042Y-92558659D01*
X94668259Y-92613549D01*
X94656771Y-92657914D01*
X94651035Y-92697816D01*
X94632795Y-92750515D01*
X94617502Y-92809583D01*
X94600012Y-92845238D01*
X94588843Y-92877510D01*
X94557851Y-92931188D01*
X94528323Y-92991387D01*
X94507754Y-93017959D01*
X94493765Y-93042190D01*
X94449098Y-93093737D01*
X94404373Y-93151518D01*
X94383513Y-93169425D01*
X94369237Y-93185901D01*
X94310670Y-93231958D01*
X94250725Y-93283420D01*
X94232056Y-93293781D01*
X94219764Y-93303449D01*
X94147778Y-93340560D01*
X94073671Y-93381693D01*
X94059159Y-93386245D01*
X94050751Y-93390581D01*
X93966462Y-93415330D01*
X93880460Y-93442314D01*
X93871440Y-93443231D01*
X93868294Y-93444155D01*
X93770805Y-93453464D01*
X93679000Y-93462800D01*
X93673045Y-93462800D01*
X92081967Y-93462800D01*
X92079000Y-93462800D01*
X92032999Y-93460467D01*
X91986865Y-93458269D01*
X91985866Y-93458076D01*
X91977751Y-93457665D01*
X91887462Y-93439110D01*
X91797201Y-93421714D01*
X91791287Y-93419346D01*
X91779397Y-93416903D01*
X91698964Y-93382386D01*
X91620667Y-93351041D01*
X91610105Y-93344253D01*
X91593310Y-93337046D01*
X91526102Y-93290268D01*
X91460697Y-93248235D01*
X91447142Y-93235310D01*
X91427106Y-93221365D01*
X91374728Y-93166263D01*
X91323074Y-93117011D01*
X91308631Y-93096729D01*
X91287592Y-93074596D01*
X91250541Y-93015154D01*
X91212773Y-92962116D01*
X91199864Y-92933850D01*
X91180477Y-92902746D01*
X91158241Y-92842707D01*
X91133779Y-92789143D01*
X91124999Y-92752953D01*
X91110148Y-92712853D01*
X91101368Y-92655542D01*
X91088949Y-92604347D01*
X91086883Y-92560985D01*
X91079485Y-92512690D01*
X91082113Y-92460857D01*
X91079901Y-92414411D01*
X91086958Y-92365327D01*
X91089741Y-92310451D01*
X91101225Y-92266095D01*
X91106964Y-92226183D01*
X91125208Y-92173468D01*
X91140498Y-92114417D01*
X91157983Y-92078770D01*
X91169156Y-92046489D01*
X91200157Y-91992793D01*
X91229677Y-91932613D01*
X91250239Y-91906048D01*
X91264234Y-91881809D01*
X91308917Y-91830242D01*
X91353627Y-91772482D01*
X91374479Y-91754581D01*
X91388762Y-91738098D01*
X91447354Y-91692020D01*
X91507275Y-91640580D01*
X91525935Y-91630222D01*
X91538235Y-91620550D01*
X91610260Y-91583418D01*
X91684329Y-91542307D01*
X91698832Y-91537756D01*
X91707248Y-91533418D01*
X91791601Y-91508649D01*
X91877540Y-91481686D01*
X91886553Y-91480769D01*
X91889705Y-91479844D01*
X91987283Y-91470526D01*
X92079000Y-91461200D01*
X93679000Y-91461200D01*
X93724841Y-91463524D01*
G37*
G36*
X173480396Y-89897791D02*
G01*
X173524856Y-89897791D01*
X173562295Y-89907019D01*
X173593092Y-89910489D01*
X173632925Y-89924427D01*
X173681869Y-89936491D01*
X173710813Y-89951682D01*
X173734704Y-89960042D01*
X173775081Y-89985412D01*
X173825058Y-90011642D01*
X173845137Y-90029430D01*
X173861742Y-90039864D01*
X173899237Y-90077359D01*
X173946101Y-90118877D01*
X173958013Y-90136135D01*
X173967835Y-90145957D01*
X173998706Y-90195089D01*
X174037964Y-90251964D01*
X174043325Y-90266101D01*
X174047657Y-90272995D01*
X174068140Y-90331532D01*
X174095308Y-90403167D01*
X174096424Y-90412362D01*
X174097210Y-90414607D01*
X174103819Y-90473262D01*
X174114800Y-90563700D01*
X174103816Y-90654155D01*
X174097210Y-90712792D01*
X174096424Y-90715036D01*
X174095308Y-90724233D01*
X174068136Y-90795879D01*
X174047657Y-90854404D01*
X174043326Y-90861295D01*
X174037964Y-90875436D01*
X173998699Y-90932320D01*
X173967835Y-90981442D01*
X173958016Y-90991260D01*
X173946101Y-91008523D01*
X173899228Y-91050048D01*
X173861742Y-91087535D01*
X173845141Y-91097965D01*
X173825058Y-91115758D01*
X173775071Y-91141992D01*
X173734704Y-91167357D01*
X173710819Y-91175714D01*
X173681869Y-91190909D01*
X173632915Y-91202974D01*
X173593092Y-91216910D01*
X173562303Y-91220379D01*
X173524856Y-91229609D01*
X173480388Y-91229609D01*
X173444000Y-91233709D01*
X173407612Y-91229609D01*
X173363144Y-91229609D01*
X173325697Y-91220379D01*
X173294907Y-91216910D01*
X173255080Y-91202973D01*
X173206131Y-91190909D01*
X173177182Y-91175715D01*
X173153295Y-91167357D01*
X173112922Y-91141989D01*
X173062942Y-91115758D01*
X173042861Y-91097968D01*
X173026257Y-91087535D01*
X172988762Y-91050040D01*
X172941899Y-91008523D01*
X172929986Y-90991264D01*
X172920164Y-90981442D01*
X172889289Y-90932304D01*
X172850036Y-90875436D01*
X172844674Y-90861299D01*
X172840342Y-90854404D01*
X172819851Y-90795845D01*
X172792692Y-90724233D01*
X172791575Y-90715040D01*
X172790789Y-90712792D01*
X172784168Y-90654036D01*
X172773200Y-90563700D01*
X172784167Y-90473371D01*
X172790789Y-90414607D01*
X172791576Y-90412357D01*
X172792692Y-90403167D01*
X172819846Y-90331566D01*
X172840342Y-90272995D01*
X172844675Y-90266097D01*
X172850036Y-90251964D01*
X172889282Y-90195105D01*
X172920164Y-90145957D01*
X172929988Y-90136132D01*
X172941899Y-90118877D01*
X172988754Y-90077366D01*
X173026257Y-90039864D01*
X173042865Y-90029428D01*
X173062942Y-90011642D01*
X173112912Y-89985415D01*
X173153295Y-89960042D01*
X173177188Y-89951681D01*
X173206131Y-89936491D01*
X173255071Y-89924428D01*
X173294907Y-89910489D01*
X173325705Y-89907018D01*
X173363144Y-89897791D01*
X173407602Y-89897791D01*
X173443999Y-89893690D01*
X173480396Y-89897791D01*
G37*
G36*
X176020396Y-89897791D02*
G01*
X176064856Y-89897791D01*
X176102295Y-89907019D01*
X176133092Y-89910489D01*
X176172925Y-89924427D01*
X176221869Y-89936491D01*
X176250813Y-89951682D01*
X176274704Y-89960042D01*
X176315081Y-89985412D01*
X176365058Y-90011642D01*
X176385137Y-90029430D01*
X176401742Y-90039864D01*
X176439237Y-90077359D01*
X176486101Y-90118877D01*
X176498013Y-90136135D01*
X176507835Y-90145957D01*
X176538706Y-90195089D01*
X176577964Y-90251964D01*
X176583325Y-90266101D01*
X176587657Y-90272995D01*
X176608140Y-90331532D01*
X176635308Y-90403167D01*
X176636424Y-90412362D01*
X176637210Y-90414607D01*
X176643819Y-90473262D01*
X176654800Y-90563700D01*
X176643816Y-90654155D01*
X176637210Y-90712792D01*
X176636424Y-90715036D01*
X176635308Y-90724233D01*
X176608136Y-90795879D01*
X176587657Y-90854404D01*
X176583326Y-90861295D01*
X176577964Y-90875436D01*
X176538699Y-90932320D01*
X176507835Y-90981442D01*
X176498016Y-90991260D01*
X176486101Y-91008523D01*
X176439228Y-91050048D01*
X176401742Y-91087535D01*
X176385141Y-91097965D01*
X176365058Y-91115758D01*
X176315071Y-91141992D01*
X176274704Y-91167357D01*
X176250819Y-91175714D01*
X176221869Y-91190909D01*
X176172915Y-91202974D01*
X176133092Y-91216910D01*
X176102303Y-91220379D01*
X176064856Y-91229609D01*
X176020388Y-91229609D01*
X175984000Y-91233709D01*
X175947612Y-91229609D01*
X175903144Y-91229609D01*
X175865697Y-91220379D01*
X175834907Y-91216910D01*
X175795080Y-91202973D01*
X175746131Y-91190909D01*
X175717182Y-91175715D01*
X175693295Y-91167357D01*
X175652922Y-91141989D01*
X175602942Y-91115758D01*
X175582861Y-91097968D01*
X175566257Y-91087535D01*
X175528762Y-91050040D01*
X175481899Y-91008523D01*
X175469986Y-90991264D01*
X175460164Y-90981442D01*
X175429289Y-90932304D01*
X175390036Y-90875436D01*
X175384674Y-90861299D01*
X175380342Y-90854404D01*
X175359851Y-90795845D01*
X175332692Y-90724233D01*
X175331575Y-90715040D01*
X175330789Y-90712792D01*
X175324169Y-90654041D01*
X175313200Y-90563700D01*
X175324167Y-90473376D01*
X175330789Y-90414607D01*
X175331576Y-90412357D01*
X175332692Y-90403167D01*
X175359846Y-90331566D01*
X175380342Y-90272995D01*
X175384675Y-90266097D01*
X175390036Y-90251964D01*
X175429282Y-90195105D01*
X175460164Y-90145957D01*
X175469988Y-90136132D01*
X175481899Y-90118877D01*
X175528754Y-90077366D01*
X175566257Y-90039864D01*
X175582865Y-90029428D01*
X175602942Y-90011642D01*
X175652912Y-89985415D01*
X175693295Y-89960042D01*
X175717188Y-89951681D01*
X175746131Y-89936491D01*
X175795071Y-89924428D01*
X175834907Y-89910489D01*
X175865705Y-89907018D01*
X175903144Y-89897791D01*
X175947602Y-89897791D01*
X175983999Y-89893690D01*
X176020396Y-89897791D01*
G37*
G36*
X174750396Y-88627791D02*
G01*
X174794856Y-88627791D01*
X174832295Y-88637019D01*
X174863092Y-88640489D01*
X174902925Y-88654427D01*
X174951869Y-88666491D01*
X174980813Y-88681682D01*
X175004704Y-88690042D01*
X175045081Y-88715412D01*
X175095058Y-88741642D01*
X175115137Y-88759430D01*
X175131742Y-88769864D01*
X175169237Y-88807359D01*
X175216101Y-88848877D01*
X175228013Y-88866135D01*
X175237835Y-88875957D01*
X175268706Y-88925089D01*
X175307964Y-88981964D01*
X175313325Y-88996101D01*
X175317657Y-89002995D01*
X175338140Y-89061532D01*
X175365308Y-89133167D01*
X175366424Y-89142362D01*
X175367210Y-89144607D01*
X175373819Y-89203262D01*
X175384800Y-89293700D01*
X175373816Y-89384155D01*
X175367210Y-89442792D01*
X175366424Y-89445036D01*
X175365308Y-89454233D01*
X175338136Y-89525879D01*
X175317657Y-89584404D01*
X175313326Y-89591295D01*
X175307964Y-89605436D01*
X175268699Y-89662320D01*
X175237835Y-89711442D01*
X175228016Y-89721260D01*
X175216101Y-89738523D01*
X175169228Y-89780048D01*
X175131742Y-89817535D01*
X175115141Y-89827965D01*
X175095058Y-89845758D01*
X175045071Y-89871992D01*
X175004704Y-89897357D01*
X174980819Y-89905714D01*
X174951869Y-89920909D01*
X174902915Y-89932974D01*
X174863092Y-89946910D01*
X174832303Y-89950379D01*
X174794856Y-89959609D01*
X174750388Y-89959609D01*
X174714000Y-89963709D01*
X174677612Y-89959609D01*
X174633144Y-89959609D01*
X174595697Y-89950379D01*
X174564907Y-89946910D01*
X174525080Y-89932973D01*
X174476131Y-89920909D01*
X174447182Y-89905715D01*
X174423295Y-89897357D01*
X174382922Y-89871989D01*
X174332942Y-89845758D01*
X174312861Y-89827968D01*
X174296257Y-89817535D01*
X174258762Y-89780040D01*
X174211899Y-89738523D01*
X174199986Y-89721264D01*
X174190164Y-89711442D01*
X174159289Y-89662304D01*
X174120036Y-89605436D01*
X174114674Y-89591299D01*
X174110342Y-89584404D01*
X174089851Y-89525845D01*
X174062692Y-89454233D01*
X174061575Y-89445040D01*
X174060789Y-89442792D01*
X174054168Y-89384036D01*
X174043200Y-89293700D01*
X174054167Y-89203371D01*
X174060789Y-89144607D01*
X174061576Y-89142357D01*
X174062692Y-89133167D01*
X174089846Y-89061566D01*
X174110342Y-89002995D01*
X174114675Y-88996097D01*
X174120036Y-88981964D01*
X174159282Y-88925105D01*
X174190164Y-88875957D01*
X174199988Y-88866132D01*
X174211899Y-88848877D01*
X174258754Y-88807366D01*
X174296257Y-88769864D01*
X174312865Y-88759428D01*
X174332942Y-88741642D01*
X174382912Y-88715415D01*
X174423295Y-88690042D01*
X174447188Y-88681681D01*
X174476131Y-88666491D01*
X174525071Y-88654428D01*
X174564907Y-88640489D01*
X174595705Y-88637018D01*
X174633144Y-88627791D01*
X174677602Y-88627791D01*
X174713999Y-88623690D01*
X174750396Y-88627791D01*
G37*
G36*
X173480397Y-87357791D02*
G01*
X173524856Y-87357791D01*
X173562295Y-87367019D01*
X173593092Y-87370489D01*
X173632925Y-87384427D01*
X173681869Y-87396491D01*
X173710813Y-87411682D01*
X173734704Y-87420042D01*
X173775081Y-87445412D01*
X173825058Y-87471642D01*
X173845137Y-87489430D01*
X173861742Y-87499864D01*
X173899237Y-87537359D01*
X173946101Y-87578877D01*
X173958013Y-87596135D01*
X173967835Y-87605957D01*
X173998706Y-87655089D01*
X174037964Y-87711964D01*
X174043325Y-87726101D01*
X174047657Y-87732995D01*
X174068140Y-87791532D01*
X174095308Y-87863167D01*
X174096424Y-87872362D01*
X174097210Y-87874607D01*
X174103819Y-87933262D01*
X174114800Y-88023700D01*
X174103816Y-88114155D01*
X174097210Y-88172792D01*
X174096424Y-88175036D01*
X174095308Y-88184233D01*
X174068136Y-88255879D01*
X174047657Y-88314404D01*
X174043326Y-88321295D01*
X174037964Y-88335436D01*
X173998699Y-88392320D01*
X173967835Y-88441442D01*
X173958016Y-88451260D01*
X173946101Y-88468523D01*
X173899228Y-88510048D01*
X173861742Y-88547535D01*
X173845141Y-88557965D01*
X173825058Y-88575758D01*
X173775071Y-88601992D01*
X173734704Y-88627357D01*
X173710819Y-88635714D01*
X173681869Y-88650909D01*
X173632915Y-88662974D01*
X173593092Y-88676910D01*
X173562303Y-88680379D01*
X173524856Y-88689609D01*
X173480388Y-88689609D01*
X173444000Y-88693709D01*
X173407612Y-88689609D01*
X173363144Y-88689609D01*
X173325697Y-88680379D01*
X173294907Y-88676910D01*
X173255080Y-88662973D01*
X173206131Y-88650909D01*
X173177182Y-88635715D01*
X173153295Y-88627357D01*
X173112922Y-88601989D01*
X173062942Y-88575758D01*
X173042861Y-88557968D01*
X173026257Y-88547535D01*
X172988762Y-88510040D01*
X172941899Y-88468523D01*
X172929986Y-88451264D01*
X172920164Y-88441442D01*
X172889289Y-88392304D01*
X172850036Y-88335436D01*
X172844674Y-88321299D01*
X172840342Y-88314404D01*
X172819851Y-88255845D01*
X172792692Y-88184233D01*
X172791575Y-88175040D01*
X172790789Y-88172792D01*
X172784168Y-88114036D01*
X172773200Y-88023700D01*
X172784167Y-87933371D01*
X172790789Y-87874607D01*
X172791576Y-87872357D01*
X172792692Y-87863167D01*
X172819846Y-87791566D01*
X172840342Y-87732995D01*
X172844675Y-87726097D01*
X172850036Y-87711964D01*
X172889282Y-87655105D01*
X172920164Y-87605957D01*
X172929988Y-87596132D01*
X172941899Y-87578877D01*
X172988754Y-87537366D01*
X173026257Y-87499864D01*
X173042865Y-87489428D01*
X173062942Y-87471642D01*
X173112912Y-87445415D01*
X173153295Y-87420042D01*
X173177188Y-87411681D01*
X173206131Y-87396491D01*
X173255071Y-87384428D01*
X173294907Y-87370489D01*
X173325704Y-87367018D01*
X173363144Y-87357791D01*
X173407603Y-87357791D01*
X173444000Y-87353690D01*
X173480397Y-87357791D01*
G37*
G36*
X176020397Y-87357791D02*
G01*
X176064856Y-87357791D01*
X176102295Y-87367019D01*
X176133092Y-87370489D01*
X176172925Y-87384427D01*
X176221869Y-87396491D01*
X176250813Y-87411682D01*
X176274704Y-87420042D01*
X176315081Y-87445412D01*
X176365058Y-87471642D01*
X176385137Y-87489430D01*
X176401742Y-87499864D01*
X176439237Y-87537359D01*
X176486101Y-87578877D01*
X176498013Y-87596135D01*
X176507835Y-87605957D01*
X176538706Y-87655089D01*
X176577964Y-87711964D01*
X176583325Y-87726101D01*
X176587657Y-87732995D01*
X176608140Y-87791532D01*
X176635308Y-87863167D01*
X176636424Y-87872362D01*
X176637210Y-87874607D01*
X176643819Y-87933262D01*
X176654800Y-88023700D01*
X176643816Y-88114155D01*
X176637210Y-88172792D01*
X176636424Y-88175036D01*
X176635308Y-88184233D01*
X176608136Y-88255879D01*
X176587657Y-88314404D01*
X176583326Y-88321295D01*
X176577964Y-88335436D01*
X176538699Y-88392320D01*
X176507835Y-88441442D01*
X176498016Y-88451260D01*
X176486101Y-88468523D01*
X176439228Y-88510048D01*
X176401742Y-88547535D01*
X176385141Y-88557965D01*
X176365058Y-88575758D01*
X176315071Y-88601992D01*
X176274704Y-88627357D01*
X176250819Y-88635714D01*
X176221869Y-88650909D01*
X176172915Y-88662974D01*
X176133092Y-88676910D01*
X176102303Y-88680379D01*
X176064856Y-88689609D01*
X176020388Y-88689609D01*
X175984000Y-88693709D01*
X175947612Y-88689609D01*
X175903144Y-88689609D01*
X175865697Y-88680379D01*
X175834907Y-88676910D01*
X175795080Y-88662973D01*
X175746131Y-88650909D01*
X175717182Y-88635715D01*
X175693295Y-88627357D01*
X175652922Y-88601989D01*
X175602942Y-88575758D01*
X175582861Y-88557968D01*
X175566257Y-88547535D01*
X175528762Y-88510040D01*
X175481899Y-88468523D01*
X175469986Y-88451264D01*
X175460164Y-88441442D01*
X175429289Y-88392304D01*
X175390036Y-88335436D01*
X175384674Y-88321299D01*
X175380342Y-88314404D01*
X175359851Y-88255845D01*
X175332692Y-88184233D01*
X175331575Y-88175040D01*
X175330789Y-88172792D01*
X175324169Y-88114041D01*
X175313200Y-88023700D01*
X175324167Y-87933376D01*
X175330789Y-87874607D01*
X175331576Y-87872357D01*
X175332692Y-87863167D01*
X175359846Y-87791566D01*
X175380342Y-87732995D01*
X175384675Y-87726097D01*
X175390036Y-87711964D01*
X175429282Y-87655105D01*
X175460164Y-87605957D01*
X175469988Y-87596132D01*
X175481899Y-87578877D01*
X175528754Y-87537366D01*
X175566257Y-87499864D01*
X175582865Y-87489428D01*
X175602942Y-87471642D01*
X175652912Y-87445415D01*
X175693295Y-87420042D01*
X175717188Y-87411681D01*
X175746131Y-87396491D01*
X175795071Y-87384428D01*
X175834907Y-87370489D01*
X175865704Y-87367018D01*
X175903144Y-87357791D01*
X175947603Y-87357791D01*
X175984000Y-87353690D01*
X176020397Y-87357791D01*
G37*
G36*
X176188788Y-73460456D02*
G01*
X176477550Y-73517894D01*
X176756344Y-73612532D01*
X177020400Y-73742750D01*
X177265200Y-73906320D01*
X177486556Y-74100444D01*
X177680680Y-74321800D01*
X177844250Y-74566600D01*
X177974468Y-74830656D01*
X178069106Y-75109450D01*
X178126544Y-75398212D01*
X178145800Y-75692000D01*
X178126544Y-75985788D01*
X178069106Y-76274550D01*
X177974468Y-76553344D01*
X177844250Y-76817400D01*
X177680680Y-77062200D01*
X177486556Y-77283556D01*
X177265200Y-77477680D01*
X177020400Y-77641250D01*
X176756344Y-77771468D01*
X176477550Y-77866106D01*
X176188788Y-77923544D01*
X175895000Y-77942800D01*
X175601212Y-77923544D01*
X175312450Y-77866106D01*
X175033656Y-77771468D01*
X174769600Y-77641250D01*
X174524800Y-77477680D01*
X174303444Y-77283556D01*
X174109320Y-77062200D01*
X173945750Y-76817400D01*
X173815532Y-76553344D01*
X173720894Y-76274550D01*
X173663456Y-75985788D01*
X173644200Y-75692000D01*
X173663456Y-75398212D01*
X173720894Y-75109450D01*
X173815532Y-74830656D01*
X173945750Y-74566600D01*
X174109320Y-74321800D01*
X174303444Y-74100444D01*
X174524800Y-73906320D01*
X174769600Y-73742750D01*
X175033656Y-73612532D01*
X175312450Y-73517894D01*
X175601212Y-73460456D01*
X175895000Y-73441200D01*
X176188788Y-73460456D01*
G37*
G36*
X93003788Y-73333456D02*
G01*
X93292550Y-73390894D01*
X93571344Y-73485532D01*
X93835400Y-73615750D01*
X94080200Y-73779320D01*
X94301556Y-73973444D01*
X94495680Y-74194800D01*
X94659250Y-74439600D01*
X94789468Y-74703656D01*
X94884106Y-74982450D01*
X94941544Y-75271212D01*
X94960800Y-75565000D01*
X94941544Y-75858788D01*
X94884106Y-76147550D01*
X94789468Y-76426344D01*
X94659250Y-76690400D01*
X94495680Y-76935200D01*
X94301556Y-77156556D01*
X94080200Y-77350680D01*
X93835400Y-77514250D01*
X93571344Y-77644468D01*
X93292550Y-77739106D01*
X93003788Y-77796544D01*
X92710000Y-77815800D01*
X92416212Y-77796544D01*
X92127450Y-77739106D01*
X91848656Y-77644468D01*
X91584600Y-77514250D01*
X91339800Y-77350680D01*
X91118444Y-77156556D01*
X90924320Y-76935200D01*
X90760750Y-76690400D01*
X90630532Y-76426344D01*
X90535894Y-76147550D01*
X90478456Y-75858788D01*
X90459200Y-75565000D01*
X90478456Y-75271212D01*
X90535894Y-74982450D01*
X90630532Y-74703656D01*
X90760750Y-74439600D01*
X90924320Y-74194800D01*
X91118444Y-73973444D01*
X91339800Y-73779320D01*
X91584600Y-73615750D01*
X91848656Y-73485532D01*
X92127450Y-73390894D01*
X92416212Y-73333456D01*
X92710000Y-73314200D01*
X93003788Y-73333456D01*
G37*
M02*
