%TF.GenerationSoftware,KiCad,Pcbnew,7.0.6*%
%TF.CreationDate,2023-07-12T10:41:09-06:00*%
%TF.ProjectId,L1IFStream,4c314946-5374-4726-9561-6d2e6b696361,A*%
%TF.SameCoordinates,Original*%
%TF.FileFunction,Drillmap*%
%TF.FilePolarity,Positive*%
%FSLAX45Y45*%
G04 Gerber Fmt 4.5, Leading zero omitted, Abs format (unit mm)*
G04 Created by KiCad (PCBNEW 7.0.6) date 2023-07-12 10:41:09*
%MOMM*%
%LPD*%
G01*
G04 APERTURE LIST*
%ADD10C,0.050000*%
%ADD11C,0.200000*%
%ADD12C,0.110000*%
G04 APERTURE END LIST*
D10*
X9236280Y-7276200D02*
G75*
G03*
X8982280Y-7530200I0J-254000D01*
G01*
X8982280Y-12102200D02*
G75*
G03*
X9236280Y-12356200I254000J0D01*
G01*
X17618280Y-7276200D02*
X9236280Y-7276200D01*
X17872280Y-7530200D02*
G75*
G03*
X17618280Y-7276200I-254000J0D01*
G01*
X17872280Y-12102200D02*
X17872280Y-7530200D01*
X8982280Y-7530200D02*
X8982280Y-12102200D01*
X9236280Y-12356200D02*
X17618280Y-12356200D01*
X17618280Y-12356200D02*
G75*
G03*
X17872280Y-12102200I0J254000D01*
G01*
D11*
D12*
X9232900Y-9531200D02*
X9342900Y-9641200D01*
X9342900Y-9531200D02*
X9232900Y-9641200D01*
X9232900Y-9991200D02*
X9342900Y-10101200D01*
X9342900Y-9991200D02*
X9232900Y-10101200D01*
D11*
X9240557Y-12670184D02*
X9240557Y-12470184D01*
X9240557Y-12470184D02*
X9288176Y-12470184D01*
X9288176Y-12470184D02*
X9316747Y-12479708D01*
X9316747Y-12479708D02*
X9335795Y-12498755D01*
X9335795Y-12498755D02*
X9345319Y-12517803D01*
X9345319Y-12517803D02*
X9354843Y-12555898D01*
X9354843Y-12555898D02*
X9354843Y-12584469D01*
X9354843Y-12584469D02*
X9345319Y-12622565D01*
X9345319Y-12622565D02*
X9335795Y-12641612D01*
X9335795Y-12641612D02*
X9316747Y-12660660D01*
X9316747Y-12660660D02*
X9288176Y-12670184D01*
X9288176Y-12670184D02*
X9240557Y-12670184D01*
X9440557Y-12670184D02*
X9440557Y-12536850D01*
X9440557Y-12574946D02*
X9450081Y-12555898D01*
X9450081Y-12555898D02*
X9459604Y-12546374D01*
X9459604Y-12546374D02*
X9478652Y-12536850D01*
X9478652Y-12536850D02*
X9497700Y-12536850D01*
X9564366Y-12670184D02*
X9564366Y-12536850D01*
X9564366Y-12470184D02*
X9554843Y-12479708D01*
X9554843Y-12479708D02*
X9564366Y-12489231D01*
X9564366Y-12489231D02*
X9573890Y-12479708D01*
X9573890Y-12479708D02*
X9564366Y-12470184D01*
X9564366Y-12470184D02*
X9564366Y-12489231D01*
X9688176Y-12670184D02*
X9669128Y-12660660D01*
X9669128Y-12660660D02*
X9659604Y-12641612D01*
X9659604Y-12641612D02*
X9659604Y-12470184D01*
X9792938Y-12670184D02*
X9773890Y-12660660D01*
X9773890Y-12660660D02*
X9764366Y-12641612D01*
X9764366Y-12641612D02*
X9764366Y-12470184D01*
X10021509Y-12670184D02*
X10021509Y-12470184D01*
X10021509Y-12470184D02*
X10088176Y-12613041D01*
X10088176Y-12613041D02*
X10154843Y-12470184D01*
X10154843Y-12470184D02*
X10154843Y-12670184D01*
X10335795Y-12670184D02*
X10335795Y-12565422D01*
X10335795Y-12565422D02*
X10326271Y-12546374D01*
X10326271Y-12546374D02*
X10307224Y-12536850D01*
X10307224Y-12536850D02*
X10269128Y-12536850D01*
X10269128Y-12536850D02*
X10250081Y-12546374D01*
X10335795Y-12660660D02*
X10316747Y-12670184D01*
X10316747Y-12670184D02*
X10269128Y-12670184D01*
X10269128Y-12670184D02*
X10250081Y-12660660D01*
X10250081Y-12660660D02*
X10240557Y-12641612D01*
X10240557Y-12641612D02*
X10240557Y-12622565D01*
X10240557Y-12622565D02*
X10250081Y-12603517D01*
X10250081Y-12603517D02*
X10269128Y-12593993D01*
X10269128Y-12593993D02*
X10316747Y-12593993D01*
X10316747Y-12593993D02*
X10335795Y-12584469D01*
X10431033Y-12536850D02*
X10431033Y-12736850D01*
X10431033Y-12546374D02*
X10450081Y-12536850D01*
X10450081Y-12536850D02*
X10488176Y-12536850D01*
X10488176Y-12536850D02*
X10507224Y-12546374D01*
X10507224Y-12546374D02*
X10516747Y-12555898D01*
X10516747Y-12555898D02*
X10526271Y-12574946D01*
X10526271Y-12574946D02*
X10526271Y-12632088D01*
X10526271Y-12632088D02*
X10516747Y-12651136D01*
X10516747Y-12651136D02*
X10507224Y-12660660D01*
X10507224Y-12660660D02*
X10488176Y-12670184D01*
X10488176Y-12670184D02*
X10450081Y-12670184D01*
X10450081Y-12670184D02*
X10431033Y-12660660D01*
X10611985Y-12651136D02*
X10621509Y-12660660D01*
X10621509Y-12660660D02*
X10611985Y-12670184D01*
X10611985Y-12670184D02*
X10602462Y-12660660D01*
X10602462Y-12660660D02*
X10611985Y-12651136D01*
X10611985Y-12651136D02*
X10611985Y-12670184D01*
X10611985Y-12546374D02*
X10621509Y-12555898D01*
X10621509Y-12555898D02*
X10611985Y-12565422D01*
X10611985Y-12565422D02*
X10602462Y-12555898D01*
X10602462Y-12555898D02*
X10611985Y-12546374D01*
X10611985Y-12546374D02*
X10611985Y-12565422D01*
D12*
X8869780Y-12943700D02*
X8979780Y-13053700D01*
X8979780Y-12943700D02*
X8869780Y-13053700D01*
D11*
X9345319Y-13090184D02*
X9231033Y-13090184D01*
X9288176Y-13090184D02*
X9288176Y-12890184D01*
X9288176Y-12890184D02*
X9269128Y-12918755D01*
X9269128Y-12918755D02*
X9250081Y-12937803D01*
X9250081Y-12937803D02*
X9231033Y-12947327D01*
X9431033Y-13071136D02*
X9440557Y-13080660D01*
X9440557Y-13080660D02*
X9431033Y-13090184D01*
X9431033Y-13090184D02*
X9421509Y-13080660D01*
X9421509Y-13080660D02*
X9431033Y-13071136D01*
X9431033Y-13071136D02*
X9431033Y-13090184D01*
X9631033Y-13090184D02*
X9516747Y-13090184D01*
X9573890Y-13090184D02*
X9573890Y-12890184D01*
X9573890Y-12890184D02*
X9554843Y-12918755D01*
X9554843Y-12918755D02*
X9535795Y-12937803D01*
X9535795Y-12937803D02*
X9516747Y-12947327D01*
X9754843Y-12890184D02*
X9773890Y-12890184D01*
X9773890Y-12890184D02*
X9792938Y-12899708D01*
X9792938Y-12899708D02*
X9802462Y-12909231D01*
X9802462Y-12909231D02*
X9811985Y-12928279D01*
X9811985Y-12928279D02*
X9821509Y-12966374D01*
X9821509Y-12966374D02*
X9821509Y-13013993D01*
X9821509Y-13013993D02*
X9811985Y-13052088D01*
X9811985Y-13052088D02*
X9802462Y-13071136D01*
X9802462Y-13071136D02*
X9792938Y-13080660D01*
X9792938Y-13080660D02*
X9773890Y-13090184D01*
X9773890Y-13090184D02*
X9754843Y-13090184D01*
X9754843Y-13090184D02*
X9735795Y-13080660D01*
X9735795Y-13080660D02*
X9726271Y-13071136D01*
X9726271Y-13071136D02*
X9716747Y-13052088D01*
X9716747Y-13052088D02*
X9707224Y-13013993D01*
X9707224Y-13013993D02*
X9707224Y-12966374D01*
X9707224Y-12966374D02*
X9716747Y-12928279D01*
X9716747Y-12928279D02*
X9726271Y-12909231D01*
X9726271Y-12909231D02*
X9735795Y-12899708D01*
X9735795Y-12899708D02*
X9754843Y-12890184D01*
X9945319Y-12890184D02*
X9964366Y-12890184D01*
X9964366Y-12890184D02*
X9983414Y-12899708D01*
X9983414Y-12899708D02*
X9992938Y-12909231D01*
X9992938Y-12909231D02*
X10002462Y-12928279D01*
X10002462Y-12928279D02*
X10011985Y-12966374D01*
X10011985Y-12966374D02*
X10011985Y-13013993D01*
X10011985Y-13013993D02*
X10002462Y-13052088D01*
X10002462Y-13052088D02*
X9992938Y-13071136D01*
X9992938Y-13071136D02*
X9983414Y-13080660D01*
X9983414Y-13080660D02*
X9964366Y-13090184D01*
X9964366Y-13090184D02*
X9945319Y-13090184D01*
X9945319Y-13090184D02*
X9926271Y-13080660D01*
X9926271Y-13080660D02*
X9916747Y-13071136D01*
X9916747Y-13071136D02*
X9907224Y-13052088D01*
X9907224Y-13052088D02*
X9897700Y-13013993D01*
X9897700Y-13013993D02*
X9897700Y-12966374D01*
X9897700Y-12966374D02*
X9907224Y-12928279D01*
X9907224Y-12928279D02*
X9916747Y-12909231D01*
X9916747Y-12909231D02*
X9926271Y-12899708D01*
X9926271Y-12899708D02*
X9945319Y-12890184D01*
X10097700Y-13090184D02*
X10097700Y-12956850D01*
X10097700Y-12975898D02*
X10107224Y-12966374D01*
X10107224Y-12966374D02*
X10126271Y-12956850D01*
X10126271Y-12956850D02*
X10154843Y-12956850D01*
X10154843Y-12956850D02*
X10173890Y-12966374D01*
X10173890Y-12966374D02*
X10183414Y-12985422D01*
X10183414Y-12985422D02*
X10183414Y-13090184D01*
X10183414Y-12985422D02*
X10192938Y-12966374D01*
X10192938Y-12966374D02*
X10211985Y-12956850D01*
X10211985Y-12956850D02*
X10240557Y-12956850D01*
X10240557Y-12956850D02*
X10259605Y-12966374D01*
X10259605Y-12966374D02*
X10269128Y-12985422D01*
X10269128Y-12985422D02*
X10269128Y-13090184D01*
X10364366Y-13090184D02*
X10364366Y-12956850D01*
X10364366Y-12975898D02*
X10373890Y-12966374D01*
X10373890Y-12966374D02*
X10392938Y-12956850D01*
X10392938Y-12956850D02*
X10421509Y-12956850D01*
X10421509Y-12956850D02*
X10440557Y-12966374D01*
X10440557Y-12966374D02*
X10450081Y-12985422D01*
X10450081Y-12985422D02*
X10450081Y-13090184D01*
X10450081Y-12985422D02*
X10459605Y-12966374D01*
X10459605Y-12966374D02*
X10478652Y-12956850D01*
X10478652Y-12956850D02*
X10507224Y-12956850D01*
X10507224Y-12956850D02*
X10526271Y-12966374D01*
X10526271Y-12966374D02*
X10535795Y-12985422D01*
X10535795Y-12985422D02*
X10535795Y-13090184D01*
X10926271Y-12880660D02*
X10754843Y-13137803D01*
X11183414Y-12890184D02*
X11202462Y-12890184D01*
X11202462Y-12890184D02*
X11221509Y-12899708D01*
X11221509Y-12899708D02*
X11231033Y-12909231D01*
X11231033Y-12909231D02*
X11240557Y-12928279D01*
X11240557Y-12928279D02*
X11250081Y-12966374D01*
X11250081Y-12966374D02*
X11250081Y-13013993D01*
X11250081Y-13013993D02*
X11240557Y-13052088D01*
X11240557Y-13052088D02*
X11231033Y-13071136D01*
X11231033Y-13071136D02*
X11221509Y-13080660D01*
X11221509Y-13080660D02*
X11202462Y-13090184D01*
X11202462Y-13090184D02*
X11183414Y-13090184D01*
X11183414Y-13090184D02*
X11164367Y-13080660D01*
X11164367Y-13080660D02*
X11154843Y-13071136D01*
X11154843Y-13071136D02*
X11145319Y-13052088D01*
X11145319Y-13052088D02*
X11135795Y-13013993D01*
X11135795Y-13013993D02*
X11135795Y-12966374D01*
X11135795Y-12966374D02*
X11145319Y-12928279D01*
X11145319Y-12928279D02*
X11154843Y-12909231D01*
X11154843Y-12909231D02*
X11164367Y-12899708D01*
X11164367Y-12899708D02*
X11183414Y-12890184D01*
X11335795Y-13071136D02*
X11345319Y-13080660D01*
X11345319Y-13080660D02*
X11335795Y-13090184D01*
X11335795Y-13090184D02*
X11326271Y-13080660D01*
X11326271Y-13080660D02*
X11335795Y-13071136D01*
X11335795Y-13071136D02*
X11335795Y-13090184D01*
X11469128Y-12890184D02*
X11488176Y-12890184D01*
X11488176Y-12890184D02*
X11507224Y-12899708D01*
X11507224Y-12899708D02*
X11516747Y-12909231D01*
X11516747Y-12909231D02*
X11526271Y-12928279D01*
X11526271Y-12928279D02*
X11535795Y-12966374D01*
X11535795Y-12966374D02*
X11535795Y-13013993D01*
X11535795Y-13013993D02*
X11526271Y-13052088D01*
X11526271Y-13052088D02*
X11516747Y-13071136D01*
X11516747Y-13071136D02*
X11507224Y-13080660D01*
X11507224Y-13080660D02*
X11488176Y-13090184D01*
X11488176Y-13090184D02*
X11469128Y-13090184D01*
X11469128Y-13090184D02*
X11450081Y-13080660D01*
X11450081Y-13080660D02*
X11440557Y-13071136D01*
X11440557Y-13071136D02*
X11431033Y-13052088D01*
X11431033Y-13052088D02*
X11421509Y-13013993D01*
X11421509Y-13013993D02*
X11421509Y-12966374D01*
X11421509Y-12966374D02*
X11431033Y-12928279D01*
X11431033Y-12928279D02*
X11440557Y-12909231D01*
X11440557Y-12909231D02*
X11450081Y-12899708D01*
X11450081Y-12899708D02*
X11469128Y-12890184D01*
X11707224Y-12956850D02*
X11707224Y-13090184D01*
X11659605Y-12880660D02*
X11611986Y-13023517D01*
X11611986Y-13023517D02*
X11735795Y-13023517D01*
X11792938Y-12890184D02*
X11916747Y-12890184D01*
X11916747Y-12890184D02*
X11850081Y-12966374D01*
X11850081Y-12966374D02*
X11878652Y-12966374D01*
X11878652Y-12966374D02*
X11897700Y-12975898D01*
X11897700Y-12975898D02*
X11907224Y-12985422D01*
X11907224Y-12985422D02*
X11916747Y-13004469D01*
X11916747Y-13004469D02*
X11916747Y-13052088D01*
X11916747Y-13052088D02*
X11907224Y-13071136D01*
X11907224Y-13071136D02*
X11897700Y-13080660D01*
X11897700Y-13080660D02*
X11878652Y-13090184D01*
X11878652Y-13090184D02*
X11821509Y-13090184D01*
X11821509Y-13090184D02*
X11802462Y-13080660D01*
X11802462Y-13080660D02*
X11792938Y-13071136D01*
X11983414Y-12890184D02*
X12107224Y-12890184D01*
X12107224Y-12890184D02*
X12040557Y-12966374D01*
X12040557Y-12966374D02*
X12069128Y-12966374D01*
X12069128Y-12966374D02*
X12088176Y-12975898D01*
X12088176Y-12975898D02*
X12097700Y-12985422D01*
X12097700Y-12985422D02*
X12107224Y-13004469D01*
X12107224Y-13004469D02*
X12107224Y-13052088D01*
X12107224Y-13052088D02*
X12097700Y-13071136D01*
X12097700Y-13071136D02*
X12088176Y-13080660D01*
X12088176Y-13080660D02*
X12069128Y-13090184D01*
X12069128Y-13090184D02*
X12011986Y-13090184D01*
X12011986Y-13090184D02*
X11992938Y-13080660D01*
X11992938Y-13080660D02*
X11983414Y-13071136D01*
X12183414Y-12890184D02*
X12183414Y-12928279D01*
X12259605Y-12890184D02*
X12259605Y-12928279D01*
X12554843Y-13166374D02*
X12545319Y-13156850D01*
X12545319Y-13156850D02*
X12526271Y-13128279D01*
X12526271Y-13128279D02*
X12516748Y-13109231D01*
X12516748Y-13109231D02*
X12507224Y-13080660D01*
X12507224Y-13080660D02*
X12497700Y-13033041D01*
X12497700Y-13033041D02*
X12497700Y-12994946D01*
X12497700Y-12994946D02*
X12507224Y-12947327D01*
X12507224Y-12947327D02*
X12516748Y-12918755D01*
X12516748Y-12918755D02*
X12526271Y-12899708D01*
X12526271Y-12899708D02*
X12545319Y-12871136D01*
X12545319Y-12871136D02*
X12554843Y-12861612D01*
X12621509Y-12909231D02*
X12631033Y-12899708D01*
X12631033Y-12899708D02*
X12650081Y-12890184D01*
X12650081Y-12890184D02*
X12697700Y-12890184D01*
X12697700Y-12890184D02*
X12716748Y-12899708D01*
X12716748Y-12899708D02*
X12726271Y-12909231D01*
X12726271Y-12909231D02*
X12735795Y-12928279D01*
X12735795Y-12928279D02*
X12735795Y-12947327D01*
X12735795Y-12947327D02*
X12726271Y-12975898D01*
X12726271Y-12975898D02*
X12611986Y-13090184D01*
X12611986Y-13090184D02*
X12735795Y-13090184D01*
X12973890Y-13090184D02*
X12973890Y-12890184D01*
X13059605Y-13090184D02*
X13059605Y-12985422D01*
X13059605Y-12985422D02*
X13050081Y-12966374D01*
X13050081Y-12966374D02*
X13031033Y-12956850D01*
X13031033Y-12956850D02*
X13002462Y-12956850D01*
X13002462Y-12956850D02*
X12983414Y-12966374D01*
X12983414Y-12966374D02*
X12973890Y-12975898D01*
X13183414Y-13090184D02*
X13164367Y-13080660D01*
X13164367Y-13080660D02*
X13154843Y-13071136D01*
X13154843Y-13071136D02*
X13145319Y-13052088D01*
X13145319Y-13052088D02*
X13145319Y-12994946D01*
X13145319Y-12994946D02*
X13154843Y-12975898D01*
X13154843Y-12975898D02*
X13164367Y-12966374D01*
X13164367Y-12966374D02*
X13183414Y-12956850D01*
X13183414Y-12956850D02*
X13211986Y-12956850D01*
X13211986Y-12956850D02*
X13231033Y-12966374D01*
X13231033Y-12966374D02*
X13240557Y-12975898D01*
X13240557Y-12975898D02*
X13250081Y-12994946D01*
X13250081Y-12994946D02*
X13250081Y-13052088D01*
X13250081Y-13052088D02*
X13240557Y-13071136D01*
X13240557Y-13071136D02*
X13231033Y-13080660D01*
X13231033Y-13080660D02*
X13211986Y-13090184D01*
X13211986Y-13090184D02*
X13183414Y-13090184D01*
X13364367Y-13090184D02*
X13345319Y-13080660D01*
X13345319Y-13080660D02*
X13335795Y-13061612D01*
X13335795Y-13061612D02*
X13335795Y-12890184D01*
X13516748Y-13080660D02*
X13497700Y-13090184D01*
X13497700Y-13090184D02*
X13459605Y-13090184D01*
X13459605Y-13090184D02*
X13440557Y-13080660D01*
X13440557Y-13080660D02*
X13431033Y-13061612D01*
X13431033Y-13061612D02*
X13431033Y-12985422D01*
X13431033Y-12985422D02*
X13440557Y-12966374D01*
X13440557Y-12966374D02*
X13459605Y-12956850D01*
X13459605Y-12956850D02*
X13497700Y-12956850D01*
X13497700Y-12956850D02*
X13516748Y-12966374D01*
X13516748Y-12966374D02*
X13526271Y-12985422D01*
X13526271Y-12985422D02*
X13526271Y-13004469D01*
X13526271Y-13004469D02*
X13431033Y-13023517D01*
X13602462Y-13080660D02*
X13621510Y-13090184D01*
X13621510Y-13090184D02*
X13659605Y-13090184D01*
X13659605Y-13090184D02*
X13678652Y-13080660D01*
X13678652Y-13080660D02*
X13688176Y-13061612D01*
X13688176Y-13061612D02*
X13688176Y-13052088D01*
X13688176Y-13052088D02*
X13678652Y-13033041D01*
X13678652Y-13033041D02*
X13659605Y-13023517D01*
X13659605Y-13023517D02*
X13631033Y-13023517D01*
X13631033Y-13023517D02*
X13611986Y-13013993D01*
X13611986Y-13013993D02*
X13602462Y-12994946D01*
X13602462Y-12994946D02*
X13602462Y-12985422D01*
X13602462Y-12985422D02*
X13611986Y-12966374D01*
X13611986Y-12966374D02*
X13631033Y-12956850D01*
X13631033Y-12956850D02*
X13659605Y-12956850D01*
X13659605Y-12956850D02*
X13678652Y-12966374D01*
X13754843Y-13166374D02*
X13764367Y-13156850D01*
X13764367Y-13156850D02*
X13783414Y-13128279D01*
X13783414Y-13128279D02*
X13792938Y-13109231D01*
X13792938Y-13109231D02*
X13802462Y-13080660D01*
X13802462Y-13080660D02*
X13811986Y-13033041D01*
X13811986Y-13033041D02*
X13811986Y-12994946D01*
X13811986Y-12994946D02*
X13802462Y-12947327D01*
X13802462Y-12947327D02*
X13792938Y-12918755D01*
X13792938Y-12918755D02*
X13783414Y-12899708D01*
X13783414Y-12899708D02*
X13764367Y-12871136D01*
X13764367Y-12871136D02*
X13754843Y-12861612D01*
X14116748Y-13166374D02*
X14107224Y-13156850D01*
X14107224Y-13156850D02*
X14088176Y-13128279D01*
X14088176Y-13128279D02*
X14078652Y-13109231D01*
X14078652Y-13109231D02*
X14069129Y-13080660D01*
X14069129Y-13080660D02*
X14059605Y-13033041D01*
X14059605Y-13033041D02*
X14059605Y-12994946D01*
X14059605Y-12994946D02*
X14069129Y-12947327D01*
X14069129Y-12947327D02*
X14078652Y-12918755D01*
X14078652Y-12918755D02*
X14088176Y-12899708D01*
X14088176Y-12899708D02*
X14107224Y-12871136D01*
X14107224Y-12871136D02*
X14116748Y-12861612D01*
X14192938Y-12956850D02*
X14192938Y-13090184D01*
X14192938Y-12975898D02*
X14202462Y-12966374D01*
X14202462Y-12966374D02*
X14221510Y-12956850D01*
X14221510Y-12956850D02*
X14250081Y-12956850D01*
X14250081Y-12956850D02*
X14269129Y-12966374D01*
X14269129Y-12966374D02*
X14278652Y-12985422D01*
X14278652Y-12985422D02*
X14278652Y-13090184D01*
X14402462Y-13090184D02*
X14383414Y-13080660D01*
X14383414Y-13080660D02*
X14373891Y-13071136D01*
X14373891Y-13071136D02*
X14364367Y-13052088D01*
X14364367Y-13052088D02*
X14364367Y-12994946D01*
X14364367Y-12994946D02*
X14373891Y-12975898D01*
X14373891Y-12975898D02*
X14383414Y-12966374D01*
X14383414Y-12966374D02*
X14402462Y-12956850D01*
X14402462Y-12956850D02*
X14431033Y-12956850D01*
X14431033Y-12956850D02*
X14450081Y-12966374D01*
X14450081Y-12966374D02*
X14459605Y-12975898D01*
X14459605Y-12975898D02*
X14469129Y-12994946D01*
X14469129Y-12994946D02*
X14469129Y-13052088D01*
X14469129Y-13052088D02*
X14459605Y-13071136D01*
X14459605Y-13071136D02*
X14450081Y-13080660D01*
X14450081Y-13080660D02*
X14431033Y-13090184D01*
X14431033Y-13090184D02*
X14402462Y-13090184D01*
X14526272Y-12956850D02*
X14602462Y-12956850D01*
X14554843Y-12890184D02*
X14554843Y-13061612D01*
X14554843Y-13061612D02*
X14564367Y-13080660D01*
X14564367Y-13080660D02*
X14583414Y-13090184D01*
X14583414Y-13090184D02*
X14602462Y-13090184D01*
X14821510Y-12956850D02*
X14821510Y-13156850D01*
X14821510Y-12966374D02*
X14840557Y-12956850D01*
X14840557Y-12956850D02*
X14878653Y-12956850D01*
X14878653Y-12956850D02*
X14897700Y-12966374D01*
X14897700Y-12966374D02*
X14907224Y-12975898D01*
X14907224Y-12975898D02*
X14916748Y-12994946D01*
X14916748Y-12994946D02*
X14916748Y-13052088D01*
X14916748Y-13052088D02*
X14907224Y-13071136D01*
X14907224Y-13071136D02*
X14897700Y-13080660D01*
X14897700Y-13080660D02*
X14878653Y-13090184D01*
X14878653Y-13090184D02*
X14840557Y-13090184D01*
X14840557Y-13090184D02*
X14821510Y-13080660D01*
X15031033Y-13090184D02*
X15011986Y-13080660D01*
X15011986Y-13080660D02*
X15002462Y-13061612D01*
X15002462Y-13061612D02*
X15002462Y-12890184D01*
X15192938Y-13090184D02*
X15192938Y-12985422D01*
X15192938Y-12985422D02*
X15183414Y-12966374D01*
X15183414Y-12966374D02*
X15164367Y-12956850D01*
X15164367Y-12956850D02*
X15126272Y-12956850D01*
X15126272Y-12956850D02*
X15107224Y-12966374D01*
X15192938Y-13080660D02*
X15173891Y-13090184D01*
X15173891Y-13090184D02*
X15126272Y-13090184D01*
X15126272Y-13090184D02*
X15107224Y-13080660D01*
X15107224Y-13080660D02*
X15097700Y-13061612D01*
X15097700Y-13061612D02*
X15097700Y-13042565D01*
X15097700Y-13042565D02*
X15107224Y-13023517D01*
X15107224Y-13023517D02*
X15126272Y-13013993D01*
X15126272Y-13013993D02*
X15173891Y-13013993D01*
X15173891Y-13013993D02*
X15192938Y-13004469D01*
X15259605Y-12956850D02*
X15335795Y-12956850D01*
X15288176Y-12890184D02*
X15288176Y-13061612D01*
X15288176Y-13061612D02*
X15297700Y-13080660D01*
X15297700Y-13080660D02*
X15316748Y-13090184D01*
X15316748Y-13090184D02*
X15335795Y-13090184D01*
X15478653Y-13080660D02*
X15459605Y-13090184D01*
X15459605Y-13090184D02*
X15421510Y-13090184D01*
X15421510Y-13090184D02*
X15402462Y-13080660D01*
X15402462Y-13080660D02*
X15392938Y-13061612D01*
X15392938Y-13061612D02*
X15392938Y-12985422D01*
X15392938Y-12985422D02*
X15402462Y-12966374D01*
X15402462Y-12966374D02*
X15421510Y-12956850D01*
X15421510Y-12956850D02*
X15459605Y-12956850D01*
X15459605Y-12956850D02*
X15478653Y-12966374D01*
X15478653Y-12966374D02*
X15488176Y-12985422D01*
X15488176Y-12985422D02*
X15488176Y-13004469D01*
X15488176Y-13004469D02*
X15392938Y-13023517D01*
X15659605Y-13090184D02*
X15659605Y-12890184D01*
X15659605Y-13080660D02*
X15640557Y-13090184D01*
X15640557Y-13090184D02*
X15602462Y-13090184D01*
X15602462Y-13090184D02*
X15583414Y-13080660D01*
X15583414Y-13080660D02*
X15573891Y-13071136D01*
X15573891Y-13071136D02*
X15564367Y-13052088D01*
X15564367Y-13052088D02*
X15564367Y-12994946D01*
X15564367Y-12994946D02*
X15573891Y-12975898D01*
X15573891Y-12975898D02*
X15583414Y-12966374D01*
X15583414Y-12966374D02*
X15602462Y-12956850D01*
X15602462Y-12956850D02*
X15640557Y-12956850D01*
X15640557Y-12956850D02*
X15659605Y-12966374D01*
X15735795Y-13166374D02*
X15745319Y-13156850D01*
X15745319Y-13156850D02*
X15764367Y-13128279D01*
X15764367Y-13128279D02*
X15773891Y-13109231D01*
X15773891Y-13109231D02*
X15783414Y-13080660D01*
X15783414Y-13080660D02*
X15792938Y-13033041D01*
X15792938Y-13033041D02*
X15792938Y-12994946D01*
X15792938Y-12994946D02*
X15783414Y-12947327D01*
X15783414Y-12947327D02*
X15773891Y-12918755D01*
X15773891Y-12918755D02*
X15764367Y-12899708D01*
X15764367Y-12899708D02*
X15745319Y-12871136D01*
X15745319Y-12871136D02*
X15735795Y-12861612D01*
M02*
