G04 #@! TF.GenerationSoftware,KiCad,Pcbnew,7.0.6*
G04 #@! TF.CreationDate,2023-07-20T11:09:59-06:00*
G04 #@! TF.ProjectId,L1IFStream,4c314946-5374-4726-9561-6d2e6b696361,A*
G04 #@! TF.SameCoordinates,Original*
G04 #@! TF.FileFunction,Legend,Bot*
G04 #@! TF.FilePolarity,Positive*
%FSLAX46Y46*%
G04 Gerber Fmt 4.6, Leading zero omitted, Abs format (unit mm)*
G04 Created by KiCad (PCBNEW 7.0.6) date 2023-07-20 11:09:59*
%MOMM*%
%LPD*%
G01*
G04 APERTURE LIST*
%ADD10C,0.150000*%
G04 APERTURE END LIST*
D10*
X93802200Y-82500000D02*
X95072200Y-82500000D01*
X95072200Y-90500000D01*
X93802200Y-90500000D01*
X93802200Y-82500000D01*
G36*
X93802200Y-82500000D02*
G01*
X95072200Y-82500000D01*
X95072200Y-90500000D01*
X93802200Y-90500000D01*
X93802200Y-82500000D01*
G37*
X92024200Y-82500000D02*
X93319600Y-82500000D01*
X93319600Y-90500000D01*
X92024200Y-90500000D01*
X92024200Y-82500000D01*
G36*
X92024200Y-82500000D02*
G01*
X93319600Y-82500000D01*
X93319600Y-90500000D01*
X92024200Y-90500000D01*
X92024200Y-82500000D01*
G37*
X127579819Y-80028922D02*
X127103628Y-79695589D01*
X127579819Y-79457494D02*
X126579819Y-79457494D01*
X126579819Y-79457494D02*
X126579819Y-79838446D01*
X126579819Y-79838446D02*
X126627438Y-79933684D01*
X126627438Y-79933684D02*
X126675057Y-79981303D01*
X126675057Y-79981303D02*
X126770295Y-80028922D01*
X126770295Y-80028922D02*
X126913152Y-80028922D01*
X126913152Y-80028922D02*
X127008390Y-79981303D01*
X127008390Y-79981303D02*
X127056009Y-79933684D01*
X127056009Y-79933684D02*
X127103628Y-79838446D01*
X127103628Y-79838446D02*
X127103628Y-79457494D01*
X126675057Y-80409875D02*
X126627438Y-80457494D01*
X126627438Y-80457494D02*
X126579819Y-80552732D01*
X126579819Y-80552732D02*
X126579819Y-80790827D01*
X126579819Y-80790827D02*
X126627438Y-80886065D01*
X126627438Y-80886065D02*
X126675057Y-80933684D01*
X126675057Y-80933684D02*
X126770295Y-80981303D01*
X126770295Y-80981303D02*
X126865533Y-80981303D01*
X126865533Y-80981303D02*
X127008390Y-80933684D01*
X127008390Y-80933684D02*
X127579819Y-80362256D01*
X127579819Y-80362256D02*
X127579819Y-80981303D01*
X127579819Y-83505113D02*
X127103628Y-83171780D01*
X127579819Y-82933685D02*
X126579819Y-82933685D01*
X126579819Y-82933685D02*
X126579819Y-83314637D01*
X126579819Y-83314637D02*
X126627438Y-83409875D01*
X126627438Y-83409875D02*
X126675057Y-83457494D01*
X126675057Y-83457494D02*
X126770295Y-83505113D01*
X126770295Y-83505113D02*
X126913152Y-83505113D01*
X126913152Y-83505113D02*
X127008390Y-83457494D01*
X127008390Y-83457494D02*
X127056009Y-83409875D01*
X127056009Y-83409875D02*
X127103628Y-83314637D01*
X127103628Y-83314637D02*
X127103628Y-82933685D01*
X126579819Y-83838447D02*
X126579819Y-84457494D01*
X126579819Y-84457494D02*
X126960771Y-84124161D01*
X126960771Y-84124161D02*
X126960771Y-84267018D01*
X126960771Y-84267018D02*
X127008390Y-84362256D01*
X127008390Y-84362256D02*
X127056009Y-84409875D01*
X127056009Y-84409875D02*
X127151247Y-84457494D01*
X127151247Y-84457494D02*
X127389342Y-84457494D01*
X127389342Y-84457494D02*
X127484580Y-84409875D01*
X127484580Y-84409875D02*
X127532200Y-84362256D01*
X127532200Y-84362256D02*
X127579819Y-84267018D01*
X127579819Y-84267018D02*
X127579819Y-83981304D01*
X127579819Y-83981304D02*
X127532200Y-83886066D01*
X127532200Y-83886066D02*
X127484580Y-83838447D01*
X127579819Y-86981304D02*
X127103628Y-86647971D01*
X127579819Y-86409876D02*
X126579819Y-86409876D01*
X126579819Y-86409876D02*
X126579819Y-86790828D01*
X126579819Y-86790828D02*
X126627438Y-86886066D01*
X126627438Y-86886066D02*
X126675057Y-86933685D01*
X126675057Y-86933685D02*
X126770295Y-86981304D01*
X126770295Y-86981304D02*
X126913152Y-86981304D01*
X126913152Y-86981304D02*
X127008390Y-86933685D01*
X127008390Y-86933685D02*
X127056009Y-86886066D01*
X127056009Y-86886066D02*
X127103628Y-86790828D01*
X127103628Y-86790828D02*
X127103628Y-86409876D01*
X126913152Y-87838447D02*
X127579819Y-87838447D01*
X126532200Y-87600352D02*
X127246485Y-87362257D01*
X127246485Y-87362257D02*
X127246485Y-87981304D01*
X127579819Y-90457495D02*
X127103628Y-90124162D01*
X127579819Y-89886067D02*
X126579819Y-89886067D01*
X126579819Y-89886067D02*
X126579819Y-90267019D01*
X126579819Y-90267019D02*
X126627438Y-90362257D01*
X126627438Y-90362257D02*
X126675057Y-90409876D01*
X126675057Y-90409876D02*
X126770295Y-90457495D01*
X126770295Y-90457495D02*
X126913152Y-90457495D01*
X126913152Y-90457495D02*
X127008390Y-90409876D01*
X127008390Y-90409876D02*
X127056009Y-90362257D01*
X127056009Y-90362257D02*
X127103628Y-90267019D01*
X127103628Y-90267019D02*
X127103628Y-89886067D01*
X126579819Y-91362257D02*
X126579819Y-90886067D01*
X126579819Y-90886067D02*
X127056009Y-90838448D01*
X127056009Y-90838448D02*
X127008390Y-90886067D01*
X127008390Y-90886067D02*
X126960771Y-90981305D01*
X126960771Y-90981305D02*
X126960771Y-91219400D01*
X126960771Y-91219400D02*
X127008390Y-91314638D01*
X127008390Y-91314638D02*
X127056009Y-91362257D01*
X127056009Y-91362257D02*
X127151247Y-91409876D01*
X127151247Y-91409876D02*
X127389342Y-91409876D01*
X127389342Y-91409876D02*
X127484580Y-91362257D01*
X127484580Y-91362257D02*
X127532200Y-91314638D01*
X127532200Y-91314638D02*
X127579819Y-91219400D01*
X127579819Y-91219400D02*
X127579819Y-90981305D01*
X127579819Y-90981305D02*
X127532200Y-90886067D01*
X127532200Y-90886067D02*
X127484580Y-90838448D01*
X127579819Y-93933686D02*
X127103628Y-93600353D01*
X127579819Y-93362258D02*
X126579819Y-93362258D01*
X126579819Y-93362258D02*
X126579819Y-93743210D01*
X126579819Y-93743210D02*
X126627438Y-93838448D01*
X126627438Y-93838448D02*
X126675057Y-93886067D01*
X126675057Y-93886067D02*
X126770295Y-93933686D01*
X126770295Y-93933686D02*
X126913152Y-93933686D01*
X126913152Y-93933686D02*
X127008390Y-93886067D01*
X127008390Y-93886067D02*
X127056009Y-93838448D01*
X127056009Y-93838448D02*
X127103628Y-93743210D01*
X127103628Y-93743210D02*
X127103628Y-93362258D01*
X126579819Y-94790829D02*
X126579819Y-94600353D01*
X126579819Y-94600353D02*
X126627438Y-94505115D01*
X126627438Y-94505115D02*
X126675057Y-94457496D01*
X126675057Y-94457496D02*
X126817914Y-94362258D01*
X126817914Y-94362258D02*
X127008390Y-94314639D01*
X127008390Y-94314639D02*
X127389342Y-94314639D01*
X127389342Y-94314639D02*
X127484580Y-94362258D01*
X127484580Y-94362258D02*
X127532200Y-94409877D01*
X127532200Y-94409877D02*
X127579819Y-94505115D01*
X127579819Y-94505115D02*
X127579819Y-94695591D01*
X127579819Y-94695591D02*
X127532200Y-94790829D01*
X127532200Y-94790829D02*
X127484580Y-94838448D01*
X127484580Y-94838448D02*
X127389342Y-94886067D01*
X127389342Y-94886067D02*
X127151247Y-94886067D01*
X127151247Y-94886067D02*
X127056009Y-94838448D01*
X127056009Y-94838448D02*
X127008390Y-94790829D01*
X127008390Y-94790829D02*
X126960771Y-94695591D01*
X126960771Y-94695591D02*
X126960771Y-94505115D01*
X126960771Y-94505115D02*
X127008390Y-94409877D01*
X127008390Y-94409877D02*
X127056009Y-94362258D01*
X127056009Y-94362258D02*
X127151247Y-94314639D01*
X127579819Y-97409877D02*
X127103628Y-97076544D01*
X127579819Y-96838449D02*
X126579819Y-96838449D01*
X126579819Y-96838449D02*
X126579819Y-97219401D01*
X126579819Y-97219401D02*
X126627438Y-97314639D01*
X126627438Y-97314639D02*
X126675057Y-97362258D01*
X126675057Y-97362258D02*
X126770295Y-97409877D01*
X126770295Y-97409877D02*
X126913152Y-97409877D01*
X126913152Y-97409877D02*
X127008390Y-97362258D01*
X127008390Y-97362258D02*
X127056009Y-97314639D01*
X127056009Y-97314639D02*
X127103628Y-97219401D01*
X127103628Y-97219401D02*
X127103628Y-96838449D01*
X126579819Y-97743211D02*
X126579819Y-98409877D01*
X126579819Y-98409877D02*
X127579819Y-97981306D01*
X127579819Y-100886068D02*
X127103628Y-100552735D01*
X127579819Y-100314640D02*
X126579819Y-100314640D01*
X126579819Y-100314640D02*
X126579819Y-100695592D01*
X126579819Y-100695592D02*
X126627438Y-100790830D01*
X126627438Y-100790830D02*
X126675057Y-100838449D01*
X126675057Y-100838449D02*
X126770295Y-100886068D01*
X126770295Y-100886068D02*
X126913152Y-100886068D01*
X126913152Y-100886068D02*
X127008390Y-100838449D01*
X127008390Y-100838449D02*
X127056009Y-100790830D01*
X127056009Y-100790830D02*
X127103628Y-100695592D01*
X127103628Y-100695592D02*
X127103628Y-100314640D01*
X127008390Y-101457497D02*
X126960771Y-101362259D01*
X126960771Y-101362259D02*
X126913152Y-101314640D01*
X126913152Y-101314640D02*
X126817914Y-101267021D01*
X126817914Y-101267021D02*
X126770295Y-101267021D01*
X126770295Y-101267021D02*
X126675057Y-101314640D01*
X126675057Y-101314640D02*
X126627438Y-101362259D01*
X126627438Y-101362259D02*
X126579819Y-101457497D01*
X126579819Y-101457497D02*
X126579819Y-101647973D01*
X126579819Y-101647973D02*
X126627438Y-101743211D01*
X126627438Y-101743211D02*
X126675057Y-101790830D01*
X126675057Y-101790830D02*
X126770295Y-101838449D01*
X126770295Y-101838449D02*
X126817914Y-101838449D01*
X126817914Y-101838449D02*
X126913152Y-101790830D01*
X126913152Y-101790830D02*
X126960771Y-101743211D01*
X126960771Y-101743211D02*
X127008390Y-101647973D01*
X127008390Y-101647973D02*
X127008390Y-101457497D01*
X127008390Y-101457497D02*
X127056009Y-101362259D01*
X127056009Y-101362259D02*
X127103628Y-101314640D01*
X127103628Y-101314640D02*
X127198866Y-101267021D01*
X127198866Y-101267021D02*
X127389342Y-101267021D01*
X127389342Y-101267021D02*
X127484580Y-101314640D01*
X127484580Y-101314640D02*
X127532200Y-101362259D01*
X127532200Y-101362259D02*
X127579819Y-101457497D01*
X127579819Y-101457497D02*
X127579819Y-101647973D01*
X127579819Y-101647973D02*
X127532200Y-101743211D01*
X127532200Y-101743211D02*
X127484580Y-101790830D01*
X127484580Y-101790830D02*
X127389342Y-101838449D01*
X127389342Y-101838449D02*
X127198866Y-101838449D01*
X127198866Y-101838449D02*
X127103628Y-101790830D01*
X127103628Y-101790830D02*
X127056009Y-101743211D01*
X127056009Y-101743211D02*
X127008390Y-101647973D01*
X127579819Y-104362259D02*
X127103628Y-104028926D01*
X127579819Y-103790831D02*
X126579819Y-103790831D01*
X126579819Y-103790831D02*
X126579819Y-104171783D01*
X126579819Y-104171783D02*
X126627438Y-104267021D01*
X126627438Y-104267021D02*
X126675057Y-104314640D01*
X126675057Y-104314640D02*
X126770295Y-104362259D01*
X126770295Y-104362259D02*
X126913152Y-104362259D01*
X126913152Y-104362259D02*
X127008390Y-104314640D01*
X127008390Y-104314640D02*
X127056009Y-104267021D01*
X127056009Y-104267021D02*
X127103628Y-104171783D01*
X127103628Y-104171783D02*
X127103628Y-103790831D01*
X127579819Y-104838450D02*
X127579819Y-105028926D01*
X127579819Y-105028926D02*
X127532200Y-105124164D01*
X127532200Y-105124164D02*
X127484580Y-105171783D01*
X127484580Y-105171783D02*
X127341723Y-105267021D01*
X127341723Y-105267021D02*
X127151247Y-105314640D01*
X127151247Y-105314640D02*
X126770295Y-105314640D01*
X126770295Y-105314640D02*
X126675057Y-105267021D01*
X126675057Y-105267021D02*
X126627438Y-105219402D01*
X126627438Y-105219402D02*
X126579819Y-105124164D01*
X126579819Y-105124164D02*
X126579819Y-104933688D01*
X126579819Y-104933688D02*
X126627438Y-104838450D01*
X126627438Y-104838450D02*
X126675057Y-104790831D01*
X126675057Y-104790831D02*
X126770295Y-104743212D01*
X126770295Y-104743212D02*
X127008390Y-104743212D01*
X127008390Y-104743212D02*
X127103628Y-104790831D01*
X127103628Y-104790831D02*
X127151247Y-104838450D01*
X127151247Y-104838450D02*
X127198866Y-104933688D01*
X127198866Y-104933688D02*
X127198866Y-105124164D01*
X127198866Y-105124164D02*
X127151247Y-105219402D01*
X127151247Y-105219402D02*
X127103628Y-105267021D01*
X127103628Y-105267021D02*
X127008390Y-105314640D01*
X127579819Y-107838450D02*
X127103628Y-107505117D01*
X127579819Y-107267022D02*
X126579819Y-107267022D01*
X126579819Y-107267022D02*
X126579819Y-107647974D01*
X126579819Y-107647974D02*
X126627438Y-107743212D01*
X126627438Y-107743212D02*
X126675057Y-107790831D01*
X126675057Y-107790831D02*
X126770295Y-107838450D01*
X126770295Y-107838450D02*
X126913152Y-107838450D01*
X126913152Y-107838450D02*
X127008390Y-107790831D01*
X127008390Y-107790831D02*
X127056009Y-107743212D01*
X127056009Y-107743212D02*
X127103628Y-107647974D01*
X127103628Y-107647974D02*
X127103628Y-107267022D01*
X127579819Y-108790831D02*
X127579819Y-108219403D01*
X127579819Y-108505117D02*
X126579819Y-108505117D01*
X126579819Y-108505117D02*
X126722676Y-108409879D01*
X126722676Y-108409879D02*
X126817914Y-108314641D01*
X126817914Y-108314641D02*
X126865533Y-108219403D01*
X126579819Y-109409879D02*
X126579819Y-109505117D01*
X126579819Y-109505117D02*
X126627438Y-109600355D01*
X126627438Y-109600355D02*
X126675057Y-109647974D01*
X126675057Y-109647974D02*
X126770295Y-109695593D01*
X126770295Y-109695593D02*
X126960771Y-109743212D01*
X126960771Y-109743212D02*
X127198866Y-109743212D01*
X127198866Y-109743212D02*
X127389342Y-109695593D01*
X127389342Y-109695593D02*
X127484580Y-109647974D01*
X127484580Y-109647974D02*
X127532200Y-109600355D01*
X127532200Y-109600355D02*
X127579819Y-109505117D01*
X127579819Y-109505117D02*
X127579819Y-109409879D01*
X127579819Y-109409879D02*
X127532200Y-109314641D01*
X127532200Y-109314641D02*
X127484580Y-109267022D01*
X127484580Y-109267022D02*
X127389342Y-109219403D01*
X127389342Y-109219403D02*
X127198866Y-109171784D01*
X127198866Y-109171784D02*
X126960771Y-109171784D01*
X126960771Y-109171784D02*
X126770295Y-109219403D01*
X126770295Y-109219403D02*
X126675057Y-109267022D01*
X126675057Y-109267022D02*
X126627438Y-109314641D01*
X126627438Y-109314641D02*
X126579819Y-109409879D01*
X128523152Y-77124160D02*
X128523152Y-77838445D01*
X128094580Y-77409874D02*
X129380295Y-77124160D01*
X128951723Y-77743207D02*
X128951723Y-77028922D01*
X129380295Y-77457493D02*
X128094580Y-77743207D01*
X129189819Y-78695588D02*
X129189819Y-78124160D01*
X129189819Y-78409874D02*
X128189819Y-78409874D01*
X128189819Y-78409874D02*
X128332676Y-78314636D01*
X128332676Y-78314636D02*
X128427914Y-78219398D01*
X128427914Y-78219398D02*
X128475533Y-78124160D01*
X128189819Y-80838446D02*
X128189819Y-80933684D01*
X128189819Y-80933684D02*
X128237438Y-81028922D01*
X128237438Y-81028922D02*
X128285057Y-81076541D01*
X128285057Y-81076541D02*
X128380295Y-81124160D01*
X128380295Y-81124160D02*
X128570771Y-81171779D01*
X128570771Y-81171779D02*
X128808866Y-81171779D01*
X128808866Y-81171779D02*
X128999342Y-81124160D01*
X128999342Y-81124160D02*
X129094580Y-81076541D01*
X129094580Y-81076541D02*
X129142200Y-81028922D01*
X129142200Y-81028922D02*
X129189819Y-80933684D01*
X129189819Y-80933684D02*
X129189819Y-80838446D01*
X129189819Y-80838446D02*
X129142200Y-80743208D01*
X129142200Y-80743208D02*
X129094580Y-80695589D01*
X129094580Y-80695589D02*
X128999342Y-80647970D01*
X128999342Y-80647970D02*
X128808866Y-80600351D01*
X128808866Y-80600351D02*
X128570771Y-80600351D01*
X128570771Y-80600351D02*
X128380295Y-80647970D01*
X128380295Y-80647970D02*
X128285057Y-80695589D01*
X128285057Y-80695589D02*
X128237438Y-80743208D01*
X128237438Y-80743208D02*
X128189819Y-80838446D01*
X129189819Y-83124161D02*
X128189819Y-83124161D01*
X128189819Y-83124161D02*
X129189819Y-83695589D01*
X129189819Y-83695589D02*
X128189819Y-83695589D01*
X129189819Y-84647970D02*
X129189819Y-84171780D01*
X129189819Y-84171780D02*
X128189819Y-84171780D01*
X128189819Y-87457495D02*
X128189819Y-87552733D01*
X128189819Y-87552733D02*
X128237438Y-87647971D01*
X128237438Y-87647971D02*
X128285057Y-87695590D01*
X128285057Y-87695590D02*
X128380295Y-87743209D01*
X128380295Y-87743209D02*
X128570771Y-87790828D01*
X128570771Y-87790828D02*
X128808866Y-87790828D01*
X128808866Y-87790828D02*
X128999342Y-87743209D01*
X128999342Y-87743209D02*
X129094580Y-87695590D01*
X129094580Y-87695590D02*
X129142200Y-87647971D01*
X129142200Y-87647971D02*
X129189819Y-87552733D01*
X129189819Y-87552733D02*
X129189819Y-87457495D01*
X129189819Y-87457495D02*
X129142200Y-87362257D01*
X129142200Y-87362257D02*
X129094580Y-87314638D01*
X129094580Y-87314638D02*
X128999342Y-87267019D01*
X128999342Y-87267019D02*
X128808866Y-87219400D01*
X128808866Y-87219400D02*
X128570771Y-87219400D01*
X128570771Y-87219400D02*
X128380295Y-87267019D01*
X128380295Y-87267019D02*
X128285057Y-87314638D01*
X128285057Y-87314638D02*
X128237438Y-87362257D01*
X128237438Y-87362257D02*
X128189819Y-87457495D01*
X128189819Y-90695591D02*
X128189819Y-90790829D01*
X128189819Y-90790829D02*
X128237438Y-90886067D01*
X128237438Y-90886067D02*
X128285057Y-90933686D01*
X128285057Y-90933686D02*
X128380295Y-90981305D01*
X128380295Y-90981305D02*
X128570771Y-91028924D01*
X128570771Y-91028924D02*
X128808866Y-91028924D01*
X128808866Y-91028924D02*
X128999342Y-90981305D01*
X128999342Y-90981305D02*
X129094580Y-90933686D01*
X129094580Y-90933686D02*
X129142200Y-90886067D01*
X129142200Y-90886067D02*
X129189819Y-90790829D01*
X129189819Y-90790829D02*
X129189819Y-90695591D01*
X129189819Y-90695591D02*
X129142200Y-90600353D01*
X129142200Y-90600353D02*
X129094580Y-90552734D01*
X129094580Y-90552734D02*
X128999342Y-90505115D01*
X128999342Y-90505115D02*
X128808866Y-90457496D01*
X128808866Y-90457496D02*
X128570771Y-90457496D01*
X128570771Y-90457496D02*
X128380295Y-90505115D01*
X128380295Y-90505115D02*
X128285057Y-90552734D01*
X128285057Y-90552734D02*
X128237438Y-90600353D01*
X128237438Y-90600353D02*
X128189819Y-90695591D01*
X129189819Y-92981306D02*
X128189819Y-92981306D01*
X128189819Y-92981306D02*
X129189819Y-93552734D01*
X129189819Y-93552734D02*
X128189819Y-93552734D01*
X129189819Y-94505115D02*
X129189819Y-94028925D01*
X129189819Y-94028925D02*
X128189819Y-94028925D01*
X128189819Y-97314640D02*
X128189819Y-97409878D01*
X128189819Y-97409878D02*
X128237438Y-97505116D01*
X128237438Y-97505116D02*
X128285057Y-97552735D01*
X128285057Y-97552735D02*
X128380295Y-97600354D01*
X128380295Y-97600354D02*
X128570771Y-97647973D01*
X128570771Y-97647973D02*
X128808866Y-97647973D01*
X128808866Y-97647973D02*
X128999342Y-97600354D01*
X128999342Y-97600354D02*
X129094580Y-97552735D01*
X129094580Y-97552735D02*
X129142200Y-97505116D01*
X129142200Y-97505116D02*
X129189819Y-97409878D01*
X129189819Y-97409878D02*
X129189819Y-97314640D01*
X129189819Y-97314640D02*
X129142200Y-97219402D01*
X129142200Y-97219402D02*
X129094580Y-97171783D01*
X129094580Y-97171783D02*
X128999342Y-97124164D01*
X128999342Y-97124164D02*
X128808866Y-97076545D01*
X128808866Y-97076545D02*
X128570771Y-97076545D01*
X128570771Y-97076545D02*
X128380295Y-97124164D01*
X128380295Y-97124164D02*
X128285057Y-97171783D01*
X128285057Y-97171783D02*
X128237438Y-97219402D01*
X128237438Y-97219402D02*
X128189819Y-97314640D01*
X129189819Y-99600355D02*
X128189819Y-99600355D01*
X128189819Y-99600355D02*
X129189819Y-100171783D01*
X129189819Y-100171783D02*
X128189819Y-100171783D01*
X129189819Y-101124164D02*
X129189819Y-100647974D01*
X129189819Y-100647974D02*
X128189819Y-100647974D01*
X129189819Y-102981308D02*
X128189819Y-102981308D01*
X128189819Y-102981308D02*
X129189819Y-103552736D01*
X129189819Y-103552736D02*
X128189819Y-103552736D01*
X129189819Y-104505117D02*
X129189819Y-104028927D01*
X129189819Y-104028927D02*
X128189819Y-104028927D01*
X129189819Y-106362261D02*
X128189819Y-106362261D01*
X128189819Y-106362261D02*
X129189819Y-106933689D01*
X129189819Y-106933689D02*
X128189819Y-106933689D01*
X129189819Y-107886070D02*
X129189819Y-107409880D01*
X129189819Y-107409880D02*
X128189819Y-107409880D01*
X129189819Y-110505119D02*
X128189819Y-110505119D01*
X128189819Y-110505119D02*
X128189819Y-110743214D01*
X128189819Y-110743214D02*
X128237438Y-110886071D01*
X128237438Y-110886071D02*
X128332676Y-110981309D01*
X128332676Y-110981309D02*
X128427914Y-111028928D01*
X128427914Y-111028928D02*
X128618390Y-111076547D01*
X128618390Y-111076547D02*
X128761247Y-111076547D01*
X128761247Y-111076547D02*
X128951723Y-111028928D01*
X128951723Y-111028928D02*
X129046961Y-110981309D01*
X129046961Y-110981309D02*
X129142200Y-110886071D01*
X129142200Y-110886071D02*
X129189819Y-110743214D01*
X129189819Y-110743214D02*
X129189819Y-110505119D01*
X129142200Y-111886071D02*
X129189819Y-111790833D01*
X129189819Y-111790833D02*
X129189819Y-111600357D01*
X129189819Y-111600357D02*
X129142200Y-111505119D01*
X129142200Y-111505119D02*
X129046961Y-111457500D01*
X129046961Y-111457500D02*
X128666009Y-111457500D01*
X128666009Y-111457500D02*
X128570771Y-111505119D01*
X128570771Y-111505119D02*
X128523152Y-111600357D01*
X128523152Y-111600357D02*
X128523152Y-111790833D01*
X128523152Y-111790833D02*
X128570771Y-111886071D01*
X128570771Y-111886071D02*
X128666009Y-111933690D01*
X128666009Y-111933690D02*
X128761247Y-111933690D01*
X128761247Y-111933690D02*
X128856485Y-111457500D01*
X128523152Y-112267024D02*
X129189819Y-112505119D01*
X129189819Y-112505119D02*
X128523152Y-112743214D01*
X129189819Y-113124167D02*
X128523152Y-113124167D01*
X128189819Y-113124167D02*
X128237438Y-113076548D01*
X128237438Y-113076548D02*
X128285057Y-113124167D01*
X128285057Y-113124167D02*
X128237438Y-113171786D01*
X128237438Y-113171786D02*
X128189819Y-113124167D01*
X128189819Y-113124167D02*
X128285057Y-113124167D01*
X129142200Y-114028928D02*
X129189819Y-113933690D01*
X129189819Y-113933690D02*
X129189819Y-113743214D01*
X129189819Y-113743214D02*
X129142200Y-113647976D01*
X129142200Y-113647976D02*
X129094580Y-113600357D01*
X129094580Y-113600357D02*
X128999342Y-113552738D01*
X128999342Y-113552738D02*
X128713628Y-113552738D01*
X128713628Y-113552738D02*
X128618390Y-113600357D01*
X128618390Y-113600357D02*
X128570771Y-113647976D01*
X128570771Y-113647976D02*
X128523152Y-113743214D01*
X128523152Y-113743214D02*
X128523152Y-113933690D01*
X128523152Y-113933690D02*
X128570771Y-114028928D01*
X129142200Y-114838452D02*
X129189819Y-114743214D01*
X129189819Y-114743214D02*
X129189819Y-114552738D01*
X129189819Y-114552738D02*
X129142200Y-114457500D01*
X129142200Y-114457500D02*
X129046961Y-114409881D01*
X129046961Y-114409881D02*
X128666009Y-114409881D01*
X128666009Y-114409881D02*
X128570771Y-114457500D01*
X128570771Y-114457500D02*
X128523152Y-114552738D01*
X128523152Y-114552738D02*
X128523152Y-114743214D01*
X128523152Y-114743214D02*
X128570771Y-114838452D01*
X128570771Y-114838452D02*
X128666009Y-114886071D01*
X128666009Y-114886071D02*
X128761247Y-114886071D01*
X128761247Y-114886071D02*
X128856485Y-114409881D01*
X129142200Y-116028929D02*
X129189819Y-116171786D01*
X129189819Y-116171786D02*
X129189819Y-116409881D01*
X129189819Y-116409881D02*
X129142200Y-116505119D01*
X129142200Y-116505119D02*
X129094580Y-116552738D01*
X129094580Y-116552738D02*
X128999342Y-116600357D01*
X128999342Y-116600357D02*
X128904104Y-116600357D01*
X128904104Y-116600357D02*
X128808866Y-116552738D01*
X128808866Y-116552738D02*
X128761247Y-116505119D01*
X128761247Y-116505119D02*
X128713628Y-116409881D01*
X128713628Y-116409881D02*
X128666009Y-116219405D01*
X128666009Y-116219405D02*
X128618390Y-116124167D01*
X128618390Y-116124167D02*
X128570771Y-116076548D01*
X128570771Y-116076548D02*
X128475533Y-116028929D01*
X128475533Y-116028929D02*
X128380295Y-116028929D01*
X128380295Y-116028929D02*
X128285057Y-116076548D01*
X128285057Y-116076548D02*
X128237438Y-116124167D01*
X128237438Y-116124167D02*
X128189819Y-116219405D01*
X128189819Y-116219405D02*
X128189819Y-116457500D01*
X128189819Y-116457500D02*
X128237438Y-116600357D01*
X128523152Y-116886072D02*
X128523152Y-117267024D01*
X128189819Y-117028929D02*
X129046961Y-117028929D01*
X129046961Y-117028929D02*
X129142200Y-117076548D01*
X129142200Y-117076548D02*
X129189819Y-117171786D01*
X129189819Y-117171786D02*
X129189819Y-117267024D01*
X129189819Y-118028929D02*
X128666009Y-118028929D01*
X128666009Y-118028929D02*
X128570771Y-117981310D01*
X128570771Y-117981310D02*
X128523152Y-117886072D01*
X128523152Y-117886072D02*
X128523152Y-117695596D01*
X128523152Y-117695596D02*
X128570771Y-117600358D01*
X129142200Y-118028929D02*
X129189819Y-117933691D01*
X129189819Y-117933691D02*
X129189819Y-117695596D01*
X129189819Y-117695596D02*
X129142200Y-117600358D01*
X129142200Y-117600358D02*
X129046961Y-117552739D01*
X129046961Y-117552739D02*
X128951723Y-117552739D01*
X128951723Y-117552739D02*
X128856485Y-117600358D01*
X128856485Y-117600358D02*
X128808866Y-117695596D01*
X128808866Y-117695596D02*
X128808866Y-117933691D01*
X128808866Y-117933691D02*
X128761247Y-118028929D01*
X128523152Y-118362263D02*
X128523152Y-118743215D01*
X128189819Y-118505120D02*
X129046961Y-118505120D01*
X129046961Y-118505120D02*
X129142200Y-118552739D01*
X129142200Y-118552739D02*
X129189819Y-118647977D01*
X129189819Y-118647977D02*
X129189819Y-118743215D01*
X129142200Y-119457501D02*
X129189819Y-119362263D01*
X129189819Y-119362263D02*
X129189819Y-119171787D01*
X129189819Y-119171787D02*
X129142200Y-119076549D01*
X129142200Y-119076549D02*
X129046961Y-119028930D01*
X129046961Y-119028930D02*
X128666009Y-119028930D01*
X128666009Y-119028930D02*
X128570771Y-119076549D01*
X128570771Y-119076549D02*
X128523152Y-119171787D01*
X128523152Y-119171787D02*
X128523152Y-119362263D01*
X128523152Y-119362263D02*
X128570771Y-119457501D01*
X128570771Y-119457501D02*
X128666009Y-119505120D01*
X128666009Y-119505120D02*
X128761247Y-119505120D01*
X128761247Y-119505120D02*
X128856485Y-119028930D01*
X128285057Y-120647978D02*
X128237438Y-120695597D01*
X128237438Y-120695597D02*
X128189819Y-120790835D01*
X128189819Y-120790835D02*
X128189819Y-121028930D01*
X128189819Y-121028930D02*
X128237438Y-121124168D01*
X128237438Y-121124168D02*
X128285057Y-121171787D01*
X128285057Y-121171787D02*
X128380295Y-121219406D01*
X128380295Y-121219406D02*
X128475533Y-121219406D01*
X128475533Y-121219406D02*
X128618390Y-121171787D01*
X128618390Y-121171787D02*
X129189819Y-120600359D01*
X129189819Y-120600359D02*
X129189819Y-121219406D01*
X130133152Y-77124160D02*
X130133152Y-77838445D01*
X129704580Y-77409874D02*
X130990295Y-77124160D01*
X130561723Y-77743207D02*
X130561723Y-77028922D01*
X130990295Y-77457493D02*
X129704580Y-77743207D01*
X129895057Y-78124160D02*
X129847438Y-78171779D01*
X129847438Y-78171779D02*
X129799819Y-78267017D01*
X129799819Y-78267017D02*
X129799819Y-78505112D01*
X129799819Y-78505112D02*
X129847438Y-78600350D01*
X129847438Y-78600350D02*
X129895057Y-78647969D01*
X129895057Y-78647969D02*
X129990295Y-78695588D01*
X129990295Y-78695588D02*
X130085533Y-78695588D01*
X130085533Y-78695588D02*
X130228390Y-78647969D01*
X130228390Y-78647969D02*
X130799819Y-78076541D01*
X130799819Y-78076541D02*
X130799819Y-78695588D01*
X129799819Y-80838446D02*
X129799819Y-80933684D01*
X129799819Y-80933684D02*
X129847438Y-81028922D01*
X129847438Y-81028922D02*
X129895057Y-81076541D01*
X129895057Y-81076541D02*
X129990295Y-81124160D01*
X129990295Y-81124160D02*
X130180771Y-81171779D01*
X130180771Y-81171779D02*
X130418866Y-81171779D01*
X130418866Y-81171779D02*
X130609342Y-81124160D01*
X130609342Y-81124160D02*
X130704580Y-81076541D01*
X130704580Y-81076541D02*
X130752200Y-81028922D01*
X130752200Y-81028922D02*
X130799819Y-80933684D01*
X130799819Y-80933684D02*
X130799819Y-80838446D01*
X130799819Y-80838446D02*
X130752200Y-80743208D01*
X130752200Y-80743208D02*
X130704580Y-80695589D01*
X130704580Y-80695589D02*
X130609342Y-80647970D01*
X130609342Y-80647970D02*
X130418866Y-80600351D01*
X130418866Y-80600351D02*
X130180771Y-80600351D01*
X130180771Y-80600351D02*
X129990295Y-80647970D01*
X129990295Y-80647970D02*
X129895057Y-80695589D01*
X129895057Y-80695589D02*
X129847438Y-80743208D01*
X129847438Y-80743208D02*
X129799819Y-80838446D01*
X130799819Y-83124161D02*
X129799819Y-83124161D01*
X129799819Y-83124161D02*
X130799819Y-83695589D01*
X130799819Y-83695589D02*
X129799819Y-83695589D01*
X130799819Y-84647970D02*
X130799819Y-84171780D01*
X130799819Y-84171780D02*
X129799819Y-84171780D01*
X129799819Y-87457495D02*
X129799819Y-87552733D01*
X129799819Y-87552733D02*
X129847438Y-87647971D01*
X129847438Y-87647971D02*
X129895057Y-87695590D01*
X129895057Y-87695590D02*
X129990295Y-87743209D01*
X129990295Y-87743209D02*
X130180771Y-87790828D01*
X130180771Y-87790828D02*
X130418866Y-87790828D01*
X130418866Y-87790828D02*
X130609342Y-87743209D01*
X130609342Y-87743209D02*
X130704580Y-87695590D01*
X130704580Y-87695590D02*
X130752200Y-87647971D01*
X130752200Y-87647971D02*
X130799819Y-87552733D01*
X130799819Y-87552733D02*
X130799819Y-87457495D01*
X130799819Y-87457495D02*
X130752200Y-87362257D01*
X130752200Y-87362257D02*
X130704580Y-87314638D01*
X130704580Y-87314638D02*
X130609342Y-87267019D01*
X130609342Y-87267019D02*
X130418866Y-87219400D01*
X130418866Y-87219400D02*
X130180771Y-87219400D01*
X130180771Y-87219400D02*
X129990295Y-87267019D01*
X129990295Y-87267019D02*
X129895057Y-87314638D01*
X129895057Y-87314638D02*
X129847438Y-87362257D01*
X129847438Y-87362257D02*
X129799819Y-87457495D01*
X130799819Y-89743210D02*
X129799819Y-89743210D01*
X129799819Y-89743210D02*
X130799819Y-90314638D01*
X130799819Y-90314638D02*
X129799819Y-90314638D01*
X130799819Y-91267019D02*
X130799819Y-90790829D01*
X130799819Y-90790829D02*
X129799819Y-90790829D01*
X129799819Y-94076544D02*
X129799819Y-94171782D01*
X129799819Y-94171782D02*
X129847438Y-94267020D01*
X129847438Y-94267020D02*
X129895057Y-94314639D01*
X129895057Y-94314639D02*
X129990295Y-94362258D01*
X129990295Y-94362258D02*
X130180771Y-94409877D01*
X130180771Y-94409877D02*
X130418866Y-94409877D01*
X130418866Y-94409877D02*
X130609342Y-94362258D01*
X130609342Y-94362258D02*
X130704580Y-94314639D01*
X130704580Y-94314639D02*
X130752200Y-94267020D01*
X130752200Y-94267020D02*
X130799819Y-94171782D01*
X130799819Y-94171782D02*
X130799819Y-94076544D01*
X130799819Y-94076544D02*
X130752200Y-93981306D01*
X130752200Y-93981306D02*
X130704580Y-93933687D01*
X130704580Y-93933687D02*
X130609342Y-93886068D01*
X130609342Y-93886068D02*
X130418866Y-93838449D01*
X130418866Y-93838449D02*
X130180771Y-93838449D01*
X130180771Y-93838449D02*
X129990295Y-93886068D01*
X129990295Y-93886068D02*
X129895057Y-93933687D01*
X129895057Y-93933687D02*
X129847438Y-93981306D01*
X129847438Y-93981306D02*
X129799819Y-94076544D01*
X129799819Y-97314640D02*
X129799819Y-97409878D01*
X129799819Y-97409878D02*
X129847438Y-97505116D01*
X129847438Y-97505116D02*
X129895057Y-97552735D01*
X129895057Y-97552735D02*
X129990295Y-97600354D01*
X129990295Y-97600354D02*
X130180771Y-97647973D01*
X130180771Y-97647973D02*
X130418866Y-97647973D01*
X130418866Y-97647973D02*
X130609342Y-97600354D01*
X130609342Y-97600354D02*
X130704580Y-97552735D01*
X130704580Y-97552735D02*
X130752200Y-97505116D01*
X130752200Y-97505116D02*
X130799819Y-97409878D01*
X130799819Y-97409878D02*
X130799819Y-97314640D01*
X130799819Y-97314640D02*
X130752200Y-97219402D01*
X130752200Y-97219402D02*
X130704580Y-97171783D01*
X130704580Y-97171783D02*
X130609342Y-97124164D01*
X130609342Y-97124164D02*
X130418866Y-97076545D01*
X130418866Y-97076545D02*
X130180771Y-97076545D01*
X130180771Y-97076545D02*
X129990295Y-97124164D01*
X129990295Y-97124164D02*
X129895057Y-97171783D01*
X129895057Y-97171783D02*
X129847438Y-97219402D01*
X129847438Y-97219402D02*
X129799819Y-97314640D01*
X130799819Y-99600355D02*
X129799819Y-99600355D01*
X129799819Y-99600355D02*
X130799819Y-100171783D01*
X130799819Y-100171783D02*
X129799819Y-100171783D01*
X130799819Y-101124164D02*
X130799819Y-100647974D01*
X130799819Y-100647974D02*
X129799819Y-100647974D01*
X130799819Y-102981308D02*
X129799819Y-102981308D01*
X129799819Y-102981308D02*
X130799819Y-103552736D01*
X130799819Y-103552736D02*
X129799819Y-103552736D01*
X130799819Y-104505117D02*
X130799819Y-104028927D01*
X130799819Y-104028927D02*
X129799819Y-104028927D01*
X130799819Y-106362261D02*
X129799819Y-106362261D01*
X129799819Y-106362261D02*
X130799819Y-106933689D01*
X130799819Y-106933689D02*
X129799819Y-106933689D01*
X130799819Y-107886070D02*
X130799819Y-107409880D01*
X130799819Y-107409880D02*
X129799819Y-107409880D01*
X130799819Y-110505119D02*
X129799819Y-110505119D01*
X129799819Y-110505119D02*
X129799819Y-110743214D01*
X129799819Y-110743214D02*
X129847438Y-110886071D01*
X129847438Y-110886071D02*
X129942676Y-110981309D01*
X129942676Y-110981309D02*
X130037914Y-111028928D01*
X130037914Y-111028928D02*
X130228390Y-111076547D01*
X130228390Y-111076547D02*
X130371247Y-111076547D01*
X130371247Y-111076547D02*
X130561723Y-111028928D01*
X130561723Y-111028928D02*
X130656961Y-110981309D01*
X130656961Y-110981309D02*
X130752200Y-110886071D01*
X130752200Y-110886071D02*
X130799819Y-110743214D01*
X130799819Y-110743214D02*
X130799819Y-110505119D01*
X130752200Y-111886071D02*
X130799819Y-111790833D01*
X130799819Y-111790833D02*
X130799819Y-111600357D01*
X130799819Y-111600357D02*
X130752200Y-111505119D01*
X130752200Y-111505119D02*
X130656961Y-111457500D01*
X130656961Y-111457500D02*
X130276009Y-111457500D01*
X130276009Y-111457500D02*
X130180771Y-111505119D01*
X130180771Y-111505119D02*
X130133152Y-111600357D01*
X130133152Y-111600357D02*
X130133152Y-111790833D01*
X130133152Y-111790833D02*
X130180771Y-111886071D01*
X130180771Y-111886071D02*
X130276009Y-111933690D01*
X130276009Y-111933690D02*
X130371247Y-111933690D01*
X130371247Y-111933690D02*
X130466485Y-111457500D01*
X130133152Y-112267024D02*
X130799819Y-112505119D01*
X130799819Y-112505119D02*
X130133152Y-112743214D01*
X130799819Y-113124167D02*
X130133152Y-113124167D01*
X129799819Y-113124167D02*
X129847438Y-113076548D01*
X129847438Y-113076548D02*
X129895057Y-113124167D01*
X129895057Y-113124167D02*
X129847438Y-113171786D01*
X129847438Y-113171786D02*
X129799819Y-113124167D01*
X129799819Y-113124167D02*
X129895057Y-113124167D01*
X130752200Y-114028928D02*
X130799819Y-113933690D01*
X130799819Y-113933690D02*
X130799819Y-113743214D01*
X130799819Y-113743214D02*
X130752200Y-113647976D01*
X130752200Y-113647976D02*
X130704580Y-113600357D01*
X130704580Y-113600357D02*
X130609342Y-113552738D01*
X130609342Y-113552738D02*
X130323628Y-113552738D01*
X130323628Y-113552738D02*
X130228390Y-113600357D01*
X130228390Y-113600357D02*
X130180771Y-113647976D01*
X130180771Y-113647976D02*
X130133152Y-113743214D01*
X130133152Y-113743214D02*
X130133152Y-113933690D01*
X130133152Y-113933690D02*
X130180771Y-114028928D01*
X130752200Y-114838452D02*
X130799819Y-114743214D01*
X130799819Y-114743214D02*
X130799819Y-114552738D01*
X130799819Y-114552738D02*
X130752200Y-114457500D01*
X130752200Y-114457500D02*
X130656961Y-114409881D01*
X130656961Y-114409881D02*
X130276009Y-114409881D01*
X130276009Y-114409881D02*
X130180771Y-114457500D01*
X130180771Y-114457500D02*
X130133152Y-114552738D01*
X130133152Y-114552738D02*
X130133152Y-114743214D01*
X130133152Y-114743214D02*
X130180771Y-114838452D01*
X130180771Y-114838452D02*
X130276009Y-114886071D01*
X130276009Y-114886071D02*
X130371247Y-114886071D01*
X130371247Y-114886071D02*
X130466485Y-114409881D01*
X130752200Y-116028929D02*
X130799819Y-116171786D01*
X130799819Y-116171786D02*
X130799819Y-116409881D01*
X130799819Y-116409881D02*
X130752200Y-116505119D01*
X130752200Y-116505119D02*
X130704580Y-116552738D01*
X130704580Y-116552738D02*
X130609342Y-116600357D01*
X130609342Y-116600357D02*
X130514104Y-116600357D01*
X130514104Y-116600357D02*
X130418866Y-116552738D01*
X130418866Y-116552738D02*
X130371247Y-116505119D01*
X130371247Y-116505119D02*
X130323628Y-116409881D01*
X130323628Y-116409881D02*
X130276009Y-116219405D01*
X130276009Y-116219405D02*
X130228390Y-116124167D01*
X130228390Y-116124167D02*
X130180771Y-116076548D01*
X130180771Y-116076548D02*
X130085533Y-116028929D01*
X130085533Y-116028929D02*
X129990295Y-116028929D01*
X129990295Y-116028929D02*
X129895057Y-116076548D01*
X129895057Y-116076548D02*
X129847438Y-116124167D01*
X129847438Y-116124167D02*
X129799819Y-116219405D01*
X129799819Y-116219405D02*
X129799819Y-116457500D01*
X129799819Y-116457500D02*
X129847438Y-116600357D01*
X130133152Y-116886072D02*
X130133152Y-117267024D01*
X129799819Y-117028929D02*
X130656961Y-117028929D01*
X130656961Y-117028929D02*
X130752200Y-117076548D01*
X130752200Y-117076548D02*
X130799819Y-117171786D01*
X130799819Y-117171786D02*
X130799819Y-117267024D01*
X130799819Y-118028929D02*
X130276009Y-118028929D01*
X130276009Y-118028929D02*
X130180771Y-117981310D01*
X130180771Y-117981310D02*
X130133152Y-117886072D01*
X130133152Y-117886072D02*
X130133152Y-117695596D01*
X130133152Y-117695596D02*
X130180771Y-117600358D01*
X130752200Y-118028929D02*
X130799819Y-117933691D01*
X130799819Y-117933691D02*
X130799819Y-117695596D01*
X130799819Y-117695596D02*
X130752200Y-117600358D01*
X130752200Y-117600358D02*
X130656961Y-117552739D01*
X130656961Y-117552739D02*
X130561723Y-117552739D01*
X130561723Y-117552739D02*
X130466485Y-117600358D01*
X130466485Y-117600358D02*
X130418866Y-117695596D01*
X130418866Y-117695596D02*
X130418866Y-117933691D01*
X130418866Y-117933691D02*
X130371247Y-118028929D01*
X130133152Y-118362263D02*
X130133152Y-118743215D01*
X129799819Y-118505120D02*
X130656961Y-118505120D01*
X130656961Y-118505120D02*
X130752200Y-118552739D01*
X130752200Y-118552739D02*
X130799819Y-118647977D01*
X130799819Y-118647977D02*
X130799819Y-118743215D01*
X130752200Y-119457501D02*
X130799819Y-119362263D01*
X130799819Y-119362263D02*
X130799819Y-119171787D01*
X130799819Y-119171787D02*
X130752200Y-119076549D01*
X130752200Y-119076549D02*
X130656961Y-119028930D01*
X130656961Y-119028930D02*
X130276009Y-119028930D01*
X130276009Y-119028930D02*
X130180771Y-119076549D01*
X130180771Y-119076549D02*
X130133152Y-119171787D01*
X130133152Y-119171787D02*
X130133152Y-119362263D01*
X130133152Y-119362263D02*
X130180771Y-119457501D01*
X130180771Y-119457501D02*
X130276009Y-119505120D01*
X130276009Y-119505120D02*
X130371247Y-119505120D01*
X130371247Y-119505120D02*
X130466485Y-119028930D01*
X129799819Y-121124168D02*
X129799819Y-120933692D01*
X129799819Y-120933692D02*
X129847438Y-120838454D01*
X129847438Y-120838454D02*
X129895057Y-120790835D01*
X129895057Y-120790835D02*
X130037914Y-120695597D01*
X130037914Y-120695597D02*
X130228390Y-120647978D01*
X130228390Y-120647978D02*
X130609342Y-120647978D01*
X130609342Y-120647978D02*
X130704580Y-120695597D01*
X130704580Y-120695597D02*
X130752200Y-120743216D01*
X130752200Y-120743216D02*
X130799819Y-120838454D01*
X130799819Y-120838454D02*
X130799819Y-121028930D01*
X130799819Y-121028930D02*
X130752200Y-121124168D01*
X130752200Y-121124168D02*
X130704580Y-121171787D01*
X130704580Y-121171787D02*
X130609342Y-121219406D01*
X130609342Y-121219406D02*
X130371247Y-121219406D01*
X130371247Y-121219406D02*
X130276009Y-121171787D01*
X130276009Y-121171787D02*
X130228390Y-121124168D01*
X130228390Y-121124168D02*
X130180771Y-121028930D01*
X130180771Y-121028930D02*
X130180771Y-120838454D01*
X130180771Y-120838454D02*
X130228390Y-120743216D01*
X130228390Y-120743216D02*
X130276009Y-120695597D01*
X130276009Y-120695597D02*
X130371247Y-120647978D01*
X131743152Y-77124160D02*
X131743152Y-77838445D01*
X131314580Y-77409874D02*
X132600295Y-77124160D01*
X132171723Y-77743207D02*
X132171723Y-77028922D01*
X132600295Y-77457493D02*
X131314580Y-77743207D01*
X131409819Y-78076541D02*
X131409819Y-78695588D01*
X131409819Y-78695588D02*
X131790771Y-78362255D01*
X131790771Y-78362255D02*
X131790771Y-78505112D01*
X131790771Y-78505112D02*
X131838390Y-78600350D01*
X131838390Y-78600350D02*
X131886009Y-78647969D01*
X131886009Y-78647969D02*
X131981247Y-78695588D01*
X131981247Y-78695588D02*
X132219342Y-78695588D01*
X132219342Y-78695588D02*
X132314580Y-78647969D01*
X132314580Y-78647969D02*
X132362200Y-78600350D01*
X132362200Y-78600350D02*
X132409819Y-78505112D01*
X132409819Y-78505112D02*
X132409819Y-78219398D01*
X132409819Y-78219398D02*
X132362200Y-78124160D01*
X132362200Y-78124160D02*
X132314580Y-78076541D01*
X132409819Y-79886065D02*
X131409819Y-79886065D01*
X131409819Y-79886065D02*
X132409819Y-80457493D01*
X132409819Y-80457493D02*
X131409819Y-80457493D01*
X132409819Y-81409874D02*
X132409819Y-80933684D01*
X132409819Y-80933684D02*
X131409819Y-80933684D01*
X131409819Y-84219399D02*
X131409819Y-84314637D01*
X131409819Y-84314637D02*
X131457438Y-84409875D01*
X131457438Y-84409875D02*
X131505057Y-84457494D01*
X131505057Y-84457494D02*
X131600295Y-84505113D01*
X131600295Y-84505113D02*
X131790771Y-84552732D01*
X131790771Y-84552732D02*
X132028866Y-84552732D01*
X132028866Y-84552732D02*
X132219342Y-84505113D01*
X132219342Y-84505113D02*
X132314580Y-84457494D01*
X132314580Y-84457494D02*
X132362200Y-84409875D01*
X132362200Y-84409875D02*
X132409819Y-84314637D01*
X132409819Y-84314637D02*
X132409819Y-84219399D01*
X132409819Y-84219399D02*
X132362200Y-84124161D01*
X132362200Y-84124161D02*
X132314580Y-84076542D01*
X132314580Y-84076542D02*
X132219342Y-84028923D01*
X132219342Y-84028923D02*
X132028866Y-83981304D01*
X132028866Y-83981304D02*
X131790771Y-83981304D01*
X131790771Y-83981304D02*
X131600295Y-84028923D01*
X131600295Y-84028923D02*
X131505057Y-84076542D01*
X131505057Y-84076542D02*
X131457438Y-84124161D01*
X131457438Y-84124161D02*
X131409819Y-84219399D01*
X132409819Y-86505114D02*
X131409819Y-86505114D01*
X131409819Y-86505114D02*
X132409819Y-87076542D01*
X132409819Y-87076542D02*
X131409819Y-87076542D01*
X132409819Y-88028923D02*
X132409819Y-87552733D01*
X132409819Y-87552733D02*
X131409819Y-87552733D01*
X132409819Y-89886067D02*
X131409819Y-89886067D01*
X131409819Y-89886067D02*
X132409819Y-90457495D01*
X132409819Y-90457495D02*
X131409819Y-90457495D01*
X132409819Y-91409876D02*
X132409819Y-90933686D01*
X132409819Y-90933686D02*
X131409819Y-90933686D01*
X132409819Y-93267020D02*
X131409819Y-93267020D01*
X131409819Y-93267020D02*
X132409819Y-93838448D01*
X132409819Y-93838448D02*
X131409819Y-93838448D01*
X132409819Y-94790829D02*
X132409819Y-94314639D01*
X132409819Y-94314639D02*
X131409819Y-94314639D01*
X132409819Y-96647973D02*
X131409819Y-96647973D01*
X131409819Y-96647973D02*
X132409819Y-97219401D01*
X132409819Y-97219401D02*
X131409819Y-97219401D01*
X132409819Y-98171782D02*
X132409819Y-97695592D01*
X132409819Y-97695592D02*
X131409819Y-97695592D01*
X131409819Y-100981307D02*
X131409819Y-101076545D01*
X131409819Y-101076545D02*
X131457438Y-101171783D01*
X131457438Y-101171783D02*
X131505057Y-101219402D01*
X131505057Y-101219402D02*
X131600295Y-101267021D01*
X131600295Y-101267021D02*
X131790771Y-101314640D01*
X131790771Y-101314640D02*
X132028866Y-101314640D01*
X132028866Y-101314640D02*
X132219342Y-101267021D01*
X132219342Y-101267021D02*
X132314580Y-101219402D01*
X132314580Y-101219402D02*
X132362200Y-101171783D01*
X132362200Y-101171783D02*
X132409819Y-101076545D01*
X132409819Y-101076545D02*
X132409819Y-100981307D01*
X132409819Y-100981307D02*
X132362200Y-100886069D01*
X132362200Y-100886069D02*
X132314580Y-100838450D01*
X132314580Y-100838450D02*
X132219342Y-100790831D01*
X132219342Y-100790831D02*
X132028866Y-100743212D01*
X132028866Y-100743212D02*
X131790771Y-100743212D01*
X131790771Y-100743212D02*
X131600295Y-100790831D01*
X131600295Y-100790831D02*
X131505057Y-100838450D01*
X131505057Y-100838450D02*
X131457438Y-100886069D01*
X131457438Y-100886069D02*
X131409819Y-100981307D01*
X131409819Y-104219403D02*
X131409819Y-104314641D01*
X131409819Y-104314641D02*
X131457438Y-104409879D01*
X131457438Y-104409879D02*
X131505057Y-104457498D01*
X131505057Y-104457498D02*
X131600295Y-104505117D01*
X131600295Y-104505117D02*
X131790771Y-104552736D01*
X131790771Y-104552736D02*
X132028866Y-104552736D01*
X132028866Y-104552736D02*
X132219342Y-104505117D01*
X132219342Y-104505117D02*
X132314580Y-104457498D01*
X132314580Y-104457498D02*
X132362200Y-104409879D01*
X132362200Y-104409879D02*
X132409819Y-104314641D01*
X132409819Y-104314641D02*
X132409819Y-104219403D01*
X132409819Y-104219403D02*
X132362200Y-104124165D01*
X132362200Y-104124165D02*
X132314580Y-104076546D01*
X132314580Y-104076546D02*
X132219342Y-104028927D01*
X132219342Y-104028927D02*
X132028866Y-103981308D01*
X132028866Y-103981308D02*
X131790771Y-103981308D01*
X131790771Y-103981308D02*
X131600295Y-104028927D01*
X131600295Y-104028927D02*
X131505057Y-104076546D01*
X131505057Y-104076546D02*
X131457438Y-104124165D01*
X131457438Y-104124165D02*
X131409819Y-104219403D01*
X131409819Y-107457499D02*
X131409819Y-107552737D01*
X131409819Y-107552737D02*
X131457438Y-107647975D01*
X131457438Y-107647975D02*
X131505057Y-107695594D01*
X131505057Y-107695594D02*
X131600295Y-107743213D01*
X131600295Y-107743213D02*
X131790771Y-107790832D01*
X131790771Y-107790832D02*
X132028866Y-107790832D01*
X132028866Y-107790832D02*
X132219342Y-107743213D01*
X132219342Y-107743213D02*
X132314580Y-107695594D01*
X132314580Y-107695594D02*
X132362200Y-107647975D01*
X132362200Y-107647975D02*
X132409819Y-107552737D01*
X132409819Y-107552737D02*
X132409819Y-107457499D01*
X132409819Y-107457499D02*
X132362200Y-107362261D01*
X132362200Y-107362261D02*
X132314580Y-107314642D01*
X132314580Y-107314642D02*
X132219342Y-107267023D01*
X132219342Y-107267023D02*
X132028866Y-107219404D01*
X132028866Y-107219404D02*
X131790771Y-107219404D01*
X131790771Y-107219404D02*
X131600295Y-107267023D01*
X131600295Y-107267023D02*
X131505057Y-107314642D01*
X131505057Y-107314642D02*
X131457438Y-107362261D01*
X131457438Y-107362261D02*
X131409819Y-107457499D01*
X132362200Y-110457500D02*
X132409819Y-110600357D01*
X132409819Y-110600357D02*
X132409819Y-110838452D01*
X132409819Y-110838452D02*
X132362200Y-110933690D01*
X132362200Y-110933690D02*
X132314580Y-110981309D01*
X132314580Y-110981309D02*
X132219342Y-111028928D01*
X132219342Y-111028928D02*
X132124104Y-111028928D01*
X132124104Y-111028928D02*
X132028866Y-110981309D01*
X132028866Y-110981309D02*
X131981247Y-110933690D01*
X131981247Y-110933690D02*
X131933628Y-110838452D01*
X131933628Y-110838452D02*
X131886009Y-110647976D01*
X131886009Y-110647976D02*
X131838390Y-110552738D01*
X131838390Y-110552738D02*
X131790771Y-110505119D01*
X131790771Y-110505119D02*
X131695533Y-110457500D01*
X131695533Y-110457500D02*
X131600295Y-110457500D01*
X131600295Y-110457500D02*
X131505057Y-110505119D01*
X131505057Y-110505119D02*
X131457438Y-110552738D01*
X131457438Y-110552738D02*
X131409819Y-110647976D01*
X131409819Y-110647976D02*
X131409819Y-110886071D01*
X131409819Y-110886071D02*
X131457438Y-111028928D01*
X132362200Y-111838452D02*
X132409819Y-111743214D01*
X132409819Y-111743214D02*
X132409819Y-111552738D01*
X132409819Y-111552738D02*
X132362200Y-111457500D01*
X132362200Y-111457500D02*
X132266961Y-111409881D01*
X132266961Y-111409881D02*
X131886009Y-111409881D01*
X131886009Y-111409881D02*
X131790771Y-111457500D01*
X131790771Y-111457500D02*
X131743152Y-111552738D01*
X131743152Y-111552738D02*
X131743152Y-111743214D01*
X131743152Y-111743214D02*
X131790771Y-111838452D01*
X131790771Y-111838452D02*
X131886009Y-111886071D01*
X131886009Y-111886071D02*
X131981247Y-111886071D01*
X131981247Y-111886071D02*
X132076485Y-111409881D01*
X132409819Y-112314643D02*
X131743152Y-112314643D01*
X131933628Y-112314643D02*
X131838390Y-112362262D01*
X131838390Y-112362262D02*
X131790771Y-112409881D01*
X131790771Y-112409881D02*
X131743152Y-112505119D01*
X131743152Y-112505119D02*
X131743152Y-112600357D01*
X132409819Y-112933691D02*
X131743152Y-112933691D01*
X131409819Y-112933691D02*
X131457438Y-112886072D01*
X131457438Y-112886072D02*
X131505057Y-112933691D01*
X131505057Y-112933691D02*
X131457438Y-112981310D01*
X131457438Y-112981310D02*
X131409819Y-112933691D01*
X131409819Y-112933691D02*
X131505057Y-112933691D01*
X132409819Y-113838452D02*
X131886009Y-113838452D01*
X131886009Y-113838452D02*
X131790771Y-113790833D01*
X131790771Y-113790833D02*
X131743152Y-113695595D01*
X131743152Y-113695595D02*
X131743152Y-113505119D01*
X131743152Y-113505119D02*
X131790771Y-113409881D01*
X132362200Y-113838452D02*
X132409819Y-113743214D01*
X132409819Y-113743214D02*
X132409819Y-113505119D01*
X132409819Y-113505119D02*
X132362200Y-113409881D01*
X132362200Y-113409881D02*
X132266961Y-113362262D01*
X132266961Y-113362262D02*
X132171723Y-113362262D01*
X132171723Y-113362262D02*
X132076485Y-113409881D01*
X132076485Y-113409881D02*
X132028866Y-113505119D01*
X132028866Y-113505119D02*
X132028866Y-113743214D01*
X132028866Y-113743214D02*
X131981247Y-113838452D01*
X132409819Y-114457500D02*
X132362200Y-114362262D01*
X132362200Y-114362262D02*
X132266961Y-114314643D01*
X132266961Y-114314643D02*
X131409819Y-114314643D01*
X132409819Y-115600358D02*
X131409819Y-115600358D01*
X131743152Y-116076548D02*
X132409819Y-116076548D01*
X131838390Y-116076548D02*
X131790771Y-116124167D01*
X131790771Y-116124167D02*
X131743152Y-116219405D01*
X131743152Y-116219405D02*
X131743152Y-116362262D01*
X131743152Y-116362262D02*
X131790771Y-116457500D01*
X131790771Y-116457500D02*
X131886009Y-116505119D01*
X131886009Y-116505119D02*
X132409819Y-116505119D01*
X131743152Y-116838453D02*
X131743152Y-117219405D01*
X131409819Y-116981310D02*
X132266961Y-116981310D01*
X132266961Y-116981310D02*
X132362200Y-117028929D01*
X132362200Y-117028929D02*
X132409819Y-117124167D01*
X132409819Y-117124167D02*
X132409819Y-117219405D01*
X132362200Y-117933691D02*
X132409819Y-117838453D01*
X132409819Y-117838453D02*
X132409819Y-117647977D01*
X132409819Y-117647977D02*
X132362200Y-117552739D01*
X132362200Y-117552739D02*
X132266961Y-117505120D01*
X132266961Y-117505120D02*
X131886009Y-117505120D01*
X131886009Y-117505120D02*
X131790771Y-117552739D01*
X131790771Y-117552739D02*
X131743152Y-117647977D01*
X131743152Y-117647977D02*
X131743152Y-117838453D01*
X131743152Y-117838453D02*
X131790771Y-117933691D01*
X131790771Y-117933691D02*
X131886009Y-117981310D01*
X131886009Y-117981310D02*
X131981247Y-117981310D01*
X131981247Y-117981310D02*
X132076485Y-117505120D01*
X132409819Y-118409882D02*
X131743152Y-118409882D01*
X131933628Y-118409882D02*
X131838390Y-118457501D01*
X131838390Y-118457501D02*
X131790771Y-118505120D01*
X131790771Y-118505120D02*
X131743152Y-118600358D01*
X131743152Y-118600358D02*
X131743152Y-118695596D01*
X131743152Y-118886073D02*
X131743152Y-119267025D01*
X132409819Y-119028930D02*
X131552676Y-119028930D01*
X131552676Y-119028930D02*
X131457438Y-119076549D01*
X131457438Y-119076549D02*
X131409819Y-119171787D01*
X131409819Y-119171787D02*
X131409819Y-119267025D01*
X132409819Y-120028930D02*
X131886009Y-120028930D01*
X131886009Y-120028930D02*
X131790771Y-119981311D01*
X131790771Y-119981311D02*
X131743152Y-119886073D01*
X131743152Y-119886073D02*
X131743152Y-119695597D01*
X131743152Y-119695597D02*
X131790771Y-119600359D01*
X132362200Y-120028930D02*
X132409819Y-119933692D01*
X132409819Y-119933692D02*
X132409819Y-119695597D01*
X132409819Y-119695597D02*
X132362200Y-119600359D01*
X132362200Y-119600359D02*
X132266961Y-119552740D01*
X132266961Y-119552740D02*
X132171723Y-119552740D01*
X132171723Y-119552740D02*
X132076485Y-119600359D01*
X132076485Y-119600359D02*
X132028866Y-119695597D01*
X132028866Y-119695597D02*
X132028866Y-119933692D01*
X132028866Y-119933692D02*
X131981247Y-120028930D01*
X132362200Y-120933692D02*
X132409819Y-120838454D01*
X132409819Y-120838454D02*
X132409819Y-120647978D01*
X132409819Y-120647978D02*
X132362200Y-120552740D01*
X132362200Y-120552740D02*
X132314580Y-120505121D01*
X132314580Y-120505121D02*
X132219342Y-120457502D01*
X132219342Y-120457502D02*
X131933628Y-120457502D01*
X131933628Y-120457502D02*
X131838390Y-120505121D01*
X131838390Y-120505121D02*
X131790771Y-120552740D01*
X131790771Y-120552740D02*
X131743152Y-120647978D01*
X131743152Y-120647978D02*
X131743152Y-120838454D01*
X131743152Y-120838454D02*
X131790771Y-120933692D01*
X132362200Y-121743216D02*
X132409819Y-121647978D01*
X132409819Y-121647978D02*
X132409819Y-121457502D01*
X132409819Y-121457502D02*
X132362200Y-121362264D01*
X132362200Y-121362264D02*
X132266961Y-121314645D01*
X132266961Y-121314645D02*
X131886009Y-121314645D01*
X131886009Y-121314645D02*
X131790771Y-121362264D01*
X131790771Y-121362264D02*
X131743152Y-121457502D01*
X131743152Y-121457502D02*
X131743152Y-121647978D01*
X131743152Y-121647978D02*
X131790771Y-121743216D01*
X131790771Y-121743216D02*
X131886009Y-121790835D01*
X131886009Y-121790835D02*
X131981247Y-121790835D01*
X131981247Y-121790835D02*
X132076485Y-121314645D01*
M02*
