G04 #@! TF.GenerationSoftware,KiCad,Pcbnew,7.0.6*
G04 #@! TF.CreationDate,2023-07-20T11:09:59-06:00*
G04 #@! TF.ProjectId,L1IFStream,4c314946-5374-4726-9561-6d2e6b696361,A*
G04 #@! TF.SameCoordinates,Original*
G04 #@! TF.FileFunction,Other,Comment*
%FSLAX46Y46*%
G04 Gerber Fmt 4.6, Leading zero omitted, Abs format (unit mm)*
G04 Created by KiCad (PCBNEW 7.0.6) date 2023-07-20 11:09:59*
%MOMM*%
%LPD*%
G01*
G04 APERTURE LIST*
%ADD10C,0.150000*%
%ADD11C,0.002000*%
G04 APERTURE END LIST*
D10*
X196343557Y-95244479D02*
X196343499Y-94673050D01*
X196343528Y-94958764D02*
X197343528Y-94958664D01*
X197343528Y-94958664D02*
X197200661Y-94863441D01*
X197200661Y-94863441D02*
X197105414Y-94768212D01*
X197105414Y-94768212D02*
X197057785Y-94672979D01*
X196438838Y-95673041D02*
X196391223Y-95720665D01*
X196391223Y-95720665D02*
X196343599Y-95673050D01*
X196343599Y-95673050D02*
X196391214Y-95625426D01*
X196391214Y-95625426D02*
X196438838Y-95673041D01*
X196438838Y-95673041D02*
X196343599Y-95673050D01*
X196343652Y-96196859D02*
X196343671Y-96387335D01*
X196343671Y-96387335D02*
X196391299Y-96482569D01*
X196391299Y-96482569D02*
X196438923Y-96530183D01*
X196438923Y-96530183D02*
X196581790Y-96625407D01*
X196581790Y-96625407D02*
X196772271Y-96673007D01*
X196772271Y-96673007D02*
X197153223Y-96672969D01*
X197153223Y-96672969D02*
X197248457Y-96625340D01*
X197248457Y-96625340D02*
X197296071Y-96577716D01*
X197296071Y-96577716D02*
X197343680Y-96482474D01*
X197343680Y-96482474D02*
X197343661Y-96291997D01*
X197343661Y-96291997D02*
X197296033Y-96196764D01*
X197296033Y-96196764D02*
X197248409Y-96149150D01*
X197248409Y-96149150D02*
X197153166Y-96101540D01*
X197153166Y-96101540D02*
X196915071Y-96101564D01*
X196915071Y-96101564D02*
X196819838Y-96149193D01*
X196819838Y-96149193D02*
X196772223Y-96196816D01*
X196772223Y-96196816D02*
X196724614Y-96292059D01*
X196724614Y-96292059D02*
X196724633Y-96482535D01*
X196724633Y-96482535D02*
X196772261Y-96577769D01*
X196772261Y-96577769D02*
X196819885Y-96625383D01*
X196819885Y-96625383D02*
X196915128Y-96672993D01*
X196343747Y-97149240D02*
X196343766Y-97339716D01*
X196343766Y-97339716D02*
X196391395Y-97434950D01*
X196391395Y-97434950D02*
X196439018Y-97482564D01*
X196439018Y-97482564D02*
X196581885Y-97577788D01*
X196581885Y-97577788D02*
X196772366Y-97625388D01*
X196772366Y-97625388D02*
X197153318Y-97625350D01*
X197153318Y-97625350D02*
X197248552Y-97577721D01*
X197248552Y-97577721D02*
X197296166Y-97530097D01*
X197296166Y-97530097D02*
X197343776Y-97434855D01*
X197343776Y-97434855D02*
X197343757Y-97244378D01*
X197343757Y-97244378D02*
X197296128Y-97149145D01*
X197296128Y-97149145D02*
X197248504Y-97101531D01*
X197248504Y-97101531D02*
X197153261Y-97053921D01*
X197153261Y-97053921D02*
X196915166Y-97053945D01*
X196915166Y-97053945D02*
X196819933Y-97101574D01*
X196819933Y-97101574D02*
X196772318Y-97149197D01*
X196772318Y-97149197D02*
X196724709Y-97244440D01*
X196724709Y-97244440D02*
X196724728Y-97434916D01*
X196724728Y-97434916D02*
X196772357Y-97530150D01*
X196772357Y-97530150D02*
X196819980Y-97577764D01*
X196819980Y-97577764D02*
X196915223Y-97625374D01*
X196343842Y-98101621D02*
X196343861Y-98292097D01*
X196343861Y-98292097D02*
X196391490Y-98387331D01*
X196391490Y-98387331D02*
X196439114Y-98434945D01*
X196439114Y-98434945D02*
X196581980Y-98530169D01*
X196581980Y-98530169D02*
X196772461Y-98577769D01*
X196772461Y-98577769D02*
X197153414Y-98577731D01*
X197153414Y-98577731D02*
X197248647Y-98530102D01*
X197248647Y-98530102D02*
X197296261Y-98482478D01*
X197296261Y-98482478D02*
X197343871Y-98387236D01*
X197343871Y-98387236D02*
X197343852Y-98196759D01*
X197343852Y-98196759D02*
X197296223Y-98101526D01*
X197296223Y-98101526D02*
X197248599Y-98053912D01*
X197248599Y-98053912D02*
X197153357Y-98006302D01*
X197153357Y-98006302D02*
X196915261Y-98006326D01*
X196915261Y-98006326D02*
X196820028Y-98053955D01*
X196820028Y-98053955D02*
X196772414Y-98101578D01*
X196772414Y-98101578D02*
X196724804Y-98196821D01*
X196724804Y-98196821D02*
X196724823Y-98387297D01*
X196724823Y-98387297D02*
X196772452Y-98482531D01*
X196772452Y-98482531D02*
X196820076Y-98530145D01*
X196820076Y-98530145D02*
X196915319Y-98577755D01*
X196343938Y-99054002D02*
X196343957Y-99244478D01*
X196343957Y-99244478D02*
X196391585Y-99339712D01*
X196391585Y-99339712D02*
X196439209Y-99387326D01*
X196439209Y-99387326D02*
X196582076Y-99482550D01*
X196582076Y-99482550D02*
X196772557Y-99530150D01*
X196772557Y-99530150D02*
X197153509Y-99530112D01*
X197153509Y-99530112D02*
X197248742Y-99482483D01*
X197248742Y-99482483D02*
X197296357Y-99434859D01*
X197296357Y-99434859D02*
X197343966Y-99339617D01*
X197343966Y-99339617D02*
X197343947Y-99149140D01*
X197343947Y-99149140D02*
X197296319Y-99053907D01*
X197296319Y-99053907D02*
X197248695Y-99006293D01*
X197248695Y-99006293D02*
X197153452Y-98958683D01*
X197153452Y-98958683D02*
X196915357Y-98958707D01*
X196915357Y-98958707D02*
X196820123Y-99006336D01*
X196820123Y-99006336D02*
X196772509Y-99053959D01*
X196772509Y-99053959D02*
X196724899Y-99149202D01*
X196724899Y-99149202D02*
X196724919Y-99339678D01*
X196724919Y-99339678D02*
X196772547Y-99434912D01*
X196772547Y-99434912D02*
X196820171Y-99482526D01*
X196820171Y-99482526D02*
X196915414Y-99530136D01*
X196344104Y-100720669D02*
X197010771Y-100720603D01*
X197344104Y-100720569D02*
X197296480Y-100672955D01*
X197296480Y-100672955D02*
X197248866Y-100720579D01*
X197248866Y-100720579D02*
X197296490Y-100768193D01*
X197296490Y-100768193D02*
X197344104Y-100720569D01*
X197344104Y-100720569D02*
X197248866Y-100720579D01*
X197010819Y-101196793D02*
X196344152Y-101196859D01*
X196915580Y-101196802D02*
X196963204Y-101244416D01*
X196963204Y-101244416D02*
X197010833Y-101339650D01*
X197010833Y-101339650D02*
X197010847Y-101482507D01*
X197010847Y-101482507D02*
X196963238Y-101577750D01*
X196963238Y-101577750D02*
X196868004Y-101625378D01*
X196868004Y-101625378D02*
X196344195Y-101625431D01*
X178747420Y-123573540D02*
X196237629Y-123571791D01*
X178742340Y-72776080D02*
X196232549Y-72774331D01*
X195651209Y-123571850D02*
X195646129Y-72774390D01*
X195651209Y-123571850D02*
X195646129Y-72774390D01*
X195651209Y-123571850D02*
X195064676Y-122445405D01*
X195651209Y-123571850D02*
X196237517Y-122445288D01*
X195646129Y-72774390D02*
X196232662Y-73900835D01*
X195646129Y-72774390D02*
X195059821Y-73900952D01*
D11*
X108657166Y-79294553D02*
X108651118Y-79300601D01*
X108651118Y-79300601D02*
X108632976Y-79306648D01*
X108632976Y-79306648D02*
X108620880Y-79306648D01*
X108620880Y-79306648D02*
X108602737Y-79300601D01*
X108602737Y-79300601D02*
X108590642Y-79288505D01*
X108590642Y-79288505D02*
X108584595Y-79276410D01*
X108584595Y-79276410D02*
X108578547Y-79252220D01*
X108578547Y-79252220D02*
X108578547Y-79234077D01*
X108578547Y-79234077D02*
X108584595Y-79209886D01*
X108584595Y-79209886D02*
X108590642Y-79197791D01*
X108590642Y-79197791D02*
X108602737Y-79185696D01*
X108602737Y-79185696D02*
X108620880Y-79179648D01*
X108620880Y-79179648D02*
X108632976Y-79179648D01*
X108632976Y-79179648D02*
X108651118Y-79185696D01*
X108651118Y-79185696D02*
X108657166Y-79191743D01*
X108729737Y-79306648D02*
X108717642Y-79300601D01*
X108717642Y-79300601D02*
X108711595Y-79294553D01*
X108711595Y-79294553D02*
X108705547Y-79282458D01*
X108705547Y-79282458D02*
X108705547Y-79246172D01*
X108705547Y-79246172D02*
X108711595Y-79234077D01*
X108711595Y-79234077D02*
X108717642Y-79228029D01*
X108717642Y-79228029D02*
X108729737Y-79221981D01*
X108729737Y-79221981D02*
X108747880Y-79221981D01*
X108747880Y-79221981D02*
X108759976Y-79228029D01*
X108759976Y-79228029D02*
X108766023Y-79234077D01*
X108766023Y-79234077D02*
X108772071Y-79246172D01*
X108772071Y-79246172D02*
X108772071Y-79282458D01*
X108772071Y-79282458D02*
X108766023Y-79294553D01*
X108766023Y-79294553D02*
X108759976Y-79300601D01*
X108759976Y-79300601D02*
X108747880Y-79306648D01*
X108747880Y-79306648D02*
X108729737Y-79306648D01*
X108826500Y-79221981D02*
X108826500Y-79348981D01*
X108826500Y-79228029D02*
X108838595Y-79221981D01*
X108838595Y-79221981D02*
X108862785Y-79221981D01*
X108862785Y-79221981D02*
X108874881Y-79228029D01*
X108874881Y-79228029D02*
X108880928Y-79234077D01*
X108880928Y-79234077D02*
X108886976Y-79246172D01*
X108886976Y-79246172D02*
X108886976Y-79282458D01*
X108886976Y-79282458D02*
X108880928Y-79294553D01*
X108880928Y-79294553D02*
X108874881Y-79300601D01*
X108874881Y-79300601D02*
X108862785Y-79306648D01*
X108862785Y-79306648D02*
X108838595Y-79306648D01*
X108838595Y-79306648D02*
X108826500Y-79300601D01*
X108929309Y-79221981D02*
X108959547Y-79306648D01*
X108989786Y-79221981D02*
X108959547Y-79306648D01*
X108959547Y-79306648D02*
X108947452Y-79336886D01*
X108947452Y-79336886D02*
X108941405Y-79342934D01*
X108941405Y-79342934D02*
X108929309Y-79348981D01*
X109038167Y-79306648D02*
X109038167Y-79221981D01*
X109038167Y-79246172D02*
X109044214Y-79234077D01*
X109044214Y-79234077D02*
X109050262Y-79228029D01*
X109050262Y-79228029D02*
X109062357Y-79221981D01*
X109062357Y-79221981D02*
X109074452Y-79221981D01*
X109116786Y-79306648D02*
X109116786Y-79221981D01*
X109116786Y-79179648D02*
X109110738Y-79185696D01*
X109110738Y-79185696D02*
X109116786Y-79191743D01*
X109116786Y-79191743D02*
X109122833Y-79185696D01*
X109122833Y-79185696D02*
X109116786Y-79179648D01*
X109116786Y-79179648D02*
X109116786Y-79191743D01*
X109231690Y-79221981D02*
X109231690Y-79324791D01*
X109231690Y-79324791D02*
X109225643Y-79336886D01*
X109225643Y-79336886D02*
X109219595Y-79342934D01*
X109219595Y-79342934D02*
X109207500Y-79348981D01*
X109207500Y-79348981D02*
X109189357Y-79348981D01*
X109189357Y-79348981D02*
X109177262Y-79342934D01*
X109231690Y-79300601D02*
X109219595Y-79306648D01*
X109219595Y-79306648D02*
X109195404Y-79306648D01*
X109195404Y-79306648D02*
X109183309Y-79300601D01*
X109183309Y-79300601D02*
X109177262Y-79294553D01*
X109177262Y-79294553D02*
X109171214Y-79282458D01*
X109171214Y-79282458D02*
X109171214Y-79246172D01*
X109171214Y-79246172D02*
X109177262Y-79234077D01*
X109177262Y-79234077D02*
X109183309Y-79228029D01*
X109183309Y-79228029D02*
X109195404Y-79221981D01*
X109195404Y-79221981D02*
X109219595Y-79221981D01*
X109219595Y-79221981D02*
X109231690Y-79228029D01*
X109292167Y-79306648D02*
X109292167Y-79179648D01*
X109346595Y-79306648D02*
X109346595Y-79240124D01*
X109346595Y-79240124D02*
X109340548Y-79228029D01*
X109340548Y-79228029D02*
X109328452Y-79221981D01*
X109328452Y-79221981D02*
X109310309Y-79221981D01*
X109310309Y-79221981D02*
X109298214Y-79228029D01*
X109298214Y-79228029D02*
X109292167Y-79234077D01*
X109388929Y-79221981D02*
X109437310Y-79221981D01*
X109407072Y-79179648D02*
X109407072Y-79288505D01*
X109407072Y-79288505D02*
X109413119Y-79300601D01*
X109413119Y-79300601D02*
X109425214Y-79306648D01*
X109425214Y-79306648D02*
X109437310Y-79306648D01*
X109570357Y-79191743D02*
X109576405Y-79185696D01*
X109576405Y-79185696D02*
X109588500Y-79179648D01*
X109588500Y-79179648D02*
X109618738Y-79179648D01*
X109618738Y-79179648D02*
X109630833Y-79185696D01*
X109630833Y-79185696D02*
X109636881Y-79191743D01*
X109636881Y-79191743D02*
X109642928Y-79203839D01*
X109642928Y-79203839D02*
X109642928Y-79215934D01*
X109642928Y-79215934D02*
X109636881Y-79234077D01*
X109636881Y-79234077D02*
X109564309Y-79306648D01*
X109564309Y-79306648D02*
X109642928Y-79306648D01*
X109721547Y-79179648D02*
X109733642Y-79179648D01*
X109733642Y-79179648D02*
X109745738Y-79185696D01*
X109745738Y-79185696D02*
X109751785Y-79191743D01*
X109751785Y-79191743D02*
X109757833Y-79203839D01*
X109757833Y-79203839D02*
X109763880Y-79228029D01*
X109763880Y-79228029D02*
X109763880Y-79258267D01*
X109763880Y-79258267D02*
X109757833Y-79282458D01*
X109757833Y-79282458D02*
X109751785Y-79294553D01*
X109751785Y-79294553D02*
X109745738Y-79300601D01*
X109745738Y-79300601D02*
X109733642Y-79306648D01*
X109733642Y-79306648D02*
X109721547Y-79306648D01*
X109721547Y-79306648D02*
X109709452Y-79300601D01*
X109709452Y-79300601D02*
X109703404Y-79294553D01*
X109703404Y-79294553D02*
X109697357Y-79282458D01*
X109697357Y-79282458D02*
X109691309Y-79258267D01*
X109691309Y-79258267D02*
X109691309Y-79228029D01*
X109691309Y-79228029D02*
X109697357Y-79203839D01*
X109697357Y-79203839D02*
X109703404Y-79191743D01*
X109703404Y-79191743D02*
X109709452Y-79185696D01*
X109709452Y-79185696D02*
X109721547Y-79179648D01*
X109884832Y-79306648D02*
X109812261Y-79306648D01*
X109848547Y-79306648D02*
X109848547Y-79179648D01*
X109848547Y-79179648D02*
X109836451Y-79197791D01*
X109836451Y-79197791D02*
X109824356Y-79209886D01*
X109824356Y-79209886D02*
X109812261Y-79215934D01*
X109993689Y-79179648D02*
X109969499Y-79179648D01*
X109969499Y-79179648D02*
X109957403Y-79185696D01*
X109957403Y-79185696D02*
X109951356Y-79191743D01*
X109951356Y-79191743D02*
X109939261Y-79209886D01*
X109939261Y-79209886D02*
X109933213Y-79234077D01*
X109933213Y-79234077D02*
X109933213Y-79282458D01*
X109933213Y-79282458D02*
X109939261Y-79294553D01*
X109939261Y-79294553D02*
X109945308Y-79300601D01*
X109945308Y-79300601D02*
X109957403Y-79306648D01*
X109957403Y-79306648D02*
X109981594Y-79306648D01*
X109981594Y-79306648D02*
X109993689Y-79300601D01*
X109993689Y-79300601D02*
X109999737Y-79294553D01*
X109999737Y-79294553D02*
X110005784Y-79282458D01*
X110005784Y-79282458D02*
X110005784Y-79252220D01*
X110005784Y-79252220D02*
X109999737Y-79240124D01*
X109999737Y-79240124D02*
X109993689Y-79234077D01*
X109993689Y-79234077D02*
X109981594Y-79228029D01*
X109981594Y-79228029D02*
X109957403Y-79228029D01*
X109957403Y-79228029D02*
X109945308Y-79234077D01*
X109945308Y-79234077D02*
X109939261Y-79240124D01*
X109939261Y-79240124D02*
X109933213Y-79252220D01*
X110150927Y-79270362D02*
X110211403Y-79270362D01*
X110138832Y-79306648D02*
X110181165Y-79179648D01*
X110181165Y-79179648D02*
X110223498Y-79306648D01*
X110320260Y-79300601D02*
X110308165Y-79306648D01*
X110308165Y-79306648D02*
X110283974Y-79306648D01*
X110283974Y-79306648D02*
X110271879Y-79300601D01*
X110271879Y-79300601D02*
X110265832Y-79294553D01*
X110265832Y-79294553D02*
X110259784Y-79282458D01*
X110259784Y-79282458D02*
X110259784Y-79246172D01*
X110259784Y-79246172D02*
X110265832Y-79234077D01*
X110265832Y-79234077D02*
X110271879Y-79228029D01*
X110271879Y-79228029D02*
X110283974Y-79221981D01*
X110283974Y-79221981D02*
X110308165Y-79221981D01*
X110308165Y-79221981D02*
X110320260Y-79228029D01*
X110429117Y-79300601D02*
X110417022Y-79306648D01*
X110417022Y-79306648D02*
X110392831Y-79306648D01*
X110392831Y-79306648D02*
X110380736Y-79300601D01*
X110380736Y-79300601D02*
X110374689Y-79294553D01*
X110374689Y-79294553D02*
X110368641Y-79282458D01*
X110368641Y-79282458D02*
X110368641Y-79246172D01*
X110368641Y-79246172D02*
X110374689Y-79234077D01*
X110374689Y-79234077D02*
X110380736Y-79228029D01*
X110380736Y-79228029D02*
X110392831Y-79221981D01*
X110392831Y-79221981D02*
X110417022Y-79221981D01*
X110417022Y-79221981D02*
X110429117Y-79228029D01*
X110531927Y-79300601D02*
X110519831Y-79306648D01*
X110519831Y-79306648D02*
X110495641Y-79306648D01*
X110495641Y-79306648D02*
X110483546Y-79300601D01*
X110483546Y-79300601D02*
X110477498Y-79288505D01*
X110477498Y-79288505D02*
X110477498Y-79240124D01*
X110477498Y-79240124D02*
X110483546Y-79228029D01*
X110483546Y-79228029D02*
X110495641Y-79221981D01*
X110495641Y-79221981D02*
X110519831Y-79221981D01*
X110519831Y-79221981D02*
X110531927Y-79228029D01*
X110531927Y-79228029D02*
X110537974Y-79240124D01*
X110537974Y-79240124D02*
X110537974Y-79252220D01*
X110537974Y-79252220D02*
X110477498Y-79264315D01*
X110610545Y-79306648D02*
X110598450Y-79300601D01*
X110598450Y-79300601D02*
X110592403Y-79288505D01*
X110592403Y-79288505D02*
X110592403Y-79179648D01*
X110707308Y-79300601D02*
X110695212Y-79306648D01*
X110695212Y-79306648D02*
X110671022Y-79306648D01*
X110671022Y-79306648D02*
X110658927Y-79300601D01*
X110658927Y-79300601D02*
X110652879Y-79288505D01*
X110652879Y-79288505D02*
X110652879Y-79240124D01*
X110652879Y-79240124D02*
X110658927Y-79228029D01*
X110658927Y-79228029D02*
X110671022Y-79221981D01*
X110671022Y-79221981D02*
X110695212Y-79221981D01*
X110695212Y-79221981D02*
X110707308Y-79228029D01*
X110707308Y-79228029D02*
X110713355Y-79240124D01*
X110713355Y-79240124D02*
X110713355Y-79252220D01*
X110713355Y-79252220D02*
X110652879Y-79264315D01*
X110767784Y-79306648D02*
X110767784Y-79221981D01*
X110767784Y-79246172D02*
X110773831Y-79234077D01*
X110773831Y-79234077D02*
X110779879Y-79228029D01*
X110779879Y-79228029D02*
X110791974Y-79221981D01*
X110791974Y-79221981D02*
X110804069Y-79221981D01*
X110900831Y-79306648D02*
X110900831Y-79240124D01*
X110900831Y-79240124D02*
X110894784Y-79228029D01*
X110894784Y-79228029D02*
X110882688Y-79221981D01*
X110882688Y-79221981D02*
X110858498Y-79221981D01*
X110858498Y-79221981D02*
X110846403Y-79228029D01*
X110900831Y-79300601D02*
X110888736Y-79306648D01*
X110888736Y-79306648D02*
X110858498Y-79306648D01*
X110858498Y-79306648D02*
X110846403Y-79300601D01*
X110846403Y-79300601D02*
X110840355Y-79288505D01*
X110840355Y-79288505D02*
X110840355Y-79276410D01*
X110840355Y-79276410D02*
X110846403Y-79264315D01*
X110846403Y-79264315D02*
X110858498Y-79258267D01*
X110858498Y-79258267D02*
X110888736Y-79258267D01*
X110888736Y-79258267D02*
X110900831Y-79252220D01*
X110943165Y-79221981D02*
X110991546Y-79221981D01*
X110961308Y-79179648D02*
X110961308Y-79288505D01*
X110961308Y-79288505D02*
X110967355Y-79300601D01*
X110967355Y-79300601D02*
X110979450Y-79306648D01*
X110979450Y-79306648D02*
X110991546Y-79306648D01*
X111082260Y-79300601D02*
X111070164Y-79306648D01*
X111070164Y-79306648D02*
X111045974Y-79306648D01*
X111045974Y-79306648D02*
X111033879Y-79300601D01*
X111033879Y-79300601D02*
X111027831Y-79288505D01*
X111027831Y-79288505D02*
X111027831Y-79240124D01*
X111027831Y-79240124D02*
X111033879Y-79228029D01*
X111033879Y-79228029D02*
X111045974Y-79221981D01*
X111045974Y-79221981D02*
X111070164Y-79221981D01*
X111070164Y-79221981D02*
X111082260Y-79228029D01*
X111082260Y-79228029D02*
X111088307Y-79240124D01*
X111088307Y-79240124D02*
X111088307Y-79252220D01*
X111088307Y-79252220D02*
X111027831Y-79264315D01*
X111197164Y-79306648D02*
X111197164Y-79179648D01*
X111197164Y-79300601D02*
X111185069Y-79306648D01*
X111185069Y-79306648D02*
X111160878Y-79306648D01*
X111160878Y-79306648D02*
X111148783Y-79300601D01*
X111148783Y-79300601D02*
X111142736Y-79294553D01*
X111142736Y-79294553D02*
X111136688Y-79282458D01*
X111136688Y-79282458D02*
X111136688Y-79246172D01*
X111136688Y-79246172D02*
X111142736Y-79234077D01*
X111142736Y-79234077D02*
X111148783Y-79228029D01*
X111148783Y-79228029D02*
X111160878Y-79221981D01*
X111160878Y-79221981D02*
X111185069Y-79221981D01*
X111185069Y-79221981D02*
X111197164Y-79228029D01*
X111354403Y-79306648D02*
X111354403Y-79179648D01*
X111354403Y-79179648D02*
X111384641Y-79179648D01*
X111384641Y-79179648D02*
X111402784Y-79185696D01*
X111402784Y-79185696D02*
X111414879Y-79197791D01*
X111414879Y-79197791D02*
X111420926Y-79209886D01*
X111420926Y-79209886D02*
X111426974Y-79234077D01*
X111426974Y-79234077D02*
X111426974Y-79252220D01*
X111426974Y-79252220D02*
X111420926Y-79276410D01*
X111420926Y-79276410D02*
X111414879Y-79288505D01*
X111414879Y-79288505D02*
X111402784Y-79300601D01*
X111402784Y-79300601D02*
X111384641Y-79306648D01*
X111384641Y-79306648D02*
X111354403Y-79306648D01*
X111529784Y-79300601D02*
X111517688Y-79306648D01*
X111517688Y-79306648D02*
X111493498Y-79306648D01*
X111493498Y-79306648D02*
X111481403Y-79300601D01*
X111481403Y-79300601D02*
X111475355Y-79288505D01*
X111475355Y-79288505D02*
X111475355Y-79240124D01*
X111475355Y-79240124D02*
X111481403Y-79228029D01*
X111481403Y-79228029D02*
X111493498Y-79221981D01*
X111493498Y-79221981D02*
X111517688Y-79221981D01*
X111517688Y-79221981D02*
X111529784Y-79228029D01*
X111529784Y-79228029D02*
X111535831Y-79240124D01*
X111535831Y-79240124D02*
X111535831Y-79252220D01*
X111535831Y-79252220D02*
X111475355Y-79264315D01*
X111584212Y-79300601D02*
X111596307Y-79306648D01*
X111596307Y-79306648D02*
X111620498Y-79306648D01*
X111620498Y-79306648D02*
X111632593Y-79300601D01*
X111632593Y-79300601D02*
X111638641Y-79288505D01*
X111638641Y-79288505D02*
X111638641Y-79282458D01*
X111638641Y-79282458D02*
X111632593Y-79270362D01*
X111632593Y-79270362D02*
X111620498Y-79264315D01*
X111620498Y-79264315D02*
X111602355Y-79264315D01*
X111602355Y-79264315D02*
X111590260Y-79258267D01*
X111590260Y-79258267D02*
X111584212Y-79246172D01*
X111584212Y-79246172D02*
X111584212Y-79240124D01*
X111584212Y-79240124D02*
X111590260Y-79228029D01*
X111590260Y-79228029D02*
X111602355Y-79221981D01*
X111602355Y-79221981D02*
X111620498Y-79221981D01*
X111620498Y-79221981D02*
X111632593Y-79228029D01*
X111693070Y-79306648D02*
X111693070Y-79221981D01*
X111693070Y-79179648D02*
X111687022Y-79185696D01*
X111687022Y-79185696D02*
X111693070Y-79191743D01*
X111693070Y-79191743D02*
X111699117Y-79185696D01*
X111699117Y-79185696D02*
X111693070Y-79179648D01*
X111693070Y-79179648D02*
X111693070Y-79191743D01*
X111807974Y-79221981D02*
X111807974Y-79324791D01*
X111807974Y-79324791D02*
X111801927Y-79336886D01*
X111801927Y-79336886D02*
X111795879Y-79342934D01*
X111795879Y-79342934D02*
X111783784Y-79348981D01*
X111783784Y-79348981D02*
X111765641Y-79348981D01*
X111765641Y-79348981D02*
X111753546Y-79342934D01*
X111807974Y-79300601D02*
X111795879Y-79306648D01*
X111795879Y-79306648D02*
X111771688Y-79306648D01*
X111771688Y-79306648D02*
X111759593Y-79300601D01*
X111759593Y-79300601D02*
X111753546Y-79294553D01*
X111753546Y-79294553D02*
X111747498Y-79282458D01*
X111747498Y-79282458D02*
X111747498Y-79246172D01*
X111747498Y-79246172D02*
X111753546Y-79234077D01*
X111753546Y-79234077D02*
X111759593Y-79228029D01*
X111759593Y-79228029D02*
X111771688Y-79221981D01*
X111771688Y-79221981D02*
X111795879Y-79221981D01*
X111795879Y-79221981D02*
X111807974Y-79228029D01*
X111868451Y-79221981D02*
X111868451Y-79306648D01*
X111868451Y-79234077D02*
X111874498Y-79228029D01*
X111874498Y-79228029D02*
X111886593Y-79221981D01*
X111886593Y-79221981D02*
X111904736Y-79221981D01*
X111904736Y-79221981D02*
X111916832Y-79228029D01*
X111916832Y-79228029D02*
X111922879Y-79240124D01*
X111922879Y-79240124D02*
X111922879Y-79306648D01*
X111977308Y-79300601D02*
X111989403Y-79306648D01*
X111989403Y-79306648D02*
X112013594Y-79306648D01*
X112013594Y-79306648D02*
X112025689Y-79300601D01*
X112025689Y-79300601D02*
X112031737Y-79288505D01*
X112031737Y-79288505D02*
X112031737Y-79282458D01*
X112031737Y-79282458D02*
X112025689Y-79270362D01*
X112025689Y-79270362D02*
X112013594Y-79264315D01*
X112013594Y-79264315D02*
X111995451Y-79264315D01*
X111995451Y-79264315D02*
X111983356Y-79258267D01*
X111983356Y-79258267D02*
X111977308Y-79246172D01*
X111977308Y-79246172D02*
X111977308Y-79240124D01*
X111977308Y-79240124D02*
X111983356Y-79228029D01*
X111983356Y-79228029D02*
X111995451Y-79221981D01*
X111995451Y-79221981D02*
X112013594Y-79221981D01*
X112013594Y-79221981D02*
X112025689Y-79228029D01*
X112086166Y-79294553D02*
X112092213Y-79300601D01*
X112092213Y-79300601D02*
X112086166Y-79306648D01*
X112086166Y-79306648D02*
X112080118Y-79300601D01*
X112080118Y-79300601D02*
X112086166Y-79294553D01*
X112086166Y-79294553D02*
X112086166Y-79306648D01*
X112237356Y-79270362D02*
X112297832Y-79270362D01*
X112225261Y-79306648D02*
X112267594Y-79179648D01*
X112267594Y-79179648D02*
X112309927Y-79306648D01*
X112370403Y-79306648D02*
X112358308Y-79300601D01*
X112358308Y-79300601D02*
X112352261Y-79288505D01*
X112352261Y-79288505D02*
X112352261Y-79179648D01*
X112436927Y-79306648D02*
X112424832Y-79300601D01*
X112424832Y-79300601D02*
X112418785Y-79288505D01*
X112418785Y-79288505D02*
X112418785Y-79179648D01*
X112582071Y-79306648D02*
X112582071Y-79221981D01*
X112582071Y-79246172D02*
X112588118Y-79234077D01*
X112588118Y-79234077D02*
X112594166Y-79228029D01*
X112594166Y-79228029D02*
X112606261Y-79221981D01*
X112606261Y-79221981D02*
X112618356Y-79221981D01*
X112660690Y-79306648D02*
X112660690Y-79221981D01*
X112660690Y-79179648D02*
X112654642Y-79185696D01*
X112654642Y-79185696D02*
X112660690Y-79191743D01*
X112660690Y-79191743D02*
X112666737Y-79185696D01*
X112666737Y-79185696D02*
X112660690Y-79179648D01*
X112660690Y-79179648D02*
X112660690Y-79191743D01*
X112775594Y-79221981D02*
X112775594Y-79324791D01*
X112775594Y-79324791D02*
X112769547Y-79336886D01*
X112769547Y-79336886D02*
X112763499Y-79342934D01*
X112763499Y-79342934D02*
X112751404Y-79348981D01*
X112751404Y-79348981D02*
X112733261Y-79348981D01*
X112733261Y-79348981D02*
X112721166Y-79342934D01*
X112775594Y-79300601D02*
X112763499Y-79306648D01*
X112763499Y-79306648D02*
X112739308Y-79306648D01*
X112739308Y-79306648D02*
X112727213Y-79300601D01*
X112727213Y-79300601D02*
X112721166Y-79294553D01*
X112721166Y-79294553D02*
X112715118Y-79282458D01*
X112715118Y-79282458D02*
X112715118Y-79246172D01*
X112715118Y-79246172D02*
X112721166Y-79234077D01*
X112721166Y-79234077D02*
X112727213Y-79228029D01*
X112727213Y-79228029D02*
X112739308Y-79221981D01*
X112739308Y-79221981D02*
X112763499Y-79221981D01*
X112763499Y-79221981D02*
X112775594Y-79228029D01*
X112836071Y-79306648D02*
X112836071Y-79179648D01*
X112890499Y-79306648D02*
X112890499Y-79240124D01*
X112890499Y-79240124D02*
X112884452Y-79228029D01*
X112884452Y-79228029D02*
X112872356Y-79221981D01*
X112872356Y-79221981D02*
X112854213Y-79221981D01*
X112854213Y-79221981D02*
X112842118Y-79228029D01*
X112842118Y-79228029D02*
X112836071Y-79234077D01*
X112932833Y-79221981D02*
X112981214Y-79221981D01*
X112950976Y-79179648D02*
X112950976Y-79288505D01*
X112950976Y-79288505D02*
X112957023Y-79300601D01*
X112957023Y-79300601D02*
X112969118Y-79306648D01*
X112969118Y-79306648D02*
X112981214Y-79306648D01*
X113017499Y-79300601D02*
X113029594Y-79306648D01*
X113029594Y-79306648D02*
X113053785Y-79306648D01*
X113053785Y-79306648D02*
X113065880Y-79300601D01*
X113065880Y-79300601D02*
X113071928Y-79288505D01*
X113071928Y-79288505D02*
X113071928Y-79282458D01*
X113071928Y-79282458D02*
X113065880Y-79270362D01*
X113065880Y-79270362D02*
X113053785Y-79264315D01*
X113053785Y-79264315D02*
X113035642Y-79264315D01*
X113035642Y-79264315D02*
X113023547Y-79258267D01*
X113023547Y-79258267D02*
X113017499Y-79246172D01*
X113017499Y-79246172D02*
X113017499Y-79240124D01*
X113017499Y-79240124D02*
X113023547Y-79228029D01*
X113023547Y-79228029D02*
X113035642Y-79221981D01*
X113035642Y-79221981D02*
X113053785Y-79221981D01*
X113053785Y-79221981D02*
X113065880Y-79228029D01*
X113223119Y-79306648D02*
X113223119Y-79221981D01*
X113223119Y-79246172D02*
X113229166Y-79234077D01*
X113229166Y-79234077D02*
X113235214Y-79228029D01*
X113235214Y-79228029D02*
X113247309Y-79221981D01*
X113247309Y-79221981D02*
X113259404Y-79221981D01*
X113350119Y-79300601D02*
X113338023Y-79306648D01*
X113338023Y-79306648D02*
X113313833Y-79306648D01*
X113313833Y-79306648D02*
X113301738Y-79300601D01*
X113301738Y-79300601D02*
X113295690Y-79288505D01*
X113295690Y-79288505D02*
X113295690Y-79240124D01*
X113295690Y-79240124D02*
X113301738Y-79228029D01*
X113301738Y-79228029D02*
X113313833Y-79221981D01*
X113313833Y-79221981D02*
X113338023Y-79221981D01*
X113338023Y-79221981D02*
X113350119Y-79228029D01*
X113350119Y-79228029D02*
X113356166Y-79240124D01*
X113356166Y-79240124D02*
X113356166Y-79252220D01*
X113356166Y-79252220D02*
X113295690Y-79264315D01*
X113404547Y-79300601D02*
X113416642Y-79306648D01*
X113416642Y-79306648D02*
X113440833Y-79306648D01*
X113440833Y-79306648D02*
X113452928Y-79300601D01*
X113452928Y-79300601D02*
X113458976Y-79288505D01*
X113458976Y-79288505D02*
X113458976Y-79282458D01*
X113458976Y-79282458D02*
X113452928Y-79270362D01*
X113452928Y-79270362D02*
X113440833Y-79264315D01*
X113440833Y-79264315D02*
X113422690Y-79264315D01*
X113422690Y-79264315D02*
X113410595Y-79258267D01*
X113410595Y-79258267D02*
X113404547Y-79246172D01*
X113404547Y-79246172D02*
X113404547Y-79240124D01*
X113404547Y-79240124D02*
X113410595Y-79228029D01*
X113410595Y-79228029D02*
X113422690Y-79221981D01*
X113422690Y-79221981D02*
X113440833Y-79221981D01*
X113440833Y-79221981D02*
X113452928Y-79228029D01*
X113561786Y-79300601D02*
X113549690Y-79306648D01*
X113549690Y-79306648D02*
X113525500Y-79306648D01*
X113525500Y-79306648D02*
X113513405Y-79300601D01*
X113513405Y-79300601D02*
X113507357Y-79288505D01*
X113507357Y-79288505D02*
X113507357Y-79240124D01*
X113507357Y-79240124D02*
X113513405Y-79228029D01*
X113513405Y-79228029D02*
X113525500Y-79221981D01*
X113525500Y-79221981D02*
X113549690Y-79221981D01*
X113549690Y-79221981D02*
X113561786Y-79228029D01*
X113561786Y-79228029D02*
X113567833Y-79240124D01*
X113567833Y-79240124D02*
X113567833Y-79252220D01*
X113567833Y-79252220D02*
X113507357Y-79264315D01*
X113622262Y-79306648D02*
X113622262Y-79221981D01*
X113622262Y-79246172D02*
X113628309Y-79234077D01*
X113628309Y-79234077D02*
X113634357Y-79228029D01*
X113634357Y-79228029D02*
X113646452Y-79221981D01*
X113646452Y-79221981D02*
X113658547Y-79221981D01*
X113688785Y-79221981D02*
X113719023Y-79306648D01*
X113719023Y-79306648D02*
X113749262Y-79221981D01*
X113846024Y-79300601D02*
X113833928Y-79306648D01*
X113833928Y-79306648D02*
X113809738Y-79306648D01*
X113809738Y-79306648D02*
X113797643Y-79300601D01*
X113797643Y-79300601D02*
X113791595Y-79288505D01*
X113791595Y-79288505D02*
X113791595Y-79240124D01*
X113791595Y-79240124D02*
X113797643Y-79228029D01*
X113797643Y-79228029D02*
X113809738Y-79221981D01*
X113809738Y-79221981D02*
X113833928Y-79221981D01*
X113833928Y-79221981D02*
X113846024Y-79228029D01*
X113846024Y-79228029D02*
X113852071Y-79240124D01*
X113852071Y-79240124D02*
X113852071Y-79252220D01*
X113852071Y-79252220D02*
X113791595Y-79264315D01*
X113960928Y-79306648D02*
X113960928Y-79179648D01*
X113960928Y-79300601D02*
X113948833Y-79306648D01*
X113948833Y-79306648D02*
X113924642Y-79306648D01*
X113924642Y-79306648D02*
X113912547Y-79300601D01*
X113912547Y-79300601D02*
X113906500Y-79294553D01*
X113906500Y-79294553D02*
X113900452Y-79282458D01*
X113900452Y-79282458D02*
X113900452Y-79246172D01*
X113900452Y-79246172D02*
X113906500Y-79234077D01*
X113906500Y-79234077D02*
X113912547Y-79228029D01*
X113912547Y-79228029D02*
X113924642Y-79221981D01*
X113924642Y-79221981D02*
X113948833Y-79221981D01*
X113948833Y-79221981D02*
X113960928Y-79228029D01*
X114021405Y-79294553D02*
X114027452Y-79300601D01*
X114027452Y-79300601D02*
X114021405Y-79306648D01*
X114021405Y-79306648D02*
X114015357Y-79300601D01*
X114015357Y-79300601D02*
X114021405Y-79294553D01*
X114021405Y-79294553D02*
X114021405Y-79306648D01*
X107285553Y-92053833D02*
X107291601Y-92059881D01*
X107291601Y-92059881D02*
X107297648Y-92078023D01*
X107297648Y-92078023D02*
X107297648Y-92090119D01*
X107297648Y-92090119D02*
X107291601Y-92108262D01*
X107291601Y-92108262D02*
X107279505Y-92120357D01*
X107279505Y-92120357D02*
X107267410Y-92126404D01*
X107267410Y-92126404D02*
X107243220Y-92132452D01*
X107243220Y-92132452D02*
X107225077Y-92132452D01*
X107225077Y-92132452D02*
X107200886Y-92126404D01*
X107200886Y-92126404D02*
X107188791Y-92120357D01*
X107188791Y-92120357D02*
X107176696Y-92108262D01*
X107176696Y-92108262D02*
X107170648Y-92090119D01*
X107170648Y-92090119D02*
X107170648Y-92078023D01*
X107170648Y-92078023D02*
X107176696Y-92059881D01*
X107176696Y-92059881D02*
X107182743Y-92053833D01*
X107297648Y-91981262D02*
X107291601Y-91993357D01*
X107291601Y-91993357D02*
X107285553Y-91999404D01*
X107285553Y-91999404D02*
X107273458Y-92005452D01*
X107273458Y-92005452D02*
X107237172Y-92005452D01*
X107237172Y-92005452D02*
X107225077Y-91999404D01*
X107225077Y-91999404D02*
X107219029Y-91993357D01*
X107219029Y-91993357D02*
X107212981Y-91981262D01*
X107212981Y-91981262D02*
X107212981Y-91963119D01*
X107212981Y-91963119D02*
X107219029Y-91951023D01*
X107219029Y-91951023D02*
X107225077Y-91944976D01*
X107225077Y-91944976D02*
X107237172Y-91938928D01*
X107237172Y-91938928D02*
X107273458Y-91938928D01*
X107273458Y-91938928D02*
X107285553Y-91944976D01*
X107285553Y-91944976D02*
X107291601Y-91951023D01*
X107291601Y-91951023D02*
X107297648Y-91963119D01*
X107297648Y-91963119D02*
X107297648Y-91981262D01*
X107212981Y-91884499D02*
X107339981Y-91884499D01*
X107219029Y-91884499D02*
X107212981Y-91872404D01*
X107212981Y-91872404D02*
X107212981Y-91848214D01*
X107212981Y-91848214D02*
X107219029Y-91836118D01*
X107219029Y-91836118D02*
X107225077Y-91830071D01*
X107225077Y-91830071D02*
X107237172Y-91824023D01*
X107237172Y-91824023D02*
X107273458Y-91824023D01*
X107273458Y-91824023D02*
X107285553Y-91830071D01*
X107285553Y-91830071D02*
X107291601Y-91836118D01*
X107291601Y-91836118D02*
X107297648Y-91848214D01*
X107297648Y-91848214D02*
X107297648Y-91872404D01*
X107297648Y-91872404D02*
X107291601Y-91884499D01*
X107212981Y-91781690D02*
X107297648Y-91751452D01*
X107212981Y-91721213D02*
X107297648Y-91751452D01*
X107297648Y-91751452D02*
X107327886Y-91763547D01*
X107327886Y-91763547D02*
X107333934Y-91769594D01*
X107333934Y-91769594D02*
X107339981Y-91781690D01*
X107297648Y-91672832D02*
X107212981Y-91672832D01*
X107237172Y-91672832D02*
X107225077Y-91666785D01*
X107225077Y-91666785D02*
X107219029Y-91660737D01*
X107219029Y-91660737D02*
X107212981Y-91648642D01*
X107212981Y-91648642D02*
X107212981Y-91636547D01*
X107297648Y-91594213D02*
X107212981Y-91594213D01*
X107170648Y-91594213D02*
X107176696Y-91600261D01*
X107176696Y-91600261D02*
X107182743Y-91594213D01*
X107182743Y-91594213D02*
X107176696Y-91588166D01*
X107176696Y-91588166D02*
X107170648Y-91594213D01*
X107170648Y-91594213D02*
X107182743Y-91594213D01*
X107212981Y-91479309D02*
X107315791Y-91479309D01*
X107315791Y-91479309D02*
X107327886Y-91485356D01*
X107327886Y-91485356D02*
X107333934Y-91491404D01*
X107333934Y-91491404D02*
X107339981Y-91503499D01*
X107339981Y-91503499D02*
X107339981Y-91521642D01*
X107339981Y-91521642D02*
X107333934Y-91533737D01*
X107291601Y-91479309D02*
X107297648Y-91491404D01*
X107297648Y-91491404D02*
X107297648Y-91515595D01*
X107297648Y-91515595D02*
X107291601Y-91527690D01*
X107291601Y-91527690D02*
X107285553Y-91533737D01*
X107285553Y-91533737D02*
X107273458Y-91539785D01*
X107273458Y-91539785D02*
X107237172Y-91539785D01*
X107237172Y-91539785D02*
X107225077Y-91533737D01*
X107225077Y-91533737D02*
X107219029Y-91527690D01*
X107219029Y-91527690D02*
X107212981Y-91515595D01*
X107212981Y-91515595D02*
X107212981Y-91491404D01*
X107212981Y-91491404D02*
X107219029Y-91479309D01*
X107297648Y-91418832D02*
X107170648Y-91418832D01*
X107297648Y-91364404D02*
X107231124Y-91364404D01*
X107231124Y-91364404D02*
X107219029Y-91370451D01*
X107219029Y-91370451D02*
X107212981Y-91382547D01*
X107212981Y-91382547D02*
X107212981Y-91400690D01*
X107212981Y-91400690D02*
X107219029Y-91412785D01*
X107219029Y-91412785D02*
X107225077Y-91418832D01*
X107212981Y-91322070D02*
X107212981Y-91273689D01*
X107170648Y-91303927D02*
X107279505Y-91303927D01*
X107279505Y-91303927D02*
X107291601Y-91297880D01*
X107291601Y-91297880D02*
X107297648Y-91285785D01*
X107297648Y-91285785D02*
X107297648Y-91273689D01*
X107182743Y-91140642D02*
X107176696Y-91134594D01*
X107176696Y-91134594D02*
X107170648Y-91122499D01*
X107170648Y-91122499D02*
X107170648Y-91092261D01*
X107170648Y-91092261D02*
X107176696Y-91080166D01*
X107176696Y-91080166D02*
X107182743Y-91074118D01*
X107182743Y-91074118D02*
X107194839Y-91068071D01*
X107194839Y-91068071D02*
X107206934Y-91068071D01*
X107206934Y-91068071D02*
X107225077Y-91074118D01*
X107225077Y-91074118D02*
X107297648Y-91146690D01*
X107297648Y-91146690D02*
X107297648Y-91068071D01*
X107170648Y-90989452D02*
X107170648Y-90977357D01*
X107170648Y-90977357D02*
X107176696Y-90965261D01*
X107176696Y-90965261D02*
X107182743Y-90959214D01*
X107182743Y-90959214D02*
X107194839Y-90953166D01*
X107194839Y-90953166D02*
X107219029Y-90947119D01*
X107219029Y-90947119D02*
X107249267Y-90947119D01*
X107249267Y-90947119D02*
X107273458Y-90953166D01*
X107273458Y-90953166D02*
X107285553Y-90959214D01*
X107285553Y-90959214D02*
X107291601Y-90965261D01*
X107291601Y-90965261D02*
X107297648Y-90977357D01*
X107297648Y-90977357D02*
X107297648Y-90989452D01*
X107297648Y-90989452D02*
X107291601Y-91001547D01*
X107291601Y-91001547D02*
X107285553Y-91007595D01*
X107285553Y-91007595D02*
X107273458Y-91013642D01*
X107273458Y-91013642D02*
X107249267Y-91019690D01*
X107249267Y-91019690D02*
X107219029Y-91019690D01*
X107219029Y-91019690D02*
X107194839Y-91013642D01*
X107194839Y-91013642D02*
X107182743Y-91007595D01*
X107182743Y-91007595D02*
X107176696Y-91001547D01*
X107176696Y-91001547D02*
X107170648Y-90989452D01*
X107297648Y-90826167D02*
X107297648Y-90898738D01*
X107297648Y-90862452D02*
X107170648Y-90862452D01*
X107170648Y-90862452D02*
X107188791Y-90874548D01*
X107188791Y-90874548D02*
X107200886Y-90886643D01*
X107200886Y-90886643D02*
X107206934Y-90898738D01*
X107170648Y-90717310D02*
X107170648Y-90741500D01*
X107170648Y-90741500D02*
X107176696Y-90753596D01*
X107176696Y-90753596D02*
X107182743Y-90759643D01*
X107182743Y-90759643D02*
X107200886Y-90771738D01*
X107200886Y-90771738D02*
X107225077Y-90777786D01*
X107225077Y-90777786D02*
X107273458Y-90777786D01*
X107273458Y-90777786D02*
X107285553Y-90771738D01*
X107285553Y-90771738D02*
X107291601Y-90765691D01*
X107291601Y-90765691D02*
X107297648Y-90753596D01*
X107297648Y-90753596D02*
X107297648Y-90729405D01*
X107297648Y-90729405D02*
X107291601Y-90717310D01*
X107291601Y-90717310D02*
X107285553Y-90711262D01*
X107285553Y-90711262D02*
X107273458Y-90705215D01*
X107273458Y-90705215D02*
X107243220Y-90705215D01*
X107243220Y-90705215D02*
X107231124Y-90711262D01*
X107231124Y-90711262D02*
X107225077Y-90717310D01*
X107225077Y-90717310D02*
X107219029Y-90729405D01*
X107219029Y-90729405D02*
X107219029Y-90753596D01*
X107219029Y-90753596D02*
X107225077Y-90765691D01*
X107225077Y-90765691D02*
X107231124Y-90771738D01*
X107231124Y-90771738D02*
X107243220Y-90777786D01*
X107261362Y-90560072D02*
X107261362Y-90499596D01*
X107297648Y-90572167D02*
X107170648Y-90529834D01*
X107170648Y-90529834D02*
X107297648Y-90487501D01*
X107291601Y-90390739D02*
X107297648Y-90402834D01*
X107297648Y-90402834D02*
X107297648Y-90427025D01*
X107297648Y-90427025D02*
X107291601Y-90439120D01*
X107291601Y-90439120D02*
X107285553Y-90445167D01*
X107285553Y-90445167D02*
X107273458Y-90451215D01*
X107273458Y-90451215D02*
X107237172Y-90451215D01*
X107237172Y-90451215D02*
X107225077Y-90445167D01*
X107225077Y-90445167D02*
X107219029Y-90439120D01*
X107219029Y-90439120D02*
X107212981Y-90427025D01*
X107212981Y-90427025D02*
X107212981Y-90402834D01*
X107212981Y-90402834D02*
X107219029Y-90390739D01*
X107291601Y-90281882D02*
X107297648Y-90293977D01*
X107297648Y-90293977D02*
X107297648Y-90318168D01*
X107297648Y-90318168D02*
X107291601Y-90330263D01*
X107291601Y-90330263D02*
X107285553Y-90336310D01*
X107285553Y-90336310D02*
X107273458Y-90342358D01*
X107273458Y-90342358D02*
X107237172Y-90342358D01*
X107237172Y-90342358D02*
X107225077Y-90336310D01*
X107225077Y-90336310D02*
X107219029Y-90330263D01*
X107219029Y-90330263D02*
X107212981Y-90318168D01*
X107212981Y-90318168D02*
X107212981Y-90293977D01*
X107212981Y-90293977D02*
X107219029Y-90281882D01*
X107291601Y-90179072D02*
X107297648Y-90191168D01*
X107297648Y-90191168D02*
X107297648Y-90215358D01*
X107297648Y-90215358D02*
X107291601Y-90227453D01*
X107291601Y-90227453D02*
X107279505Y-90233501D01*
X107279505Y-90233501D02*
X107231124Y-90233501D01*
X107231124Y-90233501D02*
X107219029Y-90227453D01*
X107219029Y-90227453D02*
X107212981Y-90215358D01*
X107212981Y-90215358D02*
X107212981Y-90191168D01*
X107212981Y-90191168D02*
X107219029Y-90179072D01*
X107219029Y-90179072D02*
X107231124Y-90173025D01*
X107231124Y-90173025D02*
X107243220Y-90173025D01*
X107243220Y-90173025D02*
X107255315Y-90233501D01*
X107297648Y-90100454D02*
X107291601Y-90112549D01*
X107291601Y-90112549D02*
X107279505Y-90118596D01*
X107279505Y-90118596D02*
X107170648Y-90118596D01*
X107291601Y-90003691D02*
X107297648Y-90015787D01*
X107297648Y-90015787D02*
X107297648Y-90039977D01*
X107297648Y-90039977D02*
X107291601Y-90052072D01*
X107291601Y-90052072D02*
X107279505Y-90058120D01*
X107279505Y-90058120D02*
X107231124Y-90058120D01*
X107231124Y-90058120D02*
X107219029Y-90052072D01*
X107219029Y-90052072D02*
X107212981Y-90039977D01*
X107212981Y-90039977D02*
X107212981Y-90015787D01*
X107212981Y-90015787D02*
X107219029Y-90003691D01*
X107219029Y-90003691D02*
X107231124Y-89997644D01*
X107231124Y-89997644D02*
X107243220Y-89997644D01*
X107243220Y-89997644D02*
X107255315Y-90058120D01*
X107297648Y-89943215D02*
X107212981Y-89943215D01*
X107237172Y-89943215D02*
X107225077Y-89937168D01*
X107225077Y-89937168D02*
X107219029Y-89931120D01*
X107219029Y-89931120D02*
X107212981Y-89919025D01*
X107212981Y-89919025D02*
X107212981Y-89906930D01*
X107297648Y-89810168D02*
X107231124Y-89810168D01*
X107231124Y-89810168D02*
X107219029Y-89816215D01*
X107219029Y-89816215D02*
X107212981Y-89828311D01*
X107212981Y-89828311D02*
X107212981Y-89852501D01*
X107212981Y-89852501D02*
X107219029Y-89864596D01*
X107291601Y-89810168D02*
X107297648Y-89822263D01*
X107297648Y-89822263D02*
X107297648Y-89852501D01*
X107297648Y-89852501D02*
X107291601Y-89864596D01*
X107291601Y-89864596D02*
X107279505Y-89870644D01*
X107279505Y-89870644D02*
X107267410Y-89870644D01*
X107267410Y-89870644D02*
X107255315Y-89864596D01*
X107255315Y-89864596D02*
X107249267Y-89852501D01*
X107249267Y-89852501D02*
X107249267Y-89822263D01*
X107249267Y-89822263D02*
X107243220Y-89810168D01*
X107212981Y-89767834D02*
X107212981Y-89719453D01*
X107170648Y-89749691D02*
X107279505Y-89749691D01*
X107279505Y-89749691D02*
X107291601Y-89743644D01*
X107291601Y-89743644D02*
X107297648Y-89731549D01*
X107297648Y-89731549D02*
X107297648Y-89719453D01*
X107291601Y-89628739D02*
X107297648Y-89640835D01*
X107297648Y-89640835D02*
X107297648Y-89665025D01*
X107297648Y-89665025D02*
X107291601Y-89677120D01*
X107291601Y-89677120D02*
X107279505Y-89683168D01*
X107279505Y-89683168D02*
X107231124Y-89683168D01*
X107231124Y-89683168D02*
X107219029Y-89677120D01*
X107219029Y-89677120D02*
X107212981Y-89665025D01*
X107212981Y-89665025D02*
X107212981Y-89640835D01*
X107212981Y-89640835D02*
X107219029Y-89628739D01*
X107219029Y-89628739D02*
X107231124Y-89622692D01*
X107231124Y-89622692D02*
X107243220Y-89622692D01*
X107243220Y-89622692D02*
X107255315Y-89683168D01*
X107297648Y-89513835D02*
X107170648Y-89513835D01*
X107291601Y-89513835D02*
X107297648Y-89525930D01*
X107297648Y-89525930D02*
X107297648Y-89550121D01*
X107297648Y-89550121D02*
X107291601Y-89562216D01*
X107291601Y-89562216D02*
X107285553Y-89568263D01*
X107285553Y-89568263D02*
X107273458Y-89574311D01*
X107273458Y-89574311D02*
X107237172Y-89574311D01*
X107237172Y-89574311D02*
X107225077Y-89568263D01*
X107225077Y-89568263D02*
X107219029Y-89562216D01*
X107219029Y-89562216D02*
X107212981Y-89550121D01*
X107212981Y-89550121D02*
X107212981Y-89525930D01*
X107212981Y-89525930D02*
X107219029Y-89513835D01*
X107297648Y-89356596D02*
X107170648Y-89356596D01*
X107170648Y-89356596D02*
X107170648Y-89326358D01*
X107170648Y-89326358D02*
X107176696Y-89308215D01*
X107176696Y-89308215D02*
X107188791Y-89296120D01*
X107188791Y-89296120D02*
X107200886Y-89290073D01*
X107200886Y-89290073D02*
X107225077Y-89284025D01*
X107225077Y-89284025D02*
X107243220Y-89284025D01*
X107243220Y-89284025D02*
X107267410Y-89290073D01*
X107267410Y-89290073D02*
X107279505Y-89296120D01*
X107279505Y-89296120D02*
X107291601Y-89308215D01*
X107291601Y-89308215D02*
X107297648Y-89326358D01*
X107297648Y-89326358D02*
X107297648Y-89356596D01*
X107291601Y-89181215D02*
X107297648Y-89193311D01*
X107297648Y-89193311D02*
X107297648Y-89217501D01*
X107297648Y-89217501D02*
X107291601Y-89229596D01*
X107291601Y-89229596D02*
X107279505Y-89235644D01*
X107279505Y-89235644D02*
X107231124Y-89235644D01*
X107231124Y-89235644D02*
X107219029Y-89229596D01*
X107219029Y-89229596D02*
X107212981Y-89217501D01*
X107212981Y-89217501D02*
X107212981Y-89193311D01*
X107212981Y-89193311D02*
X107219029Y-89181215D01*
X107219029Y-89181215D02*
X107231124Y-89175168D01*
X107231124Y-89175168D02*
X107243220Y-89175168D01*
X107243220Y-89175168D02*
X107255315Y-89235644D01*
X107291601Y-89126787D02*
X107297648Y-89114692D01*
X107297648Y-89114692D02*
X107297648Y-89090501D01*
X107297648Y-89090501D02*
X107291601Y-89078406D01*
X107291601Y-89078406D02*
X107279505Y-89072358D01*
X107279505Y-89072358D02*
X107273458Y-89072358D01*
X107273458Y-89072358D02*
X107261362Y-89078406D01*
X107261362Y-89078406D02*
X107255315Y-89090501D01*
X107255315Y-89090501D02*
X107255315Y-89108644D01*
X107255315Y-89108644D02*
X107249267Y-89120739D01*
X107249267Y-89120739D02*
X107237172Y-89126787D01*
X107237172Y-89126787D02*
X107231124Y-89126787D01*
X107231124Y-89126787D02*
X107219029Y-89120739D01*
X107219029Y-89120739D02*
X107212981Y-89108644D01*
X107212981Y-89108644D02*
X107212981Y-89090501D01*
X107212981Y-89090501D02*
X107219029Y-89078406D01*
X107297648Y-89017929D02*
X107212981Y-89017929D01*
X107170648Y-89017929D02*
X107176696Y-89023977D01*
X107176696Y-89023977D02*
X107182743Y-89017929D01*
X107182743Y-89017929D02*
X107176696Y-89011882D01*
X107176696Y-89011882D02*
X107170648Y-89017929D01*
X107170648Y-89017929D02*
X107182743Y-89017929D01*
X107212981Y-88903025D02*
X107315791Y-88903025D01*
X107315791Y-88903025D02*
X107327886Y-88909072D01*
X107327886Y-88909072D02*
X107333934Y-88915120D01*
X107333934Y-88915120D02*
X107339981Y-88927215D01*
X107339981Y-88927215D02*
X107339981Y-88945358D01*
X107339981Y-88945358D02*
X107333934Y-88957453D01*
X107291601Y-88903025D02*
X107297648Y-88915120D01*
X107297648Y-88915120D02*
X107297648Y-88939311D01*
X107297648Y-88939311D02*
X107291601Y-88951406D01*
X107291601Y-88951406D02*
X107285553Y-88957453D01*
X107285553Y-88957453D02*
X107273458Y-88963501D01*
X107273458Y-88963501D02*
X107237172Y-88963501D01*
X107237172Y-88963501D02*
X107225077Y-88957453D01*
X107225077Y-88957453D02*
X107219029Y-88951406D01*
X107219029Y-88951406D02*
X107212981Y-88939311D01*
X107212981Y-88939311D02*
X107212981Y-88915120D01*
X107212981Y-88915120D02*
X107219029Y-88903025D01*
X107212981Y-88842548D02*
X107297648Y-88842548D01*
X107225077Y-88842548D02*
X107219029Y-88836501D01*
X107219029Y-88836501D02*
X107212981Y-88824406D01*
X107212981Y-88824406D02*
X107212981Y-88806263D01*
X107212981Y-88806263D02*
X107219029Y-88794167D01*
X107219029Y-88794167D02*
X107231124Y-88788120D01*
X107231124Y-88788120D02*
X107297648Y-88788120D01*
X107291601Y-88733691D02*
X107297648Y-88721596D01*
X107297648Y-88721596D02*
X107297648Y-88697405D01*
X107297648Y-88697405D02*
X107291601Y-88685310D01*
X107291601Y-88685310D02*
X107279505Y-88679262D01*
X107279505Y-88679262D02*
X107273458Y-88679262D01*
X107273458Y-88679262D02*
X107261362Y-88685310D01*
X107261362Y-88685310D02*
X107255315Y-88697405D01*
X107255315Y-88697405D02*
X107255315Y-88715548D01*
X107255315Y-88715548D02*
X107249267Y-88727643D01*
X107249267Y-88727643D02*
X107237172Y-88733691D01*
X107237172Y-88733691D02*
X107231124Y-88733691D01*
X107231124Y-88733691D02*
X107219029Y-88727643D01*
X107219029Y-88727643D02*
X107212981Y-88715548D01*
X107212981Y-88715548D02*
X107212981Y-88697405D01*
X107212981Y-88697405D02*
X107219029Y-88685310D01*
X107285553Y-88624833D02*
X107291601Y-88618786D01*
X107291601Y-88618786D02*
X107297648Y-88624833D01*
X107297648Y-88624833D02*
X107291601Y-88630881D01*
X107291601Y-88630881D02*
X107285553Y-88624833D01*
X107285553Y-88624833D02*
X107297648Y-88624833D01*
X107261362Y-88473643D02*
X107261362Y-88413167D01*
X107297648Y-88485738D02*
X107170648Y-88443405D01*
X107170648Y-88443405D02*
X107297648Y-88401072D01*
X107297648Y-88340596D02*
X107291601Y-88352691D01*
X107291601Y-88352691D02*
X107279505Y-88358738D01*
X107279505Y-88358738D02*
X107170648Y-88358738D01*
X107297648Y-88274072D02*
X107291601Y-88286167D01*
X107291601Y-88286167D02*
X107279505Y-88292214D01*
X107279505Y-88292214D02*
X107170648Y-88292214D01*
X107297648Y-88128928D02*
X107212981Y-88128928D01*
X107237172Y-88128928D02*
X107225077Y-88122881D01*
X107225077Y-88122881D02*
X107219029Y-88116833D01*
X107219029Y-88116833D02*
X107212981Y-88104738D01*
X107212981Y-88104738D02*
X107212981Y-88092643D01*
X107297648Y-88050309D02*
X107212981Y-88050309D01*
X107170648Y-88050309D02*
X107176696Y-88056357D01*
X107176696Y-88056357D02*
X107182743Y-88050309D01*
X107182743Y-88050309D02*
X107176696Y-88044262D01*
X107176696Y-88044262D02*
X107170648Y-88050309D01*
X107170648Y-88050309D02*
X107182743Y-88050309D01*
X107212981Y-87935405D02*
X107315791Y-87935405D01*
X107315791Y-87935405D02*
X107327886Y-87941452D01*
X107327886Y-87941452D02*
X107333934Y-87947500D01*
X107333934Y-87947500D02*
X107339981Y-87959595D01*
X107339981Y-87959595D02*
X107339981Y-87977738D01*
X107339981Y-87977738D02*
X107333934Y-87989833D01*
X107291601Y-87935405D02*
X107297648Y-87947500D01*
X107297648Y-87947500D02*
X107297648Y-87971691D01*
X107297648Y-87971691D02*
X107291601Y-87983786D01*
X107291601Y-87983786D02*
X107285553Y-87989833D01*
X107285553Y-87989833D02*
X107273458Y-87995881D01*
X107273458Y-87995881D02*
X107237172Y-87995881D01*
X107237172Y-87995881D02*
X107225077Y-87989833D01*
X107225077Y-87989833D02*
X107219029Y-87983786D01*
X107219029Y-87983786D02*
X107212981Y-87971691D01*
X107212981Y-87971691D02*
X107212981Y-87947500D01*
X107212981Y-87947500D02*
X107219029Y-87935405D01*
X107297648Y-87874928D02*
X107170648Y-87874928D01*
X107297648Y-87820500D02*
X107231124Y-87820500D01*
X107231124Y-87820500D02*
X107219029Y-87826547D01*
X107219029Y-87826547D02*
X107212981Y-87838643D01*
X107212981Y-87838643D02*
X107212981Y-87856786D01*
X107212981Y-87856786D02*
X107219029Y-87868881D01*
X107219029Y-87868881D02*
X107225077Y-87874928D01*
X107212981Y-87778166D02*
X107212981Y-87729785D01*
X107170648Y-87760023D02*
X107279505Y-87760023D01*
X107279505Y-87760023D02*
X107291601Y-87753976D01*
X107291601Y-87753976D02*
X107297648Y-87741881D01*
X107297648Y-87741881D02*
X107297648Y-87729785D01*
X107291601Y-87693500D02*
X107297648Y-87681405D01*
X107297648Y-87681405D02*
X107297648Y-87657214D01*
X107297648Y-87657214D02*
X107291601Y-87645119D01*
X107291601Y-87645119D02*
X107279505Y-87639071D01*
X107279505Y-87639071D02*
X107273458Y-87639071D01*
X107273458Y-87639071D02*
X107261362Y-87645119D01*
X107261362Y-87645119D02*
X107255315Y-87657214D01*
X107255315Y-87657214D02*
X107255315Y-87675357D01*
X107255315Y-87675357D02*
X107249267Y-87687452D01*
X107249267Y-87687452D02*
X107237172Y-87693500D01*
X107237172Y-87693500D02*
X107231124Y-87693500D01*
X107231124Y-87693500D02*
X107219029Y-87687452D01*
X107219029Y-87687452D02*
X107212981Y-87675357D01*
X107212981Y-87675357D02*
X107212981Y-87657214D01*
X107212981Y-87657214D02*
X107219029Y-87645119D01*
X107297648Y-87487880D02*
X107212981Y-87487880D01*
X107237172Y-87487880D02*
X107225077Y-87481833D01*
X107225077Y-87481833D02*
X107219029Y-87475785D01*
X107219029Y-87475785D02*
X107212981Y-87463690D01*
X107212981Y-87463690D02*
X107212981Y-87451595D01*
X107291601Y-87360880D02*
X107297648Y-87372976D01*
X107297648Y-87372976D02*
X107297648Y-87397166D01*
X107297648Y-87397166D02*
X107291601Y-87409261D01*
X107291601Y-87409261D02*
X107279505Y-87415309D01*
X107279505Y-87415309D02*
X107231124Y-87415309D01*
X107231124Y-87415309D02*
X107219029Y-87409261D01*
X107219029Y-87409261D02*
X107212981Y-87397166D01*
X107212981Y-87397166D02*
X107212981Y-87372976D01*
X107212981Y-87372976D02*
X107219029Y-87360880D01*
X107219029Y-87360880D02*
X107231124Y-87354833D01*
X107231124Y-87354833D02*
X107243220Y-87354833D01*
X107243220Y-87354833D02*
X107255315Y-87415309D01*
X107291601Y-87306452D02*
X107297648Y-87294357D01*
X107297648Y-87294357D02*
X107297648Y-87270166D01*
X107297648Y-87270166D02*
X107291601Y-87258071D01*
X107291601Y-87258071D02*
X107279505Y-87252023D01*
X107279505Y-87252023D02*
X107273458Y-87252023D01*
X107273458Y-87252023D02*
X107261362Y-87258071D01*
X107261362Y-87258071D02*
X107255315Y-87270166D01*
X107255315Y-87270166D02*
X107255315Y-87288309D01*
X107255315Y-87288309D02*
X107249267Y-87300404D01*
X107249267Y-87300404D02*
X107237172Y-87306452D01*
X107237172Y-87306452D02*
X107231124Y-87306452D01*
X107231124Y-87306452D02*
X107219029Y-87300404D01*
X107219029Y-87300404D02*
X107212981Y-87288309D01*
X107212981Y-87288309D02*
X107212981Y-87270166D01*
X107212981Y-87270166D02*
X107219029Y-87258071D01*
X107291601Y-87149213D02*
X107297648Y-87161309D01*
X107297648Y-87161309D02*
X107297648Y-87185499D01*
X107297648Y-87185499D02*
X107291601Y-87197594D01*
X107291601Y-87197594D02*
X107279505Y-87203642D01*
X107279505Y-87203642D02*
X107231124Y-87203642D01*
X107231124Y-87203642D02*
X107219029Y-87197594D01*
X107219029Y-87197594D02*
X107212981Y-87185499D01*
X107212981Y-87185499D02*
X107212981Y-87161309D01*
X107212981Y-87161309D02*
X107219029Y-87149213D01*
X107219029Y-87149213D02*
X107231124Y-87143166D01*
X107231124Y-87143166D02*
X107243220Y-87143166D01*
X107243220Y-87143166D02*
X107255315Y-87203642D01*
X107297648Y-87088737D02*
X107212981Y-87088737D01*
X107237172Y-87088737D02*
X107225077Y-87082690D01*
X107225077Y-87082690D02*
X107219029Y-87076642D01*
X107219029Y-87076642D02*
X107212981Y-87064547D01*
X107212981Y-87064547D02*
X107212981Y-87052452D01*
X107212981Y-87022214D02*
X107297648Y-86991976D01*
X107297648Y-86991976D02*
X107212981Y-86961737D01*
X107291601Y-86864975D02*
X107297648Y-86877071D01*
X107297648Y-86877071D02*
X107297648Y-86901261D01*
X107297648Y-86901261D02*
X107291601Y-86913356D01*
X107291601Y-86913356D02*
X107279505Y-86919404D01*
X107279505Y-86919404D02*
X107231124Y-86919404D01*
X107231124Y-86919404D02*
X107219029Y-86913356D01*
X107219029Y-86913356D02*
X107212981Y-86901261D01*
X107212981Y-86901261D02*
X107212981Y-86877071D01*
X107212981Y-86877071D02*
X107219029Y-86864975D01*
X107219029Y-86864975D02*
X107231124Y-86858928D01*
X107231124Y-86858928D02*
X107243220Y-86858928D01*
X107243220Y-86858928D02*
X107255315Y-86919404D01*
X107297648Y-86750071D02*
X107170648Y-86750071D01*
X107291601Y-86750071D02*
X107297648Y-86762166D01*
X107297648Y-86762166D02*
X107297648Y-86786357D01*
X107297648Y-86786357D02*
X107291601Y-86798452D01*
X107291601Y-86798452D02*
X107285553Y-86804499D01*
X107285553Y-86804499D02*
X107273458Y-86810547D01*
X107273458Y-86810547D02*
X107237172Y-86810547D01*
X107237172Y-86810547D02*
X107225077Y-86804499D01*
X107225077Y-86804499D02*
X107219029Y-86798452D01*
X107219029Y-86798452D02*
X107212981Y-86786357D01*
X107212981Y-86786357D02*
X107212981Y-86762166D01*
X107212981Y-86762166D02*
X107219029Y-86750071D01*
X107285553Y-86689594D02*
X107291601Y-86683547D01*
X107291601Y-86683547D02*
X107297648Y-86689594D01*
X107297648Y-86689594D02*
X107291601Y-86695642D01*
X107291601Y-86695642D02*
X107285553Y-86689594D01*
X107285553Y-86689594D02*
X107297648Y-86689594D01*
X147798553Y-96168833D02*
X147804601Y-96174881D01*
X147804601Y-96174881D02*
X147810648Y-96193023D01*
X147810648Y-96193023D02*
X147810648Y-96205119D01*
X147810648Y-96205119D02*
X147804601Y-96223262D01*
X147804601Y-96223262D02*
X147792505Y-96235357D01*
X147792505Y-96235357D02*
X147780410Y-96241404D01*
X147780410Y-96241404D02*
X147756220Y-96247452D01*
X147756220Y-96247452D02*
X147738077Y-96247452D01*
X147738077Y-96247452D02*
X147713886Y-96241404D01*
X147713886Y-96241404D02*
X147701791Y-96235357D01*
X147701791Y-96235357D02*
X147689696Y-96223262D01*
X147689696Y-96223262D02*
X147683648Y-96205119D01*
X147683648Y-96205119D02*
X147683648Y-96193023D01*
X147683648Y-96193023D02*
X147689696Y-96174881D01*
X147689696Y-96174881D02*
X147695743Y-96168833D01*
X147810648Y-96096262D02*
X147804601Y-96108357D01*
X147804601Y-96108357D02*
X147798553Y-96114404D01*
X147798553Y-96114404D02*
X147786458Y-96120452D01*
X147786458Y-96120452D02*
X147750172Y-96120452D01*
X147750172Y-96120452D02*
X147738077Y-96114404D01*
X147738077Y-96114404D02*
X147732029Y-96108357D01*
X147732029Y-96108357D02*
X147725981Y-96096262D01*
X147725981Y-96096262D02*
X147725981Y-96078119D01*
X147725981Y-96078119D02*
X147732029Y-96066023D01*
X147732029Y-96066023D02*
X147738077Y-96059976D01*
X147738077Y-96059976D02*
X147750172Y-96053928D01*
X147750172Y-96053928D02*
X147786458Y-96053928D01*
X147786458Y-96053928D02*
X147798553Y-96059976D01*
X147798553Y-96059976D02*
X147804601Y-96066023D01*
X147804601Y-96066023D02*
X147810648Y-96078119D01*
X147810648Y-96078119D02*
X147810648Y-96096262D01*
X147725981Y-95999499D02*
X147852981Y-95999499D01*
X147732029Y-95999499D02*
X147725981Y-95987404D01*
X147725981Y-95987404D02*
X147725981Y-95963214D01*
X147725981Y-95963214D02*
X147732029Y-95951118D01*
X147732029Y-95951118D02*
X147738077Y-95945071D01*
X147738077Y-95945071D02*
X147750172Y-95939023D01*
X147750172Y-95939023D02*
X147786458Y-95939023D01*
X147786458Y-95939023D02*
X147798553Y-95945071D01*
X147798553Y-95945071D02*
X147804601Y-95951118D01*
X147804601Y-95951118D02*
X147810648Y-95963214D01*
X147810648Y-95963214D02*
X147810648Y-95987404D01*
X147810648Y-95987404D02*
X147804601Y-95999499D01*
X147725981Y-95896690D02*
X147810648Y-95866452D01*
X147725981Y-95836213D02*
X147810648Y-95866452D01*
X147810648Y-95866452D02*
X147840886Y-95878547D01*
X147840886Y-95878547D02*
X147846934Y-95884594D01*
X147846934Y-95884594D02*
X147852981Y-95896690D01*
X147810648Y-95787832D02*
X147725981Y-95787832D01*
X147750172Y-95787832D02*
X147738077Y-95781785D01*
X147738077Y-95781785D02*
X147732029Y-95775737D01*
X147732029Y-95775737D02*
X147725981Y-95763642D01*
X147725981Y-95763642D02*
X147725981Y-95751547D01*
X147810648Y-95709213D02*
X147725981Y-95709213D01*
X147683648Y-95709213D02*
X147689696Y-95715261D01*
X147689696Y-95715261D02*
X147695743Y-95709213D01*
X147695743Y-95709213D02*
X147689696Y-95703166D01*
X147689696Y-95703166D02*
X147683648Y-95709213D01*
X147683648Y-95709213D02*
X147695743Y-95709213D01*
X147725981Y-95594309D02*
X147828791Y-95594309D01*
X147828791Y-95594309D02*
X147840886Y-95600356D01*
X147840886Y-95600356D02*
X147846934Y-95606404D01*
X147846934Y-95606404D02*
X147852981Y-95618499D01*
X147852981Y-95618499D02*
X147852981Y-95636642D01*
X147852981Y-95636642D02*
X147846934Y-95648737D01*
X147804601Y-95594309D02*
X147810648Y-95606404D01*
X147810648Y-95606404D02*
X147810648Y-95630595D01*
X147810648Y-95630595D02*
X147804601Y-95642690D01*
X147804601Y-95642690D02*
X147798553Y-95648737D01*
X147798553Y-95648737D02*
X147786458Y-95654785D01*
X147786458Y-95654785D02*
X147750172Y-95654785D01*
X147750172Y-95654785D02*
X147738077Y-95648737D01*
X147738077Y-95648737D02*
X147732029Y-95642690D01*
X147732029Y-95642690D02*
X147725981Y-95630595D01*
X147725981Y-95630595D02*
X147725981Y-95606404D01*
X147725981Y-95606404D02*
X147732029Y-95594309D01*
X147810648Y-95533832D02*
X147683648Y-95533832D01*
X147810648Y-95479404D02*
X147744124Y-95479404D01*
X147744124Y-95479404D02*
X147732029Y-95485451D01*
X147732029Y-95485451D02*
X147725981Y-95497547D01*
X147725981Y-95497547D02*
X147725981Y-95515690D01*
X147725981Y-95515690D02*
X147732029Y-95527785D01*
X147732029Y-95527785D02*
X147738077Y-95533832D01*
X147725981Y-95437070D02*
X147725981Y-95388689D01*
X147683648Y-95418927D02*
X147792505Y-95418927D01*
X147792505Y-95418927D02*
X147804601Y-95412880D01*
X147804601Y-95412880D02*
X147810648Y-95400785D01*
X147810648Y-95400785D02*
X147810648Y-95388689D01*
X147695743Y-95255642D02*
X147689696Y-95249594D01*
X147689696Y-95249594D02*
X147683648Y-95237499D01*
X147683648Y-95237499D02*
X147683648Y-95207261D01*
X147683648Y-95207261D02*
X147689696Y-95195166D01*
X147689696Y-95195166D02*
X147695743Y-95189118D01*
X147695743Y-95189118D02*
X147707839Y-95183071D01*
X147707839Y-95183071D02*
X147719934Y-95183071D01*
X147719934Y-95183071D02*
X147738077Y-95189118D01*
X147738077Y-95189118D02*
X147810648Y-95261690D01*
X147810648Y-95261690D02*
X147810648Y-95183071D01*
X147683648Y-95104452D02*
X147683648Y-95092357D01*
X147683648Y-95092357D02*
X147689696Y-95080261D01*
X147689696Y-95080261D02*
X147695743Y-95074214D01*
X147695743Y-95074214D02*
X147707839Y-95068166D01*
X147707839Y-95068166D02*
X147732029Y-95062119D01*
X147732029Y-95062119D02*
X147762267Y-95062119D01*
X147762267Y-95062119D02*
X147786458Y-95068166D01*
X147786458Y-95068166D02*
X147798553Y-95074214D01*
X147798553Y-95074214D02*
X147804601Y-95080261D01*
X147804601Y-95080261D02*
X147810648Y-95092357D01*
X147810648Y-95092357D02*
X147810648Y-95104452D01*
X147810648Y-95104452D02*
X147804601Y-95116547D01*
X147804601Y-95116547D02*
X147798553Y-95122595D01*
X147798553Y-95122595D02*
X147786458Y-95128642D01*
X147786458Y-95128642D02*
X147762267Y-95134690D01*
X147762267Y-95134690D02*
X147732029Y-95134690D01*
X147732029Y-95134690D02*
X147707839Y-95128642D01*
X147707839Y-95128642D02*
X147695743Y-95122595D01*
X147695743Y-95122595D02*
X147689696Y-95116547D01*
X147689696Y-95116547D02*
X147683648Y-95104452D01*
X147810648Y-94941167D02*
X147810648Y-95013738D01*
X147810648Y-94977452D02*
X147683648Y-94977452D01*
X147683648Y-94977452D02*
X147701791Y-94989548D01*
X147701791Y-94989548D02*
X147713886Y-95001643D01*
X147713886Y-95001643D02*
X147719934Y-95013738D01*
X147683648Y-94832310D02*
X147683648Y-94856500D01*
X147683648Y-94856500D02*
X147689696Y-94868596D01*
X147689696Y-94868596D02*
X147695743Y-94874643D01*
X147695743Y-94874643D02*
X147713886Y-94886738D01*
X147713886Y-94886738D02*
X147738077Y-94892786D01*
X147738077Y-94892786D02*
X147786458Y-94892786D01*
X147786458Y-94892786D02*
X147798553Y-94886738D01*
X147798553Y-94886738D02*
X147804601Y-94880691D01*
X147804601Y-94880691D02*
X147810648Y-94868596D01*
X147810648Y-94868596D02*
X147810648Y-94844405D01*
X147810648Y-94844405D02*
X147804601Y-94832310D01*
X147804601Y-94832310D02*
X147798553Y-94826262D01*
X147798553Y-94826262D02*
X147786458Y-94820215D01*
X147786458Y-94820215D02*
X147756220Y-94820215D01*
X147756220Y-94820215D02*
X147744124Y-94826262D01*
X147744124Y-94826262D02*
X147738077Y-94832310D01*
X147738077Y-94832310D02*
X147732029Y-94844405D01*
X147732029Y-94844405D02*
X147732029Y-94868596D01*
X147732029Y-94868596D02*
X147738077Y-94880691D01*
X147738077Y-94880691D02*
X147744124Y-94886738D01*
X147744124Y-94886738D02*
X147756220Y-94892786D01*
X147774362Y-94675072D02*
X147774362Y-94614596D01*
X147810648Y-94687167D02*
X147683648Y-94644834D01*
X147683648Y-94644834D02*
X147810648Y-94602501D01*
X147804601Y-94505739D02*
X147810648Y-94517834D01*
X147810648Y-94517834D02*
X147810648Y-94542025D01*
X147810648Y-94542025D02*
X147804601Y-94554120D01*
X147804601Y-94554120D02*
X147798553Y-94560167D01*
X147798553Y-94560167D02*
X147786458Y-94566215D01*
X147786458Y-94566215D02*
X147750172Y-94566215D01*
X147750172Y-94566215D02*
X147738077Y-94560167D01*
X147738077Y-94560167D02*
X147732029Y-94554120D01*
X147732029Y-94554120D02*
X147725981Y-94542025D01*
X147725981Y-94542025D02*
X147725981Y-94517834D01*
X147725981Y-94517834D02*
X147732029Y-94505739D01*
X147804601Y-94396882D02*
X147810648Y-94408977D01*
X147810648Y-94408977D02*
X147810648Y-94433168D01*
X147810648Y-94433168D02*
X147804601Y-94445263D01*
X147804601Y-94445263D02*
X147798553Y-94451310D01*
X147798553Y-94451310D02*
X147786458Y-94457358D01*
X147786458Y-94457358D02*
X147750172Y-94457358D01*
X147750172Y-94457358D02*
X147738077Y-94451310D01*
X147738077Y-94451310D02*
X147732029Y-94445263D01*
X147732029Y-94445263D02*
X147725981Y-94433168D01*
X147725981Y-94433168D02*
X147725981Y-94408977D01*
X147725981Y-94408977D02*
X147732029Y-94396882D01*
X147804601Y-94294072D02*
X147810648Y-94306168D01*
X147810648Y-94306168D02*
X147810648Y-94330358D01*
X147810648Y-94330358D02*
X147804601Y-94342453D01*
X147804601Y-94342453D02*
X147792505Y-94348501D01*
X147792505Y-94348501D02*
X147744124Y-94348501D01*
X147744124Y-94348501D02*
X147732029Y-94342453D01*
X147732029Y-94342453D02*
X147725981Y-94330358D01*
X147725981Y-94330358D02*
X147725981Y-94306168D01*
X147725981Y-94306168D02*
X147732029Y-94294072D01*
X147732029Y-94294072D02*
X147744124Y-94288025D01*
X147744124Y-94288025D02*
X147756220Y-94288025D01*
X147756220Y-94288025D02*
X147768315Y-94348501D01*
X147810648Y-94215454D02*
X147804601Y-94227549D01*
X147804601Y-94227549D02*
X147792505Y-94233596D01*
X147792505Y-94233596D02*
X147683648Y-94233596D01*
X147804601Y-94118691D02*
X147810648Y-94130787D01*
X147810648Y-94130787D02*
X147810648Y-94154977D01*
X147810648Y-94154977D02*
X147804601Y-94167072D01*
X147804601Y-94167072D02*
X147792505Y-94173120D01*
X147792505Y-94173120D02*
X147744124Y-94173120D01*
X147744124Y-94173120D02*
X147732029Y-94167072D01*
X147732029Y-94167072D02*
X147725981Y-94154977D01*
X147725981Y-94154977D02*
X147725981Y-94130787D01*
X147725981Y-94130787D02*
X147732029Y-94118691D01*
X147732029Y-94118691D02*
X147744124Y-94112644D01*
X147744124Y-94112644D02*
X147756220Y-94112644D01*
X147756220Y-94112644D02*
X147768315Y-94173120D01*
X147810648Y-94058215D02*
X147725981Y-94058215D01*
X147750172Y-94058215D02*
X147738077Y-94052168D01*
X147738077Y-94052168D02*
X147732029Y-94046120D01*
X147732029Y-94046120D02*
X147725981Y-94034025D01*
X147725981Y-94034025D02*
X147725981Y-94021930D01*
X147810648Y-93925168D02*
X147744124Y-93925168D01*
X147744124Y-93925168D02*
X147732029Y-93931215D01*
X147732029Y-93931215D02*
X147725981Y-93943311D01*
X147725981Y-93943311D02*
X147725981Y-93967501D01*
X147725981Y-93967501D02*
X147732029Y-93979596D01*
X147804601Y-93925168D02*
X147810648Y-93937263D01*
X147810648Y-93937263D02*
X147810648Y-93967501D01*
X147810648Y-93967501D02*
X147804601Y-93979596D01*
X147804601Y-93979596D02*
X147792505Y-93985644D01*
X147792505Y-93985644D02*
X147780410Y-93985644D01*
X147780410Y-93985644D02*
X147768315Y-93979596D01*
X147768315Y-93979596D02*
X147762267Y-93967501D01*
X147762267Y-93967501D02*
X147762267Y-93937263D01*
X147762267Y-93937263D02*
X147756220Y-93925168D01*
X147725981Y-93882834D02*
X147725981Y-93834453D01*
X147683648Y-93864691D02*
X147792505Y-93864691D01*
X147792505Y-93864691D02*
X147804601Y-93858644D01*
X147804601Y-93858644D02*
X147810648Y-93846549D01*
X147810648Y-93846549D02*
X147810648Y-93834453D01*
X147804601Y-93743739D02*
X147810648Y-93755835D01*
X147810648Y-93755835D02*
X147810648Y-93780025D01*
X147810648Y-93780025D02*
X147804601Y-93792120D01*
X147804601Y-93792120D02*
X147792505Y-93798168D01*
X147792505Y-93798168D02*
X147744124Y-93798168D01*
X147744124Y-93798168D02*
X147732029Y-93792120D01*
X147732029Y-93792120D02*
X147725981Y-93780025D01*
X147725981Y-93780025D02*
X147725981Y-93755835D01*
X147725981Y-93755835D02*
X147732029Y-93743739D01*
X147732029Y-93743739D02*
X147744124Y-93737692D01*
X147744124Y-93737692D02*
X147756220Y-93737692D01*
X147756220Y-93737692D02*
X147768315Y-93798168D01*
X147810648Y-93628835D02*
X147683648Y-93628835D01*
X147804601Y-93628835D02*
X147810648Y-93640930D01*
X147810648Y-93640930D02*
X147810648Y-93665121D01*
X147810648Y-93665121D02*
X147804601Y-93677216D01*
X147804601Y-93677216D02*
X147798553Y-93683263D01*
X147798553Y-93683263D02*
X147786458Y-93689311D01*
X147786458Y-93689311D02*
X147750172Y-93689311D01*
X147750172Y-93689311D02*
X147738077Y-93683263D01*
X147738077Y-93683263D02*
X147732029Y-93677216D01*
X147732029Y-93677216D02*
X147725981Y-93665121D01*
X147725981Y-93665121D02*
X147725981Y-93640930D01*
X147725981Y-93640930D02*
X147732029Y-93628835D01*
X147810648Y-93471596D02*
X147683648Y-93471596D01*
X147683648Y-93471596D02*
X147683648Y-93441358D01*
X147683648Y-93441358D02*
X147689696Y-93423215D01*
X147689696Y-93423215D02*
X147701791Y-93411120D01*
X147701791Y-93411120D02*
X147713886Y-93405073D01*
X147713886Y-93405073D02*
X147738077Y-93399025D01*
X147738077Y-93399025D02*
X147756220Y-93399025D01*
X147756220Y-93399025D02*
X147780410Y-93405073D01*
X147780410Y-93405073D02*
X147792505Y-93411120D01*
X147792505Y-93411120D02*
X147804601Y-93423215D01*
X147804601Y-93423215D02*
X147810648Y-93441358D01*
X147810648Y-93441358D02*
X147810648Y-93471596D01*
X147804601Y-93296215D02*
X147810648Y-93308311D01*
X147810648Y-93308311D02*
X147810648Y-93332501D01*
X147810648Y-93332501D02*
X147804601Y-93344596D01*
X147804601Y-93344596D02*
X147792505Y-93350644D01*
X147792505Y-93350644D02*
X147744124Y-93350644D01*
X147744124Y-93350644D02*
X147732029Y-93344596D01*
X147732029Y-93344596D02*
X147725981Y-93332501D01*
X147725981Y-93332501D02*
X147725981Y-93308311D01*
X147725981Y-93308311D02*
X147732029Y-93296215D01*
X147732029Y-93296215D02*
X147744124Y-93290168D01*
X147744124Y-93290168D02*
X147756220Y-93290168D01*
X147756220Y-93290168D02*
X147768315Y-93350644D01*
X147804601Y-93241787D02*
X147810648Y-93229692D01*
X147810648Y-93229692D02*
X147810648Y-93205501D01*
X147810648Y-93205501D02*
X147804601Y-93193406D01*
X147804601Y-93193406D02*
X147792505Y-93187358D01*
X147792505Y-93187358D02*
X147786458Y-93187358D01*
X147786458Y-93187358D02*
X147774362Y-93193406D01*
X147774362Y-93193406D02*
X147768315Y-93205501D01*
X147768315Y-93205501D02*
X147768315Y-93223644D01*
X147768315Y-93223644D02*
X147762267Y-93235739D01*
X147762267Y-93235739D02*
X147750172Y-93241787D01*
X147750172Y-93241787D02*
X147744124Y-93241787D01*
X147744124Y-93241787D02*
X147732029Y-93235739D01*
X147732029Y-93235739D02*
X147725981Y-93223644D01*
X147725981Y-93223644D02*
X147725981Y-93205501D01*
X147725981Y-93205501D02*
X147732029Y-93193406D01*
X147810648Y-93132929D02*
X147725981Y-93132929D01*
X147683648Y-93132929D02*
X147689696Y-93138977D01*
X147689696Y-93138977D02*
X147695743Y-93132929D01*
X147695743Y-93132929D02*
X147689696Y-93126882D01*
X147689696Y-93126882D02*
X147683648Y-93132929D01*
X147683648Y-93132929D02*
X147695743Y-93132929D01*
X147725981Y-93018025D02*
X147828791Y-93018025D01*
X147828791Y-93018025D02*
X147840886Y-93024072D01*
X147840886Y-93024072D02*
X147846934Y-93030120D01*
X147846934Y-93030120D02*
X147852981Y-93042215D01*
X147852981Y-93042215D02*
X147852981Y-93060358D01*
X147852981Y-93060358D02*
X147846934Y-93072453D01*
X147804601Y-93018025D02*
X147810648Y-93030120D01*
X147810648Y-93030120D02*
X147810648Y-93054311D01*
X147810648Y-93054311D02*
X147804601Y-93066406D01*
X147804601Y-93066406D02*
X147798553Y-93072453D01*
X147798553Y-93072453D02*
X147786458Y-93078501D01*
X147786458Y-93078501D02*
X147750172Y-93078501D01*
X147750172Y-93078501D02*
X147738077Y-93072453D01*
X147738077Y-93072453D02*
X147732029Y-93066406D01*
X147732029Y-93066406D02*
X147725981Y-93054311D01*
X147725981Y-93054311D02*
X147725981Y-93030120D01*
X147725981Y-93030120D02*
X147732029Y-93018025D01*
X147725981Y-92957548D02*
X147810648Y-92957548D01*
X147738077Y-92957548D02*
X147732029Y-92951501D01*
X147732029Y-92951501D02*
X147725981Y-92939406D01*
X147725981Y-92939406D02*
X147725981Y-92921263D01*
X147725981Y-92921263D02*
X147732029Y-92909167D01*
X147732029Y-92909167D02*
X147744124Y-92903120D01*
X147744124Y-92903120D02*
X147810648Y-92903120D01*
X147804601Y-92848691D02*
X147810648Y-92836596D01*
X147810648Y-92836596D02*
X147810648Y-92812405D01*
X147810648Y-92812405D02*
X147804601Y-92800310D01*
X147804601Y-92800310D02*
X147792505Y-92794262D01*
X147792505Y-92794262D02*
X147786458Y-92794262D01*
X147786458Y-92794262D02*
X147774362Y-92800310D01*
X147774362Y-92800310D02*
X147768315Y-92812405D01*
X147768315Y-92812405D02*
X147768315Y-92830548D01*
X147768315Y-92830548D02*
X147762267Y-92842643D01*
X147762267Y-92842643D02*
X147750172Y-92848691D01*
X147750172Y-92848691D02*
X147744124Y-92848691D01*
X147744124Y-92848691D02*
X147732029Y-92842643D01*
X147732029Y-92842643D02*
X147725981Y-92830548D01*
X147725981Y-92830548D02*
X147725981Y-92812405D01*
X147725981Y-92812405D02*
X147732029Y-92800310D01*
X147798553Y-92739833D02*
X147804601Y-92733786D01*
X147804601Y-92733786D02*
X147810648Y-92739833D01*
X147810648Y-92739833D02*
X147804601Y-92745881D01*
X147804601Y-92745881D02*
X147798553Y-92739833D01*
X147798553Y-92739833D02*
X147810648Y-92739833D01*
X147774362Y-92588643D02*
X147774362Y-92528167D01*
X147810648Y-92600738D02*
X147683648Y-92558405D01*
X147683648Y-92558405D02*
X147810648Y-92516072D01*
X147810648Y-92455596D02*
X147804601Y-92467691D01*
X147804601Y-92467691D02*
X147792505Y-92473738D01*
X147792505Y-92473738D02*
X147683648Y-92473738D01*
X147810648Y-92389072D02*
X147804601Y-92401167D01*
X147804601Y-92401167D02*
X147792505Y-92407214D01*
X147792505Y-92407214D02*
X147683648Y-92407214D01*
X147810648Y-92243928D02*
X147725981Y-92243928D01*
X147750172Y-92243928D02*
X147738077Y-92237881D01*
X147738077Y-92237881D02*
X147732029Y-92231833D01*
X147732029Y-92231833D02*
X147725981Y-92219738D01*
X147725981Y-92219738D02*
X147725981Y-92207643D01*
X147810648Y-92165309D02*
X147725981Y-92165309D01*
X147683648Y-92165309D02*
X147689696Y-92171357D01*
X147689696Y-92171357D02*
X147695743Y-92165309D01*
X147695743Y-92165309D02*
X147689696Y-92159262D01*
X147689696Y-92159262D02*
X147683648Y-92165309D01*
X147683648Y-92165309D02*
X147695743Y-92165309D01*
X147725981Y-92050405D02*
X147828791Y-92050405D01*
X147828791Y-92050405D02*
X147840886Y-92056452D01*
X147840886Y-92056452D02*
X147846934Y-92062500D01*
X147846934Y-92062500D02*
X147852981Y-92074595D01*
X147852981Y-92074595D02*
X147852981Y-92092738D01*
X147852981Y-92092738D02*
X147846934Y-92104833D01*
X147804601Y-92050405D02*
X147810648Y-92062500D01*
X147810648Y-92062500D02*
X147810648Y-92086691D01*
X147810648Y-92086691D02*
X147804601Y-92098786D01*
X147804601Y-92098786D02*
X147798553Y-92104833D01*
X147798553Y-92104833D02*
X147786458Y-92110881D01*
X147786458Y-92110881D02*
X147750172Y-92110881D01*
X147750172Y-92110881D02*
X147738077Y-92104833D01*
X147738077Y-92104833D02*
X147732029Y-92098786D01*
X147732029Y-92098786D02*
X147725981Y-92086691D01*
X147725981Y-92086691D02*
X147725981Y-92062500D01*
X147725981Y-92062500D02*
X147732029Y-92050405D01*
X147810648Y-91989928D02*
X147683648Y-91989928D01*
X147810648Y-91935500D02*
X147744124Y-91935500D01*
X147744124Y-91935500D02*
X147732029Y-91941547D01*
X147732029Y-91941547D02*
X147725981Y-91953643D01*
X147725981Y-91953643D02*
X147725981Y-91971786D01*
X147725981Y-91971786D02*
X147732029Y-91983881D01*
X147732029Y-91983881D02*
X147738077Y-91989928D01*
X147725981Y-91893166D02*
X147725981Y-91844785D01*
X147683648Y-91875023D02*
X147792505Y-91875023D01*
X147792505Y-91875023D02*
X147804601Y-91868976D01*
X147804601Y-91868976D02*
X147810648Y-91856881D01*
X147810648Y-91856881D02*
X147810648Y-91844785D01*
X147804601Y-91808500D02*
X147810648Y-91796405D01*
X147810648Y-91796405D02*
X147810648Y-91772214D01*
X147810648Y-91772214D02*
X147804601Y-91760119D01*
X147804601Y-91760119D02*
X147792505Y-91754071D01*
X147792505Y-91754071D02*
X147786458Y-91754071D01*
X147786458Y-91754071D02*
X147774362Y-91760119D01*
X147774362Y-91760119D02*
X147768315Y-91772214D01*
X147768315Y-91772214D02*
X147768315Y-91790357D01*
X147768315Y-91790357D02*
X147762267Y-91802452D01*
X147762267Y-91802452D02*
X147750172Y-91808500D01*
X147750172Y-91808500D02*
X147744124Y-91808500D01*
X147744124Y-91808500D02*
X147732029Y-91802452D01*
X147732029Y-91802452D02*
X147725981Y-91790357D01*
X147725981Y-91790357D02*
X147725981Y-91772214D01*
X147725981Y-91772214D02*
X147732029Y-91760119D01*
X147810648Y-91602880D02*
X147725981Y-91602880D01*
X147750172Y-91602880D02*
X147738077Y-91596833D01*
X147738077Y-91596833D02*
X147732029Y-91590785D01*
X147732029Y-91590785D02*
X147725981Y-91578690D01*
X147725981Y-91578690D02*
X147725981Y-91566595D01*
X147804601Y-91475880D02*
X147810648Y-91487976D01*
X147810648Y-91487976D02*
X147810648Y-91512166D01*
X147810648Y-91512166D02*
X147804601Y-91524261D01*
X147804601Y-91524261D02*
X147792505Y-91530309D01*
X147792505Y-91530309D02*
X147744124Y-91530309D01*
X147744124Y-91530309D02*
X147732029Y-91524261D01*
X147732029Y-91524261D02*
X147725981Y-91512166D01*
X147725981Y-91512166D02*
X147725981Y-91487976D01*
X147725981Y-91487976D02*
X147732029Y-91475880D01*
X147732029Y-91475880D02*
X147744124Y-91469833D01*
X147744124Y-91469833D02*
X147756220Y-91469833D01*
X147756220Y-91469833D02*
X147768315Y-91530309D01*
X147804601Y-91421452D02*
X147810648Y-91409357D01*
X147810648Y-91409357D02*
X147810648Y-91385166D01*
X147810648Y-91385166D02*
X147804601Y-91373071D01*
X147804601Y-91373071D02*
X147792505Y-91367023D01*
X147792505Y-91367023D02*
X147786458Y-91367023D01*
X147786458Y-91367023D02*
X147774362Y-91373071D01*
X147774362Y-91373071D02*
X147768315Y-91385166D01*
X147768315Y-91385166D02*
X147768315Y-91403309D01*
X147768315Y-91403309D02*
X147762267Y-91415404D01*
X147762267Y-91415404D02*
X147750172Y-91421452D01*
X147750172Y-91421452D02*
X147744124Y-91421452D01*
X147744124Y-91421452D02*
X147732029Y-91415404D01*
X147732029Y-91415404D02*
X147725981Y-91403309D01*
X147725981Y-91403309D02*
X147725981Y-91385166D01*
X147725981Y-91385166D02*
X147732029Y-91373071D01*
X147804601Y-91264213D02*
X147810648Y-91276309D01*
X147810648Y-91276309D02*
X147810648Y-91300499D01*
X147810648Y-91300499D02*
X147804601Y-91312594D01*
X147804601Y-91312594D02*
X147792505Y-91318642D01*
X147792505Y-91318642D02*
X147744124Y-91318642D01*
X147744124Y-91318642D02*
X147732029Y-91312594D01*
X147732029Y-91312594D02*
X147725981Y-91300499D01*
X147725981Y-91300499D02*
X147725981Y-91276309D01*
X147725981Y-91276309D02*
X147732029Y-91264213D01*
X147732029Y-91264213D02*
X147744124Y-91258166D01*
X147744124Y-91258166D02*
X147756220Y-91258166D01*
X147756220Y-91258166D02*
X147768315Y-91318642D01*
X147810648Y-91203737D02*
X147725981Y-91203737D01*
X147750172Y-91203737D02*
X147738077Y-91197690D01*
X147738077Y-91197690D02*
X147732029Y-91191642D01*
X147732029Y-91191642D02*
X147725981Y-91179547D01*
X147725981Y-91179547D02*
X147725981Y-91167452D01*
X147725981Y-91137214D02*
X147810648Y-91106976D01*
X147810648Y-91106976D02*
X147725981Y-91076737D01*
X147804601Y-90979975D02*
X147810648Y-90992071D01*
X147810648Y-90992071D02*
X147810648Y-91016261D01*
X147810648Y-91016261D02*
X147804601Y-91028356D01*
X147804601Y-91028356D02*
X147792505Y-91034404D01*
X147792505Y-91034404D02*
X147744124Y-91034404D01*
X147744124Y-91034404D02*
X147732029Y-91028356D01*
X147732029Y-91028356D02*
X147725981Y-91016261D01*
X147725981Y-91016261D02*
X147725981Y-90992071D01*
X147725981Y-90992071D02*
X147732029Y-90979975D01*
X147732029Y-90979975D02*
X147744124Y-90973928D01*
X147744124Y-90973928D02*
X147756220Y-90973928D01*
X147756220Y-90973928D02*
X147768315Y-91034404D01*
X147810648Y-90865071D02*
X147683648Y-90865071D01*
X147804601Y-90865071D02*
X147810648Y-90877166D01*
X147810648Y-90877166D02*
X147810648Y-90901357D01*
X147810648Y-90901357D02*
X147804601Y-90913452D01*
X147804601Y-90913452D02*
X147798553Y-90919499D01*
X147798553Y-90919499D02*
X147786458Y-90925547D01*
X147786458Y-90925547D02*
X147750172Y-90925547D01*
X147750172Y-90925547D02*
X147738077Y-90919499D01*
X147738077Y-90919499D02*
X147732029Y-90913452D01*
X147732029Y-90913452D02*
X147725981Y-90901357D01*
X147725981Y-90901357D02*
X147725981Y-90877166D01*
X147725981Y-90877166D02*
X147732029Y-90865071D01*
X147798553Y-90804594D02*
X147804601Y-90798547D01*
X147804601Y-90798547D02*
X147810648Y-90804594D01*
X147810648Y-90804594D02*
X147804601Y-90810642D01*
X147804601Y-90810642D02*
X147798553Y-90804594D01*
X147798553Y-90804594D02*
X147810648Y-90804594D01*
X147747553Y-103458833D02*
X147753601Y-103464881D01*
X147753601Y-103464881D02*
X147759648Y-103483023D01*
X147759648Y-103483023D02*
X147759648Y-103495119D01*
X147759648Y-103495119D02*
X147753601Y-103513262D01*
X147753601Y-103513262D02*
X147741505Y-103525357D01*
X147741505Y-103525357D02*
X147729410Y-103531404D01*
X147729410Y-103531404D02*
X147705220Y-103537452D01*
X147705220Y-103537452D02*
X147687077Y-103537452D01*
X147687077Y-103537452D02*
X147662886Y-103531404D01*
X147662886Y-103531404D02*
X147650791Y-103525357D01*
X147650791Y-103525357D02*
X147638696Y-103513262D01*
X147638696Y-103513262D02*
X147632648Y-103495119D01*
X147632648Y-103495119D02*
X147632648Y-103483023D01*
X147632648Y-103483023D02*
X147638696Y-103464881D01*
X147638696Y-103464881D02*
X147644743Y-103458833D01*
X147759648Y-103386262D02*
X147753601Y-103398357D01*
X147753601Y-103398357D02*
X147747553Y-103404404D01*
X147747553Y-103404404D02*
X147735458Y-103410452D01*
X147735458Y-103410452D02*
X147699172Y-103410452D01*
X147699172Y-103410452D02*
X147687077Y-103404404D01*
X147687077Y-103404404D02*
X147681029Y-103398357D01*
X147681029Y-103398357D02*
X147674981Y-103386262D01*
X147674981Y-103386262D02*
X147674981Y-103368119D01*
X147674981Y-103368119D02*
X147681029Y-103356023D01*
X147681029Y-103356023D02*
X147687077Y-103349976D01*
X147687077Y-103349976D02*
X147699172Y-103343928D01*
X147699172Y-103343928D02*
X147735458Y-103343928D01*
X147735458Y-103343928D02*
X147747553Y-103349976D01*
X147747553Y-103349976D02*
X147753601Y-103356023D01*
X147753601Y-103356023D02*
X147759648Y-103368119D01*
X147759648Y-103368119D02*
X147759648Y-103386262D01*
X147674981Y-103289499D02*
X147801981Y-103289499D01*
X147681029Y-103289499D02*
X147674981Y-103277404D01*
X147674981Y-103277404D02*
X147674981Y-103253214D01*
X147674981Y-103253214D02*
X147681029Y-103241118D01*
X147681029Y-103241118D02*
X147687077Y-103235071D01*
X147687077Y-103235071D02*
X147699172Y-103229023D01*
X147699172Y-103229023D02*
X147735458Y-103229023D01*
X147735458Y-103229023D02*
X147747553Y-103235071D01*
X147747553Y-103235071D02*
X147753601Y-103241118D01*
X147753601Y-103241118D02*
X147759648Y-103253214D01*
X147759648Y-103253214D02*
X147759648Y-103277404D01*
X147759648Y-103277404D02*
X147753601Y-103289499D01*
X147674981Y-103186690D02*
X147759648Y-103156452D01*
X147674981Y-103126213D02*
X147759648Y-103156452D01*
X147759648Y-103156452D02*
X147789886Y-103168547D01*
X147789886Y-103168547D02*
X147795934Y-103174594D01*
X147795934Y-103174594D02*
X147801981Y-103186690D01*
X147759648Y-103077832D02*
X147674981Y-103077832D01*
X147699172Y-103077832D02*
X147687077Y-103071785D01*
X147687077Y-103071785D02*
X147681029Y-103065737D01*
X147681029Y-103065737D02*
X147674981Y-103053642D01*
X147674981Y-103053642D02*
X147674981Y-103041547D01*
X147759648Y-102999213D02*
X147674981Y-102999213D01*
X147632648Y-102999213D02*
X147638696Y-103005261D01*
X147638696Y-103005261D02*
X147644743Y-102999213D01*
X147644743Y-102999213D02*
X147638696Y-102993166D01*
X147638696Y-102993166D02*
X147632648Y-102999213D01*
X147632648Y-102999213D02*
X147644743Y-102999213D01*
X147674981Y-102884309D02*
X147777791Y-102884309D01*
X147777791Y-102884309D02*
X147789886Y-102890356D01*
X147789886Y-102890356D02*
X147795934Y-102896404D01*
X147795934Y-102896404D02*
X147801981Y-102908499D01*
X147801981Y-102908499D02*
X147801981Y-102926642D01*
X147801981Y-102926642D02*
X147795934Y-102938737D01*
X147753601Y-102884309D02*
X147759648Y-102896404D01*
X147759648Y-102896404D02*
X147759648Y-102920595D01*
X147759648Y-102920595D02*
X147753601Y-102932690D01*
X147753601Y-102932690D02*
X147747553Y-102938737D01*
X147747553Y-102938737D02*
X147735458Y-102944785D01*
X147735458Y-102944785D02*
X147699172Y-102944785D01*
X147699172Y-102944785D02*
X147687077Y-102938737D01*
X147687077Y-102938737D02*
X147681029Y-102932690D01*
X147681029Y-102932690D02*
X147674981Y-102920595D01*
X147674981Y-102920595D02*
X147674981Y-102896404D01*
X147674981Y-102896404D02*
X147681029Y-102884309D01*
X147759648Y-102823832D02*
X147632648Y-102823832D01*
X147759648Y-102769404D02*
X147693124Y-102769404D01*
X147693124Y-102769404D02*
X147681029Y-102775451D01*
X147681029Y-102775451D02*
X147674981Y-102787547D01*
X147674981Y-102787547D02*
X147674981Y-102805690D01*
X147674981Y-102805690D02*
X147681029Y-102817785D01*
X147681029Y-102817785D02*
X147687077Y-102823832D01*
X147674981Y-102727070D02*
X147674981Y-102678689D01*
X147632648Y-102708927D02*
X147741505Y-102708927D01*
X147741505Y-102708927D02*
X147753601Y-102702880D01*
X147753601Y-102702880D02*
X147759648Y-102690785D01*
X147759648Y-102690785D02*
X147759648Y-102678689D01*
X147644743Y-102545642D02*
X147638696Y-102539594D01*
X147638696Y-102539594D02*
X147632648Y-102527499D01*
X147632648Y-102527499D02*
X147632648Y-102497261D01*
X147632648Y-102497261D02*
X147638696Y-102485166D01*
X147638696Y-102485166D02*
X147644743Y-102479118D01*
X147644743Y-102479118D02*
X147656839Y-102473071D01*
X147656839Y-102473071D02*
X147668934Y-102473071D01*
X147668934Y-102473071D02*
X147687077Y-102479118D01*
X147687077Y-102479118D02*
X147759648Y-102551690D01*
X147759648Y-102551690D02*
X147759648Y-102473071D01*
X147632648Y-102394452D02*
X147632648Y-102382357D01*
X147632648Y-102382357D02*
X147638696Y-102370261D01*
X147638696Y-102370261D02*
X147644743Y-102364214D01*
X147644743Y-102364214D02*
X147656839Y-102358166D01*
X147656839Y-102358166D02*
X147681029Y-102352119D01*
X147681029Y-102352119D02*
X147711267Y-102352119D01*
X147711267Y-102352119D02*
X147735458Y-102358166D01*
X147735458Y-102358166D02*
X147747553Y-102364214D01*
X147747553Y-102364214D02*
X147753601Y-102370261D01*
X147753601Y-102370261D02*
X147759648Y-102382357D01*
X147759648Y-102382357D02*
X147759648Y-102394452D01*
X147759648Y-102394452D02*
X147753601Y-102406547D01*
X147753601Y-102406547D02*
X147747553Y-102412595D01*
X147747553Y-102412595D02*
X147735458Y-102418642D01*
X147735458Y-102418642D02*
X147711267Y-102424690D01*
X147711267Y-102424690D02*
X147681029Y-102424690D01*
X147681029Y-102424690D02*
X147656839Y-102418642D01*
X147656839Y-102418642D02*
X147644743Y-102412595D01*
X147644743Y-102412595D02*
X147638696Y-102406547D01*
X147638696Y-102406547D02*
X147632648Y-102394452D01*
X147759648Y-102231167D02*
X147759648Y-102303738D01*
X147759648Y-102267452D02*
X147632648Y-102267452D01*
X147632648Y-102267452D02*
X147650791Y-102279548D01*
X147650791Y-102279548D02*
X147662886Y-102291643D01*
X147662886Y-102291643D02*
X147668934Y-102303738D01*
X147632648Y-102122310D02*
X147632648Y-102146500D01*
X147632648Y-102146500D02*
X147638696Y-102158596D01*
X147638696Y-102158596D02*
X147644743Y-102164643D01*
X147644743Y-102164643D02*
X147662886Y-102176738D01*
X147662886Y-102176738D02*
X147687077Y-102182786D01*
X147687077Y-102182786D02*
X147735458Y-102182786D01*
X147735458Y-102182786D02*
X147747553Y-102176738D01*
X147747553Y-102176738D02*
X147753601Y-102170691D01*
X147753601Y-102170691D02*
X147759648Y-102158596D01*
X147759648Y-102158596D02*
X147759648Y-102134405D01*
X147759648Y-102134405D02*
X147753601Y-102122310D01*
X147753601Y-102122310D02*
X147747553Y-102116262D01*
X147747553Y-102116262D02*
X147735458Y-102110215D01*
X147735458Y-102110215D02*
X147705220Y-102110215D01*
X147705220Y-102110215D02*
X147693124Y-102116262D01*
X147693124Y-102116262D02*
X147687077Y-102122310D01*
X147687077Y-102122310D02*
X147681029Y-102134405D01*
X147681029Y-102134405D02*
X147681029Y-102158596D01*
X147681029Y-102158596D02*
X147687077Y-102170691D01*
X147687077Y-102170691D02*
X147693124Y-102176738D01*
X147693124Y-102176738D02*
X147705220Y-102182786D01*
X147723362Y-101965072D02*
X147723362Y-101904596D01*
X147759648Y-101977167D02*
X147632648Y-101934834D01*
X147632648Y-101934834D02*
X147759648Y-101892501D01*
X147753601Y-101795739D02*
X147759648Y-101807834D01*
X147759648Y-101807834D02*
X147759648Y-101832025D01*
X147759648Y-101832025D02*
X147753601Y-101844120D01*
X147753601Y-101844120D02*
X147747553Y-101850167D01*
X147747553Y-101850167D02*
X147735458Y-101856215D01*
X147735458Y-101856215D02*
X147699172Y-101856215D01*
X147699172Y-101856215D02*
X147687077Y-101850167D01*
X147687077Y-101850167D02*
X147681029Y-101844120D01*
X147681029Y-101844120D02*
X147674981Y-101832025D01*
X147674981Y-101832025D02*
X147674981Y-101807834D01*
X147674981Y-101807834D02*
X147681029Y-101795739D01*
X147753601Y-101686882D02*
X147759648Y-101698977D01*
X147759648Y-101698977D02*
X147759648Y-101723168D01*
X147759648Y-101723168D02*
X147753601Y-101735263D01*
X147753601Y-101735263D02*
X147747553Y-101741310D01*
X147747553Y-101741310D02*
X147735458Y-101747358D01*
X147735458Y-101747358D02*
X147699172Y-101747358D01*
X147699172Y-101747358D02*
X147687077Y-101741310D01*
X147687077Y-101741310D02*
X147681029Y-101735263D01*
X147681029Y-101735263D02*
X147674981Y-101723168D01*
X147674981Y-101723168D02*
X147674981Y-101698977D01*
X147674981Y-101698977D02*
X147681029Y-101686882D01*
X147753601Y-101584072D02*
X147759648Y-101596168D01*
X147759648Y-101596168D02*
X147759648Y-101620358D01*
X147759648Y-101620358D02*
X147753601Y-101632453D01*
X147753601Y-101632453D02*
X147741505Y-101638501D01*
X147741505Y-101638501D02*
X147693124Y-101638501D01*
X147693124Y-101638501D02*
X147681029Y-101632453D01*
X147681029Y-101632453D02*
X147674981Y-101620358D01*
X147674981Y-101620358D02*
X147674981Y-101596168D01*
X147674981Y-101596168D02*
X147681029Y-101584072D01*
X147681029Y-101584072D02*
X147693124Y-101578025D01*
X147693124Y-101578025D02*
X147705220Y-101578025D01*
X147705220Y-101578025D02*
X147717315Y-101638501D01*
X147759648Y-101505454D02*
X147753601Y-101517549D01*
X147753601Y-101517549D02*
X147741505Y-101523596D01*
X147741505Y-101523596D02*
X147632648Y-101523596D01*
X147753601Y-101408691D02*
X147759648Y-101420787D01*
X147759648Y-101420787D02*
X147759648Y-101444977D01*
X147759648Y-101444977D02*
X147753601Y-101457072D01*
X147753601Y-101457072D02*
X147741505Y-101463120D01*
X147741505Y-101463120D02*
X147693124Y-101463120D01*
X147693124Y-101463120D02*
X147681029Y-101457072D01*
X147681029Y-101457072D02*
X147674981Y-101444977D01*
X147674981Y-101444977D02*
X147674981Y-101420787D01*
X147674981Y-101420787D02*
X147681029Y-101408691D01*
X147681029Y-101408691D02*
X147693124Y-101402644D01*
X147693124Y-101402644D02*
X147705220Y-101402644D01*
X147705220Y-101402644D02*
X147717315Y-101463120D01*
X147759648Y-101348215D02*
X147674981Y-101348215D01*
X147699172Y-101348215D02*
X147687077Y-101342168D01*
X147687077Y-101342168D02*
X147681029Y-101336120D01*
X147681029Y-101336120D02*
X147674981Y-101324025D01*
X147674981Y-101324025D02*
X147674981Y-101311930D01*
X147759648Y-101215168D02*
X147693124Y-101215168D01*
X147693124Y-101215168D02*
X147681029Y-101221215D01*
X147681029Y-101221215D02*
X147674981Y-101233311D01*
X147674981Y-101233311D02*
X147674981Y-101257501D01*
X147674981Y-101257501D02*
X147681029Y-101269596D01*
X147753601Y-101215168D02*
X147759648Y-101227263D01*
X147759648Y-101227263D02*
X147759648Y-101257501D01*
X147759648Y-101257501D02*
X147753601Y-101269596D01*
X147753601Y-101269596D02*
X147741505Y-101275644D01*
X147741505Y-101275644D02*
X147729410Y-101275644D01*
X147729410Y-101275644D02*
X147717315Y-101269596D01*
X147717315Y-101269596D02*
X147711267Y-101257501D01*
X147711267Y-101257501D02*
X147711267Y-101227263D01*
X147711267Y-101227263D02*
X147705220Y-101215168D01*
X147674981Y-101172834D02*
X147674981Y-101124453D01*
X147632648Y-101154691D02*
X147741505Y-101154691D01*
X147741505Y-101154691D02*
X147753601Y-101148644D01*
X147753601Y-101148644D02*
X147759648Y-101136549D01*
X147759648Y-101136549D02*
X147759648Y-101124453D01*
X147753601Y-101033739D02*
X147759648Y-101045835D01*
X147759648Y-101045835D02*
X147759648Y-101070025D01*
X147759648Y-101070025D02*
X147753601Y-101082120D01*
X147753601Y-101082120D02*
X147741505Y-101088168D01*
X147741505Y-101088168D02*
X147693124Y-101088168D01*
X147693124Y-101088168D02*
X147681029Y-101082120D01*
X147681029Y-101082120D02*
X147674981Y-101070025D01*
X147674981Y-101070025D02*
X147674981Y-101045835D01*
X147674981Y-101045835D02*
X147681029Y-101033739D01*
X147681029Y-101033739D02*
X147693124Y-101027692D01*
X147693124Y-101027692D02*
X147705220Y-101027692D01*
X147705220Y-101027692D02*
X147717315Y-101088168D01*
X147759648Y-100918835D02*
X147632648Y-100918835D01*
X147753601Y-100918835D02*
X147759648Y-100930930D01*
X147759648Y-100930930D02*
X147759648Y-100955121D01*
X147759648Y-100955121D02*
X147753601Y-100967216D01*
X147753601Y-100967216D02*
X147747553Y-100973263D01*
X147747553Y-100973263D02*
X147735458Y-100979311D01*
X147735458Y-100979311D02*
X147699172Y-100979311D01*
X147699172Y-100979311D02*
X147687077Y-100973263D01*
X147687077Y-100973263D02*
X147681029Y-100967216D01*
X147681029Y-100967216D02*
X147674981Y-100955121D01*
X147674981Y-100955121D02*
X147674981Y-100930930D01*
X147674981Y-100930930D02*
X147681029Y-100918835D01*
X147759648Y-100761596D02*
X147632648Y-100761596D01*
X147632648Y-100761596D02*
X147632648Y-100731358D01*
X147632648Y-100731358D02*
X147638696Y-100713215D01*
X147638696Y-100713215D02*
X147650791Y-100701120D01*
X147650791Y-100701120D02*
X147662886Y-100695073D01*
X147662886Y-100695073D02*
X147687077Y-100689025D01*
X147687077Y-100689025D02*
X147705220Y-100689025D01*
X147705220Y-100689025D02*
X147729410Y-100695073D01*
X147729410Y-100695073D02*
X147741505Y-100701120D01*
X147741505Y-100701120D02*
X147753601Y-100713215D01*
X147753601Y-100713215D02*
X147759648Y-100731358D01*
X147759648Y-100731358D02*
X147759648Y-100761596D01*
X147753601Y-100586215D02*
X147759648Y-100598311D01*
X147759648Y-100598311D02*
X147759648Y-100622501D01*
X147759648Y-100622501D02*
X147753601Y-100634596D01*
X147753601Y-100634596D02*
X147741505Y-100640644D01*
X147741505Y-100640644D02*
X147693124Y-100640644D01*
X147693124Y-100640644D02*
X147681029Y-100634596D01*
X147681029Y-100634596D02*
X147674981Y-100622501D01*
X147674981Y-100622501D02*
X147674981Y-100598311D01*
X147674981Y-100598311D02*
X147681029Y-100586215D01*
X147681029Y-100586215D02*
X147693124Y-100580168D01*
X147693124Y-100580168D02*
X147705220Y-100580168D01*
X147705220Y-100580168D02*
X147717315Y-100640644D01*
X147753601Y-100531787D02*
X147759648Y-100519692D01*
X147759648Y-100519692D02*
X147759648Y-100495501D01*
X147759648Y-100495501D02*
X147753601Y-100483406D01*
X147753601Y-100483406D02*
X147741505Y-100477358D01*
X147741505Y-100477358D02*
X147735458Y-100477358D01*
X147735458Y-100477358D02*
X147723362Y-100483406D01*
X147723362Y-100483406D02*
X147717315Y-100495501D01*
X147717315Y-100495501D02*
X147717315Y-100513644D01*
X147717315Y-100513644D02*
X147711267Y-100525739D01*
X147711267Y-100525739D02*
X147699172Y-100531787D01*
X147699172Y-100531787D02*
X147693124Y-100531787D01*
X147693124Y-100531787D02*
X147681029Y-100525739D01*
X147681029Y-100525739D02*
X147674981Y-100513644D01*
X147674981Y-100513644D02*
X147674981Y-100495501D01*
X147674981Y-100495501D02*
X147681029Y-100483406D01*
X147759648Y-100422929D02*
X147674981Y-100422929D01*
X147632648Y-100422929D02*
X147638696Y-100428977D01*
X147638696Y-100428977D02*
X147644743Y-100422929D01*
X147644743Y-100422929D02*
X147638696Y-100416882D01*
X147638696Y-100416882D02*
X147632648Y-100422929D01*
X147632648Y-100422929D02*
X147644743Y-100422929D01*
X147674981Y-100308025D02*
X147777791Y-100308025D01*
X147777791Y-100308025D02*
X147789886Y-100314072D01*
X147789886Y-100314072D02*
X147795934Y-100320120D01*
X147795934Y-100320120D02*
X147801981Y-100332215D01*
X147801981Y-100332215D02*
X147801981Y-100350358D01*
X147801981Y-100350358D02*
X147795934Y-100362453D01*
X147753601Y-100308025D02*
X147759648Y-100320120D01*
X147759648Y-100320120D02*
X147759648Y-100344311D01*
X147759648Y-100344311D02*
X147753601Y-100356406D01*
X147753601Y-100356406D02*
X147747553Y-100362453D01*
X147747553Y-100362453D02*
X147735458Y-100368501D01*
X147735458Y-100368501D02*
X147699172Y-100368501D01*
X147699172Y-100368501D02*
X147687077Y-100362453D01*
X147687077Y-100362453D02*
X147681029Y-100356406D01*
X147681029Y-100356406D02*
X147674981Y-100344311D01*
X147674981Y-100344311D02*
X147674981Y-100320120D01*
X147674981Y-100320120D02*
X147681029Y-100308025D01*
X147674981Y-100247548D02*
X147759648Y-100247548D01*
X147687077Y-100247548D02*
X147681029Y-100241501D01*
X147681029Y-100241501D02*
X147674981Y-100229406D01*
X147674981Y-100229406D02*
X147674981Y-100211263D01*
X147674981Y-100211263D02*
X147681029Y-100199167D01*
X147681029Y-100199167D02*
X147693124Y-100193120D01*
X147693124Y-100193120D02*
X147759648Y-100193120D01*
X147753601Y-100138691D02*
X147759648Y-100126596D01*
X147759648Y-100126596D02*
X147759648Y-100102405D01*
X147759648Y-100102405D02*
X147753601Y-100090310D01*
X147753601Y-100090310D02*
X147741505Y-100084262D01*
X147741505Y-100084262D02*
X147735458Y-100084262D01*
X147735458Y-100084262D02*
X147723362Y-100090310D01*
X147723362Y-100090310D02*
X147717315Y-100102405D01*
X147717315Y-100102405D02*
X147717315Y-100120548D01*
X147717315Y-100120548D02*
X147711267Y-100132643D01*
X147711267Y-100132643D02*
X147699172Y-100138691D01*
X147699172Y-100138691D02*
X147693124Y-100138691D01*
X147693124Y-100138691D02*
X147681029Y-100132643D01*
X147681029Y-100132643D02*
X147674981Y-100120548D01*
X147674981Y-100120548D02*
X147674981Y-100102405D01*
X147674981Y-100102405D02*
X147681029Y-100090310D01*
X147747553Y-100029833D02*
X147753601Y-100023786D01*
X147753601Y-100023786D02*
X147759648Y-100029833D01*
X147759648Y-100029833D02*
X147753601Y-100035881D01*
X147753601Y-100035881D02*
X147747553Y-100029833D01*
X147747553Y-100029833D02*
X147759648Y-100029833D01*
X147723362Y-99878643D02*
X147723362Y-99818167D01*
X147759648Y-99890738D02*
X147632648Y-99848405D01*
X147632648Y-99848405D02*
X147759648Y-99806072D01*
X147759648Y-99745596D02*
X147753601Y-99757691D01*
X147753601Y-99757691D02*
X147741505Y-99763738D01*
X147741505Y-99763738D02*
X147632648Y-99763738D01*
X147759648Y-99679072D02*
X147753601Y-99691167D01*
X147753601Y-99691167D02*
X147741505Y-99697214D01*
X147741505Y-99697214D02*
X147632648Y-99697214D01*
X147759648Y-99533928D02*
X147674981Y-99533928D01*
X147699172Y-99533928D02*
X147687077Y-99527881D01*
X147687077Y-99527881D02*
X147681029Y-99521833D01*
X147681029Y-99521833D02*
X147674981Y-99509738D01*
X147674981Y-99509738D02*
X147674981Y-99497643D01*
X147759648Y-99455309D02*
X147674981Y-99455309D01*
X147632648Y-99455309D02*
X147638696Y-99461357D01*
X147638696Y-99461357D02*
X147644743Y-99455309D01*
X147644743Y-99455309D02*
X147638696Y-99449262D01*
X147638696Y-99449262D02*
X147632648Y-99455309D01*
X147632648Y-99455309D02*
X147644743Y-99455309D01*
X147674981Y-99340405D02*
X147777791Y-99340405D01*
X147777791Y-99340405D02*
X147789886Y-99346452D01*
X147789886Y-99346452D02*
X147795934Y-99352500D01*
X147795934Y-99352500D02*
X147801981Y-99364595D01*
X147801981Y-99364595D02*
X147801981Y-99382738D01*
X147801981Y-99382738D02*
X147795934Y-99394833D01*
X147753601Y-99340405D02*
X147759648Y-99352500D01*
X147759648Y-99352500D02*
X147759648Y-99376691D01*
X147759648Y-99376691D02*
X147753601Y-99388786D01*
X147753601Y-99388786D02*
X147747553Y-99394833D01*
X147747553Y-99394833D02*
X147735458Y-99400881D01*
X147735458Y-99400881D02*
X147699172Y-99400881D01*
X147699172Y-99400881D02*
X147687077Y-99394833D01*
X147687077Y-99394833D02*
X147681029Y-99388786D01*
X147681029Y-99388786D02*
X147674981Y-99376691D01*
X147674981Y-99376691D02*
X147674981Y-99352500D01*
X147674981Y-99352500D02*
X147681029Y-99340405D01*
X147759648Y-99279928D02*
X147632648Y-99279928D01*
X147759648Y-99225500D02*
X147693124Y-99225500D01*
X147693124Y-99225500D02*
X147681029Y-99231547D01*
X147681029Y-99231547D02*
X147674981Y-99243643D01*
X147674981Y-99243643D02*
X147674981Y-99261786D01*
X147674981Y-99261786D02*
X147681029Y-99273881D01*
X147681029Y-99273881D02*
X147687077Y-99279928D01*
X147674981Y-99183166D02*
X147674981Y-99134785D01*
X147632648Y-99165023D02*
X147741505Y-99165023D01*
X147741505Y-99165023D02*
X147753601Y-99158976D01*
X147753601Y-99158976D02*
X147759648Y-99146881D01*
X147759648Y-99146881D02*
X147759648Y-99134785D01*
X147753601Y-99098500D02*
X147759648Y-99086405D01*
X147759648Y-99086405D02*
X147759648Y-99062214D01*
X147759648Y-99062214D02*
X147753601Y-99050119D01*
X147753601Y-99050119D02*
X147741505Y-99044071D01*
X147741505Y-99044071D02*
X147735458Y-99044071D01*
X147735458Y-99044071D02*
X147723362Y-99050119D01*
X147723362Y-99050119D02*
X147717315Y-99062214D01*
X147717315Y-99062214D02*
X147717315Y-99080357D01*
X147717315Y-99080357D02*
X147711267Y-99092452D01*
X147711267Y-99092452D02*
X147699172Y-99098500D01*
X147699172Y-99098500D02*
X147693124Y-99098500D01*
X147693124Y-99098500D02*
X147681029Y-99092452D01*
X147681029Y-99092452D02*
X147674981Y-99080357D01*
X147674981Y-99080357D02*
X147674981Y-99062214D01*
X147674981Y-99062214D02*
X147681029Y-99050119D01*
X147759648Y-98892880D02*
X147674981Y-98892880D01*
X147699172Y-98892880D02*
X147687077Y-98886833D01*
X147687077Y-98886833D02*
X147681029Y-98880785D01*
X147681029Y-98880785D02*
X147674981Y-98868690D01*
X147674981Y-98868690D02*
X147674981Y-98856595D01*
X147753601Y-98765880D02*
X147759648Y-98777976D01*
X147759648Y-98777976D02*
X147759648Y-98802166D01*
X147759648Y-98802166D02*
X147753601Y-98814261D01*
X147753601Y-98814261D02*
X147741505Y-98820309D01*
X147741505Y-98820309D02*
X147693124Y-98820309D01*
X147693124Y-98820309D02*
X147681029Y-98814261D01*
X147681029Y-98814261D02*
X147674981Y-98802166D01*
X147674981Y-98802166D02*
X147674981Y-98777976D01*
X147674981Y-98777976D02*
X147681029Y-98765880D01*
X147681029Y-98765880D02*
X147693124Y-98759833D01*
X147693124Y-98759833D02*
X147705220Y-98759833D01*
X147705220Y-98759833D02*
X147717315Y-98820309D01*
X147753601Y-98711452D02*
X147759648Y-98699357D01*
X147759648Y-98699357D02*
X147759648Y-98675166D01*
X147759648Y-98675166D02*
X147753601Y-98663071D01*
X147753601Y-98663071D02*
X147741505Y-98657023D01*
X147741505Y-98657023D02*
X147735458Y-98657023D01*
X147735458Y-98657023D02*
X147723362Y-98663071D01*
X147723362Y-98663071D02*
X147717315Y-98675166D01*
X147717315Y-98675166D02*
X147717315Y-98693309D01*
X147717315Y-98693309D02*
X147711267Y-98705404D01*
X147711267Y-98705404D02*
X147699172Y-98711452D01*
X147699172Y-98711452D02*
X147693124Y-98711452D01*
X147693124Y-98711452D02*
X147681029Y-98705404D01*
X147681029Y-98705404D02*
X147674981Y-98693309D01*
X147674981Y-98693309D02*
X147674981Y-98675166D01*
X147674981Y-98675166D02*
X147681029Y-98663071D01*
X147753601Y-98554213D02*
X147759648Y-98566309D01*
X147759648Y-98566309D02*
X147759648Y-98590499D01*
X147759648Y-98590499D02*
X147753601Y-98602594D01*
X147753601Y-98602594D02*
X147741505Y-98608642D01*
X147741505Y-98608642D02*
X147693124Y-98608642D01*
X147693124Y-98608642D02*
X147681029Y-98602594D01*
X147681029Y-98602594D02*
X147674981Y-98590499D01*
X147674981Y-98590499D02*
X147674981Y-98566309D01*
X147674981Y-98566309D02*
X147681029Y-98554213D01*
X147681029Y-98554213D02*
X147693124Y-98548166D01*
X147693124Y-98548166D02*
X147705220Y-98548166D01*
X147705220Y-98548166D02*
X147717315Y-98608642D01*
X147759648Y-98493737D02*
X147674981Y-98493737D01*
X147699172Y-98493737D02*
X147687077Y-98487690D01*
X147687077Y-98487690D02*
X147681029Y-98481642D01*
X147681029Y-98481642D02*
X147674981Y-98469547D01*
X147674981Y-98469547D02*
X147674981Y-98457452D01*
X147674981Y-98427214D02*
X147759648Y-98396976D01*
X147759648Y-98396976D02*
X147674981Y-98366737D01*
X147753601Y-98269975D02*
X147759648Y-98282071D01*
X147759648Y-98282071D02*
X147759648Y-98306261D01*
X147759648Y-98306261D02*
X147753601Y-98318356D01*
X147753601Y-98318356D02*
X147741505Y-98324404D01*
X147741505Y-98324404D02*
X147693124Y-98324404D01*
X147693124Y-98324404D02*
X147681029Y-98318356D01*
X147681029Y-98318356D02*
X147674981Y-98306261D01*
X147674981Y-98306261D02*
X147674981Y-98282071D01*
X147674981Y-98282071D02*
X147681029Y-98269975D01*
X147681029Y-98269975D02*
X147693124Y-98263928D01*
X147693124Y-98263928D02*
X147705220Y-98263928D01*
X147705220Y-98263928D02*
X147717315Y-98324404D01*
X147759648Y-98155071D02*
X147632648Y-98155071D01*
X147753601Y-98155071D02*
X147759648Y-98167166D01*
X147759648Y-98167166D02*
X147759648Y-98191357D01*
X147759648Y-98191357D02*
X147753601Y-98203452D01*
X147753601Y-98203452D02*
X147747553Y-98209499D01*
X147747553Y-98209499D02*
X147735458Y-98215547D01*
X147735458Y-98215547D02*
X147699172Y-98215547D01*
X147699172Y-98215547D02*
X147687077Y-98209499D01*
X147687077Y-98209499D02*
X147681029Y-98203452D01*
X147681029Y-98203452D02*
X147674981Y-98191357D01*
X147674981Y-98191357D02*
X147674981Y-98167166D01*
X147674981Y-98167166D02*
X147681029Y-98155071D01*
X147747553Y-98094594D02*
X147753601Y-98088547D01*
X147753601Y-98088547D02*
X147759648Y-98094594D01*
X147759648Y-98094594D02*
X147753601Y-98100642D01*
X147753601Y-98100642D02*
X147747553Y-98094594D01*
X147747553Y-98094594D02*
X147759648Y-98094594D01*
X161014553Y-100807833D02*
X161020601Y-100813881D01*
X161020601Y-100813881D02*
X161026648Y-100832023D01*
X161026648Y-100832023D02*
X161026648Y-100844119D01*
X161026648Y-100844119D02*
X161020601Y-100862262D01*
X161020601Y-100862262D02*
X161008505Y-100874357D01*
X161008505Y-100874357D02*
X160996410Y-100880404D01*
X160996410Y-100880404D02*
X160972220Y-100886452D01*
X160972220Y-100886452D02*
X160954077Y-100886452D01*
X160954077Y-100886452D02*
X160929886Y-100880404D01*
X160929886Y-100880404D02*
X160917791Y-100874357D01*
X160917791Y-100874357D02*
X160905696Y-100862262D01*
X160905696Y-100862262D02*
X160899648Y-100844119D01*
X160899648Y-100844119D02*
X160899648Y-100832023D01*
X160899648Y-100832023D02*
X160905696Y-100813881D01*
X160905696Y-100813881D02*
X160911743Y-100807833D01*
X161026648Y-100735262D02*
X161020601Y-100747357D01*
X161020601Y-100747357D02*
X161014553Y-100753404D01*
X161014553Y-100753404D02*
X161002458Y-100759452D01*
X161002458Y-100759452D02*
X160966172Y-100759452D01*
X160966172Y-100759452D02*
X160954077Y-100753404D01*
X160954077Y-100753404D02*
X160948029Y-100747357D01*
X160948029Y-100747357D02*
X160941981Y-100735262D01*
X160941981Y-100735262D02*
X160941981Y-100717119D01*
X160941981Y-100717119D02*
X160948029Y-100705023D01*
X160948029Y-100705023D02*
X160954077Y-100698976D01*
X160954077Y-100698976D02*
X160966172Y-100692928D01*
X160966172Y-100692928D02*
X161002458Y-100692928D01*
X161002458Y-100692928D02*
X161014553Y-100698976D01*
X161014553Y-100698976D02*
X161020601Y-100705023D01*
X161020601Y-100705023D02*
X161026648Y-100717119D01*
X161026648Y-100717119D02*
X161026648Y-100735262D01*
X160941981Y-100638499D02*
X161068981Y-100638499D01*
X160948029Y-100638499D02*
X160941981Y-100626404D01*
X160941981Y-100626404D02*
X160941981Y-100602214D01*
X160941981Y-100602214D02*
X160948029Y-100590118D01*
X160948029Y-100590118D02*
X160954077Y-100584071D01*
X160954077Y-100584071D02*
X160966172Y-100578023D01*
X160966172Y-100578023D02*
X161002458Y-100578023D01*
X161002458Y-100578023D02*
X161014553Y-100584071D01*
X161014553Y-100584071D02*
X161020601Y-100590118D01*
X161020601Y-100590118D02*
X161026648Y-100602214D01*
X161026648Y-100602214D02*
X161026648Y-100626404D01*
X161026648Y-100626404D02*
X161020601Y-100638499D01*
X160941981Y-100535690D02*
X161026648Y-100505452D01*
X160941981Y-100475213D02*
X161026648Y-100505452D01*
X161026648Y-100505452D02*
X161056886Y-100517547D01*
X161056886Y-100517547D02*
X161062934Y-100523594D01*
X161062934Y-100523594D02*
X161068981Y-100535690D01*
X161026648Y-100426832D02*
X160941981Y-100426832D01*
X160966172Y-100426832D02*
X160954077Y-100420785D01*
X160954077Y-100420785D02*
X160948029Y-100414737D01*
X160948029Y-100414737D02*
X160941981Y-100402642D01*
X160941981Y-100402642D02*
X160941981Y-100390547D01*
X161026648Y-100348213D02*
X160941981Y-100348213D01*
X160899648Y-100348213D02*
X160905696Y-100354261D01*
X160905696Y-100354261D02*
X160911743Y-100348213D01*
X160911743Y-100348213D02*
X160905696Y-100342166D01*
X160905696Y-100342166D02*
X160899648Y-100348213D01*
X160899648Y-100348213D02*
X160911743Y-100348213D01*
X160941981Y-100233309D02*
X161044791Y-100233309D01*
X161044791Y-100233309D02*
X161056886Y-100239356D01*
X161056886Y-100239356D02*
X161062934Y-100245404D01*
X161062934Y-100245404D02*
X161068981Y-100257499D01*
X161068981Y-100257499D02*
X161068981Y-100275642D01*
X161068981Y-100275642D02*
X161062934Y-100287737D01*
X161020601Y-100233309D02*
X161026648Y-100245404D01*
X161026648Y-100245404D02*
X161026648Y-100269595D01*
X161026648Y-100269595D02*
X161020601Y-100281690D01*
X161020601Y-100281690D02*
X161014553Y-100287737D01*
X161014553Y-100287737D02*
X161002458Y-100293785D01*
X161002458Y-100293785D02*
X160966172Y-100293785D01*
X160966172Y-100293785D02*
X160954077Y-100287737D01*
X160954077Y-100287737D02*
X160948029Y-100281690D01*
X160948029Y-100281690D02*
X160941981Y-100269595D01*
X160941981Y-100269595D02*
X160941981Y-100245404D01*
X160941981Y-100245404D02*
X160948029Y-100233309D01*
X161026648Y-100172832D02*
X160899648Y-100172832D01*
X161026648Y-100118404D02*
X160960124Y-100118404D01*
X160960124Y-100118404D02*
X160948029Y-100124451D01*
X160948029Y-100124451D02*
X160941981Y-100136547D01*
X160941981Y-100136547D02*
X160941981Y-100154690D01*
X160941981Y-100154690D02*
X160948029Y-100166785D01*
X160948029Y-100166785D02*
X160954077Y-100172832D01*
X160941981Y-100076070D02*
X160941981Y-100027689D01*
X160899648Y-100057927D02*
X161008505Y-100057927D01*
X161008505Y-100057927D02*
X161020601Y-100051880D01*
X161020601Y-100051880D02*
X161026648Y-100039785D01*
X161026648Y-100039785D02*
X161026648Y-100027689D01*
X160911743Y-99894642D02*
X160905696Y-99888594D01*
X160905696Y-99888594D02*
X160899648Y-99876499D01*
X160899648Y-99876499D02*
X160899648Y-99846261D01*
X160899648Y-99846261D02*
X160905696Y-99834166D01*
X160905696Y-99834166D02*
X160911743Y-99828118D01*
X160911743Y-99828118D02*
X160923839Y-99822071D01*
X160923839Y-99822071D02*
X160935934Y-99822071D01*
X160935934Y-99822071D02*
X160954077Y-99828118D01*
X160954077Y-99828118D02*
X161026648Y-99900690D01*
X161026648Y-99900690D02*
X161026648Y-99822071D01*
X160899648Y-99743452D02*
X160899648Y-99731357D01*
X160899648Y-99731357D02*
X160905696Y-99719261D01*
X160905696Y-99719261D02*
X160911743Y-99713214D01*
X160911743Y-99713214D02*
X160923839Y-99707166D01*
X160923839Y-99707166D02*
X160948029Y-99701119D01*
X160948029Y-99701119D02*
X160978267Y-99701119D01*
X160978267Y-99701119D02*
X161002458Y-99707166D01*
X161002458Y-99707166D02*
X161014553Y-99713214D01*
X161014553Y-99713214D02*
X161020601Y-99719261D01*
X161020601Y-99719261D02*
X161026648Y-99731357D01*
X161026648Y-99731357D02*
X161026648Y-99743452D01*
X161026648Y-99743452D02*
X161020601Y-99755547D01*
X161020601Y-99755547D02*
X161014553Y-99761595D01*
X161014553Y-99761595D02*
X161002458Y-99767642D01*
X161002458Y-99767642D02*
X160978267Y-99773690D01*
X160978267Y-99773690D02*
X160948029Y-99773690D01*
X160948029Y-99773690D02*
X160923839Y-99767642D01*
X160923839Y-99767642D02*
X160911743Y-99761595D01*
X160911743Y-99761595D02*
X160905696Y-99755547D01*
X160905696Y-99755547D02*
X160899648Y-99743452D01*
X161026648Y-99580167D02*
X161026648Y-99652738D01*
X161026648Y-99616452D02*
X160899648Y-99616452D01*
X160899648Y-99616452D02*
X160917791Y-99628548D01*
X160917791Y-99628548D02*
X160929886Y-99640643D01*
X160929886Y-99640643D02*
X160935934Y-99652738D01*
X160899648Y-99471310D02*
X160899648Y-99495500D01*
X160899648Y-99495500D02*
X160905696Y-99507596D01*
X160905696Y-99507596D02*
X160911743Y-99513643D01*
X160911743Y-99513643D02*
X160929886Y-99525738D01*
X160929886Y-99525738D02*
X160954077Y-99531786D01*
X160954077Y-99531786D02*
X161002458Y-99531786D01*
X161002458Y-99531786D02*
X161014553Y-99525738D01*
X161014553Y-99525738D02*
X161020601Y-99519691D01*
X161020601Y-99519691D02*
X161026648Y-99507596D01*
X161026648Y-99507596D02*
X161026648Y-99483405D01*
X161026648Y-99483405D02*
X161020601Y-99471310D01*
X161020601Y-99471310D02*
X161014553Y-99465262D01*
X161014553Y-99465262D02*
X161002458Y-99459215D01*
X161002458Y-99459215D02*
X160972220Y-99459215D01*
X160972220Y-99459215D02*
X160960124Y-99465262D01*
X160960124Y-99465262D02*
X160954077Y-99471310D01*
X160954077Y-99471310D02*
X160948029Y-99483405D01*
X160948029Y-99483405D02*
X160948029Y-99507596D01*
X160948029Y-99507596D02*
X160954077Y-99519691D01*
X160954077Y-99519691D02*
X160960124Y-99525738D01*
X160960124Y-99525738D02*
X160972220Y-99531786D01*
X160990362Y-99314072D02*
X160990362Y-99253596D01*
X161026648Y-99326167D02*
X160899648Y-99283834D01*
X160899648Y-99283834D02*
X161026648Y-99241501D01*
X161020601Y-99144739D02*
X161026648Y-99156834D01*
X161026648Y-99156834D02*
X161026648Y-99181025D01*
X161026648Y-99181025D02*
X161020601Y-99193120D01*
X161020601Y-99193120D02*
X161014553Y-99199167D01*
X161014553Y-99199167D02*
X161002458Y-99205215D01*
X161002458Y-99205215D02*
X160966172Y-99205215D01*
X160966172Y-99205215D02*
X160954077Y-99199167D01*
X160954077Y-99199167D02*
X160948029Y-99193120D01*
X160948029Y-99193120D02*
X160941981Y-99181025D01*
X160941981Y-99181025D02*
X160941981Y-99156834D01*
X160941981Y-99156834D02*
X160948029Y-99144739D01*
X161020601Y-99035882D02*
X161026648Y-99047977D01*
X161026648Y-99047977D02*
X161026648Y-99072168D01*
X161026648Y-99072168D02*
X161020601Y-99084263D01*
X161020601Y-99084263D02*
X161014553Y-99090310D01*
X161014553Y-99090310D02*
X161002458Y-99096358D01*
X161002458Y-99096358D02*
X160966172Y-99096358D01*
X160966172Y-99096358D02*
X160954077Y-99090310D01*
X160954077Y-99090310D02*
X160948029Y-99084263D01*
X160948029Y-99084263D02*
X160941981Y-99072168D01*
X160941981Y-99072168D02*
X160941981Y-99047977D01*
X160941981Y-99047977D02*
X160948029Y-99035882D01*
X161020601Y-98933072D02*
X161026648Y-98945168D01*
X161026648Y-98945168D02*
X161026648Y-98969358D01*
X161026648Y-98969358D02*
X161020601Y-98981453D01*
X161020601Y-98981453D02*
X161008505Y-98987501D01*
X161008505Y-98987501D02*
X160960124Y-98987501D01*
X160960124Y-98987501D02*
X160948029Y-98981453D01*
X160948029Y-98981453D02*
X160941981Y-98969358D01*
X160941981Y-98969358D02*
X160941981Y-98945168D01*
X160941981Y-98945168D02*
X160948029Y-98933072D01*
X160948029Y-98933072D02*
X160960124Y-98927025D01*
X160960124Y-98927025D02*
X160972220Y-98927025D01*
X160972220Y-98927025D02*
X160984315Y-98987501D01*
X161026648Y-98854454D02*
X161020601Y-98866549D01*
X161020601Y-98866549D02*
X161008505Y-98872596D01*
X161008505Y-98872596D02*
X160899648Y-98872596D01*
X161020601Y-98757691D02*
X161026648Y-98769787D01*
X161026648Y-98769787D02*
X161026648Y-98793977D01*
X161026648Y-98793977D02*
X161020601Y-98806072D01*
X161020601Y-98806072D02*
X161008505Y-98812120D01*
X161008505Y-98812120D02*
X160960124Y-98812120D01*
X160960124Y-98812120D02*
X160948029Y-98806072D01*
X160948029Y-98806072D02*
X160941981Y-98793977D01*
X160941981Y-98793977D02*
X160941981Y-98769787D01*
X160941981Y-98769787D02*
X160948029Y-98757691D01*
X160948029Y-98757691D02*
X160960124Y-98751644D01*
X160960124Y-98751644D02*
X160972220Y-98751644D01*
X160972220Y-98751644D02*
X160984315Y-98812120D01*
X161026648Y-98697215D02*
X160941981Y-98697215D01*
X160966172Y-98697215D02*
X160954077Y-98691168D01*
X160954077Y-98691168D02*
X160948029Y-98685120D01*
X160948029Y-98685120D02*
X160941981Y-98673025D01*
X160941981Y-98673025D02*
X160941981Y-98660930D01*
X161026648Y-98564168D02*
X160960124Y-98564168D01*
X160960124Y-98564168D02*
X160948029Y-98570215D01*
X160948029Y-98570215D02*
X160941981Y-98582311D01*
X160941981Y-98582311D02*
X160941981Y-98606501D01*
X160941981Y-98606501D02*
X160948029Y-98618596D01*
X161020601Y-98564168D02*
X161026648Y-98576263D01*
X161026648Y-98576263D02*
X161026648Y-98606501D01*
X161026648Y-98606501D02*
X161020601Y-98618596D01*
X161020601Y-98618596D02*
X161008505Y-98624644D01*
X161008505Y-98624644D02*
X160996410Y-98624644D01*
X160996410Y-98624644D02*
X160984315Y-98618596D01*
X160984315Y-98618596D02*
X160978267Y-98606501D01*
X160978267Y-98606501D02*
X160978267Y-98576263D01*
X160978267Y-98576263D02*
X160972220Y-98564168D01*
X160941981Y-98521834D02*
X160941981Y-98473453D01*
X160899648Y-98503691D02*
X161008505Y-98503691D01*
X161008505Y-98503691D02*
X161020601Y-98497644D01*
X161020601Y-98497644D02*
X161026648Y-98485549D01*
X161026648Y-98485549D02*
X161026648Y-98473453D01*
X161020601Y-98382739D02*
X161026648Y-98394835D01*
X161026648Y-98394835D02*
X161026648Y-98419025D01*
X161026648Y-98419025D02*
X161020601Y-98431120D01*
X161020601Y-98431120D02*
X161008505Y-98437168D01*
X161008505Y-98437168D02*
X160960124Y-98437168D01*
X160960124Y-98437168D02*
X160948029Y-98431120D01*
X160948029Y-98431120D02*
X160941981Y-98419025D01*
X160941981Y-98419025D02*
X160941981Y-98394835D01*
X160941981Y-98394835D02*
X160948029Y-98382739D01*
X160948029Y-98382739D02*
X160960124Y-98376692D01*
X160960124Y-98376692D02*
X160972220Y-98376692D01*
X160972220Y-98376692D02*
X160984315Y-98437168D01*
X161026648Y-98267835D02*
X160899648Y-98267835D01*
X161020601Y-98267835D02*
X161026648Y-98279930D01*
X161026648Y-98279930D02*
X161026648Y-98304121D01*
X161026648Y-98304121D02*
X161020601Y-98316216D01*
X161020601Y-98316216D02*
X161014553Y-98322263D01*
X161014553Y-98322263D02*
X161002458Y-98328311D01*
X161002458Y-98328311D02*
X160966172Y-98328311D01*
X160966172Y-98328311D02*
X160954077Y-98322263D01*
X160954077Y-98322263D02*
X160948029Y-98316216D01*
X160948029Y-98316216D02*
X160941981Y-98304121D01*
X160941981Y-98304121D02*
X160941981Y-98279930D01*
X160941981Y-98279930D02*
X160948029Y-98267835D01*
X161026648Y-98110596D02*
X160899648Y-98110596D01*
X160899648Y-98110596D02*
X160899648Y-98080358D01*
X160899648Y-98080358D02*
X160905696Y-98062215D01*
X160905696Y-98062215D02*
X160917791Y-98050120D01*
X160917791Y-98050120D02*
X160929886Y-98044073D01*
X160929886Y-98044073D02*
X160954077Y-98038025D01*
X160954077Y-98038025D02*
X160972220Y-98038025D01*
X160972220Y-98038025D02*
X160996410Y-98044073D01*
X160996410Y-98044073D02*
X161008505Y-98050120D01*
X161008505Y-98050120D02*
X161020601Y-98062215D01*
X161020601Y-98062215D02*
X161026648Y-98080358D01*
X161026648Y-98080358D02*
X161026648Y-98110596D01*
X161020601Y-97935215D02*
X161026648Y-97947311D01*
X161026648Y-97947311D02*
X161026648Y-97971501D01*
X161026648Y-97971501D02*
X161020601Y-97983596D01*
X161020601Y-97983596D02*
X161008505Y-97989644D01*
X161008505Y-97989644D02*
X160960124Y-97989644D01*
X160960124Y-97989644D02*
X160948029Y-97983596D01*
X160948029Y-97983596D02*
X160941981Y-97971501D01*
X160941981Y-97971501D02*
X160941981Y-97947311D01*
X160941981Y-97947311D02*
X160948029Y-97935215D01*
X160948029Y-97935215D02*
X160960124Y-97929168D01*
X160960124Y-97929168D02*
X160972220Y-97929168D01*
X160972220Y-97929168D02*
X160984315Y-97989644D01*
X161020601Y-97880787D02*
X161026648Y-97868692D01*
X161026648Y-97868692D02*
X161026648Y-97844501D01*
X161026648Y-97844501D02*
X161020601Y-97832406D01*
X161020601Y-97832406D02*
X161008505Y-97826358D01*
X161008505Y-97826358D02*
X161002458Y-97826358D01*
X161002458Y-97826358D02*
X160990362Y-97832406D01*
X160990362Y-97832406D02*
X160984315Y-97844501D01*
X160984315Y-97844501D02*
X160984315Y-97862644D01*
X160984315Y-97862644D02*
X160978267Y-97874739D01*
X160978267Y-97874739D02*
X160966172Y-97880787D01*
X160966172Y-97880787D02*
X160960124Y-97880787D01*
X160960124Y-97880787D02*
X160948029Y-97874739D01*
X160948029Y-97874739D02*
X160941981Y-97862644D01*
X160941981Y-97862644D02*
X160941981Y-97844501D01*
X160941981Y-97844501D02*
X160948029Y-97832406D01*
X161026648Y-97771929D02*
X160941981Y-97771929D01*
X160899648Y-97771929D02*
X160905696Y-97777977D01*
X160905696Y-97777977D02*
X160911743Y-97771929D01*
X160911743Y-97771929D02*
X160905696Y-97765882D01*
X160905696Y-97765882D02*
X160899648Y-97771929D01*
X160899648Y-97771929D02*
X160911743Y-97771929D01*
X160941981Y-97657025D02*
X161044791Y-97657025D01*
X161044791Y-97657025D02*
X161056886Y-97663072D01*
X161056886Y-97663072D02*
X161062934Y-97669120D01*
X161062934Y-97669120D02*
X161068981Y-97681215D01*
X161068981Y-97681215D02*
X161068981Y-97699358D01*
X161068981Y-97699358D02*
X161062934Y-97711453D01*
X161020601Y-97657025D02*
X161026648Y-97669120D01*
X161026648Y-97669120D02*
X161026648Y-97693311D01*
X161026648Y-97693311D02*
X161020601Y-97705406D01*
X161020601Y-97705406D02*
X161014553Y-97711453D01*
X161014553Y-97711453D02*
X161002458Y-97717501D01*
X161002458Y-97717501D02*
X160966172Y-97717501D01*
X160966172Y-97717501D02*
X160954077Y-97711453D01*
X160954077Y-97711453D02*
X160948029Y-97705406D01*
X160948029Y-97705406D02*
X160941981Y-97693311D01*
X160941981Y-97693311D02*
X160941981Y-97669120D01*
X160941981Y-97669120D02*
X160948029Y-97657025D01*
X160941981Y-97596548D02*
X161026648Y-97596548D01*
X160954077Y-97596548D02*
X160948029Y-97590501D01*
X160948029Y-97590501D02*
X160941981Y-97578406D01*
X160941981Y-97578406D02*
X160941981Y-97560263D01*
X160941981Y-97560263D02*
X160948029Y-97548167D01*
X160948029Y-97548167D02*
X160960124Y-97542120D01*
X160960124Y-97542120D02*
X161026648Y-97542120D01*
X161020601Y-97487691D02*
X161026648Y-97475596D01*
X161026648Y-97475596D02*
X161026648Y-97451405D01*
X161026648Y-97451405D02*
X161020601Y-97439310D01*
X161020601Y-97439310D02*
X161008505Y-97433262D01*
X161008505Y-97433262D02*
X161002458Y-97433262D01*
X161002458Y-97433262D02*
X160990362Y-97439310D01*
X160990362Y-97439310D02*
X160984315Y-97451405D01*
X160984315Y-97451405D02*
X160984315Y-97469548D01*
X160984315Y-97469548D02*
X160978267Y-97481643D01*
X160978267Y-97481643D02*
X160966172Y-97487691D01*
X160966172Y-97487691D02*
X160960124Y-97487691D01*
X160960124Y-97487691D02*
X160948029Y-97481643D01*
X160948029Y-97481643D02*
X160941981Y-97469548D01*
X160941981Y-97469548D02*
X160941981Y-97451405D01*
X160941981Y-97451405D02*
X160948029Y-97439310D01*
X161014553Y-97378833D02*
X161020601Y-97372786D01*
X161020601Y-97372786D02*
X161026648Y-97378833D01*
X161026648Y-97378833D02*
X161020601Y-97384881D01*
X161020601Y-97384881D02*
X161014553Y-97378833D01*
X161014553Y-97378833D02*
X161026648Y-97378833D01*
X160990362Y-97227643D02*
X160990362Y-97167167D01*
X161026648Y-97239738D02*
X160899648Y-97197405D01*
X160899648Y-97197405D02*
X161026648Y-97155072D01*
X161026648Y-97094596D02*
X161020601Y-97106691D01*
X161020601Y-97106691D02*
X161008505Y-97112738D01*
X161008505Y-97112738D02*
X160899648Y-97112738D01*
X161026648Y-97028072D02*
X161020601Y-97040167D01*
X161020601Y-97040167D02*
X161008505Y-97046214D01*
X161008505Y-97046214D02*
X160899648Y-97046214D01*
X161026648Y-96882928D02*
X160941981Y-96882928D01*
X160966172Y-96882928D02*
X160954077Y-96876881D01*
X160954077Y-96876881D02*
X160948029Y-96870833D01*
X160948029Y-96870833D02*
X160941981Y-96858738D01*
X160941981Y-96858738D02*
X160941981Y-96846643D01*
X161026648Y-96804309D02*
X160941981Y-96804309D01*
X160899648Y-96804309D02*
X160905696Y-96810357D01*
X160905696Y-96810357D02*
X160911743Y-96804309D01*
X160911743Y-96804309D02*
X160905696Y-96798262D01*
X160905696Y-96798262D02*
X160899648Y-96804309D01*
X160899648Y-96804309D02*
X160911743Y-96804309D01*
X160941981Y-96689405D02*
X161044791Y-96689405D01*
X161044791Y-96689405D02*
X161056886Y-96695452D01*
X161056886Y-96695452D02*
X161062934Y-96701500D01*
X161062934Y-96701500D02*
X161068981Y-96713595D01*
X161068981Y-96713595D02*
X161068981Y-96731738D01*
X161068981Y-96731738D02*
X161062934Y-96743833D01*
X161020601Y-96689405D02*
X161026648Y-96701500D01*
X161026648Y-96701500D02*
X161026648Y-96725691D01*
X161026648Y-96725691D02*
X161020601Y-96737786D01*
X161020601Y-96737786D02*
X161014553Y-96743833D01*
X161014553Y-96743833D02*
X161002458Y-96749881D01*
X161002458Y-96749881D02*
X160966172Y-96749881D01*
X160966172Y-96749881D02*
X160954077Y-96743833D01*
X160954077Y-96743833D02*
X160948029Y-96737786D01*
X160948029Y-96737786D02*
X160941981Y-96725691D01*
X160941981Y-96725691D02*
X160941981Y-96701500D01*
X160941981Y-96701500D02*
X160948029Y-96689405D01*
X161026648Y-96628928D02*
X160899648Y-96628928D01*
X161026648Y-96574500D02*
X160960124Y-96574500D01*
X160960124Y-96574500D02*
X160948029Y-96580547D01*
X160948029Y-96580547D02*
X160941981Y-96592643D01*
X160941981Y-96592643D02*
X160941981Y-96610786D01*
X160941981Y-96610786D02*
X160948029Y-96622881D01*
X160948029Y-96622881D02*
X160954077Y-96628928D01*
X160941981Y-96532166D02*
X160941981Y-96483785D01*
X160899648Y-96514023D02*
X161008505Y-96514023D01*
X161008505Y-96514023D02*
X161020601Y-96507976D01*
X161020601Y-96507976D02*
X161026648Y-96495881D01*
X161026648Y-96495881D02*
X161026648Y-96483785D01*
X161020601Y-96447500D02*
X161026648Y-96435405D01*
X161026648Y-96435405D02*
X161026648Y-96411214D01*
X161026648Y-96411214D02*
X161020601Y-96399119D01*
X161020601Y-96399119D02*
X161008505Y-96393071D01*
X161008505Y-96393071D02*
X161002458Y-96393071D01*
X161002458Y-96393071D02*
X160990362Y-96399119D01*
X160990362Y-96399119D02*
X160984315Y-96411214D01*
X160984315Y-96411214D02*
X160984315Y-96429357D01*
X160984315Y-96429357D02*
X160978267Y-96441452D01*
X160978267Y-96441452D02*
X160966172Y-96447500D01*
X160966172Y-96447500D02*
X160960124Y-96447500D01*
X160960124Y-96447500D02*
X160948029Y-96441452D01*
X160948029Y-96441452D02*
X160941981Y-96429357D01*
X160941981Y-96429357D02*
X160941981Y-96411214D01*
X160941981Y-96411214D02*
X160948029Y-96399119D01*
X161026648Y-96241880D02*
X160941981Y-96241880D01*
X160966172Y-96241880D02*
X160954077Y-96235833D01*
X160954077Y-96235833D02*
X160948029Y-96229785D01*
X160948029Y-96229785D02*
X160941981Y-96217690D01*
X160941981Y-96217690D02*
X160941981Y-96205595D01*
X161020601Y-96114880D02*
X161026648Y-96126976D01*
X161026648Y-96126976D02*
X161026648Y-96151166D01*
X161026648Y-96151166D02*
X161020601Y-96163261D01*
X161020601Y-96163261D02*
X161008505Y-96169309D01*
X161008505Y-96169309D02*
X160960124Y-96169309D01*
X160960124Y-96169309D02*
X160948029Y-96163261D01*
X160948029Y-96163261D02*
X160941981Y-96151166D01*
X160941981Y-96151166D02*
X160941981Y-96126976D01*
X160941981Y-96126976D02*
X160948029Y-96114880D01*
X160948029Y-96114880D02*
X160960124Y-96108833D01*
X160960124Y-96108833D02*
X160972220Y-96108833D01*
X160972220Y-96108833D02*
X160984315Y-96169309D01*
X161020601Y-96060452D02*
X161026648Y-96048357D01*
X161026648Y-96048357D02*
X161026648Y-96024166D01*
X161026648Y-96024166D02*
X161020601Y-96012071D01*
X161020601Y-96012071D02*
X161008505Y-96006023D01*
X161008505Y-96006023D02*
X161002458Y-96006023D01*
X161002458Y-96006023D02*
X160990362Y-96012071D01*
X160990362Y-96012071D02*
X160984315Y-96024166D01*
X160984315Y-96024166D02*
X160984315Y-96042309D01*
X160984315Y-96042309D02*
X160978267Y-96054404D01*
X160978267Y-96054404D02*
X160966172Y-96060452D01*
X160966172Y-96060452D02*
X160960124Y-96060452D01*
X160960124Y-96060452D02*
X160948029Y-96054404D01*
X160948029Y-96054404D02*
X160941981Y-96042309D01*
X160941981Y-96042309D02*
X160941981Y-96024166D01*
X160941981Y-96024166D02*
X160948029Y-96012071D01*
X161020601Y-95903213D02*
X161026648Y-95915309D01*
X161026648Y-95915309D02*
X161026648Y-95939499D01*
X161026648Y-95939499D02*
X161020601Y-95951594D01*
X161020601Y-95951594D02*
X161008505Y-95957642D01*
X161008505Y-95957642D02*
X160960124Y-95957642D01*
X160960124Y-95957642D02*
X160948029Y-95951594D01*
X160948029Y-95951594D02*
X160941981Y-95939499D01*
X160941981Y-95939499D02*
X160941981Y-95915309D01*
X160941981Y-95915309D02*
X160948029Y-95903213D01*
X160948029Y-95903213D02*
X160960124Y-95897166D01*
X160960124Y-95897166D02*
X160972220Y-95897166D01*
X160972220Y-95897166D02*
X160984315Y-95957642D01*
X161026648Y-95842737D02*
X160941981Y-95842737D01*
X160966172Y-95842737D02*
X160954077Y-95836690D01*
X160954077Y-95836690D02*
X160948029Y-95830642D01*
X160948029Y-95830642D02*
X160941981Y-95818547D01*
X160941981Y-95818547D02*
X160941981Y-95806452D01*
X160941981Y-95776214D02*
X161026648Y-95745976D01*
X161026648Y-95745976D02*
X160941981Y-95715737D01*
X161020601Y-95618975D02*
X161026648Y-95631071D01*
X161026648Y-95631071D02*
X161026648Y-95655261D01*
X161026648Y-95655261D02*
X161020601Y-95667356D01*
X161020601Y-95667356D02*
X161008505Y-95673404D01*
X161008505Y-95673404D02*
X160960124Y-95673404D01*
X160960124Y-95673404D02*
X160948029Y-95667356D01*
X160948029Y-95667356D02*
X160941981Y-95655261D01*
X160941981Y-95655261D02*
X160941981Y-95631071D01*
X160941981Y-95631071D02*
X160948029Y-95618975D01*
X160948029Y-95618975D02*
X160960124Y-95612928D01*
X160960124Y-95612928D02*
X160972220Y-95612928D01*
X160972220Y-95612928D02*
X160984315Y-95673404D01*
X161026648Y-95504071D02*
X160899648Y-95504071D01*
X161020601Y-95504071D02*
X161026648Y-95516166D01*
X161026648Y-95516166D02*
X161026648Y-95540357D01*
X161026648Y-95540357D02*
X161020601Y-95552452D01*
X161020601Y-95552452D02*
X161014553Y-95558499D01*
X161014553Y-95558499D02*
X161002458Y-95564547D01*
X161002458Y-95564547D02*
X160966172Y-95564547D01*
X160966172Y-95564547D02*
X160954077Y-95558499D01*
X160954077Y-95558499D02*
X160948029Y-95552452D01*
X160948029Y-95552452D02*
X160941981Y-95540357D01*
X160941981Y-95540357D02*
X160941981Y-95516166D01*
X160941981Y-95516166D02*
X160948029Y-95504071D01*
X161014553Y-95443594D02*
X161020601Y-95437547D01*
X161020601Y-95437547D02*
X161026648Y-95443594D01*
X161026648Y-95443594D02*
X161020601Y-95449642D01*
X161020601Y-95449642D02*
X161014553Y-95443594D01*
X161014553Y-95443594D02*
X161026648Y-95443594D01*
D10*
X94910000Y-120650000D02*
G75*
G03*
X94910000Y-120650000I-2200000J0D01*
G01*
X94910000Y-75565000D02*
G75*
G03*
X94910000Y-75565000I-2200000J0D01*
G01*
X178095000Y-75692000D02*
G75*
G03*
X178095000Y-75692000I-2200000J0D01*
G01*
X178222000Y-120650000D02*
G75*
G03*
X178222000Y-120650000I-2200000J0D01*
G01*
M02*
